M48
INCH
T01C0.019
T02C0.022
T03C0.03
T04C0.04
T05C0.0433
T06C0.063
T07C0.08
T08C0.12
%
T01
X+029315Y+020440
X+023690Y+021003
X+021690Y+020440
X+021690Y+021690
X+019815Y+020627
X+010440Y+022690
X+011440Y+029440
X+011690Y+030690
X+023549Y+030440
X+030690Y+032190
X+033940Y+032815
X+034315Y+031440
X+033190Y+035690
X+031190Y+037940
X+032440Y+041690
X+029940Y+044690
X+038690Y+046940
X+044440Y+046940
X+041440Y+041690
X+047940Y+035190
X+049940Y+035940
X+049940Y+037690
X+054690Y+034690
X+059565Y+030690
X+057565Y+029065
X+057565Y+027190
X+057690Y+021003
X+055940Y+021003
X+051065Y+022565
X+045815Y+023565
X+044440Y+021003
X+042815Y+021003
X+037190Y+022440
X+036815Y+021065
X+035190Y+021003
X+037190Y+023940
X+064315Y+023565
X+064690Y+021003
X+066815Y+021065
X+016440Y+046940
T02
X+012440Y+027690
X+012440Y+026690
X+012440Y+025690
X+012440Y+024690
X+012440Y+023690
X+012440Y+022690
X+012440Y+021690
X+015440Y+021690
X+015440Y+022690
X+015440Y+023690
X+015440Y+024690
X+015440Y+025690
X+015440Y+026690
X+015440Y+027690
X+015440Y+028690
X+020690Y+027690
X+020690Y+026690
X+020690Y+025690
X+020690Y+024690
X+020690Y+023690
X+020690Y+022690
X+020690Y+021690
X+023690Y+021690
X+023690Y+022690
X+023690Y+023690
X+023690Y+024690
X+023690Y+025690
X+023690Y+026690
X+023690Y+027690
X+023690Y+028690
X+035940Y+027690
X+035940Y+026690
X+035940Y+025690
X+035940Y+024690
X+035940Y+023690
X+035940Y+022690
X+035940Y+021690
X+038940Y+021690
X+038940Y+022690
X+038940Y+023690
X+038940Y+024690
X+038940Y+025690
X+038940Y+026690
X+038940Y+027690
X+038940Y+028690
X+043690Y+027690
X+043690Y+026690
X+043690Y+025690
X+043690Y+024690
X+043690Y+023690
X+043690Y+022690
X+043690Y+021690
X+046690Y+021690
X+046690Y+022690
X+046690Y+023690
X+046690Y+024690
X+046690Y+025690
X+046690Y+026690
X+046690Y+027690
X+046690Y+028690
X+056690Y+027690
X+056690Y+026690
X+056690Y+025690
X+056690Y+024690
X+056690Y+023690
X+056690Y+022690
X+056690Y+021690
X+059690Y+021690
X+059690Y+022690
X+059690Y+023690
X+059690Y+024690
X+059690Y+025690
X+059690Y+026690
X+059690Y+027690
X+059690Y+028690
X+066440Y+027690
X+066440Y+026690
X+066440Y+025690
X+066440Y+024690
X+066440Y+023690
X+066440Y+022690
X+066440Y+021690
X+069440Y+021690
X+069440Y+022690
X+069440Y+023690
X+069440Y+024690
X+069440Y+025690
X+069440Y+026690
X+069440Y+027690
X+069440Y+028690
X+068690Y+013190
X+068190Y+013190
X+067690Y+013190
X+067190Y+013190
X+060690Y+013190
X+060190Y+013190
X+059690Y+013190
X+059190Y+013190
X+052690Y+013190
X+052190Y+013190
X+051690Y+013190
X+051190Y+013190
X+044690Y+013190
X+044190Y+013190
X+043690Y+013190
X+043190Y+013190
X+036940Y+013190
X+036440Y+013190
X+035940Y+013190
X+035440Y+013190
X+029190Y+013190
X+028690Y+013190
X+028190Y+013190
X+027690Y+013190
X+021190Y+013190
X+020690Y+013190
X+020190Y+013190
X+019690Y+013190
X+012940Y+013190
X+012440Y+013190
X+011940Y+013190
X+011440Y+013190
X+014440Y+041940
X+015440Y+041940
X+016440Y+041940
X+017440Y+041940
X+018440Y+041940
X+019440Y+041940
X+020440Y+041940
X+021440Y+041940
X+020440Y+044940
X+019440Y+044940
X+018440Y+044940
X+017440Y+044940
X+016440Y+044940
X+015440Y+044940
X+014440Y+044940
T03
X+012440Y+028690
X+020690Y+028690
X+020440Y+018690
X+019190Y+018690
X+021690Y+018690
X+021690Y+015190
X+020440Y+015190
X+019190Y+015190
X+013190Y+015190
X+012190Y+015190
X+011190Y+015190
X+011190Y+018690
X+012190Y+018690
X+013190Y+018690
X+027440Y+018690
X+028690Y+018690
X+029940Y+018690
X+029940Y+015190
X+028690Y+015190
X+027440Y+015190
X+034940Y+015190
X+035940Y+015190
X+036940Y+015190
X+036940Y+018690
X+035940Y+018690
X+034940Y+018690
X+039940Y+022190
X+042190Y+018690
X+043440Y+018690
X+044690Y+018690
X+044690Y+015190
X+043440Y+015190
X+042190Y+015190
X+050440Y+015190
X+051690Y+015190
X+052940Y+015190
X+052940Y+018690
X+051690Y+018690
X+050440Y+018690
X+059440Y+018690
X+060690Y+018690
X+061940Y+018690
X+061940Y+015190
X+060690Y+015190
X+059440Y+015190
X+066940Y+015190
X+067940Y+015190
X+068940Y+015190
X+068940Y+018690
X+067940Y+018690
X+066940Y+018690
X+066440Y+028690
X+056690Y+028690
X+046690Y+030690
X+045690Y+030690
X+044690Y+030690
X+043690Y+030690
X+042690Y+030690
X+041690Y+030690
X+040690Y+030690
X+039690Y+030690
X+038690Y+030690
X+037690Y+030690
X+036690Y+030690
X+035690Y+030690
X+035690Y+031690
X+035690Y+032690
X+035690Y+033690
X+035690Y+034690
X+035690Y+035690
X+035690Y+036690
X+035690Y+037690
X+035690Y+038690
X+035690Y+039690
X+035690Y+040690
X+035690Y+041690
X+035690Y+042690
X+035690Y+043690
X+035690Y+044690
X+035690Y+045690
X+046690Y+045690
X+046690Y+044690
X+046690Y+043690
X+046690Y+042690
X+046690Y+041690
X+046690Y+040690
X+046690Y+039690
X+046690Y+038690
X+046690Y+037690
X+046690Y+036690
X+046690Y+035690
X+046690Y+034690
X+046690Y+033690
X+046690Y+032690
X+046690Y+031690
X+045690Y+031690
X+044690Y+031690
X+043690Y+031690
X+042690Y+031690
X+041690Y+031690
X+040690Y+031690
X+039690Y+031690
X+038690Y+031690
X+037690Y+031690
X+036690Y+031690
X+035940Y+028690
X+039940Y+027190
X+043690Y+028690
X+044690Y+032690
X+044690Y+033690
X+045690Y+033690
X+045690Y+032690
X+021440Y+044940
T04
X+064440Y+035440
X+065440Y+035440
X+066440Y+035440
X+065440Y+033940
X+065440Y+031440
X+062940Y+032440
X+062940Y+035440
X+069440Y+033940
X+068440Y+031440
T05
X+063070Y+019690
X+063070Y+018690
X+063070Y+017690
X+022190Y+047815
X+021190Y+047815
X+020190Y+047815
X+019190Y+047815
X+018190Y+047815
T06
X+008940Y+010440
X+010940Y+010440
X+012940Y+010440
X+014940Y+010440
X+016940Y+010440
X+018940Y+010440
X+020940Y+010440
X+022940Y+010440
X+024940Y+010440
X+026940Y+010440
X+028940Y+010440
X+030940Y+010440
X+032940Y+010440
X+034940Y+010440
X+036940Y+010440
X+038940Y+010440
X+040940Y+010440
X+042940Y+010440
X+044940Y+010440
X+046940Y+010440
X+048940Y+010440
X+050940Y+010440
X+052940Y+010440
X+054940Y+010440
X+056940Y+010440
X+058940Y+010440
X+060940Y+010440
X+062940Y+010440
X+064940Y+010440
X+066940Y+010440
X+068940Y+010440
X+070940Y+010440
X+059440Y+043940
X+057440Y+043940
X+055440Y+043940
X+053440Y+043940
T07
X+065440Y+041440
T08
X+009190Y+045440
X+009190Y+013440
X+071190Y+013440
X+071190Y+045440
T00
M30
