G04 DipTrace 2.4.0.2*
%INhorowitzv.1.2_BottomMask.GBS*%
%MOIN*%
%ADD15C,0.08*%
%ADD32C,0.12*%
%ADD43O,0.068X0.088*%
%ADD45C,0.0749*%
%ADD47R,0.0749X0.0749*%
%ADD49C,0.088*%
%ADD51O,0.068X0.098*%
%ADD53C,0.088*%
%ADD55C,0.078*%
%ADD57O,0.038X0.088*%
%ADD59O,0.088X0.068*%
%ADD61R,0.088X0.088*%
%ADD63O,0.088X0.188*%
%FSLAX44Y44*%
G04*
G70*
G90*
G75*
G01*
%LNBotMask*%
%LPD*%
D63*
X8940Y10440D3*
X10940D3*
X12940D3*
X14940D3*
X16940D3*
X18940D3*
X20940D3*
X22940D3*
X24940D3*
X26940D3*
X28940D3*
X30940D3*
X32940D3*
X34940D3*
X36940D3*
X38940D3*
X40940D3*
X42940D3*
X44940D3*
X46940D3*
X48940D3*
X50940D3*
X52940D3*
X54940D3*
X56940D3*
X58940D3*
X60940D3*
X62940D3*
X64940D3*
X66940D3*
X68940D3*
X70940D3*
D61*
X12440Y28690D3*
D59*
Y27690D3*
Y26690D3*
Y25690D3*
Y24690D3*
Y23690D3*
Y22690D3*
Y21690D3*
X15440Y28690D3*
Y27690D3*
Y26690D3*
Y25690D3*
Y24690D3*
Y23690D3*
Y22690D3*
Y21690D3*
D61*
X20690Y28690D3*
D59*
Y27690D3*
Y26690D3*
Y25690D3*
Y24690D3*
Y23690D3*
Y22690D3*
Y21690D3*
X23690Y28690D3*
Y27690D3*
Y26690D3*
Y25690D3*
Y24690D3*
Y23690D3*
Y22690D3*
Y21690D3*
D61*
X35940Y28690D3*
D59*
Y27690D3*
Y26690D3*
Y25690D3*
Y24690D3*
Y23690D3*
Y22690D3*
Y21690D3*
X38940Y28690D3*
Y27690D3*
Y26690D3*
Y25690D3*
Y24690D3*
Y23690D3*
Y22690D3*
Y21690D3*
D61*
X43690Y28690D3*
D59*
Y27690D3*
Y26690D3*
Y25690D3*
Y24690D3*
Y23690D3*
Y22690D3*
Y21690D3*
X46690Y28690D3*
Y27690D3*
Y26690D3*
Y25690D3*
Y24690D3*
Y23690D3*
Y22690D3*
Y21690D3*
D61*
X56690Y28690D3*
D59*
Y27690D3*
Y26690D3*
Y25690D3*
Y24690D3*
Y23690D3*
Y22690D3*
Y21690D3*
X59690Y28690D3*
Y27690D3*
Y26690D3*
Y25690D3*
Y24690D3*
Y23690D3*
Y22690D3*
Y21690D3*
D61*
X66440Y28690D3*
D59*
Y27690D3*
Y26690D3*
Y25690D3*
Y24690D3*
Y23690D3*
Y22690D3*
Y21690D3*
X69440Y28690D3*
Y27690D3*
Y26690D3*
Y25690D3*
Y24690D3*
Y23690D3*
Y22690D3*
Y21690D3*
D57*
X11440Y13190D3*
X11940D3*
X12440D3*
X12940D3*
X19690D3*
X20190D3*
X20690D3*
X21190D3*
X27690D3*
X28190D3*
X28690D3*
X29190D3*
X35440D3*
X35940D3*
X36440D3*
X36940D3*
X43190D3*
X43690D3*
X44190D3*
X44690D3*
X51190D3*
X51690D3*
X52190D3*
X52690D3*
X59190D3*
X59690D3*
X60190D3*
X60690D3*
X67190D3*
X67690D3*
X68190D3*
X68690D3*
D55*
X11190Y15190D3*
Y18690D3*
X12190Y15190D3*
Y18690D3*
X13190Y15190D3*
Y18690D3*
X19190Y15190D3*
Y18690D3*
X20440Y15190D3*
Y18690D3*
X21690Y15190D3*
Y18690D3*
X27440Y15190D3*
Y18690D3*
X28690Y15190D3*
Y18690D3*
X29940Y15190D3*
Y18690D3*
X34940Y15190D3*
Y18690D3*
X35940Y15190D3*
Y18690D3*
X36940Y15190D3*
Y18690D3*
X42190Y15190D3*
Y18690D3*
X43440Y15190D3*
Y18690D3*
X44690Y15190D3*
Y18690D3*
X50440Y15190D3*
Y18690D3*
X51690Y15190D3*
Y18690D3*
X52940Y15190D3*
Y18690D3*
X59440Y15190D3*
Y18690D3*
X60690Y15190D3*
Y18690D3*
X61940Y15190D3*
Y18690D3*
X66940Y15190D3*
Y18690D3*
X67940Y15190D3*
Y18690D3*
X68940Y15190D3*
Y18690D3*
X39940Y27190D3*
Y22190D3*
D61*
X35690Y45690D3*
D53*
Y44690D3*
Y43690D3*
Y42690D3*
Y41690D3*
Y40690D3*
Y39690D3*
Y38690D3*
Y37690D3*
Y36690D3*
Y35690D3*
Y34690D3*
Y33690D3*
Y32690D3*
Y31690D3*
Y30690D3*
X36690D3*
X37690D3*
X38690D3*
X39690D3*
X40690D3*
X41690D3*
X42690D3*
X43690D3*
X44690D3*
X45690D3*
X46690D3*
Y31690D3*
Y32690D3*
Y33690D3*
Y34690D3*
Y35690D3*
Y36690D3*
Y37690D3*
Y38690D3*
Y39690D3*
Y40690D3*
Y41690D3*
Y42690D3*
Y43690D3*
Y44690D3*
Y45690D3*
X45690Y31690D3*
X44690D3*
X43690D3*
X42690D3*
X41690D3*
X40690D3*
X39690D3*
X38690D3*
X37690D3*
X36690D3*
X44690Y33690D3*
Y32690D3*
X45690Y33690D3*
Y32690D3*
D51*
X64440Y35440D3*
X65440D3*
X66440D3*
D15*
X65440Y41440D3*
D63*
X53440Y43940D3*
X55440D3*
X57440D3*
X59440D3*
D49*
X65440Y33940D3*
X69440D3*
X62940Y32440D3*
Y35440D3*
X65440Y31440D3*
X68440D3*
D47*
X63070Y19690D3*
D45*
Y18690D3*
Y17690D3*
D61*
X21440Y44940D3*
D43*
X20440D3*
X19440D3*
X18440D3*
X17440D3*
X16440D3*
X15440D3*
X14440D3*
X21440Y41940D3*
X20440D3*
X19440D3*
X18440D3*
X17440D3*
X16440D3*
X15440D3*
X14440D3*
D47*
X18190Y47815D3*
D45*
X19190D3*
X20190D3*
X21190D3*
X22190D3*
D32*
X9190Y45440D3*
X71190D3*
X9190Y13440D3*
X71190D3*
M02*
