G04 DipTrace 2.4.0.2*
%INhorowitzv.1.2_Top.GTL*%
%MOIN*%
%ADD13C,0.02*%
%ADD14C,0.1*%
%ADD15C,0.08*%
%ADD16C,0.03*%
%ADD17C,0.06*%
%ADD18C,0.04*%
%ADD19C,0.025*%
%ADD20O,0.08X0.18*%
%ADD21R,0.08X0.08*%
%ADD22O,0.08X0.06*%
%ADD23O,0.03X0.08*%
%ADD24C,0.07*%
%ADD25O,0.06X0.09*%
%ADD26C,0.08*%
%ADD27R,0.0669X0.0669*%
%ADD28C,0.0669*%
%ADD29O,0.06X0.08*%
%ADD31C,0.05*%
%FSLAX44Y44*%
G04*
G70*
G90*
G75*
G01*
%LNTop*%
%LPD*%
X20690Y22690D2*
D13*
X21940D1*
X22440Y22190D1*
Y20690D1*
X22690Y20440D1*
X29315D1*
X46690Y22690D2*
X50940D1*
X51065Y22565D1*
X47940Y35190D2*
Y38940D1*
X47190Y39690D1*
X46690D1*
X57565Y27190D2*
Y29065D1*
X49940Y35940D2*
Y37690D1*
X38690Y46940D2*
X44440D1*
X10440Y22690D2*
X12440D1*
X29940Y44690D2*
X31190Y43440D1*
Y37940D1*
X41440Y41690D2*
X39815D1*
X38315Y43190D1*
Y45565D1*
X36940Y46940D1*
X34440D1*
X33940Y46440D1*
Y32815D1*
X45815Y23565D2*
X45690D1*
X44690Y22565D1*
X43815D1*
X43690Y22690D1*
X54690Y34690D2*
X46690D1*
X12440Y25690D2*
X15440D1*
X20690D1*
X23690D1*
X35940D1*
Y24690D2*
X23690D1*
X20690D1*
X15440D1*
X12440D1*
X43690Y25690D2*
X38940D1*
X35940D1*
Y24690D2*
X38940D1*
X43690D1*
X46690D1*
Y25690D2*
X43690D1*
X46690D2*
X56690D1*
X46690Y24690D2*
X56690D1*
X59690Y25690D2*
X56690D1*
Y24690D2*
X59690D1*
X66440D1*
X69440D1*
Y25690D2*
X66440D1*
X59690D1*
X44690Y33690D2*
Y32690D1*
Y31690D1*
Y30690D1*
X65440Y31440D2*
Y33940D1*
Y32940D1*
X64690Y32190D1*
X63450D1*
X58940D1*
X51940Y39190D1*
Y44940D1*
X52690Y45690D1*
X57440D1*
Y43940D1*
X62940Y32440D2*
X63200D1*
X63450Y32190D1*
X12440Y25690D2*
Y24690D1*
X21690Y21690D2*
Y20440D1*
X8940Y10440D2*
D14*
Y9440D1*
X10440Y7940D1*
X16940D1*
X24940D1*
X32940D1*
X40940D1*
X48940D1*
X56940D1*
X63940D1*
X64940Y8940D1*
Y10440D1*
X8940D2*
D13*
Y10690D1*
X10440Y12190D1*
X11440D1*
X11940Y12690D1*
Y13190D1*
X16940Y10440D2*
Y11065D1*
X18065Y12190D1*
X19940D1*
X20190Y12440D1*
Y13190D1*
X24940Y10440D2*
Y10940D1*
X26315Y12315D1*
X27815D1*
X28190Y12690D1*
Y13190D1*
X32940Y10440D2*
Y10940D1*
X34190Y12190D1*
X35440D1*
X35940Y12690D1*
Y13190D1*
X40940Y10440D2*
Y10940D1*
X42190Y12190D1*
X43440D1*
X43690Y12440D1*
Y13190D1*
X48940Y10440D2*
Y11190D1*
X49940Y12190D1*
X51315D1*
X51690Y12565D1*
Y13190D1*
X56940Y10440D2*
Y10565D1*
X58565Y12190D1*
X59315D1*
X59690Y12565D1*
Y13190D1*
X64940Y10440D2*
Y12190D1*
X65065Y12315D1*
X67315D1*
X67690Y12690D1*
Y13190D1*
X16940Y10440D2*
D15*
Y7940D1*
X24940Y10440D2*
Y7940D1*
X32940Y10440D2*
Y7940D1*
X40940Y10440D2*
Y7940D1*
X48940Y10440D2*
Y7940D1*
X56940Y10440D2*
Y7940D1*
X63070Y18690D2*
D14*
X64690D1*
X65065Y18315D1*
Y10565D1*
X64940Y10440D1*
X18190Y47815D2*
D17*
X15565D1*
X7940Y40190D1*
Y11440D1*
X8940Y10440D1*
X66440Y21690D2*
X66190D1*
X65690Y21190D1*
Y19690D1*
X64817D1*
X56690D1*
X43690D1*
X35940D1*
X20690D1*
X14190D1*
X12440Y21440D1*
Y21690D1*
X35940D2*
Y19690D1*
X20690Y21690D2*
Y19690D1*
X55440Y43940D2*
X53440D1*
X56690Y21690D2*
Y19690D1*
X62940Y35440D2*
Y35190D1*
X62690Y35440D1*
X59690D1*
X55440Y39690D1*
Y43940D1*
X66286Y21638D2*
X66440Y21690D1*
X43690D2*
Y19690D1*
X63070D2*
D13*
X64817D1*
X62940Y35440D2*
D17*
X64440D1*
Y36190D1*
X65690Y37440D1*
X68690D1*
X71190Y34940D1*
Y21440D1*
X69440Y19690D1*
X65690D1*
X64440Y35440D2*
D13*
X62940D1*
X12440Y21690D2*
X10440D1*
X8940Y23190D1*
Y39940D1*
X13940Y44940D1*
X14440D1*
X15440Y21690D2*
X15940D1*
X17003Y20627D1*
X19815D1*
X23690Y21003D2*
Y21690D1*
Y21003D2*
X35190D1*
X36815Y21065D2*
Y21003D1*
X38940D1*
X42815D1*
X44440D2*
X46690D1*
X55940D1*
X57690D2*
X59690D1*
X64690D1*
X66815Y21065D2*
Y21003D1*
X68753D1*
X69440Y21690D1*
X59690D2*
Y21003D1*
X46690Y21690D2*
Y21003D1*
X38940Y21690D2*
Y21003D1*
X14440Y41940D2*
Y42690D1*
X15190Y43440D1*
X20940D1*
X21440Y43940D1*
Y44940D1*
X14440Y41940D2*
Y33440D1*
X11690Y30690D1*
X15440Y28690D2*
D18*
Y29190D1*
X15940Y29690D1*
X23690D1*
X33190D1*
X38940D1*
X45690D1*
X46690D1*
X59690D1*
X66440D1*
Y29940D1*
X68690D1*
X69440Y29190D1*
Y28690D1*
X59690D2*
Y29690D1*
X46690Y28690D2*
Y29690D1*
X45690Y30690D2*
Y29690D1*
X38940Y28690D2*
Y29690D1*
X23690Y28690D2*
Y29690D1*
X45690Y30690D2*
Y31690D1*
Y32690D1*
Y33690D1*
X69440Y33940D2*
X66440D1*
Y31440D1*
Y29940D1*
X68440Y31440D2*
X66440D1*
Y35440D2*
D13*
Y33940D1*
X21440Y41940D2*
D16*
Y42190D1*
X21190Y41940D1*
X22190D1*
X33190Y30940D1*
Y29690D1*
X20190Y47815D2*
D13*
Y47440D1*
X19690Y46940D1*
X16440D1*
X11440Y29440D2*
X12440Y30440D1*
X23549D1*
X37190Y22440D2*
Y23940D1*
X34315Y31440D2*
X34440D1*
Y46190D1*
X34690Y46440D1*
X36690D1*
X37690Y45440D1*
Y31690D1*
X46690Y30690D2*
X59565D1*
X64315Y23565D2*
Y22940D1*
X64690Y22565D1*
X66315D1*
X66440Y22690D1*
X32440Y41690D2*
Y43940D1*
X30440Y45940D1*
X20940D1*
X20440Y45440D1*
Y44940D1*
X15440D2*
Y45940D1*
X15940Y46440D1*
X33190D1*
X34190Y47440D1*
X37190D1*
X38940Y45690D1*
Y43440D1*
X39940Y42440D1*
X41940D1*
X42190Y42190D1*
Y41190D1*
X39690Y38690D1*
Y31690D1*
X30690Y32190D2*
X21690D1*
X15440Y38440D1*
Y41940D1*
X20440D2*
Y42190D1*
X23690Y45440D1*
X30190D1*
X31940Y43690D1*
Y36440D1*
X32690Y35690D1*
X33190D1*
D17*
X29315Y20440D3*
D18*
X51065Y22565D3*
X47940Y35190D3*
X57565Y27190D3*
Y29065D3*
X49940Y35940D3*
Y37690D3*
X38690Y46940D3*
X44440D3*
D17*
X10440Y22690D3*
D18*
X29940Y44690D3*
X31190Y37940D3*
X41440Y41690D3*
X33940Y32815D3*
X45815Y23565D3*
X54690Y34690D3*
D17*
X21690Y21690D3*
Y20440D3*
D31*
X19815Y20627D3*
X23690Y21003D3*
X35190D3*
X36815Y21065D3*
X42815Y21003D3*
X44440D3*
X55940D3*
X57690D3*
X64690D3*
X66815Y21065D3*
X23690Y21003D3*
D18*
X11690Y30690D3*
X16440Y46940D3*
X11440Y29440D3*
X23549Y30440D3*
X37190Y22440D3*
Y23940D3*
X34315Y31440D3*
X59565Y30690D3*
X64315Y23565D3*
X32440Y41690D3*
X30690Y32190D3*
X33190Y35690D3*
X22983Y47818D2*
D19*
X33788D1*
X37592D2*
X70843D1*
X22944Y47569D2*
X33538D1*
X37842D2*
X38577D1*
X38803D2*
X44327D1*
X44553D2*
X71327D1*
X22803Y47320D2*
X33288D1*
X44975D2*
X71667D1*
X20604Y47072D2*
X20968D1*
X21412D2*
X21968D1*
X22412D2*
X33042D1*
X45084D2*
X71929D1*
X45088Y46823D2*
X72140D1*
X44983Y46574D2*
X72311D1*
X39084Y46325D2*
X44257D1*
X44623D2*
X46124D1*
X47256D2*
X70468D1*
X71912D2*
X72448D1*
X39334Y46077D2*
X45925D1*
X47455D2*
X70237D1*
X72143D2*
X72561D1*
X16111Y45828D2*
X20046D1*
X39483D2*
X45843D1*
X47537D2*
X70108D1*
X72272D2*
X72644D1*
X16963Y45579D2*
X18917D1*
X39498D2*
X45839D1*
X47541D2*
X70046D1*
X72334D2*
X72710D1*
X17139Y45331D2*
X18741D1*
X39498D2*
X45913D1*
X47467D2*
X70046D1*
X72334D2*
X72741D1*
X17197Y45082D2*
X18683D1*
X39498D2*
X45929D1*
X47451D2*
X52882D1*
X53998D2*
X54882D1*
X55998D2*
X70097D1*
X72283D2*
X72741D1*
X17201Y44833D2*
X18679D1*
X39498D2*
X45843D1*
X47537D2*
X52679D1*
X54201D2*
X54679D1*
X56201D2*
X70218D1*
X72162D2*
X72741D1*
X17154Y44585D2*
X18726D1*
X39498D2*
X45835D1*
X47545D2*
X52593D1*
X56287D2*
X70433D1*
X71947D2*
X72741D1*
X16998Y44336D2*
X18882D1*
X39498D2*
X45909D1*
X47471D2*
X52581D1*
X56299D2*
X70944D1*
X71436D2*
X72741D1*
X13869Y44087D2*
X20808D1*
X39498D2*
X45933D1*
X47447D2*
X52581D1*
X56299D2*
X72741D1*
X13619Y43839D2*
X14808D1*
X39498D2*
X45843D1*
X47537D2*
X52581D1*
X56299D2*
X72741D1*
X13373Y43590D2*
X14558D1*
X39572D2*
X45835D1*
X47545D2*
X52581D1*
X56299D2*
X72741D1*
X13123Y43341D2*
X14311D1*
X39819D2*
X45905D1*
X47475D2*
X52585D1*
X56295D2*
X72741D1*
X12873Y43093D2*
X14061D1*
X40069D2*
X45933D1*
X47447D2*
X52655D1*
X54225D2*
X54655D1*
X56225D2*
X72741D1*
X12627Y42844D2*
X13901D1*
X15377D2*
X20311D1*
X42315D2*
X45843D1*
X47537D2*
X52831D1*
X54049D2*
X54679D1*
X56201D2*
X72741D1*
X12377Y42595D2*
X13882D1*
X16947D2*
X18933D1*
X42565D2*
X45835D1*
X47545D2*
X54679D1*
X56201D2*
X72741D1*
X12127Y42346D2*
X13749D1*
X17131D2*
X18749D1*
X42725D2*
X45905D1*
X47475D2*
X54679D1*
X56201D2*
X72741D1*
X11881Y42098D2*
X13683D1*
X17197D2*
X18683D1*
X42748D2*
X45936D1*
X47444D2*
X54679D1*
X56201D2*
X64901D1*
X65979D2*
X72741D1*
X11631Y41849D2*
X13679D1*
X17201D2*
X18679D1*
X42748D2*
X45847D1*
X47533D2*
X54679D1*
X56201D2*
X64686D1*
X66194D2*
X72741D1*
X11381Y41600D2*
X13722D1*
X17158D2*
X18722D1*
X42748D2*
X45835D1*
X47545D2*
X54679D1*
X56201D2*
X64597D1*
X66283D2*
X72741D1*
X11135Y41352D2*
X13866D1*
X17014D2*
X18866D1*
X42748D2*
X45901D1*
X47479D2*
X54679D1*
X56201D2*
X64585D1*
X66295D2*
X72741D1*
X10885Y41103D2*
X13882D1*
X15998D2*
X22175D1*
X42744D2*
X45940D1*
X47440D2*
X54679D1*
X56201D2*
X64651D1*
X66229D2*
X72741D1*
X10635Y40854D2*
X13882D1*
X15998D2*
X22425D1*
X42631D2*
X45847D1*
X47533D2*
X54679D1*
X56201D2*
X64819D1*
X66061D2*
X72741D1*
X10389Y40606D2*
X13882D1*
X15998D2*
X22671D1*
X42389D2*
X45835D1*
X47545D2*
X54679D1*
X56201D2*
X65386D1*
X65496D2*
X72741D1*
X10139Y40357D2*
X13882D1*
X15998D2*
X22921D1*
X42139D2*
X45901D1*
X47479D2*
X54679D1*
X56201D2*
X72741D1*
X9889Y40108D2*
X13882D1*
X15998D2*
X23171D1*
X41889D2*
X45944D1*
X47549D2*
X54679D1*
X56201D2*
X72741D1*
X9643Y39860D2*
X13882D1*
X15998D2*
X23417D1*
X41643D2*
X45847D1*
X47803D2*
X54679D1*
X56334D2*
X72741D1*
X9498Y39611D2*
X13882D1*
X15998D2*
X23667D1*
X41393D2*
X45835D1*
X48049D2*
X54683D1*
X56584D2*
X72741D1*
X9498Y39362D2*
X13882D1*
X15998D2*
X23917D1*
X41143D2*
X45897D1*
X48299D2*
X54757D1*
X56830D2*
X72741D1*
X9498Y39114D2*
X13882D1*
X15998D2*
X24163D1*
X40897D2*
X45944D1*
X48471D2*
X54952D1*
X57080D2*
X72741D1*
X9498Y38865D2*
X13882D1*
X15998D2*
X24413D1*
X40647D2*
X45851D1*
X48498D2*
X55202D1*
X57330D2*
X72741D1*
X9498Y38616D2*
X13882D1*
X16045D2*
X24663D1*
X40397D2*
X45835D1*
X48498D2*
X55448D1*
X57576D2*
X72741D1*
X9498Y38367D2*
X13882D1*
X16295D2*
X24909D1*
X40248D2*
X45894D1*
X48498D2*
X55698D1*
X57826D2*
X72741D1*
X9498Y38119D2*
X13882D1*
X16541D2*
X25159D1*
X40248D2*
X45948D1*
X48498D2*
X49448D1*
X50432D2*
X55948D1*
X58076D2*
X65382D1*
X68998D2*
X72741D1*
X9498Y37870D2*
X13882D1*
X16791D2*
X25409D1*
X40248D2*
X45851D1*
X48498D2*
X49308D1*
X50572D2*
X56194D1*
X58322D2*
X65058D1*
X69322D2*
X72741D1*
X9498Y37621D2*
X13882D1*
X17041D2*
X25655D1*
X40248D2*
X45831D1*
X48498D2*
X49284D1*
X50596D2*
X56444D1*
X58572D2*
X64808D1*
X69572D2*
X72741D1*
X9498Y37373D2*
X13882D1*
X17287D2*
X25905D1*
X40248D2*
X45894D1*
X48498D2*
X49366D1*
X50514D2*
X56694D1*
X58822D2*
X64558D1*
X69822D2*
X72741D1*
X9498Y37124D2*
X13882D1*
X17537D2*
X26155D1*
X40248D2*
X45952D1*
X48498D2*
X49382D1*
X50498D2*
X56940D1*
X59069D2*
X64311D1*
X70069D2*
X72741D1*
X9498Y36875D2*
X13882D1*
X17787D2*
X26401D1*
X40248D2*
X45851D1*
X48498D2*
X49382D1*
X50498D2*
X57190D1*
X59319D2*
X64061D1*
X70319D2*
X72741D1*
X9498Y36627D2*
X13882D1*
X18033D2*
X26651D1*
X40248D2*
X45831D1*
X48498D2*
X49382D1*
X50498D2*
X57440D1*
X59569D2*
X63823D1*
X65940D2*
X68440D1*
X70569D2*
X72741D1*
X9498Y36378D2*
X13882D1*
X18283D2*
X26901D1*
X40248D2*
X45890D1*
X48498D2*
X49382D1*
X50498D2*
X57686D1*
X59815D2*
X63706D1*
X65694D2*
X68686D1*
X70815D2*
X72741D1*
X9498Y36129D2*
X13882D1*
X18533D2*
X27147D1*
X40248D2*
X45956D1*
X48498D2*
X49308D1*
X50572D2*
X57936D1*
X65444D2*
X65917D1*
X66963D2*
X68936D1*
X71065D2*
X72741D1*
X9498Y35881D2*
X13882D1*
X18779D2*
X27397D1*
X40248D2*
X45851D1*
X48498D2*
X49284D1*
X50596D2*
X58186D1*
X65201D2*
X65741D1*
X67139D2*
X69186D1*
X71315D2*
X72741D1*
X9498Y35632D2*
X13882D1*
X19029D2*
X27647D1*
X40248D2*
X45831D1*
X48498D2*
X49358D1*
X50522D2*
X58433D1*
X65201D2*
X65683D1*
X67197D2*
X69433D1*
X71561D2*
X72741D1*
X9498Y35383D2*
X13882D1*
X19279D2*
X27894D1*
X40248D2*
X45890D1*
X48569D2*
X49608D1*
X50272D2*
X58683D1*
X65201D2*
X65679D1*
X67201D2*
X69683D1*
X71803D2*
X72741D1*
X9498Y35135D2*
X13882D1*
X19526D2*
X28144D1*
X40248D2*
X45960D1*
X55170D2*
X58933D1*
X65182D2*
X65698D1*
X67182D2*
X69933D1*
X71924D2*
X72741D1*
X9498Y34886D2*
X13882D1*
X19776D2*
X28394D1*
X40248D2*
X45854D1*
X55319D2*
X59183D1*
X65080D2*
X65800D1*
X67080D2*
X70179D1*
X71951D2*
X72741D1*
X9498Y34637D2*
X13882D1*
X20026D2*
X28640D1*
X40248D2*
X45831D1*
X55346D2*
X62433D1*
X63447D2*
X64077D1*
X64803D2*
X65882D1*
X66998D2*
X68956D1*
X69924D2*
X70429D1*
X71951D2*
X72741D1*
X9498Y34388D2*
X13882D1*
X20272D2*
X28890D1*
X40248D2*
X45206D1*
X55276D2*
X65882D1*
X70170D2*
X70429D1*
X71951D2*
X72741D1*
X9498Y34140D2*
X13882D1*
X20522D2*
X29140D1*
X40248D2*
X44960D1*
X47420D2*
X54347D1*
X55033D2*
X65811D1*
X70276D2*
X70429D1*
X71951D2*
X72741D1*
X9498Y33891D2*
X13882D1*
X20772D2*
X29386D1*
X40248D2*
X44854D1*
X47526D2*
X65780D1*
X70299D2*
X70429D1*
X71951D2*
X72741D1*
X9498Y33642D2*
X13862D1*
X21018D2*
X29636D1*
X40248D2*
X44831D1*
X47549D2*
X65780D1*
X70244D2*
X70429D1*
X71951D2*
X72741D1*
X9498Y33394D2*
X13612D1*
X21268D2*
X29886D1*
X40248D2*
X44886D1*
X47494D2*
X65780D1*
X70096D2*
X70429D1*
X71951D2*
X72741D1*
X9498Y33145D2*
X13362D1*
X21518D2*
X30132D1*
X40248D2*
X44964D1*
X47416D2*
X65780D1*
X67100D2*
X69159D1*
X69721D2*
X70429D1*
X71951D2*
X72741D1*
X9498Y32896D2*
X13116D1*
X21764D2*
X30382D1*
X40248D2*
X44854D1*
X47526D2*
X65780D1*
X67100D2*
X70429D1*
X71951D2*
X72741D1*
X9498Y32648D2*
X12866D1*
X40248D2*
X44831D1*
X47549D2*
X65780D1*
X67100D2*
X70429D1*
X71951D2*
X72741D1*
X9498Y32399D2*
X12616D1*
X44154D2*
X44882D1*
X47498D2*
X65780D1*
X67100D2*
X70429D1*
X71951D2*
X72741D1*
X9498Y32150D2*
X12370D1*
X44412D2*
X44968D1*
X47412D2*
X65780D1*
X67100D2*
X67976D1*
X68904D2*
X70429D1*
X71951D2*
X72741D1*
X9498Y31902D2*
X12120D1*
X44522D2*
X44858D1*
X47522D2*
X65780D1*
X69162D2*
X70429D1*
X71951D2*
X72741D1*
X9498Y31653D2*
X11870D1*
X44549D2*
X44831D1*
X47549D2*
X65780D1*
X69272D2*
X70429D1*
X71951D2*
X72741D1*
X9498Y31404D2*
X11624D1*
X44498D2*
X44882D1*
X47498D2*
X65780D1*
X69299D2*
X70429D1*
X71951D2*
X72741D1*
X9498Y31156D2*
X11233D1*
X44408D2*
X44972D1*
X60022D2*
X65780D1*
X69248D2*
X70429D1*
X71951D2*
X72741D1*
X9498Y30907D2*
X11069D1*
X44522D2*
X44858D1*
X60186D2*
X65780D1*
X69108D2*
X70429D1*
X71951D2*
X72741D1*
X9498Y30658D2*
X11030D1*
X44549D2*
X44831D1*
X60225D2*
X65780D1*
X67100D2*
X68124D1*
X68756D2*
X70429D1*
X71951D2*
X72741D1*
X9498Y30409D2*
X11097D1*
X44502D2*
X44878D1*
X60158D2*
X65780D1*
X69143D2*
X70429D1*
X71951D2*
X72741D1*
X9498Y30161D2*
X11315D1*
X69393D2*
X70429D1*
X71951D2*
X72741D1*
X9498Y29912D2*
X10991D1*
X69639D2*
X70429D1*
X71951D2*
X72741D1*
X9498Y29663D2*
X10819D1*
X12444D2*
X14991D1*
X69889D2*
X70429D1*
X71951D2*
X72741D1*
X9498Y29415D2*
X10780D1*
X13299D2*
X14819D1*
X70061D2*
X70429D1*
X71951D2*
X72741D1*
X9498Y29166D2*
X10843D1*
X13299D2*
X14757D1*
X67299D2*
X68542D1*
X70123D2*
X70429D1*
X71951D2*
X72741D1*
X9498Y28917D2*
X11054D1*
X13299D2*
X14616D1*
X16264D2*
X19831D1*
X21549D2*
X22866D1*
X24514D2*
X35081D1*
X36799D2*
X38116D1*
X39764D2*
X42831D1*
X44549D2*
X45866D1*
X47514D2*
X55831D1*
X58209D2*
X58866D1*
X60514D2*
X65581D1*
X67299D2*
X68616D1*
X70264D2*
X70429D1*
X71951D2*
X72741D1*
X9498Y28669D2*
X11581D1*
X13299D2*
X14581D1*
X16299D2*
X19831D1*
X21549D2*
X22831D1*
X24549D2*
X35081D1*
X36799D2*
X38081D1*
X39799D2*
X42831D1*
X44549D2*
X45831D1*
X47549D2*
X55831D1*
X58123D2*
X58831D1*
X60549D2*
X65581D1*
X67299D2*
X68581D1*
X70299D2*
X70429D1*
X71951D2*
X72741D1*
X9498Y28420D2*
X11581D1*
X13299D2*
X14632D1*
X16248D2*
X19831D1*
X21549D2*
X22882D1*
X24498D2*
X35081D1*
X36799D2*
X38132D1*
X39748D2*
X42831D1*
X44549D2*
X45882D1*
X47498D2*
X55831D1*
X58123D2*
X58882D1*
X60498D2*
X65581D1*
X67299D2*
X68632D1*
X70248D2*
X70429D1*
X71951D2*
X72741D1*
X9498Y28171D2*
X11581D1*
X13299D2*
X14761D1*
X16119D2*
X19831D1*
X21549D2*
X23011D1*
X24369D2*
X35081D1*
X36799D2*
X38261D1*
X39619D2*
X42831D1*
X44549D2*
X46011D1*
X47369D2*
X55831D1*
X58123D2*
X59011D1*
X60369D2*
X65581D1*
X67299D2*
X68761D1*
X70119D2*
X70429D1*
X71951D2*
X72741D1*
X9498Y27923D2*
X11581D1*
X13299D2*
X14616D1*
X16264D2*
X19831D1*
X21549D2*
X22866D1*
X24514D2*
X35081D1*
X36799D2*
X38116D1*
X40248D2*
X42831D1*
X44549D2*
X45866D1*
X47514D2*
X55831D1*
X58123D2*
X58866D1*
X60514D2*
X65581D1*
X67299D2*
X68616D1*
X70264D2*
X70429D1*
X71951D2*
X72741D1*
X9498Y27674D2*
X11581D1*
X13299D2*
X14581D1*
X16299D2*
X19831D1*
X21549D2*
X22831D1*
X24549D2*
X35081D1*
X36799D2*
X38081D1*
X40584D2*
X42831D1*
X44549D2*
X45831D1*
X47549D2*
X55831D1*
X58123D2*
X58831D1*
X60549D2*
X65581D1*
X67299D2*
X68581D1*
X70299D2*
X70429D1*
X71951D2*
X72741D1*
X9498Y27425D2*
X11628D1*
X13252D2*
X14628D1*
X16252D2*
X19878D1*
X21502D2*
X22878D1*
X24502D2*
X35128D1*
X36752D2*
X38128D1*
X40713D2*
X42878D1*
X44502D2*
X45878D1*
X47502D2*
X55878D1*
X58178D2*
X58878D1*
X60502D2*
X65628D1*
X67252D2*
X68628D1*
X70252D2*
X70429D1*
X71951D2*
X72741D1*
X9498Y27177D2*
X11765D1*
X13115D2*
X14765D1*
X16115D2*
X20015D1*
X21365D2*
X23015D1*
X24365D2*
X35265D1*
X36615D2*
X38265D1*
X40748D2*
X43015D1*
X44365D2*
X46015D1*
X47365D2*
X56015D1*
X58225D2*
X59015D1*
X60365D2*
X65765D1*
X67115D2*
X68765D1*
X70115D2*
X70429D1*
X71951D2*
X72741D1*
X9498Y26928D2*
X11620D1*
X13260D2*
X14620D1*
X16260D2*
X19870D1*
X21510D2*
X22870D1*
X24510D2*
X35120D1*
X36760D2*
X38120D1*
X40705D2*
X42870D1*
X44510D2*
X45870D1*
X47510D2*
X55870D1*
X58170D2*
X58870D1*
X60510D2*
X65620D1*
X67260D2*
X68620D1*
X70260D2*
X70429D1*
X71951D2*
X72741D1*
X9498Y26679D2*
X11581D1*
X13299D2*
X14581D1*
X16299D2*
X19831D1*
X21549D2*
X22831D1*
X24549D2*
X35081D1*
X36799D2*
X38081D1*
X40561D2*
X42831D1*
X44549D2*
X45831D1*
X47549D2*
X55831D1*
X57967D2*
X58831D1*
X60549D2*
X65581D1*
X67299D2*
X68581D1*
X70299D2*
X70429D1*
X71951D2*
X72741D1*
X9498Y26430D2*
X11628D1*
X13252D2*
X14628D1*
X16252D2*
X19878D1*
X21502D2*
X22878D1*
X24502D2*
X35128D1*
X36752D2*
X38128D1*
X40162D2*
X42878D1*
X44502D2*
X45878D1*
X47502D2*
X55878D1*
X57502D2*
X58878D1*
X60502D2*
X65628D1*
X67252D2*
X68628D1*
X70252D2*
X70429D1*
X71951D2*
X72741D1*
X9498Y26182D2*
X11784D1*
X13096D2*
X14784D1*
X16096D2*
X20034D1*
X21346D2*
X23034D1*
X24346D2*
X35284D1*
X36596D2*
X38284D1*
X39596D2*
X43034D1*
X44346D2*
X46034D1*
X47346D2*
X56034D1*
X57346D2*
X59034D1*
X60346D2*
X65784D1*
X67096D2*
X68784D1*
X70096D2*
X70429D1*
X71951D2*
X72741D1*
X9498Y25933D2*
X70429D1*
X71951D2*
X72741D1*
X9498Y25684D2*
X70429D1*
X71951D2*
X72741D1*
X9498Y25436D2*
X70429D1*
X71951D2*
X72741D1*
X9498Y25187D2*
X70429D1*
X71951D2*
X72741D1*
X9498Y24938D2*
X70429D1*
X71951D2*
X72741D1*
X9498Y24690D2*
X70429D1*
X71951D2*
X72741D1*
X9498Y24441D2*
X36776D1*
X37604D2*
X70429D1*
X71951D2*
X72741D1*
X9498Y24192D2*
X11780D1*
X13100D2*
X14780D1*
X16100D2*
X20030D1*
X21350D2*
X23030D1*
X24350D2*
X35280D1*
X37799D2*
X38280D1*
X39600D2*
X43030D1*
X44350D2*
X45690D1*
X47350D2*
X56030D1*
X57350D2*
X59030D1*
X60350D2*
X64190D1*
X64440D2*
X65780D1*
X67100D2*
X68780D1*
X70100D2*
X70429D1*
X71951D2*
X72741D1*
X9498Y23944D2*
X11624D1*
X13256D2*
X14624D1*
X16256D2*
X19874D1*
X21506D2*
X22874D1*
X24506D2*
X35124D1*
X37850D2*
X38124D1*
X39756D2*
X42874D1*
X44506D2*
X45280D1*
X47506D2*
X55874D1*
X57506D2*
X58874D1*
X60506D2*
X63780D1*
X64850D2*
X65624D1*
X67256D2*
X68624D1*
X70256D2*
X70429D1*
X71951D2*
X72741D1*
X9498Y23695D2*
X11581D1*
X13299D2*
X14581D1*
X16299D2*
X19831D1*
X21549D2*
X22831D1*
X24549D2*
X35081D1*
X37799D2*
X38081D1*
X39799D2*
X42831D1*
X44549D2*
X45038D1*
X47549D2*
X55831D1*
X57549D2*
X58831D1*
X60549D2*
X63667D1*
X64963D2*
X65581D1*
X67299D2*
X68581D1*
X70299D2*
X70429D1*
X71951D2*
X72741D1*
X9498Y23446D2*
X11620D1*
X13260D2*
X14620D1*
X16260D2*
X19870D1*
X21510D2*
X22870D1*
X24510D2*
X35120D1*
X37748D2*
X38120D1*
X39760D2*
X42870D1*
X44510D2*
X44788D1*
X47510D2*
X55870D1*
X57510D2*
X58870D1*
X60510D2*
X63667D1*
X64963D2*
X65620D1*
X67260D2*
X68620D1*
X70260D2*
X70429D1*
X71951D2*
X72741D1*
X9713Y23198D2*
X9882D1*
X13111D2*
X14769D1*
X16111D2*
X20019D1*
X22135D2*
X23019D1*
X24361D2*
X35269D1*
X37748D2*
X38269D1*
X39611D2*
X43019D1*
X44361D2*
X44542D1*
X51143D2*
X56019D1*
X57361D2*
X59019D1*
X60361D2*
X63757D1*
X64873D2*
X65769D1*
X67111D2*
X68769D1*
X70111D2*
X70429D1*
X71951D2*
X72741D1*
X13252Y22949D2*
X14628D1*
X16252D2*
X19878D1*
X22463D2*
X22878D1*
X24502D2*
X35128D1*
X37748D2*
X38128D1*
X40166D2*
X42878D1*
X51596D2*
X55878D1*
X57502D2*
X58878D1*
X60502D2*
X63757D1*
X67252D2*
X68628D1*
X70252D2*
X70429D1*
X71951D2*
X72741D1*
X13299Y22700D2*
X14581D1*
X16299D2*
X19831D1*
X24549D2*
X35081D1*
X37795D2*
X38081D1*
X40561D2*
X42831D1*
X51709D2*
X55831D1*
X57549D2*
X58831D1*
X60549D2*
X63811D1*
X67299D2*
X68581D1*
X70299D2*
X70429D1*
X71951D2*
X72741D1*
X8701Y22451D2*
X8897D1*
X13260D2*
X14620D1*
X16260D2*
X19870D1*
X24510D2*
X35120D1*
X37850D2*
X38120D1*
X40705D2*
X42870D1*
X51713D2*
X55870D1*
X57510D2*
X58870D1*
X60510D2*
X64022D1*
X67260D2*
X68620D1*
X70260D2*
X70429D1*
X71951D2*
X72741D1*
X8701Y22203D2*
X9147D1*
X13115D2*
X14765D1*
X16115D2*
X20015D1*
X24365D2*
X35265D1*
X37803D2*
X38265D1*
X40748D2*
X43015D1*
X51611D2*
X56015D1*
X57365D2*
X59015D1*
X60365D2*
X64272D1*
X67115D2*
X68765D1*
X70115D2*
X70429D1*
X71951D2*
X72741D1*
X8701Y21954D2*
X9394D1*
X13252D2*
X14628D1*
X16459D2*
X19878D1*
X24502D2*
X35128D1*
X37623D2*
X38128D1*
X40713D2*
X42878D1*
X47502D2*
X50866D1*
X51264D2*
X55878D1*
X57502D2*
X58878D1*
X60502D2*
X65390D1*
X67252D2*
X68628D1*
X70252D2*
X70429D1*
X71951D2*
X72741D1*
X8701Y21705D2*
X9644D1*
X13299D2*
X14581D1*
X16705D2*
X19831D1*
X24549D2*
X35081D1*
X37084D2*
X38081D1*
X40584D2*
X42831D1*
X47549D2*
X55831D1*
X57549D2*
X58831D1*
X60549D2*
X65140D1*
X67299D2*
X68581D1*
X71951D2*
X72741D1*
X8701Y21457D2*
X9894D1*
X13486D2*
X14620D1*
X16955D2*
X19870D1*
X71951D2*
X72741D1*
X8701Y21208D2*
X10183D1*
X13736D2*
X14761D1*
X17205D2*
X19425D1*
X71912D2*
X72741D1*
X8701Y20959D2*
X11858D1*
X13986D2*
X15237D1*
X15643D2*
X15890D1*
X71772D2*
X72741D1*
X8701Y20711D2*
X12104D1*
X14233D2*
X16140D1*
X71526D2*
X72741D1*
X8701Y20462D2*
X12354D1*
X14483D2*
X16386D1*
X71276D2*
X72741D1*
X8701Y20213D2*
X12601D1*
X71029D2*
X72741D1*
X8701Y19965D2*
X12851D1*
X70779D2*
X72741D1*
X8701Y19716D2*
X13101D1*
X70529D2*
X72741D1*
X8701Y19467D2*
X11058D1*
X11322D2*
X12058D1*
X12322D2*
X13058D1*
X70283D2*
X72741D1*
X8701Y19219D2*
X10585D1*
X70033D2*
X72741D1*
X8701Y18970D2*
X10433D1*
X69697D2*
X72741D1*
X8701Y18721D2*
X10382D1*
X13998D2*
X18382D1*
X22498D2*
X26632D1*
X30748D2*
X34132D1*
X37748D2*
X41382D1*
X45498D2*
X49632D1*
X53748D2*
X58632D1*
X65932D2*
X66132D1*
X69748D2*
X72741D1*
X8701Y18472D2*
X10409D1*
X13971D2*
X18409D1*
X22471D2*
X26659D1*
X30721D2*
X34159D1*
X37721D2*
X41409D1*
X45471D2*
X49659D1*
X53721D2*
X58659D1*
X66010D2*
X66162D1*
X69721D2*
X72741D1*
X8701Y18224D2*
X10534D1*
X13846D2*
X18534D1*
X22346D2*
X26784D1*
X30596D2*
X34284D1*
X37596D2*
X41534D1*
X45346D2*
X49784D1*
X53596D2*
X58784D1*
X66026D2*
X66284D1*
X69596D2*
X72741D1*
X8701Y17975D2*
X10843D1*
X11537D2*
X11843D1*
X12537D2*
X12843D1*
X13537D2*
X18843D1*
X19537D2*
X20093D1*
X20787D2*
X21343D1*
X22037D2*
X27093D1*
X27787D2*
X28343D1*
X29037D2*
X29593D1*
X30287D2*
X34593D1*
X35287D2*
X35593D1*
X36287D2*
X36593D1*
X37287D2*
X41843D1*
X42537D2*
X43093D1*
X43787D2*
X44343D1*
X45037D2*
X50093D1*
X50787D2*
X51343D1*
X52037D2*
X52593D1*
X53287D2*
X59093D1*
X59787D2*
X60343D1*
X61037D2*
X61593D1*
X62287D2*
X62444D1*
X66026D2*
X66593D1*
X67287D2*
X67593D1*
X68287D2*
X68593D1*
X69287D2*
X72741D1*
X8701Y17726D2*
X64104D1*
X66026D2*
X72741D1*
X8701Y17478D2*
X64104D1*
X66026D2*
X72741D1*
X8701Y17229D2*
X64104D1*
X66026D2*
X72741D1*
X8701Y16980D2*
X64104D1*
X66026D2*
X72741D1*
X8701Y16732D2*
X64104D1*
X66026D2*
X72741D1*
X8701Y16483D2*
X64104D1*
X66026D2*
X72741D1*
X8701Y16234D2*
X64104D1*
X66026D2*
X72741D1*
X8701Y15986D2*
X64104D1*
X66026D2*
X72741D1*
X8701Y15737D2*
X10601D1*
X13779D2*
X18601D1*
X22279D2*
X26851D1*
X30529D2*
X34351D1*
X37529D2*
X41601D1*
X45279D2*
X49851D1*
X53529D2*
X58851D1*
X62529D2*
X64104D1*
X66026D2*
X66351D1*
X69529D2*
X72741D1*
X8701Y15488D2*
X10440D1*
X13940D2*
X18440D1*
X22440D2*
X26690D1*
X30690D2*
X34190D1*
X37690D2*
X41440D1*
X45440D2*
X49690D1*
X53690D2*
X58690D1*
X62690D2*
X64104D1*
X66026D2*
X66190D1*
X69690D2*
X72741D1*
X8701Y15240D2*
X10382D1*
X13998D2*
X18382D1*
X22498D2*
X26632D1*
X30748D2*
X34132D1*
X37748D2*
X41382D1*
X45498D2*
X49632D1*
X53748D2*
X58632D1*
X62748D2*
X64104D1*
X69748D2*
X72741D1*
X8701Y14991D2*
X10405D1*
X13975D2*
X18405D1*
X22475D2*
X26655D1*
X30725D2*
X34155D1*
X37725D2*
X41405D1*
X45475D2*
X49655D1*
X53725D2*
X58655D1*
X62725D2*
X64104D1*
X66026D2*
X66156D1*
X69725D2*
X72741D1*
X8701Y14742D2*
X10519D1*
X13861D2*
X18519D1*
X22361D2*
X26769D1*
X30611D2*
X34269D1*
X37611D2*
X41519D1*
X45361D2*
X49769D1*
X53611D2*
X58769D1*
X62611D2*
X64104D1*
X66026D2*
X66269D1*
X69611D2*
X72741D1*
X9842Y14493D2*
X10804D1*
X11576D2*
X11804D1*
X12576D2*
X12804D1*
X13576D2*
X18804D1*
X19576D2*
X20054D1*
X20826D2*
X21304D1*
X22076D2*
X27054D1*
X27826D2*
X28304D1*
X29076D2*
X29554D1*
X30326D2*
X34554D1*
X35326D2*
X35554D1*
X36326D2*
X36554D1*
X37326D2*
X41804D1*
X42576D2*
X43054D1*
X43826D2*
X44304D1*
X45076D2*
X50054D1*
X50826D2*
X51304D1*
X52076D2*
X52554D1*
X53326D2*
X59054D1*
X59826D2*
X60304D1*
X61076D2*
X61554D1*
X62326D2*
X64104D1*
X66026D2*
X66554D1*
X67326D2*
X67554D1*
X68326D2*
X68554D1*
X69326D2*
X70538D1*
X71842D2*
X72741D1*
X10139Y14245D2*
X64104D1*
X66026D2*
X70241D1*
X72139D2*
X72741D1*
X10307Y13996D2*
X11233D1*
X13147D2*
X19483D1*
X21397D2*
X27483D1*
X29397D2*
X35233D1*
X37147D2*
X42983D1*
X44897D2*
X50983D1*
X52897D2*
X58983D1*
X60897D2*
X64104D1*
X66026D2*
X66983D1*
X68897D2*
X70073D1*
X72307D2*
X72741D1*
X10401Y13747D2*
X10917D1*
X13463D2*
X19167D1*
X21713D2*
X27167D1*
X29713D2*
X34917D1*
X37463D2*
X42667D1*
X45213D2*
X50667D1*
X53213D2*
X58667D1*
X61213D2*
X64104D1*
X66026D2*
X66667D1*
X69213D2*
X69979D1*
X72401D2*
X72741D1*
X10440Y13499D2*
X10835D1*
X13545D2*
X19085D1*
X21795D2*
X27085D1*
X29795D2*
X34835D1*
X37545D2*
X42585D1*
X45295D2*
X50585D1*
X53295D2*
X58585D1*
X61295D2*
X64104D1*
X66026D2*
X66585D1*
X69295D2*
X69940D1*
X72440D2*
X72741D1*
X10428Y13250D2*
X10831D1*
X13549D2*
X19081D1*
X21799D2*
X27081D1*
X29799D2*
X34831D1*
X37549D2*
X42581D1*
X45299D2*
X50581D1*
X53299D2*
X58581D1*
X61299D2*
X64104D1*
X66026D2*
X66581D1*
X69299D2*
X69952D1*
X72428D2*
X72741D1*
X10361Y13001D2*
X10831D1*
X13549D2*
X19081D1*
X21799D2*
X27081D1*
X29799D2*
X34831D1*
X37549D2*
X42581D1*
X45299D2*
X50581D1*
X53299D2*
X58581D1*
X61299D2*
X64104D1*
X66026D2*
X66581D1*
X69299D2*
X70019D1*
X72361D2*
X72741D1*
X10229Y12753D2*
X10862D1*
X13518D2*
X19112D1*
X21768D2*
X25983D1*
X29768D2*
X34862D1*
X37518D2*
X42612D1*
X45268D2*
X50612D1*
X53268D2*
X58612D1*
X61268D2*
X64104D1*
X69268D2*
X70151D1*
X72229D2*
X72741D1*
X13354Y12504D2*
X17597D1*
X21604D2*
X25722D1*
X29604D2*
X33722D1*
X37354D2*
X41722D1*
X45104D2*
X49472D1*
X53104D2*
X58097D1*
X61104D2*
X64104D1*
X69104D2*
X70374D1*
X72006D2*
X72741D1*
X8701Y12255D2*
X8851D1*
X9529D2*
X9726D1*
X12287D2*
X17351D1*
X20717D2*
X25476D1*
X28537D2*
X33476D1*
X36287D2*
X41476D1*
X44217D2*
X49226D1*
X52151D2*
X57851D1*
X60151D2*
X64104D1*
X68037D2*
X70851D1*
X71529D2*
X72741D1*
X8701Y12007D2*
X9476D1*
X12037D2*
X17101D1*
X20537D2*
X25226D1*
X28287D2*
X33226D1*
X36037D2*
X41226D1*
X44037D2*
X48976D1*
X51912D2*
X57601D1*
X59912D2*
X64104D1*
X67787D2*
X72741D1*
X11779Y11758D2*
X12749D1*
X13131D2*
X14749D1*
X15131D2*
X16749D1*
X20279D2*
X20749D1*
X21131D2*
X22749D1*
X23131D2*
X24749D1*
X26541D2*
X26749D1*
X27131D2*
X28749D1*
X29131D2*
X30749D1*
X31131D2*
X32749D1*
X35779D2*
X36749D1*
X37131D2*
X38749D1*
X39131D2*
X40749D1*
X43779D2*
X44749D1*
X45131D2*
X46749D1*
X47131D2*
X48726D1*
X51654D2*
X52749D1*
X53131D2*
X54749D1*
X55131D2*
X56749D1*
X57131D2*
X57351D1*
X59654D2*
X60749D1*
X61131D2*
X62749D1*
X63131D2*
X64104D1*
X66026D2*
X66749D1*
X67131D2*
X68749D1*
X69131D2*
X70749D1*
X71131D2*
X72741D1*
X11576Y11509D2*
X12304D1*
X13576D2*
X14304D1*
X15576D2*
X16304D1*
X18166D2*
X18304D1*
X19576D2*
X20304D1*
X21576D2*
X22304D1*
X23576D2*
X24304D1*
X27576D2*
X28304D1*
X29576D2*
X30304D1*
X31576D2*
X32304D1*
X35576D2*
X36304D1*
X37576D2*
X38304D1*
X39576D2*
X40304D1*
X43576D2*
X44304D1*
X45576D2*
X46304D1*
X47576D2*
X48304D1*
X50041D2*
X50304D1*
X51576D2*
X52304D1*
X53576D2*
X54304D1*
X55576D2*
X56304D1*
X59576D2*
X60304D1*
X61576D2*
X62304D1*
X63576D2*
X64104D1*
X66026D2*
X66304D1*
X67576D2*
X68304D1*
X69576D2*
X70304D1*
X71576D2*
X72741D1*
X11736Y11261D2*
X12144D1*
X13736D2*
X14144D1*
X15736D2*
X16144D1*
X17916D2*
X18144D1*
X19736D2*
X20144D1*
X21736D2*
X22144D1*
X23736D2*
X24144D1*
X27736D2*
X28144D1*
X29736D2*
X30144D1*
X31736D2*
X32144D1*
X35736D2*
X36144D1*
X37736D2*
X38144D1*
X39736D2*
X40144D1*
X43736D2*
X44144D1*
X45736D2*
X46144D1*
X47736D2*
X48144D1*
X49791D2*
X50144D1*
X51736D2*
X52144D1*
X53736D2*
X54144D1*
X55736D2*
X56144D1*
X59736D2*
X60144D1*
X61736D2*
X62144D1*
X63736D2*
X64104D1*
X67736D2*
X68144D1*
X69736D2*
X70144D1*
X71736D2*
X72741D1*
X11795Y11012D2*
X12085D1*
X13795D2*
X14085D1*
X15795D2*
X16085D1*
X17795D2*
X18085D1*
X19795D2*
X20085D1*
X21795D2*
X22085D1*
X23795D2*
X24085D1*
X25795D2*
X26085D1*
X27795D2*
X28085D1*
X29795D2*
X30085D1*
X31795D2*
X32085D1*
X33795D2*
X34085D1*
X35795D2*
X36085D1*
X37795D2*
X38085D1*
X39795D2*
X40085D1*
X41795D2*
X42085D1*
X43795D2*
X44085D1*
X45795D2*
X46085D1*
X47795D2*
X48085D1*
X49795D2*
X50085D1*
X51795D2*
X52085D1*
X53795D2*
X54085D1*
X55795D2*
X56085D1*
X59795D2*
X60085D1*
X61795D2*
X62085D1*
X63795D2*
X64085D1*
X67795D2*
X68085D1*
X69795D2*
X70085D1*
X71795D2*
X72741D1*
X9842Y10763D2*
X10081D1*
X11799D2*
X12081D1*
X13799D2*
X14081D1*
X15799D2*
X16081D1*
X17799D2*
X18081D1*
X19799D2*
X20081D1*
X21799D2*
X22081D1*
X23799D2*
X24081D1*
X25799D2*
X26081D1*
X27799D2*
X28081D1*
X29799D2*
X30081D1*
X31799D2*
X32081D1*
X33799D2*
X34081D1*
X35799D2*
X36081D1*
X37799D2*
X38081D1*
X39799D2*
X40081D1*
X41799D2*
X42081D1*
X43799D2*
X44081D1*
X45799D2*
X46081D1*
X47799D2*
X48081D1*
X49799D2*
X50081D1*
X51799D2*
X52081D1*
X53799D2*
X54081D1*
X55799D2*
X56081D1*
X57920D2*
X58081D1*
X59799D2*
X60081D1*
X61799D2*
X62081D1*
X63799D2*
X64038D1*
X67799D2*
X68081D1*
X69799D2*
X70081D1*
X71799D2*
X72741D1*
X7639Y10514D2*
X7800D1*
X9897D2*
X10081D1*
X11799D2*
X12081D1*
X13799D2*
X14081D1*
X15799D2*
X16081D1*
X17799D2*
X18081D1*
X19799D2*
X20081D1*
X21799D2*
X22081D1*
X23799D2*
X24081D1*
X25799D2*
X26081D1*
X27799D2*
X28081D1*
X29799D2*
X30081D1*
X31799D2*
X32081D1*
X33799D2*
X34081D1*
X35799D2*
X36081D1*
X37799D2*
X38081D1*
X39799D2*
X40081D1*
X41799D2*
X42081D1*
X43799D2*
X44081D1*
X45799D2*
X46081D1*
X47799D2*
X48081D1*
X49799D2*
X50081D1*
X51799D2*
X52081D1*
X53799D2*
X54081D1*
X55799D2*
X56081D1*
X57799D2*
X58081D1*
X59799D2*
X60081D1*
X61799D2*
X62081D1*
X63799D2*
X63983D1*
X67799D2*
X68081D1*
X69799D2*
X70081D1*
X71799D2*
X72741D1*
X7639Y10266D2*
X7979D1*
X9901D2*
X10081D1*
X11799D2*
X12081D1*
X13799D2*
X14081D1*
X15799D2*
X16081D1*
X17799D2*
X18081D1*
X19799D2*
X20081D1*
X21799D2*
X22081D1*
X23799D2*
X24081D1*
X25799D2*
X26081D1*
X27799D2*
X28081D1*
X29799D2*
X30081D1*
X31799D2*
X32081D1*
X33799D2*
X34081D1*
X35799D2*
X36081D1*
X37799D2*
X38081D1*
X39799D2*
X40081D1*
X41799D2*
X42081D1*
X43799D2*
X44081D1*
X45799D2*
X46081D1*
X47799D2*
X48081D1*
X49799D2*
X50081D1*
X51799D2*
X52081D1*
X53799D2*
X54081D1*
X55799D2*
X56081D1*
X57799D2*
X58081D1*
X59799D2*
X60081D1*
X61799D2*
X62081D1*
X63799D2*
X63979D1*
X67799D2*
X68081D1*
X69799D2*
X70081D1*
X71799D2*
X72741D1*
X7639Y10017D2*
X7979D1*
X9901D2*
X10081D1*
X11799D2*
X12081D1*
X13799D2*
X14081D1*
X15799D2*
X16081D1*
X17799D2*
X18081D1*
X19799D2*
X20081D1*
X21799D2*
X22081D1*
X23799D2*
X24081D1*
X25799D2*
X26081D1*
X27799D2*
X28081D1*
X29799D2*
X30081D1*
X31799D2*
X32081D1*
X33799D2*
X34081D1*
X35799D2*
X36081D1*
X37799D2*
X38081D1*
X39799D2*
X40081D1*
X41799D2*
X42081D1*
X43799D2*
X44081D1*
X45799D2*
X46081D1*
X47799D2*
X48081D1*
X49799D2*
X50081D1*
X51799D2*
X52081D1*
X53799D2*
X54081D1*
X55799D2*
X56081D1*
X57799D2*
X58081D1*
X59799D2*
X60081D1*
X61799D2*
X62081D1*
X63799D2*
X63979D1*
X65901D2*
X66081D1*
X67799D2*
X68081D1*
X69799D2*
X70081D1*
X71799D2*
X72741D1*
X7639Y9768D2*
X7979D1*
X9959D2*
X10097D1*
X11783D2*
X12097D1*
X13783D2*
X14097D1*
X15783D2*
X16081D1*
X17799D2*
X18097D1*
X19783D2*
X20097D1*
X21783D2*
X22097D1*
X23783D2*
X24081D1*
X25799D2*
X26097D1*
X27783D2*
X28097D1*
X29783D2*
X30097D1*
X31783D2*
X32081D1*
X33799D2*
X34097D1*
X35783D2*
X36097D1*
X37783D2*
X38097D1*
X39783D2*
X40081D1*
X41799D2*
X42097D1*
X43783D2*
X44097D1*
X45783D2*
X46097D1*
X47783D2*
X48081D1*
X49799D2*
X50097D1*
X51783D2*
X52097D1*
X53783D2*
X54097D1*
X55783D2*
X56081D1*
X57799D2*
X58097D1*
X59783D2*
X60097D1*
X61783D2*
X62097D1*
X63783D2*
X63979D1*
X65901D2*
X66097D1*
X67783D2*
X68097D1*
X69783D2*
X70097D1*
X71783D2*
X72741D1*
X7639Y9520D2*
X7979D1*
X11686D2*
X12194D1*
X13686D2*
X14194D1*
X15686D2*
X16081D1*
X17799D2*
X18194D1*
X19686D2*
X20194D1*
X21686D2*
X22194D1*
X23686D2*
X24081D1*
X25799D2*
X26194D1*
X27686D2*
X28194D1*
X29686D2*
X30194D1*
X31686D2*
X32081D1*
X33799D2*
X34194D1*
X35686D2*
X36194D1*
X37686D2*
X38194D1*
X39686D2*
X40081D1*
X41799D2*
X42194D1*
X43686D2*
X44194D1*
X45686D2*
X46194D1*
X47686D2*
X48081D1*
X49799D2*
X50194D1*
X51686D2*
X52194D1*
X53686D2*
X54194D1*
X55686D2*
X56081D1*
X57799D2*
X58194D1*
X59686D2*
X60194D1*
X61686D2*
X62194D1*
X63686D2*
X63979D1*
X65901D2*
X66194D1*
X67686D2*
X68194D1*
X69686D2*
X70194D1*
X71686D2*
X72741D1*
X7639Y9271D2*
X7995D1*
X11463D2*
X12417D1*
X13463D2*
X14417D1*
X15463D2*
X16081D1*
X17799D2*
X18417D1*
X19463D2*
X20417D1*
X21463D2*
X22417D1*
X23463D2*
X24081D1*
X25799D2*
X26417D1*
X27463D2*
X28417D1*
X29463D2*
X30417D1*
X31463D2*
X32081D1*
X33799D2*
X34417D1*
X35463D2*
X36417D1*
X37463D2*
X38417D1*
X39463D2*
X40081D1*
X41799D2*
X42417D1*
X43463D2*
X44417D1*
X45463D2*
X46417D1*
X47463D2*
X48081D1*
X49799D2*
X50417D1*
X51463D2*
X52417D1*
X53463D2*
X54417D1*
X55463D2*
X56081D1*
X57799D2*
X58417D1*
X59463D2*
X60417D1*
X61463D2*
X62417D1*
X63463D2*
X63925D1*
X65901D2*
X66417D1*
X67463D2*
X68417D1*
X69463D2*
X70417D1*
X71463D2*
X72741D1*
X7639Y9022D2*
X8077D1*
X10705D2*
X16081D1*
X17799D2*
X24081D1*
X25799D2*
X32081D1*
X33799D2*
X40081D1*
X41799D2*
X48081D1*
X49799D2*
X56081D1*
X57799D2*
X63675D1*
X65901D2*
X72741D1*
X7639Y8774D2*
X8261D1*
X65885D2*
X72741D1*
X7639Y8525D2*
X8507D1*
X65803D2*
X72741D1*
X7678Y8276D2*
X8757D1*
X65623D2*
X72702D1*
X7740Y8028D2*
X9007D1*
X65373D2*
X72640D1*
X7830Y7779D2*
X9253D1*
X65127D2*
X72550D1*
X7944Y7530D2*
X9503D1*
X64877D2*
X72436D1*
X8084Y7282D2*
X9753D1*
X64627D2*
X72296D1*
X8260Y7033D2*
X10190D1*
X64190D2*
X72120D1*
X8475Y6784D2*
X71905D1*
X8744Y6535D2*
X71636D1*
X9092Y6287D2*
X71288D1*
X9596Y6038D2*
X70784D1*
X8686Y11733D2*
X8757Y11755D1*
X8880Y11773D1*
X9005Y11772D1*
X9129Y11753D1*
X9222Y11724D1*
X10062Y12568D1*
X10160Y12646D1*
X10273Y12698D1*
X10384Y12722D1*
X10897Y12725D1*
X10862Y12852D1*
X10855Y12940D1*
X10859Y13440D1*
X10856Y13477D1*
X10877Y13600D1*
X10924Y13716D1*
X10994Y13819D1*
X11085Y13905D1*
X11191Y13970D1*
X11309Y14010D1*
X11433Y14025D1*
X11557Y14013D1*
X11691Y13970D1*
X11809Y14010D1*
X11933Y14025D1*
X12057Y14013D1*
X12191Y13970D1*
X12309Y14010D1*
X12433Y14025D1*
X12557Y14013D1*
X12691Y13970D1*
X12809Y14010D1*
X12933Y14025D1*
X13057Y14013D1*
X13176Y13975D1*
X13284Y13913D1*
X13377Y13829D1*
X13449Y13728D1*
X13499Y13613D1*
X13525Y13440D1*
X13521Y12940D1*
X13512Y12816D1*
X13472Y12698D1*
X13409Y12590D1*
X13324Y12499D1*
X13222Y12427D1*
X13107Y12379D1*
X12984Y12357D1*
X12859Y12361D1*
X12738Y12391D1*
X12693Y12413D1*
X12607Y12379D1*
X12484Y12357D1*
X12363Y12360D1*
X11818Y11812D1*
X11720Y11734D1*
X11607Y11682D1*
X11496Y11658D1*
X11374Y11655D1*
X11463Y11591D1*
X11554Y11506D1*
X11632Y11408D1*
X11694Y11299D1*
X11739Y11183D1*
X11766Y11061D1*
X11775Y10815D1*
X11771Y9940D1*
X11766Y9815D1*
X11738Y9694D1*
X11692Y9577D1*
X11630Y9469D1*
X11552Y9372D1*
X11460Y9287D1*
X11357Y9217D1*
X11244Y9162D1*
X11125Y9126D1*
X11002Y9107D1*
X10877D1*
X10753Y9126D1*
X10634Y9163D1*
X10521Y9217D1*
X10418Y9288D1*
X10397Y9306D1*
X10825Y8878D1*
X12815Y8875D1*
X16108D1*
X16105Y9815D1*
X16109Y10940D1*
X16115Y11066D1*
X16143Y11188D1*
X16189Y11304D1*
X16251Y11412D1*
X16329Y11510D1*
X16421Y11594D1*
X16525Y11664D1*
X16637Y11718D1*
X16757Y11755D1*
X16892Y11773D1*
X17687Y12568D1*
X17785Y12646D1*
X17898Y12698D1*
X18009Y12722D1*
X18940Y12725D1*
X19147D1*
X19112Y12852D1*
X19105Y12940D1*
X19109Y13440D1*
X19106Y13477D1*
X19127Y13600D1*
X19174Y13716D1*
X19244Y13819D1*
X19335Y13905D1*
X19441Y13970D1*
X19559Y14010D1*
X19683Y14025D1*
X19807Y14013D1*
X19941Y13970D1*
X20059Y14010D1*
X20183Y14025D1*
X20307Y14013D1*
X20441Y13970D1*
X20559Y14010D1*
X20683Y14025D1*
X20807Y14013D1*
X20941Y13970D1*
X21059Y14010D1*
X21183Y14025D1*
X21307Y14013D1*
X21426Y13975D1*
X21534Y13913D1*
X21627Y13829D1*
X21699Y13728D1*
X21749Y13613D1*
X21775Y13440D1*
X21771Y12940D1*
X21762Y12816D1*
X21722Y12698D1*
X21659Y12590D1*
X21574Y12499D1*
X21472Y12427D1*
X21357Y12379D1*
X21234Y12357D1*
X21109Y12361D1*
X20988Y12391D1*
X20943Y12413D1*
X20857Y12379D1*
X20722Y12357D1*
X20672Y12208D1*
X20606Y12103D1*
X20318Y11812D1*
X20220Y11734D1*
X20107Y11682D1*
X19996Y11658D1*
X19374Y11655D1*
X19463Y11591D1*
X19554Y11506D1*
X19632Y11408D1*
X19694Y11299D1*
X19739Y11183D1*
X19766Y11061D1*
X19775Y10815D1*
X19771Y9940D1*
X19766Y9815D1*
X19738Y9694D1*
X19692Y9577D1*
X19630Y9469D1*
X19552Y9372D1*
X19460Y9287D1*
X19357Y9217D1*
X19244Y9162D1*
X19125Y9126D1*
X19002Y9107D1*
X18877D1*
X18753Y9126D1*
X18634Y9163D1*
X18521Y9217D1*
X18418Y9288D1*
X18327Y9373D1*
X18249Y9471D1*
X18187Y9579D1*
X18142Y9695D1*
X18114Y9817D1*
X18105Y10065D1*
X18109Y10940D1*
X18115Y11066D1*
X18143Y11188D1*
X18189Y11304D1*
X18251Y11412D1*
X18329Y11510D1*
X18421Y11594D1*
X18508Y11653D1*
X18288Y11655D1*
X17756Y11124D1*
X17775Y10940D1*
X17771Y9940D1*
X17775Y9690D1*
Y8874D1*
X24108Y8875D1*
X24105Y9815D1*
X24109Y10940D1*
X24115Y11066D1*
X24143Y11188D1*
X24189Y11304D1*
X24251Y11412D1*
X24329Y11510D1*
X24421Y11594D1*
X24525Y11664D1*
X24637Y11718D1*
X24757Y11755D1*
X24880Y11773D1*
X25017Y11771D1*
X25937Y12693D1*
X26035Y12771D1*
X26148Y12823D1*
X26259Y12847D1*
X27116Y12850D1*
X27108Y12942D1*
X27105Y13440D1*
X27106Y13477D1*
X27127Y13600D1*
X27174Y13716D1*
X27244Y13819D1*
X27335Y13905D1*
X27441Y13970D1*
X27559Y14010D1*
X27683Y14025D1*
X27807Y14013D1*
X27941Y13970D1*
X28059Y14010D1*
X28183Y14025D1*
X28307Y14013D1*
X28441Y13970D1*
X28559Y14010D1*
X28683Y14025D1*
X28807Y14013D1*
X28941Y13970D1*
X29059Y14010D1*
X29183Y14025D1*
X29307Y14013D1*
X29426Y13975D1*
X29534Y13913D1*
X29627Y13829D1*
X29699Y13728D1*
X29749Y13613D1*
X29775Y13440D1*
X29771Y12940D1*
X29762Y12816D1*
X29722Y12698D1*
X29659Y12590D1*
X29574Y12499D1*
X29472Y12427D1*
X29357Y12379D1*
X29234Y12357D1*
X29109Y12361D1*
X28988Y12391D1*
X28943Y12413D1*
X28857Y12379D1*
X28734Y12357D1*
X28613Y12360D1*
X28193Y11937D1*
X28095Y11859D1*
X27982Y11807D1*
X27871Y11783D1*
X26940Y11780D1*
X26538D1*
X25774Y11017D1*
X25775Y9940D1*
Y8874D1*
X32108Y8875D1*
X32105Y9815D1*
X32109Y10940D1*
X32115Y11066D1*
X32143Y11188D1*
X32189Y11304D1*
X32251Y11412D1*
X32329Y11510D1*
X32421Y11594D1*
X32525Y11664D1*
X32637Y11718D1*
X32757Y11755D1*
X32880Y11773D1*
X33017Y11771D1*
X33812Y12568D1*
X33910Y12646D1*
X34023Y12698D1*
X34134Y12722D1*
X34897Y12725D1*
X34862Y12852D1*
X34855Y12940D1*
X34859Y13440D1*
X34856Y13477D1*
X34877Y13600D1*
X34924Y13716D1*
X34994Y13819D1*
X35085Y13905D1*
X35191Y13970D1*
X35309Y14010D1*
X35433Y14025D1*
X35557Y14013D1*
X35691Y13970D1*
X35809Y14010D1*
X35933Y14025D1*
X36057Y14013D1*
X36191Y13970D1*
X36309Y14010D1*
X36433Y14025D1*
X36557Y14013D1*
X36691Y13970D1*
X36809Y14010D1*
X36933Y14025D1*
X37057Y14013D1*
X37176Y13975D1*
X37284Y13913D1*
X37377Y13829D1*
X37449Y13728D1*
X37499Y13613D1*
X37525Y13440D1*
X37521Y12940D1*
X37512Y12816D1*
X37472Y12698D1*
X37409Y12590D1*
X37324Y12499D1*
X37222Y12427D1*
X37107Y12379D1*
X36984Y12357D1*
X36859Y12361D1*
X36738Y12391D1*
X36693Y12413D1*
X36607Y12379D1*
X36484Y12357D1*
X36363Y12360D1*
X35818Y11812D1*
X35720Y11734D1*
X35607Y11682D1*
X35496Y11658D1*
X35374Y11655D1*
X35463Y11591D1*
X35554Y11506D1*
X35632Y11408D1*
X35694Y11299D1*
X35739Y11183D1*
X35766Y11061D1*
X35775Y10815D1*
X35771Y9940D1*
X35766Y9815D1*
X35738Y9694D1*
X35692Y9577D1*
X35630Y9469D1*
X35552Y9372D1*
X35460Y9287D1*
X35357Y9217D1*
X35244Y9162D1*
X35125Y9126D1*
X35002Y9107D1*
X34877D1*
X34753Y9126D1*
X34634Y9163D1*
X34521Y9217D1*
X34418Y9288D1*
X34327Y9373D1*
X34249Y9471D1*
X34187Y9579D1*
X34142Y9695D1*
X34114Y9817D1*
X34105Y10065D1*
X34109Y10940D1*
X34115Y11066D1*
X34143Y11188D1*
X34189Y11304D1*
X34251Y11412D1*
X34329Y11510D1*
X34421Y11594D1*
X34508Y11653D1*
X34413Y11655D1*
X33770Y11013D1*
X33775Y10690D1*
X33771Y9940D1*
X33775Y9690D1*
Y8874D1*
X40108Y8875D1*
X40105Y9815D1*
X40109Y10940D1*
X40115Y11066D1*
X40143Y11188D1*
X40189Y11304D1*
X40251Y11412D1*
X40329Y11510D1*
X40421Y11594D1*
X40525Y11664D1*
X40637Y11718D1*
X40757Y11755D1*
X40880Y11773D1*
X41017Y11771D1*
X41812Y12568D1*
X41910Y12646D1*
X42023Y12698D1*
X42134Y12722D1*
X42647Y12725D1*
X42612Y12852D1*
X42605Y12940D1*
X42609Y13440D1*
X42606Y13477D1*
X42627Y13600D1*
X42674Y13716D1*
X42744Y13819D1*
X42835Y13905D1*
X42941Y13970D1*
X43059Y14010D1*
X43183Y14025D1*
X43307Y14013D1*
X43441Y13970D1*
X43559Y14010D1*
X43683Y14025D1*
X43807Y14013D1*
X43941Y13970D1*
X44059Y14010D1*
X44183Y14025D1*
X44307Y14013D1*
X44441Y13970D1*
X44559Y14010D1*
X44683Y14025D1*
X44807Y14013D1*
X44926Y13975D1*
X45034Y13913D1*
X45127Y13829D1*
X45199Y13728D1*
X45249Y13613D1*
X45275Y13440D1*
X45271Y12940D1*
X45262Y12816D1*
X45222Y12698D1*
X45159Y12590D1*
X45074Y12499D1*
X44972Y12427D1*
X44857Y12379D1*
X44734Y12357D1*
X44609Y12361D1*
X44488Y12391D1*
X44443Y12413D1*
X44357Y12379D1*
X44222Y12357D1*
X44172Y12208D1*
X44106Y12103D1*
X43818Y11812D1*
X43720Y11734D1*
X43607Y11682D1*
X43496Y11658D1*
X43374Y11655D1*
X43463Y11591D1*
X43554Y11506D1*
X43632Y11408D1*
X43694Y11299D1*
X43739Y11183D1*
X43766Y11061D1*
X43775Y10815D1*
X43771Y9940D1*
X43766Y9815D1*
X43738Y9694D1*
X43692Y9577D1*
X43630Y9469D1*
X43552Y9372D1*
X43460Y9287D1*
X43357Y9217D1*
X43244Y9162D1*
X43125Y9126D1*
X43002Y9107D1*
X42877D1*
X42753Y9126D1*
X42634Y9163D1*
X42521Y9217D1*
X42418Y9288D1*
X42327Y9373D1*
X42249Y9471D1*
X42187Y9579D1*
X42142Y9695D1*
X42114Y9817D1*
X42105Y10065D1*
X42109Y10940D1*
X42115Y11066D1*
X42143Y11188D1*
X42189Y11304D1*
X42251Y11412D1*
X42329Y11510D1*
X42421Y11594D1*
X42508Y11653D1*
X42413Y11655D1*
X41770Y11013D1*
X41775Y10690D1*
X41771Y9940D1*
X41775Y9690D1*
Y8874D1*
X48108Y8875D1*
X48105Y9815D1*
X48109Y10940D1*
X48115Y11066D1*
X48143Y11188D1*
X48189Y11304D1*
X48251Y11412D1*
X48329Y11510D1*
X48421Y11594D1*
X48525Y11664D1*
X48637Y11718D1*
X48745Y11751D1*
X49562Y12568D1*
X49660Y12646D1*
X49773Y12698D1*
X49884Y12722D1*
X50647Y12725D1*
X50612Y12852D1*
X50605Y12940D1*
X50609Y13440D1*
X50606Y13477D1*
X50627Y13600D1*
X50674Y13716D1*
X50744Y13819D1*
X50835Y13905D1*
X50941Y13970D1*
X51059Y14010D1*
X51183Y14025D1*
X51307Y14013D1*
X51441Y13970D1*
X51559Y14010D1*
X51683Y14025D1*
X51807Y14013D1*
X51941Y13970D1*
X52059Y14010D1*
X52183Y14025D1*
X52307Y14013D1*
X52441Y13970D1*
X52559Y14010D1*
X52683Y14025D1*
X52807Y14013D1*
X52926Y13975D1*
X53034Y13913D1*
X53127Y13829D1*
X53199Y13728D1*
X53249Y13613D1*
X53275Y13440D1*
X53271Y12940D1*
X53262Y12816D1*
X53222Y12698D1*
X53159Y12590D1*
X53074Y12499D1*
X52972Y12427D1*
X52857Y12379D1*
X52734Y12357D1*
X52609Y12361D1*
X52488Y12391D1*
X52443Y12413D1*
X52357Y12379D1*
X52234Y12357D1*
X52183Y12358D1*
X52106Y12228D1*
X51693Y11812D1*
X51595Y11734D1*
X51492Y11685D1*
X51369Y11658D1*
X51463Y11591D1*
X51554Y11506D1*
X51632Y11408D1*
X51694Y11299D1*
X51739Y11183D1*
X51766Y11061D1*
X51775Y10815D1*
X51771Y9940D1*
X51766Y9815D1*
X51738Y9694D1*
X51692Y9577D1*
X51630Y9469D1*
X51552Y9372D1*
X51460Y9287D1*
X51357Y9217D1*
X51244Y9162D1*
X51125Y9126D1*
X51002Y9107D1*
X50877D1*
X50753Y9126D1*
X50634Y9163D1*
X50521Y9217D1*
X50418Y9288D1*
X50327Y9373D1*
X50249Y9471D1*
X50187Y9579D1*
X50142Y9695D1*
X50114Y9817D1*
X50105Y10065D1*
X50109Y10940D1*
X50115Y11066D1*
X50143Y11188D1*
X50189Y11304D1*
X50251Y11412D1*
X50329Y11510D1*
X50421Y11594D1*
X50508Y11653D1*
X50163Y11655D1*
X49724Y11218D1*
X49766Y11061D1*
X49775Y10815D1*
X49771Y9940D1*
X49775Y9690D1*
Y8874D1*
X56108Y8875D1*
X56105Y9815D1*
X56109Y10940D1*
X56115Y11066D1*
X56143Y11188D1*
X56189Y11304D1*
X56251Y11412D1*
X56329Y11510D1*
X56421Y11594D1*
X56525Y11664D1*
X56637Y11718D1*
X56757Y11755D1*
X56880Y11773D1*
X57005Y11772D1*
X57129Y11753D1*
X57248Y11716D1*
X57307Y11687D1*
X58187Y12568D1*
X58285Y12646D1*
X58398Y12698D1*
X58509Y12722D1*
X58647Y12725D1*
X58612Y12852D1*
X58605Y12940D1*
X58609Y13440D1*
X58606Y13477D1*
X58627Y13600D1*
X58674Y13716D1*
X58744Y13819D1*
X58835Y13905D1*
X58941Y13970D1*
X59059Y14010D1*
X59183Y14025D1*
X59307Y14013D1*
X59441Y13970D1*
X59559Y14010D1*
X59683Y14025D1*
X59807Y14013D1*
X59941Y13970D1*
X60059Y14010D1*
X60183Y14025D1*
X60307Y14013D1*
X60441Y13970D1*
X60559Y14010D1*
X60683Y14025D1*
X60807Y14013D1*
X60926Y13975D1*
X61034Y13913D1*
X61127Y13829D1*
X61199Y13728D1*
X61249Y13613D1*
X61275Y13440D1*
X61271Y12940D1*
X61262Y12816D1*
X61222Y12698D1*
X61159Y12590D1*
X61074Y12499D1*
X60972Y12427D1*
X60857Y12379D1*
X60734Y12357D1*
X60609Y12361D1*
X60488Y12391D1*
X60443Y12413D1*
X60357Y12379D1*
X60234Y12357D1*
X60183Y12358D1*
X60106Y12228D1*
X59693Y11812D1*
X59595Y11734D1*
X59492Y11685D1*
X59369Y11658D1*
X59463Y11591D1*
X59554Y11506D1*
X59632Y11408D1*
X59694Y11299D1*
X59739Y11183D1*
X59766Y11061D1*
X59775Y10815D1*
X59771Y9940D1*
X59766Y9815D1*
X59738Y9694D1*
X59692Y9577D1*
X59630Y9469D1*
X59552Y9372D1*
X59460Y9287D1*
X59357Y9217D1*
X59244Y9162D1*
X59125Y9126D1*
X59002Y9107D1*
X58877D1*
X58753Y9126D1*
X58634Y9163D1*
X58521Y9217D1*
X58418Y9288D1*
X58327Y9373D1*
X58249Y9471D1*
X58187Y9579D1*
X58142Y9695D1*
X58114Y9817D1*
X58105Y10065D1*
X58109Y10940D1*
X58108Y10977D1*
X57775Y10643D1*
X57771Y9940D1*
X57775Y9690D1*
Y8874D1*
X63553Y8875D1*
X64005Y9328D1*
Y10440D1*
X64013Y10565D1*
X64038Y10687D1*
X64087Y10822D1*
X64109Y10940D1*
X64115Y11066D1*
X64130Y11131D1*
Y17756D1*
X63070Y17755D1*
X62945Y17763D1*
X62823Y17788D1*
X62705Y17829D1*
X62593Y17886D1*
X62491Y17956D1*
X62390Y18049D1*
X62286Y17985D1*
X62170Y17939D1*
X62048Y17912D1*
X61923Y17905D1*
X61799Y17918D1*
X61678Y17950D1*
X61564Y18001D1*
X61460Y18069D1*
X61367Y18153D1*
X61316Y18217D1*
X61239Y18129D1*
X61143Y18049D1*
X61036Y17985D1*
X60920Y17939D1*
X60798Y17912D1*
X60673Y17905D1*
X60549Y17918D1*
X60428Y17950D1*
X60314Y18001D1*
X60210Y18069D1*
X60117Y18153D1*
X60066Y18217D1*
X59989Y18129D1*
X59893Y18049D1*
X59786Y17985D1*
X59670Y17939D1*
X59548Y17912D1*
X59423Y17905D1*
X59299Y17918D1*
X59178Y17950D1*
X59064Y18001D1*
X58960Y18069D1*
X58867Y18153D1*
X58789Y18251D1*
X58728Y18359D1*
X58685Y18477D1*
X58660Y18599D1*
X58656Y18724D1*
X58671Y18848D1*
X58703Y18956D1*
X55190Y18955D1*
X53678D1*
X53704Y18871D1*
X53725Y18690D1*
X53715Y18566D1*
X53686Y18444D1*
X53637Y18329D1*
X53571Y18223D1*
X53489Y18129D1*
X53393Y18049D1*
X53286Y17985D1*
X53170Y17939D1*
X53048Y17912D1*
X52923Y17905D1*
X52799Y17918D1*
X52678Y17950D1*
X52564Y18001D1*
X52460Y18069D1*
X52367Y18153D1*
X52316Y18217D1*
X52239Y18129D1*
X52143Y18049D1*
X52036Y17985D1*
X51920Y17939D1*
X51798Y17912D1*
X51673Y17905D1*
X51549Y17918D1*
X51428Y17950D1*
X51314Y18001D1*
X51210Y18069D1*
X51117Y18153D1*
X51066Y18217D1*
X50989Y18129D1*
X50893Y18049D1*
X50786Y17985D1*
X50670Y17939D1*
X50548Y17912D1*
X50423Y17905D1*
X50299Y17918D1*
X50178Y17950D1*
X50064Y18001D1*
X49960Y18069D1*
X49867Y18153D1*
X49789Y18251D1*
X49728Y18359D1*
X49685Y18477D1*
X49660Y18599D1*
X49656Y18724D1*
X49671Y18848D1*
X49703Y18956D1*
X45428Y18955D1*
X45454Y18871D1*
X45475Y18690D1*
X45465Y18566D1*
X45436Y18444D1*
X45387Y18329D1*
X45321Y18223D1*
X45239Y18129D1*
X45143Y18049D1*
X45036Y17985D1*
X44920Y17939D1*
X44798Y17912D1*
X44673Y17905D1*
X44549Y17918D1*
X44428Y17950D1*
X44314Y18001D1*
X44210Y18069D1*
X44117Y18153D1*
X44066Y18217D1*
X43989Y18129D1*
X43893Y18049D1*
X43786Y17985D1*
X43670Y17939D1*
X43548Y17912D1*
X43423Y17905D1*
X43299Y17918D1*
X43178Y17950D1*
X43064Y18001D1*
X42960Y18069D1*
X42867Y18153D1*
X42816Y18217D1*
X42739Y18129D1*
X42643Y18049D1*
X42536Y17985D1*
X42420Y17939D1*
X42298Y17912D1*
X42173Y17905D1*
X42049Y17918D1*
X41928Y17950D1*
X41814Y18001D1*
X41710Y18069D1*
X41617Y18153D1*
X41539Y18251D1*
X41478Y18359D1*
X41435Y18477D1*
X41410Y18599D1*
X41406Y18724D1*
X41421Y18848D1*
X41453Y18956D1*
X37678Y18955D1*
X37704Y18871D1*
X37725Y18690D1*
X37715Y18566D1*
X37686Y18444D1*
X37637Y18329D1*
X37571Y18223D1*
X37489Y18129D1*
X37393Y18049D1*
X37286Y17985D1*
X37170Y17939D1*
X37048Y17912D1*
X36923Y17905D1*
X36799Y17918D1*
X36678Y17950D1*
X36564Y18001D1*
X36439Y18088D1*
X36393Y18049D1*
X36286Y17985D1*
X36170Y17939D1*
X36048Y17912D1*
X35923Y17905D1*
X35799Y17918D1*
X35678Y17950D1*
X35564Y18001D1*
X35439Y18088D1*
X35393Y18049D1*
X35286Y17985D1*
X35170Y17939D1*
X35048Y17912D1*
X34923Y17905D1*
X34799Y17918D1*
X34678Y17950D1*
X34564Y18001D1*
X34460Y18069D1*
X34367Y18153D1*
X34289Y18251D1*
X34228Y18359D1*
X34185Y18477D1*
X34160Y18599D1*
X34156Y18724D1*
X34171Y18848D1*
X34203Y18956D1*
X30678Y18955D1*
X30704Y18871D1*
X30725Y18690D1*
X30715Y18566D1*
X30686Y18444D1*
X30637Y18329D1*
X30571Y18223D1*
X30489Y18129D1*
X30393Y18049D1*
X30286Y17985D1*
X30170Y17939D1*
X30048Y17912D1*
X29923Y17905D1*
X29799Y17918D1*
X29678Y17950D1*
X29564Y18001D1*
X29460Y18069D1*
X29367Y18153D1*
X29316Y18217D1*
X29239Y18129D1*
X29143Y18049D1*
X29036Y17985D1*
X28920Y17939D1*
X28798Y17912D1*
X28673Y17905D1*
X28549Y17918D1*
X28428Y17950D1*
X28314Y18001D1*
X28210Y18069D1*
X28117Y18153D1*
X28066Y18217D1*
X27989Y18129D1*
X27893Y18049D1*
X27786Y17985D1*
X27670Y17939D1*
X27548Y17912D1*
X27423Y17905D1*
X27299Y17918D1*
X27178Y17950D1*
X27064Y18001D1*
X26960Y18069D1*
X26867Y18153D1*
X26789Y18251D1*
X26728Y18359D1*
X26685Y18477D1*
X26660Y18599D1*
X26656Y18724D1*
X26671Y18848D1*
X26703Y18956D1*
X22428Y18955D1*
X22454Y18871D1*
X22475Y18690D1*
X22465Y18566D1*
X22436Y18444D1*
X22387Y18329D1*
X22321Y18223D1*
X22239Y18129D1*
X22143Y18049D1*
X22036Y17985D1*
X21920Y17939D1*
X21798Y17912D1*
X21673Y17905D1*
X21549Y17918D1*
X21428Y17950D1*
X21314Y18001D1*
X21210Y18069D1*
X21117Y18153D1*
X21066Y18217D1*
X20989Y18129D1*
X20893Y18049D1*
X20786Y17985D1*
X20670Y17939D1*
X20548Y17912D1*
X20423Y17905D1*
X20299Y17918D1*
X20178Y17950D1*
X20064Y18001D1*
X19960Y18069D1*
X19867Y18153D1*
X19816Y18217D1*
X19739Y18129D1*
X19643Y18049D1*
X19536Y17985D1*
X19420Y17939D1*
X19298Y17912D1*
X19173Y17905D1*
X19049Y17918D1*
X18928Y17950D1*
X18814Y18001D1*
X18710Y18069D1*
X18617Y18153D1*
X18539Y18251D1*
X18478Y18359D1*
X18435Y18477D1*
X18410Y18599D1*
X18406Y18724D1*
X18421Y18848D1*
X18453Y18956D1*
X14190Y18955D1*
X14066Y18966D1*
X13924Y19005D1*
X13916Y18990D1*
X13954Y18871D1*
X13975Y18690D1*
X13965Y18566D1*
X13936Y18444D1*
X13887Y18329D1*
X13821Y18223D1*
X13739Y18129D1*
X13643Y18049D1*
X13536Y17985D1*
X13420Y17939D1*
X13298Y17912D1*
X13173Y17905D1*
X13049Y17918D1*
X12928Y17950D1*
X12814Y18001D1*
X12689Y18088D1*
X12643Y18049D1*
X12536Y17985D1*
X12420Y17939D1*
X12298Y17912D1*
X12173Y17905D1*
X12049Y17918D1*
X11928Y17950D1*
X11814Y18001D1*
X11689Y18088D1*
X11643Y18049D1*
X11536Y17985D1*
X11420Y17939D1*
X11298Y17912D1*
X11173Y17905D1*
X11049Y17918D1*
X10928Y17950D1*
X10814Y18001D1*
X10710Y18069D1*
X10617Y18153D1*
X10539Y18251D1*
X10478Y18359D1*
X10435Y18477D1*
X10410Y18599D1*
X10406Y18724D1*
X10421Y18848D1*
X10456Y18968D1*
X10509Y19081D1*
X10580Y19184D1*
X10666Y19274D1*
X10765Y19350D1*
X10875Y19409D1*
X10993Y19450D1*
X11116Y19471D1*
X11241Y19473D1*
X11364Y19455D1*
X11483Y19418D1*
X11595Y19362D1*
X11687Y19296D1*
X11875Y19409D1*
X11993Y19450D1*
X12116Y19471D1*
X12241Y19473D1*
X12364Y19455D1*
X12483Y19418D1*
X12595Y19362D1*
X12687Y19296D1*
X12875Y19409D1*
X12993Y19450D1*
X13116Y19471D1*
X13241Y19473D1*
X13398Y19445D1*
X11920Y20920D1*
X11840Y21016D1*
X11768Y21144D1*
X11690Y21155D1*
X10440D1*
X10316Y21170D1*
X10199Y21212D1*
X10103Y21274D1*
X9443Y21930D1*
X8675Y22690D1*
X8677Y14554D1*
X8793Y14600D1*
X8914Y14635D1*
X9037Y14657D1*
X9161Y14666D1*
X9286Y14663D1*
X9410Y14646D1*
X9532Y14618D1*
X9650Y14577D1*
X9763Y14524D1*
X9870Y14460D1*
X9971Y14386D1*
X10063Y14301D1*
X10146Y14208D1*
X10219Y14107D1*
X10282Y13999D1*
X10333Y13885D1*
X10372Y13766D1*
X10399Y13644D1*
X10416Y13440D1*
X10410Y13315D1*
X10391Y13192D1*
X10359Y13071D1*
X10316Y12954D1*
X10260Y12842D1*
X10194Y12736D1*
X10117Y12637D1*
X10031Y12547D1*
X9935Y12466D1*
X9833Y12395D1*
X9723Y12336D1*
X9608Y12287D1*
X9488Y12251D1*
X9366Y12226D1*
X9241Y12215D1*
X9116Y12216D1*
X8992Y12230D1*
X8870Y12256D1*
X8676Y12328D1*
X8675Y11741D1*
X10105Y10938D2*
X10115Y11066D1*
X10128Y11123D1*
X9805Y10798D1*
X9856Y10626D1*
X9875Y10440D1*
Y9827D1*
X10320Y9382D1*
X10249Y9471D1*
X10187Y9579D1*
X10142Y9695D1*
X10114Y9817D1*
X10105Y10065D1*
X10109Y10940D1*
X12105Y10938D2*
X12115Y11066D1*
X12143Y11188D1*
X12189Y11304D1*
X12251Y11412D1*
X12329Y11510D1*
X12421Y11594D1*
X12525Y11664D1*
X12637Y11718D1*
X12757Y11755D1*
X12880Y11773D1*
X13005Y11772D1*
X13129Y11753D1*
X13248Y11716D1*
X13360Y11662D1*
X13463Y11591D1*
X13554Y11506D1*
X13632Y11408D1*
X13694Y11299D1*
X13739Y11183D1*
X13766Y11061D1*
X13775Y10815D1*
X13771Y9940D1*
X13766Y9815D1*
X13738Y9694D1*
X13692Y9577D1*
X13630Y9469D1*
X13552Y9372D1*
X13460Y9287D1*
X13357Y9217D1*
X13244Y9162D1*
X13125Y9126D1*
X13002Y9107D1*
X12877D1*
X12753Y9126D1*
X12634Y9163D1*
X12521Y9217D1*
X12418Y9288D1*
X12327Y9373D1*
X12249Y9471D1*
X12187Y9579D1*
X12142Y9695D1*
X12114Y9817D1*
X12105Y10065D1*
X12109Y10940D1*
X14105Y10938D2*
X14115Y11066D1*
X14143Y11188D1*
X14189Y11304D1*
X14251Y11412D1*
X14329Y11510D1*
X14421Y11594D1*
X14525Y11664D1*
X14637Y11718D1*
X14757Y11755D1*
X14880Y11773D1*
X15005Y11772D1*
X15129Y11753D1*
X15248Y11716D1*
X15360Y11662D1*
X15463Y11591D1*
X15554Y11506D1*
X15632Y11408D1*
X15694Y11299D1*
X15739Y11183D1*
X15766Y11061D1*
X15775Y10815D1*
X15771Y9940D1*
X15766Y9815D1*
X15738Y9694D1*
X15692Y9577D1*
X15630Y9469D1*
X15552Y9372D1*
X15460Y9287D1*
X15357Y9217D1*
X15244Y9162D1*
X15125Y9126D1*
X15002Y9107D1*
X14877D1*
X14753Y9126D1*
X14634Y9163D1*
X14521Y9217D1*
X14418Y9288D1*
X14327Y9373D1*
X14249Y9471D1*
X14187Y9579D1*
X14142Y9695D1*
X14114Y9817D1*
X14105Y10065D1*
X14109Y10940D1*
X20105Y10938D2*
X20115Y11066D1*
X20143Y11188D1*
X20189Y11304D1*
X20251Y11412D1*
X20329Y11510D1*
X20421Y11594D1*
X20525Y11664D1*
X20637Y11718D1*
X20757Y11755D1*
X20880Y11773D1*
X21005Y11772D1*
X21129Y11753D1*
X21248Y11716D1*
X21360Y11662D1*
X21463Y11591D1*
X21554Y11506D1*
X21632Y11408D1*
X21694Y11299D1*
X21739Y11183D1*
X21766Y11061D1*
X21775Y10815D1*
X21771Y9940D1*
X21766Y9815D1*
X21738Y9694D1*
X21692Y9577D1*
X21630Y9469D1*
X21552Y9372D1*
X21460Y9287D1*
X21357Y9217D1*
X21244Y9162D1*
X21125Y9126D1*
X21002Y9107D1*
X20877D1*
X20753Y9126D1*
X20634Y9163D1*
X20521Y9217D1*
X20418Y9288D1*
X20327Y9373D1*
X20249Y9471D1*
X20187Y9579D1*
X20142Y9695D1*
X20114Y9817D1*
X20105Y10065D1*
X20109Y10940D1*
X22105Y10938D2*
X22115Y11066D1*
X22143Y11188D1*
X22189Y11304D1*
X22251Y11412D1*
X22329Y11510D1*
X22421Y11594D1*
X22525Y11664D1*
X22637Y11718D1*
X22757Y11755D1*
X22880Y11773D1*
X23005Y11772D1*
X23129Y11753D1*
X23248Y11716D1*
X23360Y11662D1*
X23463Y11591D1*
X23554Y11506D1*
X23632Y11408D1*
X23694Y11299D1*
X23739Y11183D1*
X23766Y11061D1*
X23775Y10815D1*
X23771Y9940D1*
X23766Y9815D1*
X23738Y9694D1*
X23692Y9577D1*
X23630Y9469D1*
X23552Y9372D1*
X23460Y9287D1*
X23357Y9217D1*
X23244Y9162D1*
X23125Y9126D1*
X23002Y9107D1*
X22877D1*
X22753Y9126D1*
X22634Y9163D1*
X22521Y9217D1*
X22418Y9288D1*
X22327Y9373D1*
X22249Y9471D1*
X22187Y9579D1*
X22142Y9695D1*
X22114Y9817D1*
X22105Y10065D1*
X22109Y10940D1*
X26105Y10938D2*
X26115Y11066D1*
X26143Y11188D1*
X26189Y11304D1*
X26251Y11412D1*
X26329Y11510D1*
X26421Y11594D1*
X26525Y11664D1*
X26637Y11718D1*
X26757Y11755D1*
X26880Y11773D1*
X27005Y11772D1*
X27129Y11753D1*
X27248Y11716D1*
X27360Y11662D1*
X27463Y11591D1*
X27554Y11506D1*
X27632Y11408D1*
X27694Y11299D1*
X27739Y11183D1*
X27766Y11061D1*
X27775Y10815D1*
X27771Y9940D1*
X27766Y9815D1*
X27738Y9694D1*
X27692Y9577D1*
X27630Y9469D1*
X27552Y9372D1*
X27460Y9287D1*
X27357Y9217D1*
X27244Y9162D1*
X27125Y9126D1*
X27002Y9107D1*
X26877D1*
X26753Y9126D1*
X26634Y9163D1*
X26521Y9217D1*
X26418Y9288D1*
X26327Y9373D1*
X26249Y9471D1*
X26187Y9579D1*
X26142Y9695D1*
X26114Y9817D1*
X26105Y10065D1*
X26109Y10940D1*
X28105Y10938D2*
X28115Y11066D1*
X28143Y11188D1*
X28189Y11304D1*
X28251Y11412D1*
X28329Y11510D1*
X28421Y11594D1*
X28525Y11664D1*
X28637Y11718D1*
X28757Y11755D1*
X28880Y11773D1*
X29005Y11772D1*
X29129Y11753D1*
X29248Y11716D1*
X29360Y11662D1*
X29463Y11591D1*
X29554Y11506D1*
X29632Y11408D1*
X29694Y11299D1*
X29739Y11183D1*
X29766Y11061D1*
X29775Y10815D1*
X29771Y9940D1*
X29766Y9815D1*
X29738Y9694D1*
X29692Y9577D1*
X29630Y9469D1*
X29552Y9372D1*
X29460Y9287D1*
X29357Y9217D1*
X29244Y9162D1*
X29125Y9126D1*
X29002Y9107D1*
X28877D1*
X28753Y9126D1*
X28634Y9163D1*
X28521Y9217D1*
X28418Y9288D1*
X28327Y9373D1*
X28249Y9471D1*
X28187Y9579D1*
X28142Y9695D1*
X28114Y9817D1*
X28105Y10065D1*
X28109Y10940D1*
X30105Y10938D2*
X30115Y11066D1*
X30143Y11188D1*
X30189Y11304D1*
X30251Y11412D1*
X30329Y11510D1*
X30421Y11594D1*
X30525Y11664D1*
X30637Y11718D1*
X30757Y11755D1*
X30880Y11773D1*
X31005Y11772D1*
X31129Y11753D1*
X31248Y11716D1*
X31360Y11662D1*
X31463Y11591D1*
X31554Y11506D1*
X31632Y11408D1*
X31694Y11299D1*
X31739Y11183D1*
X31766Y11061D1*
X31775Y10815D1*
X31771Y9940D1*
X31766Y9815D1*
X31738Y9694D1*
X31692Y9577D1*
X31630Y9469D1*
X31552Y9372D1*
X31460Y9287D1*
X31357Y9217D1*
X31244Y9162D1*
X31125Y9126D1*
X31002Y9107D1*
X30877D1*
X30753Y9126D1*
X30634Y9163D1*
X30521Y9217D1*
X30418Y9288D1*
X30327Y9373D1*
X30249Y9471D1*
X30187Y9579D1*
X30142Y9695D1*
X30114Y9817D1*
X30105Y10065D1*
X30109Y10940D1*
X36105Y10938D2*
X36115Y11066D1*
X36143Y11188D1*
X36189Y11304D1*
X36251Y11412D1*
X36329Y11510D1*
X36421Y11594D1*
X36525Y11664D1*
X36637Y11718D1*
X36757Y11755D1*
X36880Y11773D1*
X37005Y11772D1*
X37129Y11753D1*
X37248Y11716D1*
X37360Y11662D1*
X37463Y11591D1*
X37554Y11506D1*
X37632Y11408D1*
X37694Y11299D1*
X37739Y11183D1*
X37766Y11061D1*
X37775Y10815D1*
X37771Y9940D1*
X37766Y9815D1*
X37738Y9694D1*
X37692Y9577D1*
X37630Y9469D1*
X37552Y9372D1*
X37460Y9287D1*
X37357Y9217D1*
X37244Y9162D1*
X37125Y9126D1*
X37002Y9107D1*
X36877D1*
X36753Y9126D1*
X36634Y9163D1*
X36521Y9217D1*
X36418Y9288D1*
X36327Y9373D1*
X36249Y9471D1*
X36187Y9579D1*
X36142Y9695D1*
X36114Y9817D1*
X36105Y10065D1*
X36109Y10940D1*
X38105Y10938D2*
X38115Y11066D1*
X38143Y11188D1*
X38189Y11304D1*
X38251Y11412D1*
X38329Y11510D1*
X38421Y11594D1*
X38525Y11664D1*
X38637Y11718D1*
X38757Y11755D1*
X38880Y11773D1*
X39005Y11772D1*
X39129Y11753D1*
X39248Y11716D1*
X39360Y11662D1*
X39463Y11591D1*
X39554Y11506D1*
X39632Y11408D1*
X39694Y11299D1*
X39739Y11183D1*
X39766Y11061D1*
X39775Y10815D1*
X39771Y9940D1*
X39766Y9815D1*
X39738Y9694D1*
X39692Y9577D1*
X39630Y9469D1*
X39552Y9372D1*
X39460Y9287D1*
X39357Y9217D1*
X39244Y9162D1*
X39125Y9126D1*
X39002Y9107D1*
X38877D1*
X38753Y9126D1*
X38634Y9163D1*
X38521Y9217D1*
X38418Y9288D1*
X38327Y9373D1*
X38249Y9471D1*
X38187Y9579D1*
X38142Y9695D1*
X38114Y9817D1*
X38105Y10065D1*
X38109Y10940D1*
X44105Y10938D2*
X44115Y11066D1*
X44143Y11188D1*
X44189Y11304D1*
X44251Y11412D1*
X44329Y11510D1*
X44421Y11594D1*
X44525Y11664D1*
X44637Y11718D1*
X44757Y11755D1*
X44880Y11773D1*
X45005Y11772D1*
X45129Y11753D1*
X45248Y11716D1*
X45360Y11662D1*
X45463Y11591D1*
X45554Y11506D1*
X45632Y11408D1*
X45694Y11299D1*
X45739Y11183D1*
X45766Y11061D1*
X45775Y10815D1*
X45771Y9940D1*
X45766Y9815D1*
X45738Y9694D1*
X45692Y9577D1*
X45630Y9469D1*
X45552Y9372D1*
X45460Y9287D1*
X45357Y9217D1*
X45244Y9162D1*
X45125Y9126D1*
X45002Y9107D1*
X44877D1*
X44753Y9126D1*
X44634Y9163D1*
X44521Y9217D1*
X44418Y9288D1*
X44327Y9373D1*
X44249Y9471D1*
X44187Y9579D1*
X44142Y9695D1*
X44114Y9817D1*
X44105Y10065D1*
X44109Y10940D1*
X46105Y10938D2*
X46115Y11066D1*
X46143Y11188D1*
X46189Y11304D1*
X46251Y11412D1*
X46329Y11510D1*
X46421Y11594D1*
X46525Y11664D1*
X46637Y11718D1*
X46757Y11755D1*
X46880Y11773D1*
X47005Y11772D1*
X47129Y11753D1*
X47248Y11716D1*
X47360Y11662D1*
X47463Y11591D1*
X47554Y11506D1*
X47632Y11408D1*
X47694Y11299D1*
X47739Y11183D1*
X47766Y11061D1*
X47775Y10815D1*
X47771Y9940D1*
X47766Y9815D1*
X47738Y9694D1*
X47692Y9577D1*
X47630Y9469D1*
X47552Y9372D1*
X47460Y9287D1*
X47357Y9217D1*
X47244Y9162D1*
X47125Y9126D1*
X47002Y9107D1*
X46877D1*
X46753Y9126D1*
X46634Y9163D1*
X46521Y9217D1*
X46418Y9288D1*
X46327Y9373D1*
X46249Y9471D1*
X46187Y9579D1*
X46142Y9695D1*
X46114Y9817D1*
X46105Y10065D1*
X46109Y10940D1*
X52105Y10938D2*
X52115Y11066D1*
X52143Y11188D1*
X52189Y11304D1*
X52251Y11412D1*
X52329Y11510D1*
X52421Y11594D1*
X52525Y11664D1*
X52637Y11718D1*
X52757Y11755D1*
X52880Y11773D1*
X53005Y11772D1*
X53129Y11753D1*
X53248Y11716D1*
X53360Y11662D1*
X53463Y11591D1*
X53554Y11506D1*
X53632Y11408D1*
X53694Y11299D1*
X53739Y11183D1*
X53766Y11061D1*
X53775Y10815D1*
X53771Y9940D1*
X53766Y9815D1*
X53738Y9694D1*
X53692Y9577D1*
X53630Y9469D1*
X53552Y9372D1*
X53460Y9287D1*
X53357Y9217D1*
X53244Y9162D1*
X53125Y9126D1*
X53002Y9107D1*
X52877D1*
X52753Y9126D1*
X52634Y9163D1*
X52521Y9217D1*
X52418Y9288D1*
X52327Y9373D1*
X52249Y9471D1*
X52187Y9579D1*
X52142Y9695D1*
X52114Y9817D1*
X52105Y10065D1*
X52109Y10940D1*
X54105Y10938D2*
X54115Y11066D1*
X54143Y11188D1*
X54189Y11304D1*
X54251Y11412D1*
X54329Y11510D1*
X54421Y11594D1*
X54525Y11664D1*
X54637Y11718D1*
X54757Y11755D1*
X54880Y11773D1*
X55005Y11772D1*
X55129Y11753D1*
X55248Y11716D1*
X55360Y11662D1*
X55463Y11591D1*
X55554Y11506D1*
X55632Y11408D1*
X55694Y11299D1*
X55739Y11183D1*
X55766Y11061D1*
X55775Y10815D1*
X55771Y9940D1*
X55766Y9815D1*
X55738Y9694D1*
X55692Y9577D1*
X55630Y9469D1*
X55552Y9372D1*
X55460Y9287D1*
X55357Y9217D1*
X55244Y9162D1*
X55125Y9126D1*
X55002Y9107D1*
X54877D1*
X54753Y9126D1*
X54634Y9163D1*
X54521Y9217D1*
X54418Y9288D1*
X54327Y9373D1*
X54249Y9471D1*
X54187Y9579D1*
X54142Y9695D1*
X54114Y9817D1*
X54105Y10065D1*
X54109Y10940D1*
X60105Y10938D2*
X60115Y11066D1*
X60143Y11188D1*
X60189Y11304D1*
X60251Y11412D1*
X60329Y11510D1*
X60421Y11594D1*
X60525Y11664D1*
X60637Y11718D1*
X60757Y11755D1*
X60880Y11773D1*
X61005Y11772D1*
X61129Y11753D1*
X61248Y11716D1*
X61360Y11662D1*
X61463Y11591D1*
X61554Y11506D1*
X61632Y11408D1*
X61694Y11299D1*
X61739Y11183D1*
X61766Y11061D1*
X61775Y10815D1*
X61771Y9940D1*
X61766Y9815D1*
X61738Y9694D1*
X61692Y9577D1*
X61630Y9469D1*
X61552Y9372D1*
X61460Y9287D1*
X61357Y9217D1*
X61244Y9162D1*
X61125Y9126D1*
X61002Y9107D1*
X60877D1*
X60753Y9126D1*
X60634Y9163D1*
X60521Y9217D1*
X60418Y9288D1*
X60327Y9373D1*
X60249Y9471D1*
X60187Y9579D1*
X60142Y9695D1*
X60114Y9817D1*
X60105Y10065D1*
X60109Y10940D1*
X62105Y10938D2*
X62115Y11066D1*
X62143Y11188D1*
X62189Y11304D1*
X62251Y11412D1*
X62329Y11510D1*
X62421Y11594D1*
X62525Y11664D1*
X62637Y11718D1*
X62757Y11755D1*
X62880Y11773D1*
X63005Y11772D1*
X63129Y11753D1*
X63248Y11716D1*
X63360Y11662D1*
X63463Y11591D1*
X63554Y11506D1*
X63632Y11408D1*
X63694Y11299D1*
X63739Y11183D1*
X63766Y11061D1*
X63775Y10815D1*
X63771Y9940D1*
X63766Y9815D1*
X63738Y9694D1*
X63692Y9577D1*
X63630Y9469D1*
X63552Y9372D1*
X63460Y9287D1*
X63357Y9217D1*
X63244Y9162D1*
X63125Y9126D1*
X63002Y9107D1*
X62877D1*
X62753Y9126D1*
X62634Y9163D1*
X62521Y9217D1*
X62418Y9288D1*
X62327Y9373D1*
X62249Y9471D1*
X62187Y9579D1*
X62142Y9695D1*
X62114Y9817D1*
X62105Y10065D1*
X62109Y10940D1*
X66105Y10938D2*
X66115Y11066D1*
X66143Y11188D1*
X66189Y11304D1*
X66251Y11412D1*
X66329Y11510D1*
X66421Y11594D1*
X66525Y11664D1*
X66637Y11718D1*
X66757Y11755D1*
X66880Y11773D1*
X67005Y11772D1*
X67129Y11753D1*
X67248Y11716D1*
X67360Y11662D1*
X67463Y11591D1*
X67554Y11506D1*
X67632Y11408D1*
X67694Y11299D1*
X67739Y11183D1*
X67766Y11061D1*
X67775Y10815D1*
X67771Y9940D1*
X67766Y9815D1*
X67738Y9694D1*
X67692Y9577D1*
X67630Y9469D1*
X67552Y9372D1*
X67460Y9287D1*
X67357Y9217D1*
X67244Y9162D1*
X67125Y9126D1*
X67002Y9107D1*
X66877D1*
X66753Y9126D1*
X66634Y9163D1*
X66521Y9217D1*
X66418Y9288D1*
X66327Y9373D1*
X66249Y9471D1*
X66187Y9579D1*
X66142Y9695D1*
X66114Y9817D1*
X66105Y10065D1*
X66109Y10940D1*
X66000D1*
Y10565D1*
X65992Y10440D1*
X65967Y10318D1*
X65875Y10065D1*
Y8940D1*
X65867Y8815D1*
X65842Y8693D1*
X65801Y8575D1*
X65744Y8463D1*
X65674Y8361D1*
X65513Y8190D1*
X64601Y7279D1*
X64507Y7197D1*
X64403Y7128D1*
X64291Y7073D1*
X64172Y7034D1*
X64049Y7011D1*
X63815Y7005D1*
X10440D1*
X10315Y7013D1*
X10193Y7038D1*
X10075Y7079D1*
X9963Y7136D1*
X9861Y7206D1*
X9690Y7367D1*
X8279Y8779D1*
X8197Y8873D1*
X8128Y8977D1*
X8073Y9089D1*
X8034Y9208D1*
X8011Y9331D1*
X8005Y9565D1*
Y10335D1*
X7616Y10724D1*
X7615Y8475D1*
X7679Y8159D1*
X7786Y7827D1*
X7928Y7510D1*
X8105Y7210D1*
X8314Y6932D1*
X8553Y6680D1*
X8819Y6455D1*
X9108Y6262D1*
X9417Y6102D1*
X9742Y5978D1*
X10079Y5890D1*
X10228Y5865D1*
X70155D1*
X70471Y5929D1*
X70803Y6036D1*
X71120Y6178D1*
X71420Y6355D1*
X71698Y6564D1*
X71950Y6803D1*
X72175Y7069D1*
X72368Y7358D1*
X72528Y7667D1*
X72652Y7992D1*
X72740Y8329D1*
X72765Y8478D1*
Y45405D1*
X72701Y45721D1*
X72594Y46053D1*
X72452Y46370D1*
X72275Y46670D1*
X72066Y46948D1*
X71827Y47200D1*
X71561Y47425D1*
X71272Y47618D1*
X70963Y47778D1*
X70638Y47902D1*
X70301Y47990D1*
X70152Y48015D1*
X22936D1*
X22960Y47815D1*
X22950Y47691D1*
X22919Y47569D1*
X22870Y47455D1*
X22803Y47349D1*
X22720Y47256D1*
X22622Y47178D1*
X22514Y47117D1*
X22396Y47074D1*
X22274Y47050D1*
X22149Y47046D1*
X22025Y47063D1*
X21906Y47100D1*
X21794Y47155D1*
X21690Y47231D1*
X21622Y47178D1*
X21514Y47117D1*
X21396Y47074D1*
X21274Y47050D1*
X21149Y47046D1*
X21025Y47063D1*
X20906Y47100D1*
X20794Y47155D1*
X20690Y47231D1*
X20606Y47103D1*
X20483Y46976D1*
X32967Y46975D1*
X33812Y47818D1*
X33910Y47896D1*
X34023Y47948D1*
X34134Y47972D1*
X35065Y47975D1*
X37190D1*
X37314Y47960D1*
X37431Y47918D1*
X37527Y47856D1*
X38135Y47252D1*
X38246Y47393D1*
X38343Y47472D1*
X38453Y47529D1*
X38573Y47564D1*
X38698Y47575D1*
X38822Y47561D1*
X38941Y47523D1*
X39026Y47476D1*
X44100Y47475D1*
X44203Y47529D1*
X44323Y47564D1*
X44448Y47575D1*
X44572Y47561D1*
X44691Y47523D1*
X44800Y47463D1*
X44895Y47383D1*
X44973Y47285D1*
X45030Y47174D1*
X45065Y47054D1*
X45075Y46940D1*
X45063Y46816D1*
X45026Y46696D1*
X44967Y46586D1*
X44888Y46490D1*
X44791Y46411D1*
X44681Y46353D1*
X44562Y46317D1*
X44437Y46305D1*
X44313Y46318D1*
X44194Y46355D1*
X44101Y46405D1*
X39030D1*
X39071Y46316D1*
X39318Y46068D1*
X39396Y45970D1*
X39448Y45857D1*
X39472Y45746D1*
X39475Y44815D1*
Y43663D1*
X40161Y42976D1*
X41940Y42975D1*
X42064Y42960D1*
X42181Y42918D1*
X42277Y42856D1*
X42568Y42568D1*
X42646Y42470D1*
X42698Y42357D1*
X42722Y42246D1*
X42725Y41315D1*
Y41190D1*
X42710Y41066D1*
X42668Y40949D1*
X42606Y40853D1*
X41950Y40193D1*
X40223Y38467D1*
X40225Y35190D1*
Y32381D1*
X40387Y32468D1*
X40507Y32505D1*
X40630Y32523D1*
X40755Y32522D1*
X40879Y32503D1*
X40998Y32466D1*
X41110Y32412D1*
X41190Y32356D1*
X41275Y32414D1*
X41387Y32468D1*
X41507Y32505D1*
X41630Y32523D1*
X41755Y32522D1*
X41879Y32503D1*
X41998Y32466D1*
X42110Y32412D1*
X42190Y32356D1*
X42275Y32414D1*
X42387Y32468D1*
X42507Y32505D1*
X42630Y32523D1*
X42755Y32522D1*
X42879Y32503D1*
X42998Y32466D1*
X43110Y32412D1*
X43190Y32356D1*
X43275Y32414D1*
X43387Y32468D1*
X43507Y32505D1*
X43630Y32523D1*
X43755Y32522D1*
X43879Y32503D1*
X43998Y32466D1*
X44110Y32412D1*
X44213Y32341D1*
X44304Y32256D1*
X44382Y32158D1*
X44444Y32049D1*
X44489Y31933D1*
X44516Y31811D1*
X44525Y31690D1*
X44516Y31565D1*
X44488Y31444D1*
X44442Y31327D1*
X44358Y31192D1*
X44444Y31049D1*
X44489Y30933D1*
X44516Y30811D1*
X44525Y30690D1*
X44516Y30565D1*
X44488Y30444D1*
X44440Y30324D1*
X44937Y30329D1*
X44892Y30445D1*
X44864Y30567D1*
X44855Y30692D1*
X44865Y30816D1*
X44893Y30938D1*
X44939Y31054D1*
X45023Y31190D1*
X44937Y31329D1*
X44892Y31445D1*
X44864Y31567D1*
X44855Y31692D1*
X44865Y31816D1*
X44893Y31938D1*
X44939Y32054D1*
X45023Y32190D1*
X44937Y32329D1*
X44892Y32445D1*
X44864Y32567D1*
X44855Y32692D1*
X44865Y32816D1*
X44893Y32938D1*
X44939Y33054D1*
X45023Y33190D1*
X44937Y33329D1*
X44892Y33445D1*
X44864Y33567D1*
X44855Y33692D1*
X44865Y33816D1*
X44893Y33938D1*
X44939Y34054D1*
X45001Y34162D1*
X45079Y34260D1*
X45171Y34344D1*
X45275Y34414D1*
X45387Y34468D1*
X45507Y34505D1*
X45630Y34523D1*
X45755Y34522D1*
X45875Y34504D1*
X45855Y34692D1*
X45865Y34816D1*
X45893Y34938D1*
X45939Y35054D1*
X46023Y35190D1*
X45937Y35329D1*
X45892Y35445D1*
X45864Y35567D1*
X45855Y35692D1*
X45865Y35816D1*
X45893Y35938D1*
X45939Y36054D1*
X46023Y36190D1*
X45937Y36329D1*
X45892Y36445D1*
X45864Y36567D1*
X45855Y36692D1*
X45865Y36816D1*
X45893Y36938D1*
X45939Y37054D1*
X46023Y37190D1*
X45937Y37329D1*
X45892Y37445D1*
X45864Y37567D1*
X45855Y37692D1*
X45865Y37816D1*
X45893Y37938D1*
X45939Y38054D1*
X46023Y38190D1*
X45937Y38329D1*
X45892Y38445D1*
X45864Y38567D1*
X45855Y38692D1*
X45865Y38816D1*
X45893Y38938D1*
X45939Y39054D1*
X46023Y39190D1*
X45937Y39329D1*
X45892Y39445D1*
X45864Y39567D1*
X45855Y39692D1*
X45865Y39816D1*
X45893Y39938D1*
X45939Y40054D1*
X46023Y40190D1*
X45937Y40329D1*
X45892Y40445D1*
X45864Y40567D1*
X45855Y40692D1*
X45865Y40816D1*
X45893Y40938D1*
X45939Y41054D1*
X46023Y41190D1*
X45937Y41329D1*
X45892Y41445D1*
X45864Y41567D1*
X45855Y41692D1*
X45865Y41816D1*
X45893Y41938D1*
X45939Y42054D1*
X46023Y42190D1*
X45937Y42329D1*
X45892Y42445D1*
X45864Y42567D1*
X45855Y42692D1*
X45865Y42816D1*
X45893Y42938D1*
X45939Y43054D1*
X46023Y43190D1*
X45937Y43329D1*
X45892Y43445D1*
X45864Y43567D1*
X45855Y43692D1*
X45865Y43816D1*
X45893Y43938D1*
X45939Y44054D1*
X46023Y44190D1*
X45937Y44329D1*
X45892Y44445D1*
X45864Y44567D1*
X45855Y44692D1*
X45865Y44816D1*
X45893Y44938D1*
X45939Y45054D1*
X46023Y45190D1*
X45937Y45329D1*
X45892Y45445D1*
X45864Y45567D1*
X45855Y45692D1*
X45865Y45816D1*
X45893Y45938D1*
X45939Y46054D1*
X46001Y46162D1*
X46079Y46260D1*
X46171Y46344D1*
X46275Y46414D1*
X46387Y46468D1*
X46507Y46505D1*
X46630Y46523D1*
X46755Y46522D1*
X46879Y46503D1*
X46998Y46466D1*
X47110Y46412D1*
X47213Y46341D1*
X47304Y46256D1*
X47382Y46158D1*
X47444Y46049D1*
X47489Y45933D1*
X47516Y45811D1*
X47525Y45690D1*
X47516Y45565D1*
X47488Y45444D1*
X47442Y45327D1*
X47358Y45192D1*
X47444Y45049D1*
X47489Y44933D1*
X47516Y44811D1*
X47525Y44690D1*
X47516Y44565D1*
X47488Y44444D1*
X47442Y44327D1*
X47358Y44192D1*
X47444Y44049D1*
X47489Y43933D1*
X47516Y43811D1*
X47525Y43690D1*
X47516Y43565D1*
X47488Y43444D1*
X47442Y43327D1*
X47358Y43192D1*
X47444Y43049D1*
X47489Y42933D1*
X47516Y42811D1*
X47525Y42690D1*
X47516Y42565D1*
X47488Y42444D1*
X47442Y42327D1*
X47358Y42192D1*
X47444Y42049D1*
X47489Y41933D1*
X47516Y41811D1*
X47525Y41690D1*
X47516Y41565D1*
X47488Y41444D1*
X47442Y41327D1*
X47358Y41192D1*
X47444Y41049D1*
X47489Y40933D1*
X47516Y40811D1*
X47525Y40690D1*
X47516Y40565D1*
X47488Y40444D1*
X47442Y40327D1*
X47363Y40198D1*
X47422Y40172D1*
X47527Y40106D1*
X48187Y39450D1*
X48318Y39318D1*
X48396Y39220D1*
X48448Y39107D1*
X48472Y38996D1*
X48475Y38065D1*
Y35530D1*
X48530Y35424D1*
X48565Y35304D1*
X48572Y35222D1*
X50065Y35225D1*
X54350D1*
X54453Y35279D1*
X54573Y35314D1*
X54698Y35325D1*
X54822Y35311D1*
X54941Y35273D1*
X55050Y35213D1*
X55145Y35133D1*
X55223Y35035D1*
X55280Y34924D1*
X55315Y34804D1*
X55325Y34690D1*
X55313Y34566D1*
X55276Y34446D1*
X55217Y34336D1*
X55138Y34240D1*
X55041Y34161D1*
X54931Y34103D1*
X54812Y34067D1*
X54687Y34055D1*
X54563Y34068D1*
X54444Y34105D1*
X54351Y34155D1*
X47381D1*
X47444Y34049D1*
X47489Y33933D1*
X47516Y33811D1*
X47525Y33690D1*
X47516Y33565D1*
X47488Y33444D1*
X47442Y33327D1*
X47358Y33192D1*
X47444Y33049D1*
X47489Y32933D1*
X47516Y32811D1*
X47525Y32690D1*
X47516Y32565D1*
X47488Y32444D1*
X47442Y32327D1*
X47358Y32192D1*
X47444Y32049D1*
X47489Y31933D1*
X47516Y31811D1*
X47525Y31690D1*
X47516Y31565D1*
X47488Y31444D1*
X47442Y31327D1*
X47382Y31223D1*
X49190Y31225D1*
X59225D1*
X59328Y31279D1*
X59448Y31314D1*
X59573Y31325D1*
X59697Y31311D1*
X59816Y31273D1*
X59925Y31213D1*
X60020Y31133D1*
X60098Y31035D1*
X60155Y30924D1*
X60190Y30804D1*
X60200Y30690D1*
X60188Y30566D1*
X60151Y30446D1*
X60085Y30327D1*
X62315Y30325D1*
X65803D1*
X65805Y33065D1*
Y33940D1*
X65817Y34064D1*
X65856Y34189D1*
X65905Y34315D1*
Y34788D1*
X65829Y34881D1*
X65769Y34990D1*
X65728Y35108D1*
X65707Y35231D1*
X65705Y35590D1*
X65708Y35656D1*
X65730Y35779D1*
X65772Y35896D1*
X65833Y36005D1*
X65912Y36102D1*
X66007Y36184D1*
X66113Y36248D1*
X66229Y36294D1*
X66352Y36320D1*
X66476Y36324D1*
X66600Y36307D1*
X66719Y36270D1*
X66830Y36213D1*
X66930Y36138D1*
X67016Y36047D1*
X67085Y35943D1*
X67135Y35829D1*
X67166Y35708D1*
X67175Y35465D1*
X67171Y35290D1*
X67164Y35166D1*
X67133Y35045D1*
X67081Y34931D1*
X66976Y34791D1*
X66975Y34577D1*
X68897Y34575D1*
X69025Y34664D1*
X69137Y34718D1*
X69257Y34755D1*
X69380Y34773D1*
X69505Y34772D1*
X69629Y34753D1*
X69748Y34716D1*
X69860Y34662D1*
X69963Y34591D1*
X70054Y34506D1*
X70132Y34408D1*
X70194Y34299D1*
X70239Y34183D1*
X70266Y34061D1*
X70275Y33940D1*
X70266Y33815D1*
X70238Y33694D1*
X70192Y33577D1*
X70130Y33469D1*
X70052Y33372D1*
X69960Y33287D1*
X69857Y33217D1*
X69744Y33162D1*
X69625Y33126D1*
X69502Y33107D1*
X69377D1*
X69253Y33126D1*
X69134Y33163D1*
X69021Y33217D1*
X68898Y33307D1*
X67077Y33305D1*
X67075Y32077D1*
X67897Y32075D1*
X68025Y32164D1*
X68137Y32218D1*
X68257Y32255D1*
X68380Y32273D1*
X68505Y32272D1*
X68629Y32253D1*
X68748Y32216D1*
X68860Y32162D1*
X68963Y32091D1*
X69054Y32006D1*
X69132Y31908D1*
X69194Y31799D1*
X69239Y31683D1*
X69266Y31561D1*
X69275Y31440D1*
X69266Y31315D1*
X69238Y31194D1*
X69192Y31077D1*
X69130Y30969D1*
X69052Y30872D1*
X68960Y30787D1*
X68857Y30717D1*
X68744Y30662D1*
X68625Y30626D1*
X68502Y30607D1*
X68377D1*
X68253Y30626D1*
X68134Y30663D1*
X68021Y30717D1*
X67898Y30807D1*
X67077Y30805D1*
X67075Y30577D1*
X68690Y30575D1*
X68814Y30563D1*
X68934Y30526D1*
X69044Y30467D1*
X69139Y30389D1*
X69889Y29639D1*
X69968Y29543D1*
X70027Y29432D1*
X70116Y29147D1*
X70185Y29043D1*
X70235Y28929D1*
X70266Y28808D1*
X70275Y28690D1*
X70264Y28566D1*
X70233Y28445D1*
X70181Y28331D1*
X70076Y28191D1*
X70185Y28043D1*
X70235Y27929D1*
X70266Y27808D1*
X70275Y27690D1*
X70264Y27566D1*
X70233Y27445D1*
X70181Y27331D1*
X70076Y27191D1*
X70185Y27043D1*
X70235Y26929D1*
X70266Y26808D1*
X70275Y26690D1*
X70264Y26566D1*
X70233Y26445D1*
X70181Y26331D1*
X70111Y26228D1*
X70025Y26138D1*
X69924Y26064D1*
X69813Y26008D1*
X69693Y25971D1*
X69540Y25955D1*
X69245Y25961D1*
X69123Y25988D1*
X69007Y26035D1*
X68901Y26100D1*
X68808Y26183D1*
X68729Y26281D1*
X68669Y26390D1*
X68628Y26508D1*
X68607Y26631D1*
X68608Y26756D1*
X68630Y26879D1*
X68672Y26996D1*
X68733Y27105D1*
X68800Y27187D1*
X68729Y27281D1*
X68669Y27390D1*
X68628Y27508D1*
X68607Y27631D1*
X68608Y27756D1*
X68630Y27879D1*
X68672Y27996D1*
X68733Y28105D1*
X68800Y28187D1*
X68729Y28281D1*
X68669Y28390D1*
X68628Y28508D1*
X68607Y28631D1*
X68608Y28756D1*
X68630Y28879D1*
X68697Y29040D1*
X68425Y29307D1*
X67272Y29305D1*
X67275Y28650D1*
Y27855D1*
X67255D1*
X67275Y27690D1*
X67264Y27566D1*
X67233Y27445D1*
X67181Y27331D1*
X67076Y27191D1*
X67185Y27043D1*
X67235Y26929D1*
X67266Y26808D1*
X67275Y26690D1*
X67264Y26566D1*
X67233Y26445D1*
X67181Y26331D1*
X67111Y26228D1*
X67025Y26138D1*
X66924Y26064D1*
X66813Y26008D1*
X66693Y25971D1*
X66540Y25955D1*
X66245Y25961D1*
X66123Y25988D1*
X66007Y26035D1*
X65901Y26100D1*
X65808Y26183D1*
X65729Y26281D1*
X65669Y26390D1*
X65628Y26508D1*
X65607Y26631D1*
X65608Y26756D1*
X65630Y26879D1*
X65672Y26996D1*
X65733Y27105D1*
X65800Y27187D1*
X65729Y27281D1*
X65669Y27390D1*
X65628Y27508D1*
X65607Y27631D1*
X65608Y27756D1*
X65625Y27852D1*
X65605Y27855D1*
Y29054D1*
X60428Y29055D1*
X60485Y28929D1*
X60516Y28808D1*
X60525Y28690D1*
X60514Y28566D1*
X60483Y28445D1*
X60431Y28331D1*
X60326Y28191D1*
X60435Y28043D1*
X60485Y27929D1*
X60516Y27808D1*
X60525Y27690D1*
X60514Y27566D1*
X60483Y27445D1*
X60431Y27331D1*
X60326Y27191D1*
X60435Y27043D1*
X60485Y26929D1*
X60516Y26808D1*
X60525Y26690D1*
X60514Y26566D1*
X60483Y26445D1*
X60431Y26331D1*
X60361Y26228D1*
X60275Y26138D1*
X60174Y26064D1*
X60063Y26008D1*
X59943Y25971D1*
X59790Y25955D1*
X59495Y25961D1*
X59373Y25988D1*
X59257Y26035D1*
X59151Y26100D1*
X59058Y26183D1*
X58979Y26281D1*
X58919Y26390D1*
X58878Y26508D1*
X58857Y26631D1*
X58858Y26756D1*
X58880Y26879D1*
X58922Y26996D1*
X58983Y27105D1*
X59050Y27187D1*
X58979Y27281D1*
X58919Y27390D1*
X58878Y27508D1*
X58857Y27631D1*
X58858Y27756D1*
X58880Y27879D1*
X58922Y27996D1*
X58983Y28105D1*
X59050Y28187D1*
X58979Y28281D1*
X58919Y28390D1*
X58878Y28508D1*
X58857Y28631D1*
X58858Y28756D1*
X58880Y28879D1*
X58922Y28996D1*
X58955Y29054D1*
X58202Y29055D1*
X58188Y28941D1*
X58151Y28821D1*
X58102Y28729D1*
X58100Y27530D1*
X58155Y27424D1*
X58190Y27304D1*
X58200Y27190D1*
X58188Y27066D1*
X58151Y26946D1*
X58092Y26836D1*
X58013Y26740D1*
X57916Y26661D1*
X57806Y26603D1*
X57687Y26567D1*
X57562Y26555D1*
X57512Y26560D1*
X57483Y26445D1*
X57431Y26331D1*
X57361Y26228D1*
X57275Y26138D1*
X57174Y26064D1*
X57063Y26008D1*
X56943Y25971D1*
X56790Y25955D1*
X56495Y25961D1*
X56373Y25988D1*
X56257Y26035D1*
X56151Y26100D1*
X56058Y26183D1*
X55979Y26281D1*
X55919Y26390D1*
X55878Y26508D1*
X55857Y26631D1*
X55858Y26756D1*
X55880Y26879D1*
X55922Y26996D1*
X55983Y27105D1*
X56050Y27187D1*
X55979Y27281D1*
X55919Y27390D1*
X55878Y27508D1*
X55857Y27631D1*
X55858Y27756D1*
X55875Y27852D1*
X55855Y27855D1*
Y29054D1*
X47428Y29055D1*
X47485Y28929D1*
X47516Y28808D1*
X47525Y28690D1*
X47514Y28566D1*
X47483Y28445D1*
X47431Y28331D1*
X47326Y28191D1*
X47435Y28043D1*
X47485Y27929D1*
X47516Y27808D1*
X47525Y27690D1*
X47514Y27566D1*
X47483Y27445D1*
X47431Y27331D1*
X47326Y27191D1*
X47435Y27043D1*
X47485Y26929D1*
X47516Y26808D1*
X47525Y26690D1*
X47514Y26566D1*
X47483Y26445D1*
X47431Y26331D1*
X47361Y26228D1*
X47275Y26138D1*
X47174Y26064D1*
X47063Y26008D1*
X46943Y25971D1*
X46790Y25955D1*
X46495Y25961D1*
X46373Y25988D1*
X46257Y26035D1*
X46151Y26100D1*
X46058Y26183D1*
X45979Y26281D1*
X45919Y26390D1*
X45878Y26508D1*
X45857Y26631D1*
X45858Y26756D1*
X45880Y26879D1*
X45922Y26996D1*
X45983Y27105D1*
X46050Y27187D1*
X45979Y27281D1*
X45919Y27390D1*
X45878Y27508D1*
X45857Y27631D1*
X45858Y27756D1*
X45880Y27879D1*
X45922Y27996D1*
X45983Y28105D1*
X46050Y28187D1*
X45979Y28281D1*
X45919Y28390D1*
X45878Y28508D1*
X45857Y28631D1*
X45858Y28756D1*
X45880Y28879D1*
X45922Y28996D1*
X45955Y29054D1*
X44522Y29055D1*
X44525Y28400D1*
Y27855D1*
X44505D1*
X44525Y27690D1*
X44514Y27566D1*
X44483Y27445D1*
X44431Y27331D1*
X44326Y27191D1*
X44435Y27043D1*
X44485Y26929D1*
X44516Y26808D1*
X44525Y26690D1*
X44514Y26566D1*
X44483Y26445D1*
X44431Y26331D1*
X44361Y26228D1*
X44275Y26138D1*
X44174Y26064D1*
X44063Y26008D1*
X43943Y25971D1*
X43790Y25955D1*
X43495Y25961D1*
X43373Y25988D1*
X43257Y26035D1*
X43151Y26100D1*
X43058Y26183D1*
X42979Y26281D1*
X42919Y26390D1*
X42878Y26508D1*
X42857Y26631D1*
X42858Y26756D1*
X42880Y26879D1*
X42922Y26996D1*
X42983Y27105D1*
X43050Y27187D1*
X42979Y27281D1*
X42919Y27390D1*
X42878Y27508D1*
X42857Y27631D1*
X42858Y27756D1*
X42875Y27852D1*
X42855Y27855D1*
Y29054D1*
X39678Y29055D1*
X39735Y28929D1*
X39766Y28808D1*
X39775Y28690D1*
X39764Y28566D1*
X39733Y28445D1*
X39681Y28331D1*
X39576Y28191D1*
X39685Y28043D1*
X39727Y27947D1*
X39866Y27971D1*
X39991Y27973D1*
X40114Y27955D1*
X40233Y27918D1*
X40345Y27862D1*
X40447Y27790D1*
X40535Y27702D1*
X40609Y27601D1*
X40666Y27490D1*
X40704Y27371D1*
X40725Y27190D1*
X40715Y27066D1*
X40686Y26944D1*
X40637Y26829D1*
X40571Y26723D1*
X40489Y26629D1*
X40393Y26549D1*
X40286Y26485D1*
X40170Y26439D1*
X40048Y26412D1*
X39923Y26405D1*
X39799Y26418D1*
X39727Y26437D1*
X39681Y26331D1*
X39611Y26228D1*
X39525Y26138D1*
X39424Y26064D1*
X39313Y26008D1*
X39193Y25971D1*
X39040Y25955D1*
X38745Y25961D1*
X38623Y25988D1*
X38507Y26035D1*
X38401Y26100D1*
X38308Y26183D1*
X38229Y26281D1*
X38169Y26390D1*
X38128Y26508D1*
X38107Y26631D1*
X38108Y26756D1*
X38130Y26879D1*
X38172Y26996D1*
X38233Y27105D1*
X38300Y27187D1*
X38229Y27281D1*
X38169Y27390D1*
X38128Y27508D1*
X38107Y27631D1*
X38108Y27756D1*
X38130Y27879D1*
X38172Y27996D1*
X38233Y28105D1*
X38300Y28187D1*
X38229Y28281D1*
X38169Y28390D1*
X38128Y28508D1*
X38107Y28631D1*
X38108Y28756D1*
X38130Y28879D1*
X38172Y28996D1*
X38205Y29054D1*
X36772Y29055D1*
X36775Y28400D1*
Y27855D1*
X36755D1*
X36775Y27690D1*
X36764Y27566D1*
X36733Y27445D1*
X36681Y27331D1*
X36576Y27191D1*
X36685Y27043D1*
X36735Y26929D1*
X36766Y26808D1*
X36775Y26690D1*
X36764Y26566D1*
X36733Y26445D1*
X36681Y26331D1*
X36611Y26228D1*
X36525Y26138D1*
X36424Y26064D1*
X36313Y26008D1*
X36193Y25971D1*
X36040Y25955D1*
X35745Y25961D1*
X35623Y25988D1*
X35507Y26035D1*
X35401Y26100D1*
X35308Y26183D1*
X35229Y26281D1*
X35169Y26390D1*
X35128Y26508D1*
X35107Y26631D1*
X35108Y26756D1*
X35130Y26879D1*
X35172Y26996D1*
X35233Y27105D1*
X35300Y27187D1*
X35229Y27281D1*
X35169Y27390D1*
X35128Y27508D1*
X35107Y27631D1*
X35108Y27756D1*
X35125Y27852D1*
X35105Y27855D1*
Y29054D1*
X24428Y29055D1*
X24485Y28929D1*
X24516Y28808D1*
X24525Y28690D1*
X24514Y28566D1*
X24483Y28445D1*
X24431Y28331D1*
X24326Y28191D1*
X24435Y28043D1*
X24485Y27929D1*
X24516Y27808D1*
X24525Y27690D1*
X24514Y27566D1*
X24483Y27445D1*
X24431Y27331D1*
X24326Y27191D1*
X24435Y27043D1*
X24485Y26929D1*
X24516Y26808D1*
X24525Y26690D1*
X24514Y26566D1*
X24483Y26445D1*
X24431Y26331D1*
X24361Y26228D1*
X24275Y26138D1*
X24174Y26064D1*
X24063Y26008D1*
X23943Y25971D1*
X23790Y25955D1*
X23495Y25961D1*
X23373Y25988D1*
X23257Y26035D1*
X23151Y26100D1*
X23058Y26183D1*
X22979Y26281D1*
X22919Y26390D1*
X22878Y26508D1*
X22857Y26631D1*
X22858Y26756D1*
X22880Y26879D1*
X22922Y26996D1*
X22983Y27105D1*
X23050Y27187D1*
X22979Y27281D1*
X22919Y27390D1*
X22878Y27508D1*
X22857Y27631D1*
X22858Y27756D1*
X22880Y27879D1*
X22922Y27996D1*
X22983Y28105D1*
X23050Y28187D1*
X22979Y28281D1*
X22919Y28390D1*
X22878Y28508D1*
X22857Y28631D1*
X22858Y28756D1*
X22880Y28879D1*
X22922Y28996D1*
X22955Y29054D1*
X21522Y29055D1*
X21525Y28400D1*
Y27855D1*
X21505D1*
X21525Y27690D1*
X21514Y27566D1*
X21483Y27445D1*
X21431Y27331D1*
X21326Y27191D1*
X21435Y27043D1*
X21485Y26929D1*
X21516Y26808D1*
X21525Y26690D1*
X21514Y26566D1*
X21483Y26445D1*
X21431Y26331D1*
X21361Y26228D1*
X21275Y26138D1*
X21174Y26064D1*
X21063Y26008D1*
X20943Y25971D1*
X20790Y25955D1*
X20495Y25961D1*
X20373Y25988D1*
X20257Y26035D1*
X20151Y26100D1*
X20058Y26183D1*
X19979Y26281D1*
X19919Y26390D1*
X19878Y26508D1*
X19857Y26631D1*
X19858Y26756D1*
X19880Y26879D1*
X19922Y26996D1*
X19983Y27105D1*
X20050Y27187D1*
X19979Y27281D1*
X19919Y27390D1*
X19878Y27508D1*
X19857Y27631D1*
X19858Y27756D1*
X19875Y27852D1*
X19855Y27855D1*
Y29054D1*
X16202Y29055D1*
X16266Y28808D1*
X16275Y28690D1*
X16264Y28566D1*
X16233Y28445D1*
X16181Y28331D1*
X16076Y28191D1*
X16185Y28043D1*
X16235Y27929D1*
X16266Y27808D1*
X16275Y27690D1*
X16264Y27566D1*
X16233Y27445D1*
X16181Y27331D1*
X16076Y27191D1*
X16185Y27043D1*
X16235Y26929D1*
X16266Y26808D1*
X16275Y26690D1*
X16264Y26566D1*
X16233Y26445D1*
X16181Y26331D1*
X16111Y26228D1*
X16025Y26138D1*
X15924Y26064D1*
X15813Y26008D1*
X15693Y25971D1*
X15540Y25955D1*
X15245Y25961D1*
X15123Y25988D1*
X15007Y26035D1*
X14901Y26100D1*
X14808Y26183D1*
X14729Y26281D1*
X14669Y26390D1*
X14628Y26508D1*
X14607Y26631D1*
X14608Y26756D1*
X14630Y26879D1*
X14672Y26996D1*
X14733Y27105D1*
X14800Y27187D1*
X14729Y27281D1*
X14669Y27390D1*
X14628Y27508D1*
X14607Y27631D1*
X14608Y27756D1*
X14630Y27879D1*
X14672Y27996D1*
X14733Y28105D1*
X14800Y28187D1*
X14729Y28281D1*
X14669Y28390D1*
X14628Y28508D1*
X14607Y28631D1*
X14608Y28756D1*
X14630Y28879D1*
X14672Y28996D1*
X14733Y29105D1*
X14805Y29194D1*
X14818Y29318D1*
X14855Y29437D1*
X14915Y29547D1*
X15079Y29727D1*
X15259Y29907D1*
X12663Y29905D1*
X12280Y29523D1*
X13275Y29525D1*
Y27855D1*
X13255D1*
X13275Y27690D1*
X13264Y27566D1*
X13233Y27445D1*
X13181Y27331D1*
X13076Y27191D1*
X13185Y27043D1*
X13235Y26929D1*
X13266Y26808D1*
X13275Y26690D1*
X13264Y26566D1*
X13233Y26445D1*
X13181Y26331D1*
X13111Y26228D1*
X13025Y26138D1*
X12924Y26064D1*
X12813Y26008D1*
X12693Y25971D1*
X12540Y25955D1*
X12245Y25961D1*
X12123Y25988D1*
X12007Y26035D1*
X11901Y26100D1*
X11808Y26183D1*
X11729Y26281D1*
X11669Y26390D1*
X11628Y26508D1*
X11607Y26631D1*
X11608Y26756D1*
X11630Y26879D1*
X11672Y26996D1*
X11733Y27105D1*
X11800Y27187D1*
X11729Y27281D1*
X11669Y27390D1*
X11628Y27508D1*
X11607Y27631D1*
X11608Y27756D1*
X11625Y27852D1*
X11605Y27855D1*
Y28828D1*
X11437Y28805D1*
X11313Y28818D1*
X11194Y28855D1*
X11084Y28914D1*
X10988Y28994D1*
X10910Y29091D1*
X10852Y29201D1*
X10816Y29321D1*
X10805Y29445D1*
X10818Y29569D1*
X10856Y29688D1*
X10915Y29798D1*
X10996Y29893D1*
X11093Y29972D1*
X11203Y30029D1*
X11305Y30059D1*
X11379Y30136D1*
X11238Y30244D1*
X11160Y30341D1*
X11102Y30451D1*
X11066Y30571D1*
X11055Y30695D1*
X11068Y30819D1*
X11106Y30938D1*
X11165Y31048D1*
X11246Y31143D1*
X11343Y31222D1*
X11453Y31279D1*
X11555Y31309D1*
X13905Y33662D1*
Y41335D1*
X13829Y41431D1*
X13769Y41540D1*
X13728Y41658D1*
X13707Y41781D1*
X13705Y42040D1*
X13708Y42106D1*
X13730Y42229D1*
X13772Y42346D1*
X13833Y42455D1*
X13905Y42543D1*
Y42690D1*
X13920Y42814D1*
X13962Y42931D1*
X14024Y43027D1*
X14680Y43687D1*
X14812Y43818D1*
X14910Y43896D1*
X15023Y43948D1*
X15134Y43972D1*
X16065Y43975D1*
X20717D1*
X20846Y44103D1*
X20605Y44105D1*
Y44125D1*
X20470Y44106D1*
X20345Y44111D1*
X20223Y44138D1*
X20107Y44185D1*
X20001Y44250D1*
X19940Y44305D1*
X19824Y44214D1*
X19713Y44158D1*
X19593Y44121D1*
X19470Y44106D1*
X19345Y44111D1*
X19223Y44138D1*
X19107Y44185D1*
X19001Y44250D1*
X18908Y44333D1*
X18829Y44431D1*
X18769Y44540D1*
X18728Y44658D1*
X18707Y44781D1*
X18705Y45040D1*
X18708Y45106D1*
X18730Y45229D1*
X18772Y45346D1*
X18833Y45455D1*
X18912Y45552D1*
X19007Y45634D1*
X19113Y45698D1*
X19229Y45744D1*
X19352Y45770D1*
X19476Y45774D1*
X19600Y45757D1*
X19719Y45720D1*
X19830Y45663D1*
X19927Y45590D1*
X19958Y45672D1*
X20024Y45777D1*
X20147Y45904D1*
X16163Y45905D1*
X15973Y45716D1*
X15975Y45608D1*
X16113Y45698D1*
X16229Y45744D1*
X16352Y45770D1*
X16476Y45774D1*
X16600Y45757D1*
X16719Y45720D1*
X16830Y45663D1*
X16930Y45588D1*
X17016Y45497D1*
X17085Y45393D1*
X17135Y45279D1*
X17166Y45158D1*
X17175Y44915D1*
X17171Y44840D1*
X17164Y44716D1*
X17133Y44595D1*
X17081Y44481D1*
X17011Y44378D1*
X16925Y44288D1*
X16824Y44214D1*
X16713Y44158D1*
X16593Y44121D1*
X16470Y44106D1*
X16345Y44111D1*
X16223Y44138D1*
X16107Y44185D1*
X16001Y44250D1*
X15940Y44305D1*
X15824Y44214D1*
X15713Y44158D1*
X15593Y44121D1*
X15470Y44106D1*
X15345Y44111D1*
X15223Y44138D1*
X15107Y44185D1*
X15001Y44250D1*
X14940Y44305D1*
X14824Y44214D1*
X14713Y44158D1*
X14593Y44121D1*
X14470Y44106D1*
X14345Y44111D1*
X14223Y44138D1*
X14107Y44185D1*
X14004Y44248D1*
X9476Y39720D1*
X9475Y26815D1*
Y23413D1*
X9813Y23074D1*
X9912Y23202D1*
X10007Y23284D1*
X10113Y23348D1*
X10229Y23394D1*
X10352Y23420D1*
X10476Y23424D1*
X10600Y23407D1*
X10719Y23370D1*
X10830Y23313D1*
X10943Y23224D1*
X11772Y23225D1*
X11729Y23281D1*
X11669Y23390D1*
X11628Y23508D1*
X11607Y23631D1*
X11608Y23756D1*
X11630Y23879D1*
X11672Y23996D1*
X11733Y24105D1*
X11812Y24202D1*
X11907Y24284D1*
X12013Y24348D1*
X12129Y24394D1*
X12252Y24420D1*
X12465Y24425D1*
X12540Y24421D1*
X12700Y24407D1*
X12819Y24370D1*
X12930Y24313D1*
X13030Y24238D1*
X13116Y24147D1*
X13185Y24043D1*
X13235Y23929D1*
X13266Y23808D1*
X13275Y23690D1*
X13264Y23566D1*
X13233Y23445D1*
X13181Y23331D1*
X13076Y23191D1*
X13185Y23043D1*
X13235Y22929D1*
X13266Y22808D1*
X13275Y22690D1*
X13264Y22566D1*
X13233Y22445D1*
X13181Y22331D1*
X13076Y22191D1*
X13185Y22043D1*
X13235Y21929D1*
X13266Y21808D1*
X13271Y21647D1*
X14493Y20427D1*
X16447Y20426D1*
X15848Y21025D1*
X15693Y20971D1*
X15540Y20955D1*
X15245Y20961D1*
X15123Y20988D1*
X15007Y21035D1*
X14901Y21100D1*
X14808Y21183D1*
X14729Y21281D1*
X14669Y21390D1*
X14628Y21508D1*
X14607Y21631D1*
X14608Y21756D1*
X14630Y21879D1*
X14672Y21996D1*
X14733Y22105D1*
X14800Y22187D1*
X14729Y22281D1*
X14669Y22390D1*
X14628Y22508D1*
X14607Y22631D1*
X14608Y22756D1*
X14630Y22879D1*
X14672Y22996D1*
X14733Y23105D1*
X14800Y23187D1*
X14729Y23281D1*
X14669Y23390D1*
X14628Y23508D1*
X14607Y23631D1*
X14608Y23756D1*
X14630Y23879D1*
X14672Y23996D1*
X14733Y24105D1*
X14812Y24202D1*
X14907Y24284D1*
X15013Y24348D1*
X15129Y24394D1*
X15252Y24420D1*
X15465Y24425D1*
X15540Y24421D1*
X15700Y24407D1*
X15819Y24370D1*
X15930Y24313D1*
X16030Y24238D1*
X16116Y24147D1*
X16185Y24043D1*
X16235Y23929D1*
X16266Y23808D1*
X16275Y23690D1*
X16264Y23566D1*
X16233Y23445D1*
X16181Y23331D1*
X16076Y23191D1*
X16185Y23043D1*
X16235Y22929D1*
X16266Y22808D1*
X16275Y22690D1*
X16264Y22566D1*
X16233Y22445D1*
X16181Y22331D1*
X16087Y22202D1*
X16172Y22172D1*
X16277Y22106D1*
X16937Y21450D1*
X17222Y21165D1*
X18253Y21162D1*
X19389D1*
X19477Y21224D1*
X19591Y21275D1*
X19712Y21305D1*
X19837Y21312D1*
X19957Y21297D1*
X19955Y21319D1*
X19919Y21390D1*
X19878Y21508D1*
X19857Y21631D1*
X19858Y21756D1*
X19880Y21879D1*
X19922Y21996D1*
X19983Y22105D1*
X20050Y22187D1*
X19979Y22281D1*
X19919Y22390D1*
X19878Y22508D1*
X19857Y22631D1*
X19858Y22756D1*
X19880Y22879D1*
X19922Y22996D1*
X19983Y23105D1*
X20050Y23187D1*
X19979Y23281D1*
X19919Y23390D1*
X19878Y23508D1*
X19857Y23631D1*
X19858Y23756D1*
X19880Y23879D1*
X19922Y23996D1*
X19983Y24105D1*
X20062Y24202D1*
X20157Y24284D1*
X20263Y24348D1*
X20379Y24394D1*
X20502Y24420D1*
X20715Y24425D1*
X20790Y24421D1*
X20950Y24407D1*
X21069Y24370D1*
X21180Y24313D1*
X21280Y24238D1*
X21366Y24147D1*
X21435Y24043D1*
X21485Y23929D1*
X21516Y23808D1*
X21525Y23690D1*
X21514Y23566D1*
X21483Y23445D1*
X21431Y23331D1*
X21359Y23225D1*
X21940D1*
X22064Y23210D1*
X22181Y23168D1*
X22277Y23106D1*
X22821Y22565D1*
X22813Y22573D1*
X22857Y22631D1*
X22858Y22756D1*
X22880Y22879D1*
X22922Y22996D1*
X22983Y23105D1*
X23050Y23187D1*
X22979Y23281D1*
X22919Y23390D1*
X22878Y23508D1*
X22857Y23631D1*
X22858Y23756D1*
X22880Y23879D1*
X22922Y23996D1*
X22983Y24105D1*
X23062Y24202D1*
X23157Y24284D1*
X23263Y24348D1*
X23379Y24394D1*
X23502Y24420D1*
X23715Y24425D1*
X23790Y24421D1*
X23950Y24407D1*
X24069Y24370D1*
X24180Y24313D1*
X24280Y24238D1*
X24366Y24147D1*
X24435Y24043D1*
X24485Y23929D1*
X24516Y23808D1*
X24525Y23690D1*
X24514Y23566D1*
X24483Y23445D1*
X24431Y23331D1*
X24326Y23191D1*
X24435Y23043D1*
X24485Y22929D1*
X24516Y22808D1*
X24525Y22690D1*
X24514Y22566D1*
X24483Y22445D1*
X24431Y22331D1*
X24326Y22191D1*
X24435Y22043D1*
X24485Y21929D1*
X24516Y21808D1*
X24525Y21690D1*
X24508Y21539D1*
X29690Y21538D1*
X34764D1*
X34852Y21599D1*
X34966Y21650D1*
X35107Y21681D1*
X35108Y21756D1*
X35130Y21879D1*
X35172Y21996D1*
X35233Y22105D1*
X35300Y22187D1*
X35229Y22281D1*
X35169Y22390D1*
X35128Y22508D1*
X35107Y22631D1*
X35108Y22756D1*
X35130Y22879D1*
X35172Y22996D1*
X35233Y23105D1*
X35300Y23187D1*
X35229Y23281D1*
X35169Y23390D1*
X35128Y23508D1*
X35107Y23631D1*
X35108Y23756D1*
X35130Y23879D1*
X35172Y23996D1*
X35233Y24105D1*
X35312Y24202D1*
X35407Y24284D1*
X35513Y24348D1*
X35629Y24394D1*
X35752Y24420D1*
X35965Y24425D1*
X36040Y24421D1*
X36200Y24407D1*
X36319Y24370D1*
X36430Y24313D1*
X36530Y24238D1*
X36597Y24167D1*
X36665Y24298D1*
X36746Y24393D1*
X36843Y24472D1*
X36953Y24529D1*
X37073Y24564D1*
X37198Y24575D1*
X37322Y24561D1*
X37441Y24523D1*
X37550Y24463D1*
X37645Y24383D1*
X37723Y24285D1*
X37780Y24174D1*
X37815Y24054D1*
X37825Y23940D1*
X37813Y23816D1*
X37776Y23696D1*
X37727Y23604D1*
X37725Y22780D1*
X37780Y22674D1*
X37815Y22554D1*
X37825Y22440D1*
X37813Y22316D1*
X37776Y22196D1*
X37717Y22086D1*
X37638Y21990D1*
X37541Y21911D1*
X37431Y21853D1*
X37312Y21817D1*
X37187Y21805D1*
X37063Y21818D1*
X36944Y21855D1*
X36834Y21914D1*
X36738Y21994D1*
X36660Y22091D1*
X36598Y22212D1*
X36616Y22147D1*
X36685Y22043D1*
X36735Y21929D1*
X36766Y21808D1*
X36771Y21745D1*
X36837Y21750D1*
X36961Y21734D1*
X37080Y21697D1*
X37190Y21638D1*
X37306Y21540D1*
X38124Y21538D1*
X38107Y21631D1*
X38108Y21756D1*
X38130Y21879D1*
X38172Y21996D1*
X38233Y22105D1*
X38300Y22187D1*
X38229Y22281D1*
X38169Y22390D1*
X38128Y22508D1*
X38107Y22631D1*
X38108Y22756D1*
X38130Y22879D1*
X38172Y22996D1*
X38233Y23105D1*
X38300Y23187D1*
X38229Y23281D1*
X38169Y23390D1*
X38128Y23508D1*
X38107Y23631D1*
X38108Y23756D1*
X38130Y23879D1*
X38172Y23996D1*
X38233Y24105D1*
X38312Y24202D1*
X38407Y24284D1*
X38513Y24348D1*
X38629Y24394D1*
X38752Y24420D1*
X38965Y24425D1*
X39040Y24421D1*
X39200Y24407D1*
X39319Y24370D1*
X39430Y24313D1*
X39530Y24238D1*
X39616Y24147D1*
X39685Y24043D1*
X39735Y23929D1*
X39766Y23808D1*
X39775Y23690D1*
X39764Y23566D1*
X39733Y23445D1*
X39681Y23331D1*
X39576Y23191D1*
X39685Y23043D1*
X39727Y22947D1*
X39866Y22971D1*
X39991Y22973D1*
X40114Y22955D1*
X40233Y22918D1*
X40345Y22862D1*
X40447Y22790D1*
X40535Y22702D1*
X40609Y22601D1*
X40666Y22490D1*
X40704Y22371D1*
X40725Y22190D1*
X40715Y22066D1*
X40686Y21944D1*
X40637Y21829D1*
X40571Y21723D1*
X40489Y21629D1*
X40376Y21539D1*
X42389Y21538D1*
X42477Y21599D1*
X42591Y21650D1*
X42712Y21680D1*
X42856Y21685D1*
X42858Y21756D1*
X42880Y21879D1*
X42922Y21996D1*
X42983Y22105D1*
X43050Y22187D1*
X42979Y22281D1*
X42919Y22390D1*
X42878Y22508D1*
X42857Y22631D1*
X42858Y22756D1*
X42880Y22879D1*
X42922Y22996D1*
X42983Y23105D1*
X43050Y23187D1*
X42979Y23281D1*
X42919Y23390D1*
X42878Y23508D1*
X42857Y23631D1*
X42858Y23756D1*
X42880Y23879D1*
X42922Y23996D1*
X42983Y24105D1*
X43062Y24202D1*
X43157Y24284D1*
X43263Y24348D1*
X43379Y24394D1*
X43502Y24420D1*
X43715Y24425D1*
X43790Y24421D1*
X43950Y24407D1*
X44069Y24370D1*
X44180Y24313D1*
X44280Y24238D1*
X44366Y24147D1*
X44435Y24043D1*
X44485Y23929D1*
X44516Y23808D1*
X44525Y23690D1*
X44514Y23566D1*
X44483Y23445D1*
X44431Y23331D1*
X44326Y23191D1*
X44398Y23098D1*
X44467Y23100D1*
X45290Y23923D1*
X45371Y24018D1*
X45468Y24097D1*
X45578Y24154D1*
X45698Y24189D1*
X45823Y24200D1*
X45947Y24186D1*
X46025Y24161D1*
X46157Y24284D1*
X46263Y24348D1*
X46379Y24394D1*
X46502Y24420D1*
X46715Y24425D1*
X46790Y24421D1*
X46950Y24407D1*
X47069Y24370D1*
X47180Y24313D1*
X47280Y24238D1*
X47366Y24147D1*
X47435Y24043D1*
X47485Y23929D1*
X47516Y23808D1*
X47525Y23690D1*
X47514Y23566D1*
X47483Y23445D1*
X47431Y23331D1*
X47359Y23225D1*
X50940D1*
X51197Y23186D1*
X51316Y23148D1*
X51425Y23088D1*
X51520Y23008D1*
X51598Y22910D1*
X51655Y22799D1*
X51690Y22679D1*
X51700Y22565D1*
X51688Y22441D1*
X51651Y22321D1*
X51592Y22211D1*
X51513Y22115D1*
X51416Y22036D1*
X51306Y21978D1*
X51187Y21942D1*
X51062Y21930D1*
X50938Y21943D1*
X50819Y21980D1*
X50709Y22039D1*
X50613Y22119D1*
X50581Y22158D1*
X50065Y22155D1*
X47358D1*
X47435Y22043D1*
X47485Y21929D1*
X47516Y21808D1*
X47525Y21690D1*
X47508Y21539D1*
X52690Y21538D1*
X55514D1*
X55602Y21599D1*
X55716Y21650D1*
X55857Y21681D1*
X55858Y21756D1*
X55880Y21879D1*
X55922Y21996D1*
X55983Y22105D1*
X56050Y22187D1*
X55979Y22281D1*
X55919Y22390D1*
X55878Y22508D1*
X55857Y22631D1*
X55858Y22756D1*
X55880Y22879D1*
X55922Y22996D1*
X55983Y23105D1*
X56050Y23187D1*
X55979Y23281D1*
X55919Y23390D1*
X55878Y23508D1*
X55857Y23631D1*
X55858Y23756D1*
X55880Y23879D1*
X55922Y23996D1*
X55983Y24105D1*
X56062Y24202D1*
X56157Y24284D1*
X56263Y24348D1*
X56379Y24394D1*
X56502Y24420D1*
X56715Y24425D1*
X56790Y24421D1*
X56950Y24407D1*
X57069Y24370D1*
X57180Y24313D1*
X57280Y24238D1*
X57366Y24147D1*
X57435Y24043D1*
X57485Y23929D1*
X57516Y23808D1*
X57525Y23690D1*
X57514Y23566D1*
X57483Y23445D1*
X57431Y23331D1*
X57326Y23191D1*
X57435Y23043D1*
X57485Y22929D1*
X57516Y22808D1*
X57525Y22690D1*
X57514Y22566D1*
X57483Y22445D1*
X57431Y22331D1*
X57326Y22191D1*
X57435Y22043D1*
X57485Y21929D1*
X57516Y21808D1*
X57523Y21671D1*
X57712Y21687D1*
X57836Y21672D1*
X57955Y21634D1*
X58065Y21576D1*
X58111Y21539D1*
X58874Y21538D1*
X58857Y21631D1*
X58858Y21756D1*
X58880Y21879D1*
X58922Y21996D1*
X58983Y22105D1*
X59050Y22187D1*
X58979Y22281D1*
X58919Y22390D1*
X58878Y22508D1*
X58857Y22631D1*
X58858Y22756D1*
X58880Y22879D1*
X58922Y22996D1*
X58983Y23105D1*
X59050Y23187D1*
X58979Y23281D1*
X58919Y23390D1*
X58878Y23508D1*
X58857Y23631D1*
X58858Y23756D1*
X58880Y23879D1*
X58922Y23996D1*
X58983Y24105D1*
X59062Y24202D1*
X59157Y24284D1*
X59263Y24348D1*
X59379Y24394D1*
X59502Y24420D1*
X59715Y24425D1*
X59790Y24421D1*
X59950Y24407D1*
X60069Y24370D1*
X60180Y24313D1*
X60280Y24238D1*
X60366Y24147D1*
X60435Y24043D1*
X60485Y23929D1*
X60516Y23808D1*
X60525Y23690D1*
X60514Y23566D1*
X60483Y23445D1*
X60431Y23331D1*
X60326Y23191D1*
X60435Y23043D1*
X60485Y22929D1*
X60516Y22808D1*
X60525Y22690D1*
X60514Y22566D1*
X60483Y22445D1*
X60431Y22331D1*
X60326Y22191D1*
X60435Y22043D1*
X60485Y21929D1*
X60516Y21808D1*
X60525Y21690D1*
X60508Y21539D1*
X64264Y21538D1*
X64352Y21599D1*
X64466Y21650D1*
X64587Y21680D1*
X64712Y21687D1*
X64836Y21672D1*
X64955Y21634D1*
X65062Y21577D1*
X65170Y21710D1*
X65488Y22027D1*
X64690Y22030D1*
X64566Y22045D1*
X64449Y22087D1*
X64353Y22149D1*
X63937Y22562D1*
X63859Y22660D1*
X63807Y22773D1*
X63783Y22884D1*
X63780Y23225D1*
X63727Y23326D1*
X63691Y23446D1*
X63680Y23570D1*
X63693Y23694D1*
X63731Y23813D1*
X63790Y23923D1*
X63871Y24018D1*
X63968Y24097D1*
X64078Y24154D1*
X64198Y24189D1*
X64323Y24200D1*
X64447Y24186D1*
X64566Y24148D1*
X64675Y24088D1*
X64770Y24008D1*
X64848Y23910D1*
X64905Y23799D1*
X64940Y23679D1*
X64950Y23565D1*
X64938Y23441D1*
X64901Y23321D1*
X64852Y23229D1*
X64850Y23163D1*
X64912Y23100D1*
X65733Y23105D1*
X65800Y23187D1*
X65729Y23281D1*
X65669Y23390D1*
X65628Y23508D1*
X65607Y23631D1*
X65608Y23756D1*
X65630Y23879D1*
X65672Y23996D1*
X65733Y24105D1*
X65812Y24202D1*
X65907Y24284D1*
X66013Y24348D1*
X66129Y24394D1*
X66252Y24420D1*
X66465Y24425D1*
X66540Y24421D1*
X66700Y24407D1*
X66819Y24370D1*
X66930Y24313D1*
X67030Y24238D1*
X67116Y24147D1*
X67185Y24043D1*
X67235Y23929D1*
X67266Y23808D1*
X67275Y23690D1*
X67264Y23566D1*
X67233Y23445D1*
X67181Y23331D1*
X67076Y23191D1*
X67185Y23043D1*
X67235Y22929D1*
X67266Y22808D1*
X67275Y22690D1*
X67264Y22566D1*
X67233Y22445D1*
X67181Y22331D1*
X67076Y22191D1*
X67185Y22043D1*
X67235Y21929D1*
X67266Y21808D1*
X67275Y21690D1*
X67265Y21577D1*
X67306Y21540D1*
X68190Y21538D1*
X68530D1*
X68609Y21616D1*
X68608Y21756D1*
X68630Y21879D1*
X68672Y21996D1*
X68733Y22105D1*
X68800Y22187D1*
X68729Y22281D1*
X68669Y22390D1*
X68628Y22508D1*
X68607Y22631D1*
X68608Y22756D1*
X68630Y22879D1*
X68672Y22996D1*
X68733Y23105D1*
X68800Y23187D1*
X68729Y23281D1*
X68669Y23390D1*
X68628Y23508D1*
X68607Y23631D1*
X68608Y23756D1*
X68630Y23879D1*
X68672Y23996D1*
X68733Y24105D1*
X68812Y24202D1*
X68907Y24284D1*
X69013Y24348D1*
X69129Y24394D1*
X69252Y24420D1*
X69465Y24425D1*
X69540Y24421D1*
X69700Y24407D1*
X69819Y24370D1*
X69930Y24313D1*
X70030Y24238D1*
X70116Y24147D1*
X70185Y24043D1*
X70235Y23929D1*
X70266Y23808D1*
X70275Y23690D1*
X70264Y23566D1*
X70233Y23445D1*
X70181Y23331D1*
X70076Y23191D1*
X70185Y23043D1*
X70235Y22929D1*
X70266Y22808D1*
X70275Y22690D1*
X70264Y22566D1*
X70233Y22445D1*
X70181Y22331D1*
X70076Y22191D1*
X70185Y22043D1*
X70235Y21929D1*
X70266Y21808D1*
X70275Y21690D1*
X70259Y21547D1*
X70453Y21743D1*
X70455Y26690D1*
Y34639D1*
X69521Y35569D1*
X68386Y36705D1*
X65991D1*
X65174Y35884D1*
X65175Y35290D1*
X65164Y35166D1*
X65133Y35045D1*
X65081Y34931D1*
X65011Y34828D1*
X64925Y34738D1*
X64824Y34664D1*
X64713Y34608D1*
X64593Y34571D1*
X64470Y34556D1*
X64345Y34561D1*
X64223Y34588D1*
X64107Y34635D1*
X63998Y34703D1*
X63491Y34705D1*
X63388Y34607D1*
X63283Y34540D1*
X63168Y34491D1*
X63046Y34463D1*
X62922Y34455D1*
X62798Y34469D1*
X62678Y34503D1*
X62565Y34558D1*
X62420Y34670D1*
X62384Y34706D1*
X59690Y34705D1*
X59566Y34716D1*
X59445Y34747D1*
X59331Y34799D1*
X59214Y34880D1*
X58021Y36069D1*
X54920Y39170D1*
X54840Y39266D1*
X54777Y39373D1*
X54733Y39490D1*
X54707Y39631D1*
X54705Y41315D1*
Y43045D1*
X54639Y43207D1*
X54241Y43205D1*
X54192Y43077D1*
X54130Y42969D1*
X54052Y42872D1*
X53960Y42787D1*
X53857Y42717D1*
X53744Y42662D1*
X53625Y42626D1*
X53502Y42607D1*
X53377D1*
X53253Y42626D1*
X53134Y42663D1*
X53021Y42717D1*
X52918Y42788D1*
X52827Y42873D1*
X52749Y42971D1*
X52687Y43079D1*
X52642Y43195D1*
X52614Y43317D1*
X52605Y43565D1*
X52609Y44440D1*
X52615Y44566D1*
X52643Y44688D1*
X52689Y44804D1*
X52751Y44912D1*
X52829Y45010D1*
X52921Y45094D1*
X53025Y45164D1*
X53137Y45218D1*
X53257Y45255D1*
X53380Y45273D1*
X53505Y45272D1*
X53629Y45253D1*
X53748Y45216D1*
X53860Y45162D1*
X53963Y45091D1*
X54054Y45006D1*
X54132Y44908D1*
X54194Y44799D1*
X54241Y44671D1*
X54639Y44675D1*
X54689Y44804D1*
X54751Y44912D1*
X54829Y45010D1*
X54921Y45094D1*
X55025Y45164D1*
X55137Y45218D1*
X55257Y45255D1*
X55380Y45273D1*
X55505Y45272D1*
X55629Y45253D1*
X55748Y45216D1*
X55860Y45162D1*
X55963Y45091D1*
X56054Y45006D1*
X56132Y44908D1*
X56194Y44799D1*
X56239Y44683D1*
X56266Y44561D1*
X56275Y44315D1*
X56271Y43440D1*
X56266Y43315D1*
X56238Y43194D1*
X56175Y43047D1*
Y39991D1*
X57109Y39061D1*
X59995Y36174D1*
X62545Y36175D1*
X62637Y36218D1*
X62757Y36255D1*
X62880Y36273D1*
X63005Y36272D1*
X63129Y36253D1*
X63248Y36216D1*
X63335Y36174D1*
X63702Y36175D1*
X63716Y36314D1*
X63747Y36435D1*
X63799Y36549D1*
X63880Y36666D1*
X65069Y37859D1*
X65266Y38040D1*
X65373Y38103D1*
X65490Y38147D1*
X65631Y38173D1*
X67315Y38175D1*
X68690D1*
X68814Y38164D1*
X68935Y38133D1*
X69049Y38081D1*
X69166Y38000D1*
X70359Y36811D1*
X71710Y35460D1*
X71790Y35364D1*
X71853Y35257D1*
X71897Y35140D1*
X71923Y34999D1*
X71925Y33315D1*
Y21440D1*
X71914Y21316D1*
X71883Y21195D1*
X71831Y21081D1*
X71750Y20964D1*
X70561Y19771D1*
X69960Y19170D1*
X69864Y19090D1*
X69736Y19018D1*
X69666Y18990D1*
X69704Y18871D1*
X69725Y18690D1*
X69715Y18566D1*
X69686Y18444D1*
X69637Y18329D1*
X69571Y18223D1*
X69489Y18129D1*
X69393Y18049D1*
X69286Y17985D1*
X69170Y17939D1*
X69048Y17912D1*
X68923Y17905D1*
X68799Y17918D1*
X68678Y17950D1*
X68564Y18001D1*
X68439Y18088D1*
X68393Y18049D1*
X68286Y17985D1*
X68170Y17939D1*
X68048Y17912D1*
X67923Y17905D1*
X67799Y17918D1*
X67678Y17950D1*
X67564Y18001D1*
X67439Y18088D1*
X67393Y18049D1*
X67286Y17985D1*
X67170Y17939D1*
X67048Y17912D1*
X66923Y17905D1*
X66799Y17918D1*
X66678Y17950D1*
X66564Y18001D1*
X66460Y18069D1*
X66367Y18153D1*
X66289Y18251D1*
X66228Y18359D1*
X66185Y18477D1*
X66160Y18599D1*
X66156Y18724D1*
X66171Y18848D1*
X66203Y18956D1*
X65749Y18955D1*
X65836Y18844D1*
X65900Y18737D1*
X65948Y18622D1*
X65981Y18501D1*
X66000Y18315D1*
Y12850D1*
X66612Y12852D1*
X66605Y12940D1*
X66609Y13440D1*
X66606Y13477D1*
X66627Y13600D1*
X66674Y13716D1*
X66744Y13819D1*
X66835Y13905D1*
X66941Y13970D1*
X67059Y14010D1*
X67183Y14025D1*
X67307Y14013D1*
X67441Y13970D1*
X67559Y14010D1*
X67683Y14025D1*
X67807Y14013D1*
X67941Y13970D1*
X68059Y14010D1*
X68183Y14025D1*
X68307Y14013D1*
X68441Y13970D1*
X68559Y14010D1*
X68683Y14025D1*
X68807Y14013D1*
X68926Y13975D1*
X69034Y13913D1*
X69127Y13829D1*
X69199Y13728D1*
X69249Y13613D1*
X69275Y13440D1*
X69271Y12940D1*
X69262Y12816D1*
X69222Y12698D1*
X69159Y12590D1*
X69074Y12499D1*
X68972Y12427D1*
X68857Y12379D1*
X68734Y12357D1*
X68609Y12361D1*
X68488Y12391D1*
X68443Y12413D1*
X68357Y12379D1*
X68234Y12357D1*
X68113Y12360D1*
X67693Y11937D1*
X67595Y11859D1*
X67482Y11807D1*
X67371Y11783D1*
X66440Y11780D1*
X65999D1*
X66000Y10940D1*
X68105Y10938D2*
X68115Y11066D1*
X68143Y11188D1*
X68189Y11304D1*
X68251Y11412D1*
X68329Y11510D1*
X68421Y11594D1*
X68525Y11664D1*
X68637Y11718D1*
X68757Y11755D1*
X68880Y11773D1*
X69005Y11772D1*
X69129Y11753D1*
X69248Y11716D1*
X69360Y11662D1*
X69463Y11591D1*
X69554Y11506D1*
X69632Y11408D1*
X69694Y11299D1*
X69739Y11183D1*
X69766Y11061D1*
X69775Y10815D1*
X69771Y9940D1*
X69766Y9815D1*
X69738Y9694D1*
X69692Y9577D1*
X69630Y9469D1*
X69552Y9372D1*
X69460Y9287D1*
X69357Y9217D1*
X69244Y9162D1*
X69125Y9126D1*
X69002Y9107D1*
X68877D1*
X68753Y9126D1*
X68634Y9163D1*
X68521Y9217D1*
X68418Y9288D1*
X68327Y9373D1*
X68249Y9471D1*
X68187Y9579D1*
X68142Y9695D1*
X68114Y9817D1*
X68105Y10065D1*
X68109Y10940D1*
X70105Y10938D2*
X70115Y11066D1*
X70143Y11188D1*
X70189Y11304D1*
X70251Y11412D1*
X70329Y11510D1*
X70421Y11594D1*
X70525Y11664D1*
X70637Y11718D1*
X70757Y11755D1*
X70880Y11773D1*
X71005Y11772D1*
X71129Y11753D1*
X71248Y11716D1*
X71360Y11662D1*
X71463Y11591D1*
X71554Y11506D1*
X71632Y11408D1*
X71694Y11299D1*
X71739Y11183D1*
X71766Y11061D1*
X71775Y10815D1*
X71771Y9940D1*
X71766Y9815D1*
X71738Y9694D1*
X71692Y9577D1*
X71630Y9469D1*
X71552Y9372D1*
X71460Y9287D1*
X71357Y9217D1*
X71244Y9162D1*
X71125Y9126D1*
X71002Y9107D1*
X70877D1*
X70753Y9126D1*
X70634Y9163D1*
X70521Y9217D1*
X70418Y9288D1*
X70327Y9373D1*
X70249Y9471D1*
X70187Y9579D1*
X70142Y9695D1*
X70114Y9817D1*
X70105Y10065D1*
X70109Y10940D1*
X11688Y14586D2*
X11643Y14549D1*
X11536Y14485D1*
X11420Y14439D1*
X11298Y14412D1*
X11173Y14405D1*
X11049Y14418D1*
X10928Y14450D1*
X10814Y14501D1*
X10710Y14569D1*
X10617Y14653D1*
X10539Y14751D1*
X10478Y14859D1*
X10435Y14977D1*
X10410Y15099D1*
X10406Y15224D1*
X10421Y15348D1*
X10456Y15468D1*
X10509Y15581D1*
X10580Y15684D1*
X10666Y15774D1*
X10765Y15850D1*
X10875Y15909D1*
X10993Y15950D1*
X11116Y15971D1*
X11241Y15973D1*
X11364Y15955D1*
X11483Y15918D1*
X11595Y15862D1*
X11687Y15796D1*
X11875Y15909D1*
X11993Y15950D1*
X12116Y15971D1*
X12241Y15973D1*
X12364Y15955D1*
X12483Y15918D1*
X12595Y15862D1*
X12687Y15796D1*
X12875Y15909D1*
X12993Y15950D1*
X13116Y15971D1*
X13241Y15973D1*
X13364Y15955D1*
X13483Y15918D1*
X13595Y15862D1*
X13697Y15790D1*
X13785Y15702D1*
X13859Y15601D1*
X13916Y15490D1*
X13954Y15371D1*
X13975Y15190D1*
X13965Y15066D1*
X13936Y14944D1*
X13887Y14829D1*
X13821Y14723D1*
X13739Y14629D1*
X13643Y14549D1*
X13536Y14485D1*
X13420Y14439D1*
X13298Y14412D1*
X13173Y14405D1*
X13049Y14418D1*
X12928Y14450D1*
X12814Y14501D1*
X12689Y14588D1*
X12643Y14549D1*
X12536Y14485D1*
X12420Y14439D1*
X12298Y14412D1*
X12173Y14405D1*
X12049Y14418D1*
X11928Y14450D1*
X11814Y14501D1*
X11689Y14588D1*
X19813Y14714D2*
X19739Y14629D1*
X19643Y14549D1*
X19536Y14485D1*
X19420Y14439D1*
X19298Y14412D1*
X19173Y14405D1*
X19049Y14418D1*
X18928Y14450D1*
X18814Y14501D1*
X18710Y14569D1*
X18617Y14653D1*
X18539Y14751D1*
X18478Y14859D1*
X18435Y14977D1*
X18410Y15099D1*
X18406Y15224D1*
X18421Y15348D1*
X18456Y15468D1*
X18509Y15581D1*
X18580Y15684D1*
X18666Y15774D1*
X18765Y15850D1*
X18875Y15909D1*
X18993Y15950D1*
X19116Y15971D1*
X19241Y15973D1*
X19364Y15955D1*
X19483Y15918D1*
X19595Y15862D1*
X19697Y15790D1*
X19815Y15661D1*
X19916Y15774D1*
X20015Y15850D1*
X20125Y15909D1*
X20243Y15950D1*
X20366Y15971D1*
X20491Y15973D1*
X20614Y15955D1*
X20733Y15918D1*
X20845Y15862D1*
X20947Y15790D1*
X21065Y15661D1*
X21166Y15774D1*
X21265Y15850D1*
X21375Y15909D1*
X21493Y15950D1*
X21616Y15971D1*
X21741Y15973D1*
X21864Y15955D1*
X21983Y15918D1*
X22095Y15862D1*
X22197Y15790D1*
X22285Y15702D1*
X22359Y15601D1*
X22416Y15490D1*
X22454Y15371D1*
X22475Y15190D1*
X22465Y15066D1*
X22436Y14944D1*
X22387Y14829D1*
X22321Y14723D1*
X22239Y14629D1*
X22143Y14549D1*
X22036Y14485D1*
X21920Y14439D1*
X21798Y14412D1*
X21673Y14405D1*
X21549Y14418D1*
X21428Y14450D1*
X21314Y14501D1*
X21210Y14569D1*
X21117Y14653D1*
X21066Y14717D1*
X20989Y14629D1*
X20893Y14549D1*
X20786Y14485D1*
X20670Y14439D1*
X20548Y14412D1*
X20423Y14405D1*
X20299Y14418D1*
X20178Y14450D1*
X20064Y14501D1*
X19960Y14569D1*
X19867Y14653D1*
X19816Y14717D1*
X28063Y14714D2*
X27989Y14629D1*
X27893Y14549D1*
X27786Y14485D1*
X27670Y14439D1*
X27548Y14412D1*
X27423Y14405D1*
X27299Y14418D1*
X27178Y14450D1*
X27064Y14501D1*
X26960Y14569D1*
X26867Y14653D1*
X26789Y14751D1*
X26728Y14859D1*
X26685Y14977D1*
X26660Y15099D1*
X26656Y15224D1*
X26671Y15348D1*
X26706Y15468D1*
X26759Y15581D1*
X26830Y15684D1*
X26916Y15774D1*
X27015Y15850D1*
X27125Y15909D1*
X27243Y15950D1*
X27366Y15971D1*
X27491Y15973D1*
X27614Y15955D1*
X27733Y15918D1*
X27845Y15862D1*
X27947Y15790D1*
X28065Y15661D1*
X28166Y15774D1*
X28265Y15850D1*
X28375Y15909D1*
X28493Y15950D1*
X28616Y15971D1*
X28741Y15973D1*
X28864Y15955D1*
X28983Y15918D1*
X29095Y15862D1*
X29197Y15790D1*
X29315Y15661D1*
X29416Y15774D1*
X29515Y15850D1*
X29625Y15909D1*
X29743Y15950D1*
X29866Y15971D1*
X29991Y15973D1*
X30114Y15955D1*
X30233Y15918D1*
X30345Y15862D1*
X30447Y15790D1*
X30535Y15702D1*
X30609Y15601D1*
X30666Y15490D1*
X30704Y15371D1*
X30725Y15190D1*
X30715Y15066D1*
X30686Y14944D1*
X30637Y14829D1*
X30571Y14723D1*
X30489Y14629D1*
X30393Y14549D1*
X30286Y14485D1*
X30170Y14439D1*
X30048Y14412D1*
X29923Y14405D1*
X29799Y14418D1*
X29678Y14450D1*
X29564Y14501D1*
X29460Y14569D1*
X29367Y14653D1*
X29316Y14717D1*
X29239Y14629D1*
X29143Y14549D1*
X29036Y14485D1*
X28920Y14439D1*
X28798Y14412D1*
X28673Y14405D1*
X28549Y14418D1*
X28428Y14450D1*
X28314Y14501D1*
X28210Y14569D1*
X28117Y14653D1*
X28066Y14717D1*
X35438Y14586D2*
X35393Y14549D1*
X35286Y14485D1*
X35170Y14439D1*
X35048Y14412D1*
X34923Y14405D1*
X34799Y14418D1*
X34678Y14450D1*
X34564Y14501D1*
X34460Y14569D1*
X34367Y14653D1*
X34289Y14751D1*
X34228Y14859D1*
X34185Y14977D1*
X34160Y15099D1*
X34156Y15224D1*
X34171Y15348D1*
X34206Y15468D1*
X34259Y15581D1*
X34330Y15684D1*
X34416Y15774D1*
X34515Y15850D1*
X34625Y15909D1*
X34743Y15950D1*
X34866Y15971D1*
X34991Y15973D1*
X35114Y15955D1*
X35233Y15918D1*
X35345Y15862D1*
X35437Y15796D1*
X35625Y15909D1*
X35743Y15950D1*
X35866Y15971D1*
X35991Y15973D1*
X36114Y15955D1*
X36233Y15918D1*
X36345Y15862D1*
X36437Y15796D1*
X36625Y15909D1*
X36743Y15950D1*
X36866Y15971D1*
X36991Y15973D1*
X37114Y15955D1*
X37233Y15918D1*
X37345Y15862D1*
X37447Y15790D1*
X37535Y15702D1*
X37609Y15601D1*
X37666Y15490D1*
X37704Y15371D1*
X37725Y15190D1*
X37715Y15066D1*
X37686Y14944D1*
X37637Y14829D1*
X37571Y14723D1*
X37489Y14629D1*
X37393Y14549D1*
X37286Y14485D1*
X37170Y14439D1*
X37048Y14412D1*
X36923Y14405D1*
X36799Y14418D1*
X36678Y14450D1*
X36564Y14501D1*
X36439Y14588D1*
X36393Y14549D1*
X36286Y14485D1*
X36170Y14439D1*
X36048Y14412D1*
X35923Y14405D1*
X35799Y14418D1*
X35678Y14450D1*
X35564Y14501D1*
X35439Y14588D1*
X42813Y14714D2*
X42739Y14629D1*
X42643Y14549D1*
X42536Y14485D1*
X42420Y14439D1*
X42298Y14412D1*
X42173Y14405D1*
X42049Y14418D1*
X41928Y14450D1*
X41814Y14501D1*
X41710Y14569D1*
X41617Y14653D1*
X41539Y14751D1*
X41478Y14859D1*
X41435Y14977D1*
X41410Y15099D1*
X41406Y15224D1*
X41421Y15348D1*
X41456Y15468D1*
X41509Y15581D1*
X41580Y15684D1*
X41666Y15774D1*
X41765Y15850D1*
X41875Y15909D1*
X41993Y15950D1*
X42116Y15971D1*
X42241Y15973D1*
X42364Y15955D1*
X42483Y15918D1*
X42595Y15862D1*
X42697Y15790D1*
X42815Y15661D1*
X42916Y15774D1*
X43015Y15850D1*
X43125Y15909D1*
X43243Y15950D1*
X43366Y15971D1*
X43491Y15973D1*
X43614Y15955D1*
X43733Y15918D1*
X43845Y15862D1*
X43947Y15790D1*
X44065Y15661D1*
X44166Y15774D1*
X44265Y15850D1*
X44375Y15909D1*
X44493Y15950D1*
X44616Y15971D1*
X44741Y15973D1*
X44864Y15955D1*
X44983Y15918D1*
X45095Y15862D1*
X45197Y15790D1*
X45285Y15702D1*
X45359Y15601D1*
X45416Y15490D1*
X45454Y15371D1*
X45475Y15190D1*
X45465Y15066D1*
X45436Y14944D1*
X45387Y14829D1*
X45321Y14723D1*
X45239Y14629D1*
X45143Y14549D1*
X45036Y14485D1*
X44920Y14439D1*
X44798Y14412D1*
X44673Y14405D1*
X44549Y14418D1*
X44428Y14450D1*
X44314Y14501D1*
X44210Y14569D1*
X44117Y14653D1*
X44066Y14717D1*
X43989Y14629D1*
X43893Y14549D1*
X43786Y14485D1*
X43670Y14439D1*
X43548Y14412D1*
X43423Y14405D1*
X43299Y14418D1*
X43178Y14450D1*
X43064Y14501D1*
X42960Y14569D1*
X42867Y14653D1*
X42816Y14717D1*
X51063Y14714D2*
X50989Y14629D1*
X50893Y14549D1*
X50786Y14485D1*
X50670Y14439D1*
X50548Y14412D1*
X50423Y14405D1*
X50299Y14418D1*
X50178Y14450D1*
X50064Y14501D1*
X49960Y14569D1*
X49867Y14653D1*
X49789Y14751D1*
X49728Y14859D1*
X49685Y14977D1*
X49660Y15099D1*
X49656Y15224D1*
X49671Y15348D1*
X49706Y15468D1*
X49759Y15581D1*
X49830Y15684D1*
X49916Y15774D1*
X50015Y15850D1*
X50125Y15909D1*
X50243Y15950D1*
X50366Y15971D1*
X50491Y15973D1*
X50614Y15955D1*
X50733Y15918D1*
X50845Y15862D1*
X50947Y15790D1*
X51065Y15661D1*
X51166Y15774D1*
X51265Y15850D1*
X51375Y15909D1*
X51493Y15950D1*
X51616Y15971D1*
X51741Y15973D1*
X51864Y15955D1*
X51983Y15918D1*
X52095Y15862D1*
X52197Y15790D1*
X52315Y15661D1*
X52416Y15774D1*
X52515Y15850D1*
X52625Y15909D1*
X52743Y15950D1*
X52866Y15971D1*
X52991Y15973D1*
X53114Y15955D1*
X53233Y15918D1*
X53345Y15862D1*
X53447Y15790D1*
X53535Y15702D1*
X53609Y15601D1*
X53666Y15490D1*
X53704Y15371D1*
X53725Y15190D1*
X53715Y15066D1*
X53686Y14944D1*
X53637Y14829D1*
X53571Y14723D1*
X53489Y14629D1*
X53393Y14549D1*
X53286Y14485D1*
X53170Y14439D1*
X53048Y14412D1*
X52923Y14405D1*
X52799Y14418D1*
X52678Y14450D1*
X52564Y14501D1*
X52460Y14569D1*
X52367Y14653D1*
X52316Y14717D1*
X52239Y14629D1*
X52143Y14549D1*
X52036Y14485D1*
X51920Y14439D1*
X51798Y14412D1*
X51673Y14405D1*
X51549Y14418D1*
X51428Y14450D1*
X51314Y14501D1*
X51210Y14569D1*
X51117Y14653D1*
X51066Y14717D1*
X60063Y14714D2*
X59989Y14629D1*
X59893Y14549D1*
X59786Y14485D1*
X59670Y14439D1*
X59548Y14412D1*
X59423Y14405D1*
X59299Y14418D1*
X59178Y14450D1*
X59064Y14501D1*
X58960Y14569D1*
X58867Y14653D1*
X58789Y14751D1*
X58728Y14859D1*
X58685Y14977D1*
X58660Y15099D1*
X58656Y15224D1*
X58671Y15348D1*
X58706Y15468D1*
X58759Y15581D1*
X58830Y15684D1*
X58916Y15774D1*
X59015Y15850D1*
X59125Y15909D1*
X59243Y15950D1*
X59366Y15971D1*
X59491Y15973D1*
X59614Y15955D1*
X59733Y15918D1*
X59845Y15862D1*
X59947Y15790D1*
X60065Y15661D1*
X60166Y15774D1*
X60265Y15850D1*
X60375Y15909D1*
X60493Y15950D1*
X60616Y15971D1*
X60741Y15973D1*
X60864Y15955D1*
X60983Y15918D1*
X61095Y15862D1*
X61197Y15790D1*
X61315Y15661D1*
X61416Y15774D1*
X61515Y15850D1*
X61625Y15909D1*
X61743Y15950D1*
X61866Y15971D1*
X61991Y15973D1*
X62114Y15955D1*
X62233Y15918D1*
X62345Y15862D1*
X62447Y15790D1*
X62535Y15702D1*
X62609Y15601D1*
X62666Y15490D1*
X62704Y15371D1*
X62725Y15190D1*
X62715Y15066D1*
X62686Y14944D1*
X62637Y14829D1*
X62571Y14723D1*
X62489Y14629D1*
X62393Y14549D1*
X62286Y14485D1*
X62170Y14439D1*
X62048Y14412D1*
X61923Y14405D1*
X61799Y14418D1*
X61678Y14450D1*
X61564Y14501D1*
X61460Y14569D1*
X61367Y14653D1*
X61316Y14717D1*
X61239Y14629D1*
X61143Y14549D1*
X61036Y14485D1*
X60920Y14439D1*
X60798Y14412D1*
X60673Y14405D1*
X60549Y14418D1*
X60428Y14450D1*
X60314Y14501D1*
X60210Y14569D1*
X60117Y14653D1*
X60066Y14717D1*
X67438Y14586D2*
X67393Y14549D1*
X67286Y14485D1*
X67170Y14439D1*
X67048Y14412D1*
X66923Y14405D1*
X66799Y14418D1*
X66678Y14450D1*
X66564Y14501D1*
X66460Y14569D1*
X66367Y14653D1*
X66289Y14751D1*
X66228Y14859D1*
X66185Y14977D1*
X66160Y15099D1*
X66156Y15224D1*
X66171Y15348D1*
X66206Y15468D1*
X66259Y15581D1*
X66330Y15684D1*
X66416Y15774D1*
X66515Y15850D1*
X66625Y15909D1*
X66743Y15950D1*
X66866Y15971D1*
X66991Y15973D1*
X67114Y15955D1*
X67233Y15918D1*
X67345Y15862D1*
X67437Y15796D1*
X67625Y15909D1*
X67743Y15950D1*
X67866Y15971D1*
X67991Y15973D1*
X68114Y15955D1*
X68233Y15918D1*
X68345Y15862D1*
X68437Y15796D1*
X68625Y15909D1*
X68743Y15950D1*
X68866Y15971D1*
X68991Y15973D1*
X69114Y15955D1*
X69233Y15918D1*
X69345Y15862D1*
X69447Y15790D1*
X69535Y15702D1*
X69609Y15601D1*
X69666Y15490D1*
X69704Y15371D1*
X69725Y15190D1*
X69715Y15066D1*
X69686Y14944D1*
X69637Y14829D1*
X69571Y14723D1*
X69489Y14629D1*
X69393Y14549D1*
X69286Y14485D1*
X69170Y14439D1*
X69048Y14412D1*
X68923Y14405D1*
X68799Y14418D1*
X68678Y14450D1*
X68564Y14501D1*
X68439Y14588D1*
X68393Y14549D1*
X68286Y14485D1*
X68170Y14439D1*
X68048Y14412D1*
X67923Y14405D1*
X67799Y14418D1*
X67678Y14450D1*
X67564Y14501D1*
X67439Y14588D1*
X66266Y41315D2*
X66238Y41194D1*
X66192Y41077D1*
X66130Y40969D1*
X66052Y40872D1*
X65960Y40787D1*
X65857Y40717D1*
X65744Y40662D1*
X65625Y40626D1*
X65502Y40607D1*
X65377D1*
X65253Y40626D1*
X65134Y40663D1*
X65021Y40717D1*
X64918Y40788D1*
X64827Y40873D1*
X64749Y40971D1*
X64687Y41079D1*
X64642Y41195D1*
X64614Y41317D1*
X64605Y41442D1*
X64615Y41566D1*
X64643Y41688D1*
X64689Y41804D1*
X64751Y41912D1*
X64829Y42010D1*
X64921Y42094D1*
X65025Y42164D1*
X65137Y42218D1*
X65257Y42255D1*
X65380Y42273D1*
X65505Y42272D1*
X65629Y42253D1*
X65748Y42216D1*
X65860Y42162D1*
X65963Y42091D1*
X66054Y42006D1*
X66132Y41908D1*
X66194Y41799D1*
X66239Y41683D1*
X66266Y41561D1*
X66275Y41440D1*
X66266Y41315D1*
X21971Y41335D2*
X21925Y41288D1*
X21824Y41214D1*
X21713Y41158D1*
X21593Y41121D1*
X21470Y41106D1*
X21345Y41111D1*
X21223Y41138D1*
X21107Y41185D1*
X21001Y41250D1*
X20940Y41305D1*
X20824Y41214D1*
X20713Y41158D1*
X20593Y41121D1*
X20470Y41106D1*
X20345Y41111D1*
X20223Y41138D1*
X20107Y41185D1*
X20001Y41250D1*
X19940Y41305D1*
X19824Y41214D1*
X19713Y41158D1*
X19593Y41121D1*
X19470Y41106D1*
X19345Y41111D1*
X19223Y41138D1*
X19107Y41185D1*
X19001Y41250D1*
X18908Y41333D1*
X18829Y41431D1*
X18769Y41540D1*
X18728Y41658D1*
X18707Y41781D1*
X18705Y42040D1*
X18708Y42106D1*
X18730Y42229D1*
X18772Y42346D1*
X18833Y42455D1*
X18912Y42552D1*
X19007Y42634D1*
X19113Y42698D1*
X19229Y42744D1*
X19352Y42770D1*
X19476Y42774D1*
X19600Y42757D1*
X19719Y42720D1*
X19830Y42663D1*
X19938Y42579D1*
X20007Y42634D1*
X20113Y42698D1*
X20241Y42747D1*
X20396Y42903D1*
X18690Y42905D1*
X15413D1*
X15256Y42750D1*
X15352Y42770D1*
X15476Y42774D1*
X15600Y42757D1*
X15719Y42720D1*
X15830Y42663D1*
X15938Y42579D1*
X16007Y42634D1*
X16113Y42698D1*
X16229Y42744D1*
X16352Y42770D1*
X16476Y42774D1*
X16600Y42757D1*
X16719Y42720D1*
X16830Y42663D1*
X16930Y42588D1*
X17016Y42497D1*
X17085Y42393D1*
X17135Y42279D1*
X17166Y42158D1*
X17175Y41915D1*
X17171Y41840D1*
X17164Y41716D1*
X17133Y41595D1*
X17081Y41481D1*
X17011Y41378D1*
X16925Y41288D1*
X16824Y41214D1*
X16713Y41158D1*
X16593Y41121D1*
X16470Y41106D1*
X16345Y41111D1*
X16223Y41138D1*
X16107Y41185D1*
X15975Y41274D1*
Y38663D1*
X21914Y32722D1*
X22690Y32725D1*
X30350D1*
X30453Y32779D1*
X30510Y32796D1*
X28269Y35034D1*
X21968Y41335D1*
X72309Y45315D2*
X72289Y45192D1*
X72254Y45072D1*
X72207Y44956D1*
X72147Y44847D1*
X72076Y44744D1*
X71993Y44650D1*
X71901Y44566D1*
X71800Y44493D1*
X71691Y44431D1*
X71576Y44382D1*
X71457Y44346D1*
X71334Y44323D1*
X71209Y44314D1*
X71084Y44319D1*
X70961Y44337D1*
X70840Y44369D1*
X70724Y44415D1*
X70613Y44473D1*
X70509Y44543D1*
X70414Y44623D1*
X70329Y44714D1*
X70253Y44814D1*
X70190Y44922D1*
X70139Y45036D1*
X70100Y45155D1*
X70076Y45277D1*
X70064Y45402D1*
X70067Y45526D1*
X70084Y45650D1*
X70114Y45772D1*
X70157Y45889D1*
X70213Y46000D1*
X70281Y46105D1*
X70360Y46202D1*
X70450Y46289D1*
X70548Y46366D1*
X70655Y46431D1*
X70768Y46484D1*
X70886Y46525D1*
X71008Y46552D1*
X71132Y46565D1*
X71257Y46564D1*
X71381Y46550D1*
X71503Y46522D1*
X71621Y46481D1*
X71734Y46426D1*
X71840Y46360D1*
X71937Y46283D1*
X72026Y46195D1*
X72105Y46097D1*
X72172Y45992D1*
X72227Y45880D1*
X72269Y45762D1*
X72298Y45641D1*
X72316Y45440D1*
X72309Y45315D1*
X72410Y13315D2*
X72391Y13192D1*
X72359Y13071D1*
X72316Y12954D1*
X72260Y12842D1*
X72194Y12736D1*
X72117Y12637D1*
X72031Y12547D1*
X71935Y12466D1*
X71833Y12395D1*
X71723Y12336D1*
X71608Y12287D1*
X71488Y12251D1*
X71366Y12226D1*
X71241Y12215D1*
X71116Y12216D1*
X70992Y12230D1*
X70870Y12256D1*
X70751Y12295D1*
X70637Y12345D1*
X70528Y12407D1*
X70427Y12480D1*
X70333Y12563D1*
X70248Y12654D1*
X70173Y12754D1*
X70109Y12861D1*
X70056Y12974D1*
X70014Y13092D1*
X69985Y13214D1*
X69968Y13338D1*
X69964Y13462D1*
X69973Y13587D1*
X69994Y13710D1*
X70028Y13831D1*
X70073Y13947D1*
X70131Y14058D1*
X70199Y14162D1*
X70278Y14259D1*
X70366Y14348D1*
X70462Y14427D1*
X70567Y14496D1*
X70677Y14554D1*
X70793Y14600D1*
X70914Y14635D1*
X71037Y14657D1*
X71161Y14666D1*
X71286Y14663D1*
X71410Y14646D1*
X71532Y14618D1*
X71650Y14577D1*
X71763Y14524D1*
X71870Y14460D1*
X71971Y14386D1*
X72063Y14301D1*
X72146Y14208D1*
X72219Y14107D1*
X72282Y13999D1*
X72333Y13885D1*
X72372Y13766D1*
X72399Y13644D1*
X72416Y13440D1*
X72410Y13315D1*
X49405Y36280D2*
Y37350D1*
X49352Y37451D1*
X49316Y37571D1*
X49305Y37695D1*
X49318Y37819D1*
X49356Y37938D1*
X49415Y38048D1*
X49496Y38143D1*
X49593Y38222D1*
X49703Y38279D1*
X49823Y38314D1*
X49948Y38325D1*
X50072Y38311D1*
X50191Y38273D1*
X50300Y38213D1*
X50395Y38133D1*
X50473Y38035D1*
X50530Y37924D1*
X50565Y37804D1*
X50575Y37690D1*
X50563Y37566D1*
X50526Y37446D1*
X50477Y37354D1*
X50475Y36280D1*
X50530Y36174D1*
X50565Y36054D1*
X50575Y35940D1*
X50563Y35816D1*
X50526Y35696D1*
X50467Y35586D1*
X50388Y35490D1*
X50291Y35411D1*
X50181Y35353D1*
X50062Y35317D1*
X49937Y35305D1*
X49813Y35318D1*
X49694Y35355D1*
X49584Y35414D1*
X49488Y35494D1*
X49410Y35591D1*
X49352Y35701D1*
X49316Y35821D1*
X49305Y35945D1*
X49318Y36069D1*
X49356Y36188D1*
X49406Y36281D1*
D20*
X8940Y10440D3*
X10940D3*
X12940D3*
X14940D3*
X16940D3*
X18940D3*
X20940D3*
X22940D3*
X24940D3*
X26940D3*
X28940D3*
X30940D3*
X32940D3*
X34940D3*
X36940D3*
X38940D3*
X40940D3*
X42940D3*
X44940D3*
X46940D3*
X48940D3*
X50940D3*
X52940D3*
X54940D3*
X56940D3*
X58940D3*
X60940D3*
X62940D3*
X64940D3*
X66940D3*
X68940D3*
X70940D3*
D21*
X12440Y28690D3*
D22*
Y27690D3*
Y26690D3*
Y25690D3*
Y24690D3*
Y23690D3*
Y22690D3*
Y21690D3*
X15440Y28690D3*
Y27690D3*
Y26690D3*
Y25690D3*
Y24690D3*
Y23690D3*
Y22690D3*
Y21690D3*
D21*
X20690Y28690D3*
D22*
Y27690D3*
Y26690D3*
Y25690D3*
Y24690D3*
Y23690D3*
Y22690D3*
Y21690D3*
X23690Y28690D3*
Y27690D3*
Y26690D3*
Y25690D3*
Y24690D3*
Y23690D3*
Y22690D3*
Y21690D3*
D21*
X35940Y28690D3*
D22*
Y27690D3*
Y26690D3*
Y25690D3*
Y24690D3*
Y23690D3*
Y22690D3*
Y21690D3*
X38940Y28690D3*
Y27690D3*
Y26690D3*
Y25690D3*
Y24690D3*
Y23690D3*
Y22690D3*
Y21690D3*
D21*
X43690Y28690D3*
D22*
Y27690D3*
Y26690D3*
Y25690D3*
Y24690D3*
Y23690D3*
Y22690D3*
Y21690D3*
X46690Y28690D3*
Y27690D3*
Y26690D3*
Y25690D3*
Y24690D3*
Y23690D3*
Y22690D3*
Y21690D3*
D21*
X56690Y28690D3*
D22*
Y27690D3*
Y26690D3*
Y25690D3*
Y24690D3*
Y23690D3*
Y22690D3*
Y21690D3*
X59690Y28690D3*
Y27690D3*
Y26690D3*
Y25690D3*
Y24690D3*
Y23690D3*
Y22690D3*
Y21690D3*
D21*
X66440Y28690D3*
D22*
Y27690D3*
Y26690D3*
Y25690D3*
Y24690D3*
Y23690D3*
Y22690D3*
Y21690D3*
X69440Y28690D3*
Y27690D3*
Y26690D3*
Y25690D3*
Y24690D3*
Y23690D3*
Y22690D3*
Y21690D3*
D23*
X11440Y13190D3*
X11940D3*
X12440D3*
X12940D3*
X19690D3*
X20190D3*
X20690D3*
X21190D3*
X27690D3*
X28190D3*
X28690D3*
X29190D3*
X35440D3*
X35940D3*
X36440D3*
X36940D3*
X43190D3*
X43690D3*
X44190D3*
X44690D3*
X51190D3*
X51690D3*
X52190D3*
X52690D3*
X59190D3*
X59690D3*
X60190D3*
X60690D3*
X67190D3*
X67690D3*
X68190D3*
X68690D3*
D24*
X11190Y15190D3*
Y18690D3*
X12190Y15190D3*
Y18690D3*
X13190Y15190D3*
Y18690D3*
X19190Y15190D3*
Y18690D3*
X20440Y15190D3*
Y18690D3*
X21690Y15190D3*
Y18690D3*
X27440Y15190D3*
Y18690D3*
X28690Y15190D3*
Y18690D3*
X29940Y15190D3*
Y18690D3*
X34940Y15190D3*
Y18690D3*
X35940Y15190D3*
Y18690D3*
X36940Y15190D3*
Y18690D3*
X42190Y15190D3*
Y18690D3*
X43440Y15190D3*
Y18690D3*
X44690Y15190D3*
Y18690D3*
X50440Y15190D3*
Y18690D3*
X51690Y15190D3*
Y18690D3*
X52940Y15190D3*
Y18690D3*
X59440Y15190D3*
Y18690D3*
X60690Y15190D3*
Y18690D3*
X61940Y15190D3*
Y18690D3*
X66940Y15190D3*
Y18690D3*
X67940Y15190D3*
Y18690D3*
X68940Y15190D3*
Y18690D3*
X39940Y27190D3*
Y22190D3*
D21*
X35690Y45690D3*
D15*
Y44690D3*
Y43690D3*
Y42690D3*
Y41690D3*
Y40690D3*
Y39690D3*
Y38690D3*
Y37690D3*
Y36690D3*
Y35690D3*
Y34690D3*
Y33690D3*
Y32690D3*
Y31690D3*
Y30690D3*
X36690D3*
X37690D3*
X38690D3*
X39690D3*
X40690D3*
X41690D3*
X42690D3*
X43690D3*
X44690D3*
X45690D3*
X46690D3*
Y31690D3*
Y32690D3*
Y33690D3*
Y34690D3*
Y35690D3*
Y36690D3*
Y37690D3*
Y38690D3*
Y39690D3*
Y40690D3*
Y41690D3*
Y42690D3*
Y43690D3*
Y44690D3*
Y45690D3*
X45690Y31690D3*
X44690D3*
X43690D3*
X42690D3*
X41690D3*
X40690D3*
X39690D3*
X38690D3*
X37690D3*
X36690D3*
X44690Y33690D3*
Y32690D3*
X45690Y33690D3*
Y32690D3*
D25*
X64440Y35440D3*
X65440D3*
X66440D3*
D20*
X53440Y43940D3*
X55440D3*
X57440D3*
X59440D3*
D26*
X65440Y33940D3*
X69440D3*
X62940Y32440D3*
Y35440D3*
X65440Y31440D3*
X68440D3*
D27*
X63070Y19690D3*
D28*
Y18690D3*
Y17690D3*
D21*
X21440Y44940D3*
D29*
X20440D3*
X19440D3*
X18440D3*
X17440D3*
X16440D3*
X15440D3*
X14440D3*
X21440Y41940D3*
X20440D3*
X19440D3*
X18440D3*
X17440D3*
X16440D3*
X15440D3*
X14440D3*
D27*
X18190Y47815D3*
D28*
X19190D3*
X20190D3*
X21190D3*
X22190D3*
M02*
