G04 DipTrace 2.4.0.2*
%INhorowitzv.1.2_Bottom.GBL*%
%MOIN*%
%ADD13C,0.02*%
%ADD15C,0.08*%
%ADD16C,0.03*%
%ADD17C,0.06*%
%ADD18C,0.04*%
%ADD19C,0.025*%
%ADD20O,0.08X0.18*%
%ADD21R,0.08X0.08*%
%ADD22O,0.08X0.06*%
%ADD23O,0.03X0.08*%
%ADD24C,0.07*%
%ADD25O,0.06X0.09*%
%ADD26C,0.08*%
%ADD27R,0.0669X0.0669*%
%ADD28C,0.0669*%
%ADD29O,0.06X0.08*%
%ADD31C,0.05*%
%FSLAX44Y44*%
G04*
G70*
G90*
G75*
G01*
%LNBottom*%
%LPD*%
X35690Y43690D2*
D13*
X28690D1*
X14440Y29440D1*
Y23190D1*
X14940Y22690D1*
X15440D1*
X29315Y20440D2*
Y33565D1*
X33440Y37690D1*
X35690D1*
X35940Y27690D2*
X34190D1*
X29940Y31940D1*
Y33190D1*
X33440Y36690D1*
X35690D1*
X38940Y27690D2*
X38440D1*
X38190Y27940D1*
Y29190D1*
X36690Y30690D1*
X51065Y22565D2*
Y32065D1*
X47940Y35190D1*
X56690Y22690D2*
X57190D1*
X57565Y23065D1*
Y27190D1*
Y29065D2*
Y29315D1*
X56690Y30190D1*
X55690D1*
X49940Y35940D1*
Y37690D2*
X46690D1*
X66440Y27690D2*
X63440D1*
X52440Y38690D1*
X46690D1*
X38690Y31690D2*
Y46940D1*
X44440D2*
X44940Y46440D1*
X47190D1*
X47690Y45940D1*
Y45440D1*
X62440Y30690D1*
X67190D1*
X68440Y29440D1*
Y28690D1*
X69440Y27690D1*
X35690Y45690D2*
X29690D1*
X15440Y31440D1*
X11440D1*
X10440Y30440D1*
Y22690D1*
X35690Y40690D2*
X27690D1*
X17440Y30440D1*
Y29190D1*
X18940Y27690D1*
X20690D1*
X35690Y44690D2*
X29940D1*
X31190Y37940D2*
Y36440D1*
X28690Y33940D1*
Y31690D1*
X24690Y27690D1*
X23690D1*
X46690Y41690D2*
X41440D1*
X33940Y32815D2*
X34065D1*
X34815Y32065D1*
Y30565D1*
X35440Y29940D1*
X36690D1*
X37690Y28940D1*
Y24940D1*
X38065Y24565D1*
Y23565D1*
X38940Y22690D1*
X46690Y32690D2*
X47440D1*
X48440Y31690D1*
Y30190D1*
X47565Y29315D1*
X46190D1*
X45815Y28940D1*
Y23565D1*
X46690Y35690D2*
X49190D1*
X55690Y29190D1*
Y27940D1*
X56066Y27564D1*
X56564D1*
X56690Y27690D1*
X59690D2*
X60315D1*
X60690Y28065D1*
Y28690D1*
X54690Y34690D1*
X69440Y22690D2*
X69190D1*
X68690Y23190D1*
Y27440D1*
X67690Y28440D1*
Y29190D1*
X66940Y29940D1*
X62440D1*
X51690Y40690D1*
X46690D1*
X18440Y41940D2*
X17440D1*
Y44940D2*
X18440D1*
X11190Y18690D2*
Y25440D1*
X12440Y26690D1*
X10940Y10440D2*
X10440Y10940D1*
Y12440D1*
X10690Y12690D1*
Y14190D1*
X10190Y14690D1*
Y17690D1*
X10440Y17940D1*
X11190Y18690D1*
X12190D2*
Y19440D1*
X13190Y20440D1*
Y22940D1*
X12440Y23690D1*
X12940Y10440D2*
X13940D1*
Y15690D1*
X12190Y17440D1*
Y18690D1*
X13190D2*
Y18440D1*
X14690Y16940D1*
Y10690D1*
X14940Y10440D1*
X15440Y23690D2*
X15940D1*
X16440Y23190D1*
Y18617D1*
X14726Y16904D1*
X14690Y16940D1*
X12440Y13190D2*
Y14440D1*
X12190Y14690D1*
Y15190D1*
X11190D2*
Y14440D1*
X11440Y14190D1*
Y13190D1*
X12940D2*
Y14940D1*
X13190Y15190D1*
X20690Y13190D2*
Y14940D1*
X20440Y15190D1*
X19690Y13190D2*
X19190Y13690D1*
Y15190D1*
X21190Y13190D2*
Y14690D1*
X21690Y15190D1*
X28690Y13190D2*
Y15190D1*
X27690Y13190D2*
Y14940D1*
X27440Y15190D1*
X29190Y13190D2*
Y13440D1*
X29940Y14190D1*
Y15190D1*
X36440Y13190D2*
Y14440D1*
X35940Y14940D1*
Y15190D1*
X35440Y13190D2*
Y13690D1*
X34940Y14190D1*
Y15190D1*
X36940Y13190D2*
Y15190D1*
X44190Y13190D2*
Y14440D1*
X43440Y15190D1*
X43190Y13190D2*
X42190Y14190D1*
Y15190D1*
X44690Y13190D2*
Y15190D1*
X52190Y13190D2*
Y14690D1*
X51690Y15190D1*
X51190Y13190D2*
Y14440D1*
X50440Y15190D1*
X52690Y13190D2*
X52940Y13440D1*
Y15190D1*
X60190Y13190D2*
Y14690D1*
X60690Y15190D1*
X59190Y13190D2*
Y14940D1*
X59440Y15190D1*
X60690Y13190D2*
X61940Y14440D1*
Y15190D1*
X68190Y13190D2*
Y14690D1*
X67690Y15190D1*
X67940D1*
X67190Y13190D2*
Y15190D1*
X66940D1*
X68690Y13190D2*
Y15190D1*
X68940D1*
X19190Y18690D2*
X17940Y19940D1*
Y25190D1*
X16690Y26440D1*
X15690D1*
X15440Y26690D1*
X19190Y18690D2*
Y16440D1*
X18440Y15690D1*
Y11190D1*
X19190Y10440D1*
X18940D1*
X20440Y18690D2*
X19190Y19940D1*
Y25690D1*
X20190Y26690D1*
X20690D1*
X20940Y10440D2*
Y10690D1*
X22440Y12190D1*
Y15940D1*
X21940Y16440D1*
X20940D1*
X20440Y16940D1*
Y18690D1*
X21690D2*
Y18190D1*
X22940Y16940D1*
Y10440D1*
X20690Y23690D2*
X21065D1*
X21565Y23190D1*
Y21815D1*
X21690Y21690D1*
Y20440D2*
Y18690D1*
X27440D2*
Y20940D1*
X24690Y23690D1*
X23690D1*
X27190Y10190D2*
X26940Y10440D1*
X27440Y18690D2*
Y16690D1*
X26190Y15440D1*
Y11190D1*
X26940Y10440D1*
X28690Y18690D2*
Y22690D1*
X24690Y26690D1*
X23690D1*
X28690Y18690D2*
Y17690D1*
X30690Y15690D1*
Y12190D1*
X28940Y10440D1*
X29940Y18690D2*
Y23940D1*
X32440Y26440D1*
X35690D1*
X35940Y26690D1*
X29940Y18690D2*
Y17440D1*
X31440Y15940D1*
Y11190D1*
X30940Y10690D1*
Y10440D1*
X34940Y18690D2*
Y19440D1*
X34440Y19940D1*
Y22940D1*
X35190Y23690D1*
X35940D1*
X34940Y18690D2*
Y16440D1*
X33690Y15190D1*
Y11690D1*
X34690Y10690D1*
Y10440D1*
X34940D1*
X35940Y18690D2*
X36940Y19690D1*
X38690D1*
X40690Y21690D1*
Y22940D1*
X39940Y23690D1*
X38940D1*
X35940Y18690D2*
Y17440D1*
X37940Y15440D1*
Y11440D1*
X36940Y10440D1*
Y18690D2*
X38690D1*
X41190Y21190D1*
Y25690D1*
X40440Y26440D1*
X39190D1*
X38940Y26690D1*
X36940Y18690D2*
Y17440D1*
X38940Y15440D1*
Y10440D1*
X42190Y18690D2*
Y25940D1*
X42940Y26690D1*
X43690D1*
X42940Y10440D2*
X41440Y11940D1*
Y15690D1*
X42190Y16440D1*
Y18690D1*
X43440D2*
X45190Y20440D1*
Y21440D1*
X44690Y21940D1*
Y22690D1*
X43690Y23690D1*
X44940Y10440D2*
Y10690D1*
X45940Y11690D1*
Y15190D1*
X43440Y17690D1*
Y18690D1*
X44690D2*
X45190D1*
X47690Y21190D1*
Y22690D1*
X46690Y23690D1*
X44690Y18690D2*
Y17440D1*
X46940Y15190D1*
Y10440D1*
X50440Y18690D2*
Y23690D1*
X47440Y26690D1*
X46690D1*
X50440Y18690D2*
Y16690D1*
X49440Y15690D1*
Y11940D1*
X50940Y10440D1*
X51690Y18690D2*
Y24190D1*
X54190Y26690D1*
X56690D1*
X51690Y18690D2*
Y17690D1*
X53940Y15440D1*
Y10440D1*
X52940D1*
Y18690D2*
Y23190D1*
X53440Y23690D1*
X56690D1*
X52940Y18690D2*
Y17440D1*
X54940Y15440D1*
Y10440D1*
X66940Y18690D2*
Y19690D1*
X67440Y20190D1*
Y23190D1*
X66940Y23690D1*
X66440D1*
X66940Y18690D2*
Y17940D1*
X65940Y16940D1*
Y11190D1*
X66690Y10440D1*
X66940D1*
X67940Y18690D2*
X70440Y21190D1*
Y23190D1*
X69940Y23690D1*
X69440D1*
X69190Y10440D2*
X68940D1*
X67940Y18690D2*
Y17690D1*
X69690Y15940D1*
Y14690D1*
X69190Y14190D1*
Y11940D1*
X68940Y11690D1*
Y10440D1*
Y18690D2*
X71190Y20940D1*
Y24940D1*
X69440Y26690D1*
X71190Y10690D2*
X70940Y10440D1*
X71065Y10315D1*
X72440Y11690D1*
Y15190D1*
X68940Y18690D1*
X59440D2*
Y19690D1*
X60440Y20690D1*
Y22940D1*
X59690Y23690D1*
X59440Y18690D2*
Y16940D1*
X58190Y15690D1*
Y11440D1*
X59190Y10440D1*
X58940D1*
X60690Y18690D2*
Y19940D1*
X61440Y20690D1*
Y25940D1*
X60690Y26690D1*
X59690D1*
X60690Y18690D2*
Y17940D1*
X62940Y15690D1*
Y12690D1*
X60940Y10690D1*
Y10440D1*
X61940Y18190D2*
Y18690D1*
X61690D1*
Y18190D1*
X63940Y15940D1*
Y11440D1*
X62940Y10440D1*
X61940Y18690D2*
Y20440D1*
X65190Y23690D1*
Y25565D1*
X66315Y26690D1*
X66440D1*
X8940Y10440D2*
D16*
Y10690D1*
X12440Y28690D2*
D13*
X13190D1*
X13690Y28190D1*
Y22940D1*
X14940Y21690D1*
X15440D1*
X20690Y28690D2*
X21190D1*
X22065Y27815D1*
Y22815D1*
X23190Y21690D1*
X23690D1*
X35940Y28690D2*
X36190D1*
X36690Y28190D1*
Y23690D1*
X38690Y21690D1*
X38940D1*
X43690Y28690D2*
X43940D1*
X45190Y27440D1*
Y23190D1*
X46690Y21690D1*
X56690Y28690D2*
X56940D1*
X58190Y27440D1*
Y23190D1*
X59690Y21690D1*
X66440Y28690D2*
X67940Y27190D1*
Y22440D1*
X68690Y21690D1*
X69440D1*
X19815Y20627D2*
X20190Y21003D1*
X23690D1*
X35190D2*
Y21065D1*
X36815D1*
X42815Y21003D2*
X44440D1*
X55940D2*
X57690D1*
X64690D2*
Y21065D1*
X66815D1*
X39940Y22190D2*
X39440D1*
X38940Y21690D1*
X11690Y30690D2*
X12440Y29940D1*
Y28690D1*
X39940Y27190D2*
D18*
Y28190D1*
X39440Y28690D1*
X38940D1*
X19190Y47815D2*
D13*
Y45940D1*
X19440Y45690D1*
Y44940D1*
X16440Y46940D2*
Y44940D1*
X21190Y47815D2*
Y46440D1*
X22190Y45440D1*
Y44440D1*
X21190Y43440D1*
X17440D1*
X16440Y42440D1*
Y41940D1*
X22190Y47815D2*
X22690Y47315D1*
Y44190D1*
X21440Y42940D1*
X19940D1*
X19440Y42440D1*
Y41940D1*
X12440Y27690D2*
X12065D1*
X11440Y28315D1*
Y29440D1*
X23549Y30440D2*
Y34549D1*
X27690Y38690D1*
X30799D1*
X35690D1*
Y42690D2*
X28690D1*
X16690Y30690D1*
Y28440D1*
X15940Y27690D1*
X15440D1*
X23690Y22690D2*
X23190D1*
X22690Y23190D1*
Y34690D1*
X27940Y39940D1*
X35440D1*
X35690Y39690D1*
X35940Y22690D2*
X36190D1*
X36440Y22440D1*
X37190D1*
Y23940D2*
Y28690D1*
X36440Y29440D1*
X35190D1*
X34315Y30315D1*
Y31440D1*
X46690Y31690D2*
X47440D1*
X47690Y31440D1*
Y30440D1*
X47065Y29815D1*
X43565D1*
X42690Y28940D1*
Y27940D1*
X42940Y27690D1*
X43690D1*
X46690Y33690D2*
X47690D1*
X49190Y32190D1*
Y29690D1*
X47126Y27626D1*
X46754D1*
X46690Y27690D1*
Y36690D2*
X51315D1*
X58754Y29251D1*
Y23626D1*
X59690Y22690D1*
X59565Y30690D2*
X64315Y25940D1*
Y23565D1*
X35690Y41690D2*
X32440D1*
X35690Y34690D2*
X33190D1*
X30690Y32190D1*
X33190Y35690D2*
X35690D1*
D17*
X29315Y20440D3*
D18*
X51065Y22565D3*
X47940Y35190D3*
X57565Y27190D3*
Y29065D3*
X49940Y35940D3*
Y37690D3*
X38690Y46940D3*
X44440D3*
D17*
X10440Y22690D3*
D18*
X29940Y44690D3*
X31190Y37940D3*
X41440Y41690D3*
X33940Y32815D3*
X45815Y23565D3*
X54690Y34690D3*
D17*
X21690Y21690D3*
Y20440D3*
D31*
X19815Y20627D3*
X23690Y21003D3*
X35190D3*
X36815Y21065D3*
X42815Y21003D3*
X44440D3*
X55940D3*
X57690D3*
X64690D3*
X66815Y21065D3*
X23690Y21003D3*
D18*
X11690Y30690D3*
X16440Y46940D3*
X11440Y29440D3*
X23549Y30440D3*
X37190Y22440D3*
Y23940D3*
X34315Y31440D3*
X59565Y30690D3*
X64315Y23565D3*
X32440Y41690D3*
X30690Y32190D3*
X33190Y35690D3*
X9545Y47820D2*
D19*
X17495D1*
X22885D2*
X70835D1*
X9061Y47572D2*
X17495D1*
X23065D2*
X71319D1*
X8717Y47323D2*
X16042D1*
X16838D2*
X17495D1*
X23151D2*
X38292D1*
X39088D2*
X44042D1*
X44838D2*
X71663D1*
X8451Y47074D2*
X15897D1*
X16983D2*
X18729D1*
X23151D2*
X38147D1*
X39233D2*
X43897D1*
X44983D2*
X71929D1*
X8240Y46825D2*
X15894D1*
X16986D2*
X18729D1*
X23151D2*
X38144D1*
X39236D2*
X43894D1*
X47416D2*
X72140D1*
X8072Y46577D2*
X8706D1*
X9674D2*
X15979D1*
X16901D2*
X18729D1*
X23151D2*
X38229D1*
X39151D2*
X44022D1*
X47694D2*
X72308D1*
X7932Y46328D2*
X8319D1*
X10061D2*
X15979D1*
X16901D2*
X18729D1*
X23151D2*
X34929D1*
X36451D2*
X38229D1*
X39151D2*
X44413D1*
X47944D2*
X70472D1*
X71908D2*
X72448D1*
X7822Y46079D2*
X8120D1*
X10260D2*
X15979D1*
X16901D2*
X18729D1*
X23151D2*
X29472D1*
X36451D2*
X38229D1*
X39151D2*
X44671D1*
X48127D2*
X70237D1*
X72143D2*
X72558D1*
X7736Y45831D2*
X8003D1*
X10377D2*
X15979D1*
X16901D2*
X18745D1*
X23151D2*
X29190D1*
X36451D2*
X38229D1*
X39151D2*
X45944D1*
X48151D2*
X70108D1*
X72272D2*
X72644D1*
X7674Y45582D2*
X7948D1*
X10432D2*
X14085D1*
X14795D2*
X15085D1*
X15795D2*
X15979D1*
X16901D2*
X18909D1*
X23151D2*
X28940D1*
X36451D2*
X38229D1*
X39151D2*
X45936D1*
X48190D2*
X70050D1*
X72330D2*
X72706D1*
X7639Y45333D2*
X7944D1*
X10436D2*
X13851D1*
X17029D2*
X18851D1*
X23151D2*
X28694D1*
X36451D2*
X38229D1*
X39151D2*
X46022D1*
X48436D2*
X70042D1*
X72338D2*
X72741D1*
X7639Y45085D2*
X7991D1*
X10389D2*
X13780D1*
X17100D2*
X18780D1*
X23151D2*
X28444D1*
X36451D2*
X38229D1*
X39151D2*
X46046D1*
X48686D2*
X53061D1*
X53819D2*
X55061D1*
X55819D2*
X70097D1*
X72283D2*
X72741D1*
X7639Y44836D2*
X8097D1*
X10283D2*
X13780D1*
X17100D2*
X18780D1*
X23151D2*
X28194D1*
X36436D2*
X38229D1*
X39151D2*
X45944D1*
X48936D2*
X52796D1*
X54084D2*
X54796D1*
X56084D2*
X70214D1*
X72166D2*
X72741D1*
X7639Y44587D2*
X8284D1*
X10096D2*
X13831D1*
X17049D2*
X18831D1*
X23151D2*
X27948D1*
X36444D2*
X38229D1*
X39151D2*
X45936D1*
X49182D2*
X52694D1*
X54186D2*
X54694D1*
X56186D2*
X70429D1*
X71951D2*
X72741D1*
X7639Y44339D2*
X8628D1*
X9752D2*
X14026D1*
X14854D2*
X15029D1*
X15854D2*
X16029D1*
X16854D2*
X19026D1*
X19854D2*
X20029D1*
X23151D2*
X27698D1*
X36361D2*
X38229D1*
X39151D2*
X46019D1*
X49432D2*
X52679D1*
X54201D2*
X54679D1*
X56201D2*
X70929D1*
X71451D2*
X72741D1*
X7639Y44090D2*
X21198D1*
X23139D2*
X27448D1*
X36330D2*
X38229D1*
X39151D2*
X46050D1*
X49682D2*
X52679D1*
X54201D2*
X54679D1*
X56201D2*
X72741D1*
X7639Y43841D2*
X17249D1*
X22983D2*
X27202D1*
X36436D2*
X38229D1*
X39151D2*
X45944D1*
X49928D2*
X52679D1*
X54201D2*
X54679D1*
X56201D2*
X72741D1*
X7639Y43593D2*
X16952D1*
X22733D2*
X26952D1*
X36444D2*
X38229D1*
X39151D2*
X45936D1*
X50178D2*
X52679D1*
X54201D2*
X54679D1*
X56201D2*
X72741D1*
X7639Y43344D2*
X16702D1*
X22483D2*
X26702D1*
X36361D2*
X38229D1*
X39151D2*
X46019D1*
X50428D2*
X52686D1*
X54194D2*
X54686D1*
X56194D2*
X72741D1*
X7639Y43095D2*
X16456D1*
X22236D2*
X26456D1*
X36326D2*
X38229D1*
X39151D2*
X46054D1*
X50674D2*
X52765D1*
X54115D2*
X54765D1*
X56115D2*
X72741D1*
X7639Y42846D2*
X16206D1*
X17486D2*
X19206D1*
X21986D2*
X26206D1*
X36432D2*
X38229D1*
X39151D2*
X45948D1*
X50924D2*
X52983D1*
X53897D2*
X54983D1*
X55897D2*
X72741D1*
X7639Y42598D2*
X14112D1*
X14768D2*
X15112D1*
X15768D2*
X16011D1*
X17236D2*
X19011D1*
X21768D2*
X25956D1*
X36444D2*
X38229D1*
X39151D2*
X45936D1*
X51174D2*
X72741D1*
X7639Y42349D2*
X13862D1*
X17018D2*
X18862D1*
X22018D2*
X25710D1*
X36365D2*
X38229D1*
X39151D2*
X46015D1*
X51420D2*
X72741D1*
X7639Y42100D2*
X13784D1*
X17096D2*
X18784D1*
X22096D2*
X25460D1*
X36326D2*
X38229D1*
X39151D2*
X41073D1*
X51670D2*
X65093D1*
X65787D2*
X72741D1*
X7639Y41852D2*
X13780D1*
X17100D2*
X18780D1*
X22100D2*
X25210D1*
X36432D2*
X38229D1*
X39151D2*
X40905D1*
X51920D2*
X64808D1*
X66072D2*
X72741D1*
X7639Y41603D2*
X13827D1*
X17053D2*
X18827D1*
X22053D2*
X24964D1*
X36444D2*
X38229D1*
X39151D2*
X40886D1*
X52166D2*
X64698D1*
X66182D2*
X72741D1*
X7639Y41354D2*
X14007D1*
X14873D2*
X15003D1*
X15873D2*
X16003D1*
X16873D2*
X19007D1*
X19873D2*
X20003D1*
X20873D2*
X21003D1*
X21873D2*
X24714D1*
X36369D2*
X38229D1*
X39151D2*
X40999D1*
X52416D2*
X64686D1*
X66194D2*
X72741D1*
X7639Y41106D2*
X24464D1*
X36322D2*
X38229D1*
X39151D2*
X46058D1*
X52666D2*
X64761D1*
X66119D2*
X72741D1*
X7639Y40857D2*
X24218D1*
X36432D2*
X38229D1*
X39151D2*
X45948D1*
X52912D2*
X64968D1*
X65912D2*
X72741D1*
X7639Y40608D2*
X23968D1*
X36444D2*
X38229D1*
X39151D2*
X45936D1*
X53162D2*
X72741D1*
X7639Y40360D2*
X23718D1*
X36373D2*
X38229D1*
X39151D2*
X46007D1*
X53412D2*
X72741D1*
X7639Y40111D2*
X23472D1*
X36319D2*
X38229D1*
X39151D2*
X46061D1*
X53658D2*
X72741D1*
X7639Y39862D2*
X23222D1*
X36428D2*
X38229D1*
X39151D2*
X45952D1*
X53908D2*
X72741D1*
X7639Y39614D2*
X22972D1*
X36447D2*
X38229D1*
X39151D2*
X45933D1*
X54158D2*
X72741D1*
X7639Y39365D2*
X22726D1*
X36373D2*
X38229D1*
X39151D2*
X46007D1*
X54404D2*
X72741D1*
X7639Y39116D2*
X22476D1*
X36315D2*
X38229D1*
X39151D2*
X46065D1*
X54654D2*
X72741D1*
X7639Y38867D2*
X22226D1*
X36428D2*
X38229D1*
X39151D2*
X45952D1*
X54904D2*
X72741D1*
X7639Y38619D2*
X21979D1*
X36447D2*
X38229D1*
X39151D2*
X45933D1*
X55151D2*
X72741D1*
X7639Y38370D2*
X21729D1*
X36377D2*
X38229D1*
X39151D2*
X46003D1*
X55401D2*
X72741D1*
X7639Y38121D2*
X21483D1*
X36311D2*
X38229D1*
X39151D2*
X46069D1*
X55647D2*
X72741D1*
X7639Y37873D2*
X21233D1*
X36428D2*
X38229D1*
X39151D2*
X45952D1*
X55897D2*
X72741D1*
X7639Y37624D2*
X20983D1*
X36447D2*
X38229D1*
X39151D2*
X45933D1*
X56147D2*
X72741D1*
X7639Y37375D2*
X20737D1*
X36381D2*
X38229D1*
X39151D2*
X45999D1*
X56393D2*
X72741D1*
X7639Y37127D2*
X20487D1*
X36307D2*
X38229D1*
X39151D2*
X46073D1*
X56643D2*
X72741D1*
X7639Y36878D2*
X20237D1*
X36424D2*
X38229D1*
X39151D2*
X45956D1*
X56893D2*
X72741D1*
X7639Y36629D2*
X19991D1*
X36447D2*
X38229D1*
X39151D2*
X45933D1*
X57139D2*
X72741D1*
X7639Y36381D2*
X19741D1*
X36381D2*
X38229D1*
X39151D2*
X45999D1*
X57389D2*
X72741D1*
X7639Y36132D2*
X19491D1*
X36303D2*
X38229D1*
X39151D2*
X46077D1*
X57639D2*
X62667D1*
X63213D2*
X64085D1*
X64795D2*
X66085D1*
X66795D2*
X72741D1*
X7639Y35883D2*
X19245D1*
X36424D2*
X38229D1*
X39151D2*
X45956D1*
X57885D2*
X62327D1*
X63553D2*
X63851D1*
X65029D2*
X65851D1*
X67029D2*
X72741D1*
X7639Y35635D2*
X18995D1*
X36447D2*
X38229D1*
X39151D2*
X45933D1*
X58135D2*
X62206D1*
X65100D2*
X65780D1*
X67100D2*
X72741D1*
X7639Y35386D2*
X18745D1*
X36385D2*
X38229D1*
X39151D2*
X45995D1*
X58385D2*
X62183D1*
X65100D2*
X65780D1*
X67100D2*
X72741D1*
X7639Y35137D2*
X18499D1*
X36299D2*
X38229D1*
X39151D2*
X46081D1*
X58631D2*
X62245D1*
X63635D2*
X63800D1*
X65080D2*
X65800D1*
X67080D2*
X72741D1*
X7639Y34888D2*
X18249D1*
X36424D2*
X38229D1*
X39151D2*
X45956D1*
X58881D2*
X62429D1*
X63451D2*
X63925D1*
X64955D2*
X65925D1*
X66955D2*
X72741D1*
X7639Y34640D2*
X17999D1*
X36447D2*
X38229D1*
X39151D2*
X45933D1*
X59131D2*
X69190D1*
X69690D2*
X72741D1*
X7639Y34391D2*
X17753D1*
X36385D2*
X38229D1*
X39151D2*
X45444D1*
X59377D2*
X68835D1*
X70045D2*
X72741D1*
X7639Y34142D2*
X17503D1*
X36295D2*
X38229D1*
X39151D2*
X45085D1*
X59627D2*
X68710D1*
X70170D2*
X72741D1*
X7639Y33894D2*
X17253D1*
X36420D2*
X38229D1*
X39151D2*
X44960D1*
X59877D2*
X68683D1*
X70197D2*
X72741D1*
X7639Y33645D2*
X17007D1*
X36447D2*
X38229D1*
X39151D2*
X44933D1*
X60123D2*
X68741D1*
X70139D2*
X72741D1*
X7639Y33396D2*
X16757D1*
X36389D2*
X38229D1*
X39151D2*
X44991D1*
X60373D2*
X68921D1*
X69959D2*
X72741D1*
X7639Y33148D2*
X16507D1*
X36291D2*
X38229D1*
X39151D2*
X45089D1*
X60623D2*
X72741D1*
X7639Y32899D2*
X16261D1*
X36420D2*
X38229D1*
X39151D2*
X44960D1*
X60869D2*
X72741D1*
X7639Y32650D2*
X16011D1*
X36447D2*
X38229D1*
X39151D2*
X44933D1*
X61119D2*
X72741D1*
X7639Y32402D2*
X15761D1*
X36897D2*
X37483D1*
X37897D2*
X38229D1*
X39151D2*
X39483D1*
X39897D2*
X40483D1*
X40897D2*
X41483D1*
X41897D2*
X42483D1*
X42897D2*
X43483D1*
X43897D2*
X44987D1*
X61369D2*
X72741D1*
X7639Y32153D2*
X15515D1*
X44287D2*
X45093D1*
X61615D2*
X68237D1*
X68643D2*
X72741D1*
X7639Y31904D2*
X15265D1*
X44416D2*
X44964D1*
X61865D2*
X67847D1*
X69033D2*
X72741D1*
X7639Y31656D2*
X11015D1*
X44447D2*
X44933D1*
X62115D2*
X67714D1*
X69166D2*
X72741D1*
X7639Y31407D2*
X10769D1*
X44393D2*
X44987D1*
X62361D2*
X67683D1*
X69197D2*
X72741D1*
X7639Y31158D2*
X10519D1*
X44283D2*
X45097D1*
X62611D2*
X67737D1*
X69143D2*
X72741D1*
X7639Y30909D2*
X10269D1*
X44416D2*
X44964D1*
X67611D2*
X67905D1*
X68975D2*
X72741D1*
X7639Y30661D2*
X10042D1*
X44447D2*
X44933D1*
X67858D2*
X72741D1*
X7639Y30412D2*
X9979D1*
X44397D2*
X44983D1*
X68108D2*
X72741D1*
X7639Y30163D2*
X9979D1*
X68358D2*
X72741D1*
X7639Y29915D2*
X9979D1*
X38104D2*
X43026D1*
X68604D2*
X72741D1*
X7639Y29666D2*
X9979D1*
X38354D2*
X42776D1*
X68838D2*
X72741D1*
X7639Y29417D2*
X9979D1*
X38584D2*
X42526D1*
X68901D2*
X72741D1*
X7639Y29169D2*
X9979D1*
X39705D2*
X42296D1*
X69983D2*
X72741D1*
X7639Y28920D2*
X9979D1*
X39990D2*
X42229D1*
X70158D2*
X72741D1*
X7639Y28671D2*
X9979D1*
X40240D2*
X42229D1*
X70201D2*
X72741D1*
X7639Y28423D2*
X9979D1*
X40447D2*
X42229D1*
X70143D2*
X72741D1*
X7639Y28174D2*
X9979D1*
X40498D2*
X42229D1*
X69975D2*
X72741D1*
X7639Y27925D2*
X9979D1*
X40498D2*
X42229D1*
X70154D2*
X72741D1*
X7639Y27677D2*
X9979D1*
X40498D2*
X42319D1*
X70201D2*
X72741D1*
X7639Y27428D2*
X9979D1*
X21393D2*
X21604D1*
X40608D2*
X42561D1*
X44393D2*
X44561D1*
X70143D2*
X72741D1*
X7639Y27179D2*
X9979D1*
X12971D2*
X13229D1*
X21221D2*
X21604D1*
X38151D2*
X38409D1*
X40651D2*
X43159D1*
X44221D2*
X44729D1*
X66971D2*
X67311D1*
X69971D2*
X72741D1*
X7639Y26930D2*
X9979D1*
X21404D2*
X21604D1*
X40600D2*
X42542D1*
X44404D2*
X44729D1*
X67154D2*
X67479D1*
X70154D2*
X72741D1*
X7639Y26682D2*
X9979D1*
X21451D2*
X21604D1*
X40838D2*
X42292D1*
X44451D2*
X44729D1*
X67201D2*
X67479D1*
X70201D2*
X72741D1*
X7639Y26433D2*
X9979D1*
X21397D2*
X21604D1*
X41088D2*
X42042D1*
X44397D2*
X44729D1*
X67147D2*
X67479D1*
X70338D2*
X72741D1*
X7639Y26184D2*
X9979D1*
X12947D2*
X13229D1*
X21197D2*
X21604D1*
X24197D2*
X24554D1*
X38151D2*
X38433D1*
X41334D2*
X41804D1*
X44197D2*
X44729D1*
X54326D2*
X56183D1*
X60197D2*
X60554D1*
X66947D2*
X67479D1*
X70584D2*
X72741D1*
X7639Y25936D2*
X9979D1*
X12326D2*
X13229D1*
X14901D2*
X16554D1*
X20076D2*
X21604D1*
X23151D2*
X24804D1*
X32576D2*
X36229D1*
X38151D2*
X40304D1*
X41572D2*
X41729D1*
X42826D2*
X44729D1*
X46276D2*
X47554D1*
X54076D2*
X57104D1*
X59213D2*
X60804D1*
X66201D2*
X67479D1*
X69151D2*
X69554D1*
X70834D2*
X72741D1*
X7639Y25687D2*
X9979D1*
X12076D2*
X13229D1*
X14901D2*
X16804D1*
X19826D2*
X21604D1*
X23151D2*
X25054D1*
X32326D2*
X36229D1*
X38151D2*
X40554D1*
X42651D2*
X44729D1*
X46276D2*
X47804D1*
X53826D2*
X57104D1*
X59213D2*
X60979D1*
X65951D2*
X67479D1*
X69151D2*
X69804D1*
X71084D2*
X72741D1*
X7639Y25438D2*
X9979D1*
X11830D2*
X13229D1*
X14901D2*
X17050D1*
X19651D2*
X21604D1*
X23151D2*
X25300D1*
X32080D2*
X36229D1*
X38151D2*
X40729D1*
X42651D2*
X44729D1*
X46276D2*
X48050D1*
X53580D2*
X57104D1*
X59213D2*
X60979D1*
X65705D2*
X67479D1*
X69151D2*
X70050D1*
X71330D2*
X72741D1*
X7639Y25190D2*
X9979D1*
X11651D2*
X13229D1*
X14901D2*
X17300D1*
X19651D2*
X21604D1*
X23151D2*
X25550D1*
X31830D2*
X36229D1*
X38151D2*
X40729D1*
X42651D2*
X44729D1*
X46276D2*
X48300D1*
X53330D2*
X57104D1*
X59213D2*
X60979D1*
X65651D2*
X67479D1*
X69151D2*
X70300D1*
X71572D2*
X72741D1*
X7639Y24941D2*
X9979D1*
X11651D2*
X13229D1*
X14901D2*
X17479D1*
X19651D2*
X21604D1*
X23151D2*
X25800D1*
X31580D2*
X36229D1*
X38330D2*
X40729D1*
X42651D2*
X44729D1*
X46276D2*
X48550D1*
X53080D2*
X57104D1*
X59213D2*
X60979D1*
X65651D2*
X67479D1*
X69151D2*
X70550D1*
X71651D2*
X72741D1*
X7639Y24692D2*
X9979D1*
X11651D2*
X13229D1*
X14901D2*
X17479D1*
X19651D2*
X21604D1*
X23151D2*
X26046D1*
X31334D2*
X36229D1*
X38506D2*
X40729D1*
X42651D2*
X44729D1*
X46276D2*
X48796D1*
X52834D2*
X57104D1*
X59213D2*
X60979D1*
X65651D2*
X67479D1*
X69151D2*
X70729D1*
X71651D2*
X72741D1*
X7639Y24444D2*
X9979D1*
X11651D2*
X13229D1*
X14901D2*
X17479D1*
X19651D2*
X21604D1*
X23151D2*
X26296D1*
X31084D2*
X36229D1*
X38526D2*
X40729D1*
X42651D2*
X44729D1*
X46276D2*
X49046D1*
X52584D2*
X57104D1*
X59213D2*
X60979D1*
X65651D2*
X67479D1*
X69151D2*
X70729D1*
X71651D2*
X72741D1*
X7639Y24195D2*
X9979D1*
X11651D2*
X11929D1*
X12951D2*
X13229D1*
X15951D2*
X17479D1*
X19651D2*
X20179D1*
X21201D2*
X21604D1*
X24201D2*
X26546D1*
X30834D2*
X35429D1*
X39451D2*
X40729D1*
X42651D2*
X43179D1*
X44201D2*
X44729D1*
X47201D2*
X49296D1*
X52334D2*
X56179D1*
X60201D2*
X60979D1*
X65651D2*
X65929D1*
X66951D2*
X67479D1*
X69951D2*
X70729D1*
X71651D2*
X72741D1*
X7639Y23946D2*
X9979D1*
X16322D2*
X17479D1*
X19651D2*
X19983D1*
X21447D2*
X21604D1*
X25072D2*
X26792D1*
X30588D2*
X34808D1*
X40322D2*
X40729D1*
X42651D2*
X42983D1*
X44397D2*
X44729D1*
X47397D2*
X49542D1*
X52151D2*
X53058D1*
X60397D2*
X60979D1*
X67322D2*
X67479D1*
X70322D2*
X70729D1*
X71651D2*
X72741D1*
X7639Y23698D2*
X9979D1*
X16572D2*
X17479D1*
X19651D2*
X19929D1*
X25322D2*
X27042D1*
X30401D2*
X34558D1*
X40572D2*
X40729D1*
X42651D2*
X42929D1*
X44451D2*
X44729D1*
X47451D2*
X49792D1*
X52151D2*
X52808D1*
X60451D2*
X60979D1*
X70572D2*
X70729D1*
X71651D2*
X72741D1*
X7639Y23449D2*
X9979D1*
X16815D2*
X17479D1*
X19651D2*
X19979D1*
X25572D2*
X27292D1*
X30401D2*
X34308D1*
X42651D2*
X42979D1*
X44572D2*
X44729D1*
X47572D2*
X49979D1*
X52151D2*
X52565D1*
X60572D2*
X60979D1*
X65576D2*
X65729D1*
X71651D2*
X72741D1*
X7639Y23200D2*
X9979D1*
X11651D2*
X11913D1*
X16901D2*
X17479D1*
X19651D2*
X20163D1*
X24217D2*
X24538D1*
X25819D2*
X27538D1*
X30401D2*
X34065D1*
X42651D2*
X43163D1*
X47819D2*
X49979D1*
X52151D2*
X52479D1*
X53592D2*
X56163D1*
X60815D2*
X60979D1*
X65342D2*
X65913D1*
X71651D2*
X72741D1*
X7639Y22951D2*
X9835D1*
X16901D2*
X17479D1*
X19651D2*
X19987D1*
X24393D2*
X24788D1*
X26069D2*
X27788D1*
X30401D2*
X33979D1*
X42651D2*
X42987D1*
X48061D2*
X49979D1*
X52151D2*
X52479D1*
X53401D2*
X55987D1*
X65092D2*
X65737D1*
X71651D2*
X72741D1*
X7639Y22703D2*
X9780D1*
X16901D2*
X17479D1*
X19651D2*
X19929D1*
X24451D2*
X25038D1*
X26319D2*
X28038D1*
X30401D2*
X33979D1*
X42651D2*
X42929D1*
X48151D2*
X49979D1*
X52151D2*
X52479D1*
X53401D2*
X55929D1*
X57842D2*
X58036D1*
X64842D2*
X65679D1*
X71651D2*
X72741D1*
X7639Y22454D2*
X9827D1*
X16901D2*
X17479D1*
X19651D2*
X19976D1*
X24404D2*
X25284D1*
X26565D2*
X28229D1*
X30401D2*
X33979D1*
X42651D2*
X42976D1*
X48151D2*
X49979D1*
X52151D2*
X52479D1*
X53401D2*
X55976D1*
X57596D2*
X58284D1*
X64596D2*
X65726D1*
X71651D2*
X72741D1*
X7639Y22205D2*
X10003D1*
X11651D2*
X11905D1*
X16901D2*
X17479D1*
X19651D2*
X20155D1*
X24225D2*
X25534D1*
X26815D2*
X28229D1*
X30401D2*
X33979D1*
X42651D2*
X43155D1*
X48151D2*
X49979D1*
X52151D2*
X52479D1*
X53401D2*
X56155D1*
X57225D2*
X58534D1*
X64346D2*
X65905D1*
X71651D2*
X72741D1*
X7639Y21957D2*
X10729D1*
X16901D2*
X17479D1*
X19651D2*
X19987D1*
X24393D2*
X25784D1*
X27065D2*
X28229D1*
X30401D2*
X33979D1*
X42651D2*
X42987D1*
X48151D2*
X49979D1*
X52151D2*
X52479D1*
X53401D2*
X55987D1*
X57393D2*
X58784D1*
X64096D2*
X65737D1*
X71651D2*
X72741D1*
X7639Y21708D2*
X10729D1*
X16901D2*
X17479D1*
X19651D2*
X19929D1*
X24451D2*
X26030D1*
X27311D2*
X28229D1*
X30401D2*
X33979D1*
X42651D2*
X42929D1*
X48151D2*
X49979D1*
X52151D2*
X52479D1*
X53401D2*
X55929D1*
X57451D2*
X58929D1*
X63850D2*
X65679D1*
X71651D2*
X72741D1*
X7639Y21459D2*
X10729D1*
X16901D2*
X17479D1*
X19651D2*
X19972D1*
X24408D2*
X26280D1*
X27561D2*
X28229D1*
X30401D2*
X33979D1*
X48151D2*
X49979D1*
X52151D2*
X52479D1*
X53401D2*
X55550D1*
X58080D2*
X58972D1*
X63600D2*
X64300D1*
X71651D2*
X72741D1*
X7639Y21211D2*
X10729D1*
X11651D2*
X11897D1*
X16901D2*
X17479D1*
X24260D2*
X26530D1*
X27807D2*
X28229D1*
X30401D2*
X33979D1*
X48151D2*
X49979D1*
X52151D2*
X52479D1*
X53401D2*
X55370D1*
X58260D2*
X59147D1*
X63350D2*
X64120D1*
X71651D2*
X72741D1*
X7639Y20962D2*
X10729D1*
X11651D2*
X12729D1*
X16901D2*
X17479D1*
X24299D2*
X26776D1*
X27901D2*
X28229D1*
X30401D2*
X33979D1*
X41584D2*
X41729D1*
X48084D2*
X49979D1*
X52151D2*
X52479D1*
X53401D2*
X55331D1*
X58299D2*
X59979D1*
X63104D2*
X64081D1*
X71651D2*
X72741D1*
X7639Y20713D2*
X10729D1*
X11651D2*
X12729D1*
X16901D2*
X17479D1*
X24225D2*
X26979D1*
X27901D2*
X28229D1*
X30401D2*
X33979D1*
X41354D2*
X41729D1*
X47854D2*
X49979D1*
X52151D2*
X52479D1*
X53401D2*
X55405D1*
X58225D2*
X59823D1*
X62854D2*
X64155D1*
X71588D2*
X72741D1*
X7639Y20465D2*
X10729D1*
X11651D2*
X12573D1*
X16901D2*
X17479D1*
X22350D2*
X23436D1*
X23944D2*
X26979D1*
X27901D2*
X28229D1*
X30401D2*
X33979D1*
X41104D2*
X41729D1*
X47604D2*
X49979D1*
X52151D2*
X52479D1*
X53401D2*
X55686D1*
X56194D2*
X57436D1*
X57944D2*
X59573D1*
X62604D2*
X64436D1*
X64944D2*
X66979D1*
X71354D2*
X72741D1*
X7639Y20216D2*
X10729D1*
X11651D2*
X12327D1*
X16901D2*
X17479D1*
X22311D2*
X26979D1*
X27901D2*
X28229D1*
X30401D2*
X33979D1*
X40858D2*
X41729D1*
X47358D2*
X49979D1*
X52151D2*
X52479D1*
X53401D2*
X59327D1*
X63764D2*
X66827D1*
X71108D2*
X72741D1*
X7639Y19967D2*
X10729D1*
X11651D2*
X12077D1*
X16901D2*
X17479D1*
X22151D2*
X26979D1*
X27901D2*
X28229D1*
X30401D2*
X33979D1*
X40608D2*
X41729D1*
X47108D2*
X49979D1*
X52151D2*
X52479D1*
X53401D2*
X59081D1*
X63764D2*
X66581D1*
X70858D2*
X72741D1*
X7639Y19719D2*
X10729D1*
X11651D2*
X11831D1*
X16901D2*
X17542D1*
X22151D2*
X26979D1*
X27901D2*
X28229D1*
X30401D2*
X34042D1*
X40358D2*
X41729D1*
X46858D2*
X49979D1*
X52151D2*
X52479D1*
X53401D2*
X58979D1*
X63764D2*
X66479D1*
X70608D2*
X72741D1*
X7639Y19470D2*
X10729D1*
X16901D2*
X17769D1*
X22151D2*
X26979D1*
X27901D2*
X28229D1*
X30401D2*
X34269D1*
X40111D2*
X41729D1*
X46611D2*
X49979D1*
X52151D2*
X52479D1*
X53401D2*
X58979D1*
X63764D2*
X66479D1*
X70361D2*
X72741D1*
X7639Y19221D2*
X10729D1*
X16901D2*
X18019D1*
X22151D2*
X26979D1*
X27901D2*
X28229D1*
X30401D2*
X34479D1*
X39861D2*
X41729D1*
X46361D2*
X49979D1*
X52151D2*
X52479D1*
X53401D2*
X58979D1*
X63764D2*
X66479D1*
X70111D2*
X72741D1*
X7639Y18972D2*
X10542D1*
X16901D2*
X18269D1*
X22338D2*
X26792D1*
X30588D2*
X34292D1*
X39611D2*
X41542D1*
X46111D2*
X49792D1*
X53588D2*
X58792D1*
X63701D2*
X66292D1*
X69861D2*
X72741D1*
X7639Y18724D2*
X10479D1*
X16901D2*
X18479D1*
X22401D2*
X26729D1*
X30651D2*
X34229D1*
X39365D2*
X41479D1*
X45865D2*
X49729D1*
X53651D2*
X58729D1*
X63764D2*
X66229D1*
X69651D2*
X72741D1*
X7639Y18475D2*
X10335D1*
X16877D2*
X18515D1*
X22365D2*
X26765D1*
X30615D2*
X34265D1*
X39115D2*
X41515D1*
X45615D2*
X49765D1*
X53615D2*
X58765D1*
X63729D2*
X66265D1*
X69795D2*
X72741D1*
X7639Y18226D2*
X10085D1*
X16690D2*
X18659D1*
X22295D2*
X26909D1*
X30471D2*
X34409D1*
X37471D2*
X41659D1*
X45221D2*
X49909D1*
X53471D2*
X58909D1*
X59971D2*
X60161D1*
X63576D2*
X66409D1*
X70045D2*
X72741D1*
X7639Y17978D2*
X9839D1*
X16440D2*
X18729D1*
X22541D2*
X26979D1*
X30401D2*
X34479D1*
X37401D2*
X41729D1*
X45151D2*
X49979D1*
X53401D2*
X58979D1*
X59901D2*
X60229D1*
X62541D2*
X66339D1*
X68401D2*
X69011D1*
X70291D2*
X72741D1*
X7639Y17729D2*
X9733D1*
X16194D2*
X18729D1*
X22791D2*
X26979D1*
X30401D2*
X34479D1*
X37401D2*
X41729D1*
X45151D2*
X49979D1*
X53401D2*
X58979D1*
X59901D2*
X60284D1*
X62791D2*
X66089D1*
X68541D2*
X69261D1*
X70541D2*
X72741D1*
X7639Y17480D2*
X9729D1*
X15944D2*
X18729D1*
X23041D2*
X26979D1*
X30541D2*
X34479D1*
X37541D2*
X41729D1*
X45291D2*
X49979D1*
X53541D2*
X58979D1*
X59901D2*
X60511D1*
X63041D2*
X65839D1*
X68791D2*
X69511D1*
X70791D2*
X72741D1*
X7639Y17232D2*
X9729D1*
X15694D2*
X18729D1*
X23287D2*
X26979D1*
X30787D2*
X34479D1*
X37787D2*
X41729D1*
X45537D2*
X49979D1*
X53787D2*
X58979D1*
X59901D2*
X60757D1*
X63287D2*
X65593D1*
X69037D2*
X69757D1*
X71037D2*
X72741D1*
X7639Y16983D2*
X9729D1*
X15447D2*
X18729D1*
X23397D2*
X26979D1*
X31037D2*
X34479D1*
X38037D2*
X41729D1*
X45787D2*
X49979D1*
X54037D2*
X58843D1*
X59901D2*
X61007D1*
X63537D2*
X65483D1*
X69287D2*
X70007D1*
X71287D2*
X72741D1*
X7639Y16734D2*
X9729D1*
X15197D2*
X18729D1*
X23401D2*
X26843D1*
X31287D2*
X34479D1*
X38287D2*
X41729D1*
X46037D2*
X49843D1*
X54287D2*
X58593D1*
X59850D2*
X61257D1*
X63787D2*
X65479D1*
X69537D2*
X70257D1*
X71537D2*
X72741D1*
X7639Y16486D2*
X9729D1*
X15151D2*
X18597D1*
X23401D2*
X26597D1*
X31533D2*
X34347D1*
X38533D2*
X41597D1*
X46283D2*
X49597D1*
X54533D2*
X58347D1*
X59627D2*
X61503D1*
X64033D2*
X65479D1*
X69783D2*
X70503D1*
X71783D2*
X72741D1*
X7639Y16237D2*
X9729D1*
X15151D2*
X18347D1*
X23401D2*
X26347D1*
X31783D2*
X34097D1*
X38783D2*
X41347D1*
X46533D2*
X49347D1*
X54783D2*
X58097D1*
X59377D2*
X61753D1*
X64283D2*
X65479D1*
X70033D2*
X70753D1*
X72033D2*
X72741D1*
X7639Y15988D2*
X9729D1*
X15151D2*
X18097D1*
X23401D2*
X26097D1*
X31897D2*
X33847D1*
X39033D2*
X41097D1*
X46783D2*
X49097D1*
X55033D2*
X57847D1*
X59127D2*
X62003D1*
X64397D2*
X65479D1*
X70147D2*
X71003D1*
X72283D2*
X72741D1*
X7639Y15740D2*
X9729D1*
X15151D2*
X17983D1*
X23401D2*
X25851D1*
X31901D2*
X33601D1*
X39279D2*
X40983D1*
X47029D2*
X48983D1*
X55279D2*
X57733D1*
X59873D2*
X60257D1*
X61123D2*
X61507D1*
X64401D2*
X65479D1*
X70151D2*
X71249D1*
X72529D2*
X72741D1*
X7639Y15491D2*
X9729D1*
X15151D2*
X17979D1*
X23401D2*
X25733D1*
X31901D2*
X33351D1*
X39397D2*
X40979D1*
X47279D2*
X48979D1*
X55397D2*
X57729D1*
X58651D2*
X58800D1*
X64401D2*
X65479D1*
X70151D2*
X71499D1*
X7639Y15242D2*
X9729D1*
X15151D2*
X17979D1*
X23401D2*
X25729D1*
X31901D2*
X33233D1*
X39401D2*
X40979D1*
X47397D2*
X48979D1*
X55401D2*
X57729D1*
X64401D2*
X65479D1*
X70151D2*
X71749D1*
X7639Y14993D2*
X9729D1*
X15151D2*
X17979D1*
X23401D2*
X25729D1*
X31901D2*
X33229D1*
X39401D2*
X40979D1*
X47401D2*
X48979D1*
X55401D2*
X57729D1*
X64401D2*
X65479D1*
X70151D2*
X71979D1*
X7639Y14745D2*
X9729D1*
X15151D2*
X17979D1*
X23401D2*
X25729D1*
X26651D2*
X26894D1*
X31901D2*
X33229D1*
X34151D2*
X34394D1*
X39401D2*
X40979D1*
X45236D2*
X45479D1*
X47401D2*
X48979D1*
X55401D2*
X57729D1*
X64401D2*
X65479D1*
X70151D2*
X71979D1*
X7639Y14496D2*
X8542D1*
X15151D2*
X17979D1*
X21651D2*
X21979D1*
X23401D2*
X25729D1*
X26651D2*
X27229D1*
X31901D2*
X33229D1*
X34151D2*
X34479D1*
X39401D2*
X40979D1*
X45151D2*
X45479D1*
X47401D2*
X48979D1*
X49901D2*
X50495D1*
X55401D2*
X57729D1*
X64401D2*
X65479D1*
X66401D2*
X66729D1*
X70104D2*
X70542D1*
X71838D2*
X71979D1*
X7639Y14247D2*
X8241D1*
X15151D2*
X17979D1*
X21651D2*
X21979D1*
X23401D2*
X25729D1*
X26651D2*
X27229D1*
X31901D2*
X33229D1*
X34151D2*
X34479D1*
X39401D2*
X40979D1*
X45151D2*
X45479D1*
X47401D2*
X48979D1*
X49901D2*
X50729D1*
X55401D2*
X57729D1*
X64401D2*
X65479D1*
X66401D2*
X66729D1*
X69889D2*
X70241D1*
X7639Y13999D2*
X8073D1*
X15151D2*
X17979D1*
X21651D2*
X21979D1*
X23401D2*
X25729D1*
X26651D2*
X27229D1*
X31901D2*
X33229D1*
X34151D2*
X34526D1*
X39401D2*
X40979D1*
X45151D2*
X45479D1*
X47401D2*
X48979D1*
X49901D2*
X50729D1*
X55401D2*
X57729D1*
X62139D2*
X62479D1*
X64401D2*
X65479D1*
X66401D2*
X66729D1*
X69651D2*
X70073D1*
X7639Y13750D2*
X7979D1*
X15151D2*
X17979D1*
X21651D2*
X21979D1*
X23401D2*
X25729D1*
X26651D2*
X27229D1*
X31901D2*
X33229D1*
X34151D2*
X34741D1*
X39401D2*
X40979D1*
X45151D2*
X45479D1*
X47401D2*
X48979D1*
X49901D2*
X50729D1*
X55401D2*
X57729D1*
X61889D2*
X62479D1*
X64401D2*
X65479D1*
X66401D2*
X66729D1*
X69651D2*
X69979D1*
X7639Y13501D2*
X7940D1*
X15151D2*
X17979D1*
X21697D2*
X21979D1*
X23401D2*
X25729D1*
X26651D2*
X27183D1*
X29893D2*
X30229D1*
X31901D2*
X33229D1*
X34151D2*
X34933D1*
X39401D2*
X40979D1*
X41901D2*
X42237D1*
X45197D2*
X45479D1*
X47401D2*
X48979D1*
X49901D2*
X50683D1*
X55401D2*
X57729D1*
X61643D2*
X62479D1*
X64401D2*
X65479D1*
X66401D2*
X66683D1*
X69651D2*
X69940D1*
X7639Y13253D2*
X7952D1*
X15151D2*
X17979D1*
X21701D2*
X21979D1*
X23401D2*
X25729D1*
X26651D2*
X27179D1*
X29701D2*
X30229D1*
X31901D2*
X33229D1*
X34151D2*
X34929D1*
X39401D2*
X40979D1*
X41901D2*
X42487D1*
X45201D2*
X45479D1*
X47401D2*
X48979D1*
X49901D2*
X50679D1*
X55401D2*
X57729D1*
X61393D2*
X62479D1*
X64401D2*
X65479D1*
X66401D2*
X66679D1*
X69651D2*
X69952D1*
X7639Y13004D2*
X8019D1*
X15151D2*
X17979D1*
X18901D2*
X19179D1*
X21701D2*
X21979D1*
X23401D2*
X25729D1*
X26651D2*
X27179D1*
X29701D2*
X30229D1*
X31901D2*
X33229D1*
X34151D2*
X34929D1*
X39401D2*
X40979D1*
X41901D2*
X42679D1*
X45201D2*
X45479D1*
X47401D2*
X48979D1*
X49901D2*
X50679D1*
X53201D2*
X53479D1*
X55401D2*
X57729D1*
X61201D2*
X62479D1*
X64401D2*
X65479D1*
X66401D2*
X66679D1*
X69651D2*
X70019D1*
X7639Y12755D2*
X8147D1*
X15151D2*
X17979D1*
X18901D2*
X19218D1*
X21662D2*
X21979D1*
X23401D2*
X25729D1*
X26651D2*
X27218D1*
X29662D2*
X30229D1*
X31901D2*
X33229D1*
X34151D2*
X34968D1*
X39401D2*
X40979D1*
X41901D2*
X42718D1*
X45162D2*
X45479D1*
X47401D2*
X48979D1*
X49901D2*
X50718D1*
X53162D2*
X53479D1*
X55401D2*
X57729D1*
X61162D2*
X62366D1*
X64401D2*
X65479D1*
X66401D2*
X66718D1*
X69651D2*
X70147D1*
X7639Y12507D2*
X8370D1*
X13182D2*
X13479D1*
X15151D2*
X17979D1*
X18901D2*
X19448D1*
X21432D2*
X21979D1*
X23401D2*
X25729D1*
X26651D2*
X27448D1*
X29432D2*
X30229D1*
X31901D2*
X33229D1*
X34151D2*
X35198D1*
X37182D2*
X37479D1*
X39401D2*
X40979D1*
X41901D2*
X42948D1*
X44932D2*
X45479D1*
X47401D2*
X48979D1*
X49901D2*
X50948D1*
X52932D2*
X53479D1*
X55401D2*
X57729D1*
X58651D2*
X58948D1*
X60932D2*
X62116D1*
X64401D2*
X65479D1*
X66401D2*
X66948D1*
X69651D2*
X70370D1*
X7639Y12258D2*
X8839D1*
X9541D2*
X9979D1*
X10901D2*
X13479D1*
X15151D2*
X17979D1*
X18901D2*
X21866D1*
X23401D2*
X25729D1*
X26651D2*
X30116D1*
X31901D2*
X33229D1*
X34151D2*
X37479D1*
X39401D2*
X40979D1*
X41901D2*
X45479D1*
X47401D2*
X48979D1*
X49901D2*
X53479D1*
X55401D2*
X57729D1*
X58651D2*
X61866D1*
X63147D2*
X63479D1*
X64401D2*
X65479D1*
X66401D2*
X68729D1*
X69651D2*
X70839D1*
X71541D2*
X71979D1*
X7639Y12009D2*
X9979D1*
X10901D2*
X13479D1*
X15151D2*
X17979D1*
X18901D2*
X21620D1*
X23401D2*
X25729D1*
X26651D2*
X29870D1*
X31901D2*
X33229D1*
X34151D2*
X37479D1*
X39401D2*
X40979D1*
X42010D2*
X45479D1*
X47401D2*
X48979D1*
X50010D2*
X53479D1*
X55401D2*
X57729D1*
X58651D2*
X61620D1*
X62901D2*
X63479D1*
X64401D2*
X65479D1*
X66401D2*
X68620D1*
X69651D2*
X71979D1*
X7639Y11761D2*
X9979D1*
X10901D2*
X13479D1*
X15151D2*
X17979D1*
X18901D2*
X21370D1*
X23401D2*
X25729D1*
X26651D2*
X29620D1*
X31901D2*
X33229D1*
X34260D2*
X37479D1*
X39401D2*
X41019D1*
X42260D2*
X45370D1*
X47401D2*
X49019D1*
X50260D2*
X53479D1*
X55401D2*
X57729D1*
X58651D2*
X61370D1*
X62651D2*
X63479D1*
X64401D2*
X65479D1*
X66401D2*
X68487D1*
X69611D2*
X71870D1*
X7639Y11512D2*
X8452D1*
X9428D2*
X9979D1*
X11428D2*
X12452D1*
X15428D2*
X16452D1*
X17428D2*
X17979D1*
X19428D2*
X20452D1*
X23428D2*
X24452D1*
X25428D2*
X25729D1*
X27428D2*
X28452D1*
X31901D2*
X32452D1*
X35428D2*
X36452D1*
X39428D2*
X40452D1*
X43428D2*
X44452D1*
X47428D2*
X48452D1*
X51428D2*
X52452D1*
X55428D2*
X56452D1*
X57428D2*
X57729D1*
X59428D2*
X60452D1*
X67428D2*
X68452D1*
X69428D2*
X70452D1*
X71428D2*
X71620D1*
X7639Y11263D2*
X8257D1*
X9623D2*
X9979D1*
X11623D2*
X12257D1*
X15623D2*
X16257D1*
X17623D2*
X17979D1*
X19623D2*
X20257D1*
X23623D2*
X24257D1*
X27623D2*
X28257D1*
X31901D2*
X32257D1*
X35623D2*
X36257D1*
X39623D2*
X40257D1*
X43623D2*
X44257D1*
X47623D2*
X48257D1*
X51623D2*
X52257D1*
X55623D2*
X56257D1*
X57623D2*
X57766D1*
X59623D2*
X60257D1*
X67623D2*
X68257D1*
X69623D2*
X70257D1*
X7639Y11014D2*
X8183D1*
X9697D2*
X9979D1*
X11697D2*
X12183D1*
X15697D2*
X16183D1*
X17697D2*
X18019D1*
X19697D2*
X20183D1*
X21904D2*
X22183D1*
X23697D2*
X24183D1*
X27697D2*
X28183D1*
X31861D2*
X32183D1*
X35697D2*
X36183D1*
X39697D2*
X40183D1*
X43697D2*
X44183D1*
X45904D2*
X46183D1*
X47697D2*
X48183D1*
X51697D2*
X52183D1*
X55697D2*
X56183D1*
X57697D2*
X57976D1*
X59697D2*
X60183D1*
X61904D2*
X62183D1*
X67697D2*
X68183D1*
X69697D2*
X70183D1*
X72404D2*
X72741D1*
X7639Y10766D2*
X8179D1*
X9701D2*
X10015D1*
X11701D2*
X12179D1*
X15701D2*
X16179D1*
X17701D2*
X18179D1*
X19701D2*
X20179D1*
X21701D2*
X22179D1*
X23701D2*
X24179D1*
X25701D2*
X25976D1*
X27701D2*
X28179D1*
X29904D2*
X30179D1*
X31701D2*
X32179D1*
X33701D2*
X33976D1*
X35701D2*
X36179D1*
X37904D2*
X38179D1*
X39701D2*
X40179D1*
X41701D2*
X41976D1*
X43701D2*
X44179D1*
X45701D2*
X46179D1*
X47701D2*
X48179D1*
X49701D2*
X49976D1*
X51701D2*
X52179D1*
X55701D2*
X56179D1*
X57701D2*
X58179D1*
X59701D2*
X60179D1*
X61701D2*
X62179D1*
X63904D2*
X64179D1*
X67701D2*
X68179D1*
X69701D2*
X70179D1*
X72154D2*
X72741D1*
X7639Y10517D2*
X8179D1*
X9701D2*
X10179D1*
X11701D2*
X12179D1*
X15701D2*
X16179D1*
X17701D2*
X18179D1*
X19701D2*
X20179D1*
X21701D2*
X22179D1*
X23701D2*
X24179D1*
X25701D2*
X26179D1*
X27701D2*
X28179D1*
X29701D2*
X30179D1*
X31701D2*
X32179D1*
X33701D2*
X34179D1*
X35701D2*
X36179D1*
X37701D2*
X38179D1*
X39701D2*
X40179D1*
X41701D2*
X42179D1*
X43701D2*
X44179D1*
X45701D2*
X46179D1*
X47701D2*
X48179D1*
X49701D2*
X50179D1*
X51701D2*
X52179D1*
X55701D2*
X56179D1*
X57701D2*
X58179D1*
X59701D2*
X60179D1*
X61701D2*
X62179D1*
X63701D2*
X64179D1*
X65701D2*
X65972D1*
X67701D2*
X68179D1*
X69701D2*
X70179D1*
X71908D2*
X72741D1*
X7639Y10268D2*
X8179D1*
X9701D2*
X10179D1*
X11701D2*
X12179D1*
X15701D2*
X16179D1*
X17701D2*
X18179D1*
X19701D2*
X20179D1*
X21701D2*
X22179D1*
X23701D2*
X24179D1*
X25701D2*
X26179D1*
X27701D2*
X28179D1*
X29701D2*
X30179D1*
X31701D2*
X32179D1*
X33701D2*
X34179D1*
X35701D2*
X36179D1*
X37701D2*
X38179D1*
X39701D2*
X40179D1*
X41701D2*
X42179D1*
X43701D2*
X44179D1*
X45701D2*
X46179D1*
X47701D2*
X48179D1*
X49701D2*
X50179D1*
X51701D2*
X52179D1*
X55701D2*
X56179D1*
X57701D2*
X58179D1*
X59701D2*
X60179D1*
X61701D2*
X62179D1*
X63701D2*
X64179D1*
X65701D2*
X66179D1*
X67701D2*
X68179D1*
X69701D2*
X70179D1*
X71701D2*
X72741D1*
X7639Y10020D2*
X8179D1*
X9701D2*
X10179D1*
X11701D2*
X12179D1*
X15701D2*
X16179D1*
X17701D2*
X18179D1*
X19701D2*
X20179D1*
X21701D2*
X22179D1*
X23701D2*
X24179D1*
X25701D2*
X26179D1*
X27701D2*
X28179D1*
X29701D2*
X30179D1*
X31701D2*
X32179D1*
X33701D2*
X34179D1*
X35701D2*
X36179D1*
X37701D2*
X38179D1*
X39701D2*
X40179D1*
X41701D2*
X42179D1*
X43701D2*
X44179D1*
X45701D2*
X46179D1*
X47701D2*
X48179D1*
X49701D2*
X50179D1*
X51701D2*
X52179D1*
X55701D2*
X56179D1*
X57701D2*
X58179D1*
X59701D2*
X60179D1*
X61701D2*
X62179D1*
X63701D2*
X64179D1*
X65701D2*
X66179D1*
X67701D2*
X68179D1*
X69701D2*
X70179D1*
X71701D2*
X72741D1*
X7639Y9771D2*
X8198D1*
X9682D2*
X10198D1*
X11682D2*
X12198D1*
X13682D2*
X14198D1*
X15682D2*
X16198D1*
X17682D2*
X18198D1*
X19682D2*
X20198D1*
X21682D2*
X22198D1*
X23682D2*
X24198D1*
X25682D2*
X26198D1*
X27682D2*
X28198D1*
X29682D2*
X30198D1*
X31682D2*
X32198D1*
X33682D2*
X34198D1*
X35682D2*
X36198D1*
X37682D2*
X38198D1*
X39682D2*
X40198D1*
X41682D2*
X42198D1*
X43682D2*
X44198D1*
X45682D2*
X46198D1*
X47682D2*
X48198D1*
X49682D2*
X50198D1*
X51682D2*
X52198D1*
X53682D2*
X54198D1*
X55682D2*
X56198D1*
X57682D2*
X58198D1*
X59682D2*
X60198D1*
X61682D2*
X62198D1*
X63682D2*
X64198D1*
X65682D2*
X66198D1*
X67682D2*
X68198D1*
X69682D2*
X70198D1*
X71682D2*
X72741D1*
X7639Y9522D2*
X8311D1*
X9569D2*
X10311D1*
X11569D2*
X12311D1*
X13569D2*
X14311D1*
X15569D2*
X16311D1*
X17569D2*
X18311D1*
X19569D2*
X20311D1*
X21569D2*
X22311D1*
X23569D2*
X24311D1*
X25569D2*
X26311D1*
X27569D2*
X28311D1*
X29569D2*
X30311D1*
X31569D2*
X32311D1*
X33569D2*
X34311D1*
X35569D2*
X36311D1*
X37569D2*
X38311D1*
X39569D2*
X40311D1*
X41569D2*
X42311D1*
X43569D2*
X44311D1*
X45569D2*
X46311D1*
X47569D2*
X48311D1*
X49569D2*
X50311D1*
X51569D2*
X52311D1*
X53569D2*
X54311D1*
X55569D2*
X56311D1*
X57569D2*
X58311D1*
X59569D2*
X60311D1*
X61569D2*
X62311D1*
X63569D2*
X64311D1*
X65569D2*
X66311D1*
X67569D2*
X68311D1*
X69569D2*
X70311D1*
X71569D2*
X72741D1*
X7639Y9274D2*
X8604D1*
X9276D2*
X10604D1*
X11276D2*
X12604D1*
X13276D2*
X14604D1*
X15276D2*
X16604D1*
X17276D2*
X18604D1*
X19276D2*
X20604D1*
X21276D2*
X22604D1*
X23276D2*
X24604D1*
X25276D2*
X26604D1*
X27276D2*
X28604D1*
X29276D2*
X30604D1*
X31276D2*
X32604D1*
X33276D2*
X34604D1*
X35276D2*
X36604D1*
X37276D2*
X38604D1*
X39276D2*
X40604D1*
X41276D2*
X42604D1*
X43276D2*
X44604D1*
X45276D2*
X46604D1*
X47276D2*
X48604D1*
X49276D2*
X50604D1*
X51276D2*
X52604D1*
X53276D2*
X54604D1*
X55276D2*
X56604D1*
X57276D2*
X58604D1*
X59276D2*
X60604D1*
X61276D2*
X62604D1*
X63276D2*
X64604D1*
X65276D2*
X66604D1*
X67276D2*
X68604D1*
X69276D2*
X70604D1*
X71276D2*
X72741D1*
X7639Y9025D2*
X72741D1*
X7639Y8776D2*
X72741D1*
X7639Y8528D2*
X72741D1*
X7678Y8279D2*
X72702D1*
X7740Y8030D2*
X72640D1*
X7830Y7782D2*
X72550D1*
X7944Y7533D2*
X72436D1*
X8084Y7284D2*
X72296D1*
X8256Y7035D2*
X72124D1*
X8471Y6787D2*
X71909D1*
X8740Y6538D2*
X71640D1*
X9088Y6289D2*
X71292D1*
X9588Y6041D2*
X70792D1*
X8208Y10940D2*
Y11006D1*
X8230Y11129D1*
X8272Y11246D1*
X8333Y11355D1*
X8412Y11452D1*
X8507Y11534D1*
X8613Y11598D1*
X8729Y11644D1*
X8852Y11670D1*
X8976Y11674D1*
X9100Y11657D1*
X9219Y11620D1*
X9330Y11563D1*
X9430Y11488D1*
X9516Y11397D1*
X9585Y11293D1*
X9635Y11179D1*
X9666Y11058D1*
X9675Y10815D1*
X9671Y9940D1*
X9664Y9816D1*
X9633Y9695D1*
X9581Y9581D1*
X9511Y9478D1*
X9425Y9388D1*
X9324Y9314D1*
X9213Y9258D1*
X9093Y9221D1*
X8970Y9206D1*
X8845Y9211D1*
X8723Y9238D1*
X8607Y9285D1*
X8501Y9350D1*
X8408Y9433D1*
X8329Y9531D1*
X8269Y9640D1*
X8228Y9758D1*
X8207Y9881D1*
X8205Y10315D1*
X8209Y10940D1*
X10871Y11670D2*
X10976Y11674D1*
X11100Y11657D1*
X11219Y11620D1*
X11330Y11563D1*
X11430Y11488D1*
X11516Y11397D1*
X11585Y11293D1*
X11635Y11179D1*
X11666Y11058D1*
X11675Y10815D1*
X11671Y9940D1*
X11664Y9816D1*
X11633Y9695D1*
X11581Y9581D1*
X11511Y9478D1*
X11425Y9388D1*
X11324Y9314D1*
X11213Y9258D1*
X11093Y9221D1*
X10970Y9206D1*
X10845Y9211D1*
X10723Y9238D1*
X10607Y9285D1*
X10501Y9350D1*
X10408Y9433D1*
X10329Y9531D1*
X10269Y9640D1*
X10228Y9758D1*
X10207Y9881D1*
X10205Y10315D1*
Y10561D1*
X10132Y10632D1*
X10058Y10732D1*
X10021Y10825D1*
X10005Y10940D1*
X10006Y12444D1*
X9935Y12466D1*
X9833Y12395D1*
X9723Y12336D1*
X9608Y12287D1*
X9488Y12251D1*
X9366Y12226D1*
X9241Y12215D1*
X9116Y12216D1*
X8992Y12230D1*
X8870Y12256D1*
X8751Y12295D1*
X8637Y12345D1*
X8528Y12407D1*
X8427Y12480D1*
X8333Y12563D1*
X8248Y12654D1*
X8173Y12754D1*
X8109Y12861D1*
X8056Y12974D1*
X8014Y13092D1*
X7985Y13214D1*
X7968Y13338D1*
X7964Y13462D1*
X7973Y13587D1*
X7994Y13710D1*
X8028Y13831D1*
X8073Y13947D1*
X8131Y14058D1*
X8199Y14162D1*
X8278Y14259D1*
X8366Y14348D1*
X8462Y14427D1*
X8567Y14496D1*
X8677Y14554D1*
X8793Y14600D1*
X8914Y14635D1*
X9037Y14657D1*
X9161Y14666D1*
X9286Y14663D1*
X9410Y14646D1*
X9532Y14618D1*
X9650Y14577D1*
X9800Y14502D1*
X9771Y14575D1*
X9755Y14690D1*
Y17690D1*
X9773Y17813D1*
X9812Y17905D1*
X9882Y17998D1*
X10511Y18626D1*
X10512Y18788D1*
X10541Y18909D1*
X10592Y19023D1*
X10662Y19126D1*
X10753Y19217D1*
X10755Y22139D1*
X10681Y22103D1*
X10562Y22067D1*
X10437Y22055D1*
X10313Y22068D1*
X10194Y22105D1*
X10084Y22164D1*
X9988Y22244D1*
X9910Y22341D1*
X9852Y22451D1*
X9816Y22571D1*
X9805Y22695D1*
X9818Y22819D1*
X9856Y22938D1*
X9915Y23048D1*
X10005Y23151D1*
Y30440D1*
X10023Y30563D1*
X10062Y30655D1*
X10132Y30748D1*
X11132Y31748D1*
X11232Y31822D1*
X11325Y31859D1*
X11440Y31875D1*
X15256D1*
X16458Y33073D1*
X29382Y45998D1*
X29482Y46072D1*
X29575Y46109D1*
X29690Y46125D1*
X34952D1*
X34955Y46425D1*
X36425D1*
Y44955D1*
X36374D1*
X36416Y44808D1*
X36425Y44690D1*
X36414Y44566D1*
X36383Y44445D1*
X36331Y44331D1*
X36226Y44191D1*
X36335Y44043D1*
X36385Y43929D1*
X36416Y43808D1*
X36425Y43690D1*
X36414Y43566D1*
X36383Y43445D1*
X36331Y43331D1*
X36226Y43191D1*
X36335Y43043D1*
X36385Y42929D1*
X36416Y42808D1*
X36425Y42690D1*
X36414Y42566D1*
X36383Y42445D1*
X36331Y42331D1*
X36226Y42191D1*
X36335Y42043D1*
X36385Y41929D1*
X36416Y41808D1*
X36425Y41690D1*
X36414Y41566D1*
X36383Y41445D1*
X36331Y41331D1*
X36226Y41191D1*
X36335Y41043D1*
X36385Y40929D1*
X36416Y40808D1*
X36425Y40690D1*
X36414Y40566D1*
X36383Y40445D1*
X36331Y40331D1*
X36226Y40191D1*
X36335Y40043D1*
X36385Y39929D1*
X36416Y39808D1*
X36425Y39690D1*
X36414Y39566D1*
X36383Y39445D1*
X36331Y39331D1*
X36226Y39191D1*
X36335Y39043D1*
X36385Y38929D1*
X36416Y38808D1*
X36425Y38690D1*
X36414Y38566D1*
X36383Y38445D1*
X36331Y38331D1*
X36226Y38191D1*
X36335Y38043D1*
X36385Y37929D1*
X36416Y37808D1*
X36425Y37690D1*
X36414Y37566D1*
X36383Y37445D1*
X36331Y37331D1*
X36226Y37191D1*
X36335Y37043D1*
X36385Y36929D1*
X36416Y36808D1*
X36425Y36690D1*
X36414Y36566D1*
X36383Y36445D1*
X36331Y36331D1*
X36226Y36191D1*
X36335Y36043D1*
X36385Y35929D1*
X36416Y35808D1*
X36425Y35690D1*
X36414Y35566D1*
X36383Y35445D1*
X36331Y35331D1*
X36226Y35191D1*
X36335Y35043D1*
X36385Y34929D1*
X36416Y34808D1*
X36425Y34690D1*
X36414Y34566D1*
X36383Y34445D1*
X36331Y34331D1*
X36226Y34191D1*
X36335Y34043D1*
X36385Y33929D1*
X36416Y33808D1*
X36425Y33690D1*
X36414Y33566D1*
X36383Y33445D1*
X36331Y33331D1*
X36226Y33191D1*
X36335Y33043D1*
X36385Y32929D1*
X36416Y32808D1*
X36425Y32690D1*
X36414Y32566D1*
X36383Y32445D1*
X36333Y32335D1*
X36479Y32394D1*
X36602Y32420D1*
X36726Y32424D1*
X36850Y32407D1*
X36969Y32370D1*
X37080Y32313D1*
X37188Y32229D1*
X37257Y32284D1*
X37363Y32348D1*
X37479Y32394D1*
X37602Y32420D1*
X37726Y32424D1*
X37850Y32407D1*
X37969Y32370D1*
X38080Y32313D1*
X38188Y32229D1*
X38255Y32315D1*
Y46631D1*
X38185Y46763D1*
X38158Y46884D1*
X38159Y47009D1*
X38190Y47130D1*
X38247Y47241D1*
X38329Y47335D1*
X38430Y47408D1*
X38546Y47455D1*
X38669Y47475D1*
X38793Y47465D1*
X38912Y47427D1*
X39019Y47362D1*
X39107Y47275D1*
X39174Y47169D1*
X39213Y47051D1*
X39225Y46940D1*
X39210Y46816D1*
X39168Y46699D1*
X39127Y46637D1*
X39125Y42315D1*
Y32280D1*
X39188Y32229D1*
X39257Y32284D1*
X39363Y32348D1*
X39479Y32394D1*
X39602Y32420D1*
X39726Y32424D1*
X39850Y32407D1*
X39969Y32370D1*
X40080Y32313D1*
X40188Y32229D1*
X40257Y32284D1*
X40363Y32348D1*
X40479Y32394D1*
X40602Y32420D1*
X40726Y32424D1*
X40850Y32407D1*
X40969Y32370D1*
X41080Y32313D1*
X41188Y32229D1*
X41257Y32284D1*
X41363Y32348D1*
X41479Y32394D1*
X41602Y32420D1*
X41726Y32424D1*
X41850Y32407D1*
X41969Y32370D1*
X42080Y32313D1*
X42188Y32229D1*
X42257Y32284D1*
X42363Y32348D1*
X42479Y32394D1*
X42602Y32420D1*
X42726Y32424D1*
X42850Y32407D1*
X42969Y32370D1*
X43080Y32313D1*
X43188Y32229D1*
X43257Y32284D1*
X43363Y32348D1*
X43479Y32394D1*
X43602Y32420D1*
X43726Y32424D1*
X43850Y32407D1*
X43969Y32370D1*
X44080Y32313D1*
X44180Y32238D1*
X44266Y32147D1*
X44335Y32043D1*
X44385Y31929D1*
X44416Y31808D1*
X44425Y31690D1*
X44414Y31566D1*
X44383Y31445D1*
X44331Y31331D1*
X44226Y31191D1*
X44335Y31043D1*
X44385Y30929D1*
X44416Y30808D1*
X44425Y30690D1*
X44414Y30566D1*
X44383Y30445D1*
X44331Y30331D1*
X44277Y30250D1*
X45100D1*
X45019Y30390D1*
X44978Y30508D1*
X44957Y30631D1*
X44958Y30756D1*
X44980Y30879D1*
X45022Y30996D1*
X45083Y31105D1*
X45150Y31187D1*
X45079Y31281D1*
X45019Y31390D1*
X44978Y31508D1*
X44957Y31631D1*
X44958Y31756D1*
X44980Y31879D1*
X45022Y31996D1*
X45083Y32105D1*
X45150Y32187D1*
X45079Y32281D1*
X45019Y32390D1*
X44978Y32508D1*
X44957Y32631D1*
X44958Y32756D1*
X44980Y32879D1*
X45022Y32996D1*
X45083Y33105D1*
X45150Y33187D1*
X45079Y33281D1*
X45019Y33390D1*
X44978Y33508D1*
X44957Y33631D1*
X44958Y33756D1*
X44980Y33879D1*
X45022Y33996D1*
X45083Y34105D1*
X45162Y34202D1*
X45257Y34284D1*
X45363Y34348D1*
X45479Y34394D1*
X45602Y34420D1*
X45726Y34424D1*
X45850Y34407D1*
X45969Y34370D1*
X46049Y34329D1*
X45978Y34508D1*
X45957Y34631D1*
X45958Y34756D1*
X45980Y34879D1*
X46022Y34996D1*
X46083Y35105D1*
X46150Y35187D1*
X46079Y35281D1*
X46019Y35390D1*
X45978Y35508D1*
X45957Y35631D1*
X45958Y35756D1*
X45980Y35879D1*
X46022Y35996D1*
X46083Y36105D1*
X46150Y36187D1*
X46079Y36281D1*
X46019Y36390D1*
X45978Y36508D1*
X45957Y36631D1*
X45958Y36756D1*
X45980Y36879D1*
X46022Y36996D1*
X46083Y37105D1*
X46150Y37187D1*
X46079Y37281D1*
X46019Y37390D1*
X45978Y37508D1*
X45957Y37631D1*
X45958Y37756D1*
X45980Y37879D1*
X46022Y37996D1*
X46083Y38105D1*
X46150Y38187D1*
X46079Y38281D1*
X46019Y38390D1*
X45978Y38508D1*
X45957Y38631D1*
X45958Y38756D1*
X45980Y38879D1*
X46022Y38996D1*
X46083Y39105D1*
X46150Y39187D1*
X46079Y39281D1*
X46019Y39390D1*
X45978Y39508D1*
X45957Y39631D1*
X45958Y39756D1*
X45980Y39879D1*
X46022Y39996D1*
X46083Y40105D1*
X46150Y40187D1*
X46079Y40281D1*
X46019Y40390D1*
X45978Y40508D1*
X45957Y40631D1*
X45958Y40756D1*
X45980Y40879D1*
X46022Y40996D1*
X46083Y41105D1*
X46150Y41187D1*
X46065Y41255D1*
X41749D1*
X41650Y41198D1*
X41530Y41163D1*
X41405Y41156D1*
X41283Y41179D1*
X41169Y41229D1*
X41069Y41304D1*
X40990Y41401D1*
X40935Y41513D1*
X40908Y41634D1*
X40909Y41759D1*
X40940Y41880D1*
X40997Y41991D1*
X41079Y42085D1*
X41180Y42158D1*
X41296Y42205D1*
X41419Y42225D1*
X41543Y42215D1*
X41662Y42177D1*
X41745Y42126D1*
X46100Y42125D1*
X46079Y42281D1*
X46019Y42390D1*
X45978Y42508D1*
X45957Y42631D1*
X45958Y42756D1*
X45980Y42879D1*
X46022Y42996D1*
X46083Y43105D1*
X46150Y43187D1*
X46079Y43281D1*
X46019Y43390D1*
X45978Y43508D1*
X45957Y43631D1*
X45958Y43756D1*
X45980Y43879D1*
X46022Y43996D1*
X46083Y44105D1*
X46150Y44187D1*
X46079Y44281D1*
X46019Y44390D1*
X45978Y44508D1*
X45957Y44631D1*
X45958Y44756D1*
X45980Y44879D1*
X46022Y44996D1*
X46083Y45105D1*
X46150Y45187D1*
X46079Y45281D1*
X46019Y45390D1*
X45978Y45508D1*
X45957Y45631D1*
X45958Y45756D1*
X45980Y45879D1*
X46028Y46006D1*
X44940Y46005D1*
X44817Y46023D1*
X44725Y46062D1*
X44632Y46132D1*
X44353Y46411D1*
X44283Y46429D1*
X44169Y46479D1*
X44069Y46554D1*
X43990Y46651D1*
X43935Y46763D1*
X43908Y46884D1*
X43909Y47009D1*
X43940Y47130D1*
X43997Y47241D1*
X44079Y47335D1*
X44180Y47408D1*
X44296Y47455D1*
X44419Y47475D1*
X44543Y47465D1*
X44662Y47427D1*
X44769Y47362D1*
X44857Y47275D1*
X44924Y47169D1*
X44966Y47026D1*
X45120Y46875D1*
X47190D1*
X47313Y46857D1*
X47405Y46818D1*
X47498Y46748D1*
X47998Y46248D1*
X48072Y46148D1*
X48109Y46055D1*
X48125Y45940D1*
Y45624D1*
X49323Y44422D1*
X62618Y31128D1*
X64065Y31125D1*
X67190D1*
X67313Y31107D1*
X67405Y31068D1*
X67498Y30998D1*
X68748Y29748D1*
X68822Y29648D1*
X68859Y29555D1*
X68875Y29440D1*
Y29124D1*
X68993Y29222D1*
X69103Y29279D1*
X69223Y29314D1*
X69340Y29325D1*
X69540Y29321D1*
X69672Y29311D1*
X69791Y29273D1*
X69900Y29213D1*
X69995Y29133D1*
X70073Y29035D1*
X70130Y28924D1*
X70165Y28804D1*
X70175Y28690D1*
X70163Y28566D1*
X70126Y28446D1*
X70067Y28336D1*
X69988Y28240D1*
X69931Y28193D1*
X69995Y28133D1*
X70073Y28035D1*
X70130Y27924D1*
X70165Y27804D1*
X70175Y27690D1*
X70163Y27566D1*
X70126Y27446D1*
X70067Y27336D1*
X69988Y27240D1*
X69931Y27193D1*
X69995Y27133D1*
X70073Y27035D1*
X70130Y26924D1*
X70165Y26804D1*
X70175Y26690D1*
X70164Y26577D1*
X70808Y25937D1*
X71498Y25248D1*
X71572Y25148D1*
X71609Y25055D1*
X71625Y24940D1*
Y20940D1*
X71607Y20817D1*
X71568Y20725D1*
X71498Y20632D1*
X69622Y18757D1*
X69619Y18624D1*
X72750Y15494D1*
X72765Y15565D1*
Y45405D1*
X72701Y45721D1*
X72594Y46053D1*
X72452Y46370D1*
X72275Y46670D1*
X72066Y46948D1*
X71827Y47200D1*
X71561Y47425D1*
X71272Y47618D1*
X70963Y47778D1*
X70638Y47902D1*
X70301Y47990D1*
X70152Y48015D1*
X22827D1*
X22855Y47897D1*
Y47765D1*
X22998Y47623D1*
X23072Y47523D1*
X23109Y47430D1*
X23125Y47315D1*
Y44190D1*
X23107Y44067D1*
X23068Y43975D1*
X22998Y43882D1*
X21744Y42630D1*
X21800Y42563D1*
X21895Y42483D1*
X21973Y42385D1*
X22030Y42274D1*
X22065Y42154D1*
X22075Y42040D1*
X22071Y41840D1*
X22063Y41716D1*
X22026Y41596D1*
X21967Y41486D1*
X21888Y41390D1*
X21791Y41311D1*
X21681Y41253D1*
X21562Y41217D1*
X21437Y41205D1*
X21313Y41218D1*
X21194Y41255D1*
X21084Y41314D1*
X20988Y41394D1*
X20942Y41451D1*
X20888Y41390D1*
X20791Y41311D1*
X20681Y41253D1*
X20562Y41217D1*
X20437Y41205D1*
X20313Y41218D1*
X20194Y41255D1*
X20084Y41314D1*
X19988Y41394D1*
X19942Y41451D1*
X19888Y41390D1*
X19791Y41311D1*
X19681Y41253D1*
X19562Y41217D1*
X19437Y41205D1*
X19313Y41218D1*
X19194Y41255D1*
X19084Y41314D1*
X18988Y41394D1*
X18910Y41491D1*
X18852Y41601D1*
X18816Y41721D1*
X18805Y41840D1*
X18809Y42040D1*
X18818Y42169D1*
X18856Y42288D1*
X18915Y42398D1*
X19011Y42506D1*
X19062Y42655D1*
X19132Y42748D1*
X19389Y43004D1*
X17624Y43005D1*
X16982Y42367D1*
X17030Y42274D1*
X17065Y42154D1*
X17075Y42040D1*
X17071Y41840D1*
X17063Y41716D1*
X17026Y41596D1*
X16967Y41486D1*
X16888Y41390D1*
X16791Y41311D1*
X16681Y41253D1*
X16562Y41217D1*
X16437Y41205D1*
X16313Y41218D1*
X16194Y41255D1*
X16084Y41314D1*
X15988Y41394D1*
X15942Y41451D1*
X15888Y41390D1*
X15791Y41311D1*
X15681Y41253D1*
X15562Y41217D1*
X15437Y41205D1*
X15313Y41218D1*
X15194Y41255D1*
X15084Y41314D1*
X14988Y41394D1*
X14942Y41451D1*
X14888Y41390D1*
X14791Y41311D1*
X14681Y41253D1*
X14562Y41217D1*
X14437Y41205D1*
X14313Y41218D1*
X14194Y41255D1*
X14084Y41314D1*
X13988Y41394D1*
X13910Y41491D1*
X13852Y41601D1*
X13816Y41721D1*
X13805Y41840D1*
X13809Y42040D1*
X13818Y42169D1*
X13856Y42288D1*
X13915Y42398D1*
X13996Y42493D1*
X14093Y42572D1*
X14203Y42629D1*
X14323Y42664D1*
X14448Y42675D1*
X14572Y42661D1*
X14691Y42623D1*
X14800Y42563D1*
X14895Y42483D1*
X14937Y42431D1*
X14996Y42493D1*
X15093Y42572D1*
X15203Y42629D1*
X15323Y42664D1*
X15448Y42675D1*
X15572Y42661D1*
X15691Y42623D1*
X15800Y42563D1*
X15895Y42483D1*
X15937Y42431D1*
X16011Y42506D1*
X16062Y42655D1*
X16132Y42748D1*
X17132Y43748D1*
X17232Y43822D1*
X17325Y43859D1*
X17440Y43875D1*
X21006D1*
X21338Y44203D1*
X20705Y44205D1*
Y44264D1*
X20562Y44217D1*
X20437Y44205D1*
X20313Y44218D1*
X20194Y44255D1*
X20084Y44314D1*
X19988Y44394D1*
X19942Y44451D1*
X19888Y44390D1*
X19791Y44311D1*
X19681Y44253D1*
X19562Y44217D1*
X19437Y44205D1*
X19313Y44218D1*
X19194Y44255D1*
X19084Y44314D1*
X18988Y44394D1*
X18910Y44491D1*
X18852Y44601D1*
X18816Y44721D1*
X18805Y44840D1*
X18809Y45040D1*
X18818Y45169D1*
X18856Y45288D1*
X18915Y45398D1*
X19005Y45501D1*
X18882Y45632D1*
X18808Y45732D1*
X18771Y45825D1*
X18755Y45940D1*
Y47147D1*
X17520Y47145D1*
Y48016D1*
X10225Y48015D1*
X9909Y47951D1*
X9577Y47844D1*
X9260Y47702D1*
X8960Y47525D1*
X8682Y47316D1*
X8430Y47077D1*
X8205Y46811D1*
X8012Y46522D1*
X7852Y46213D1*
X7728Y45888D1*
X7640Y45551D1*
X7615Y45402D1*
Y8475D1*
X7679Y8159D1*
X7786Y7827D1*
X7928Y7510D1*
X8105Y7210D1*
X8314Y6932D1*
X8553Y6680D1*
X8819Y6455D1*
X9108Y6262D1*
X9417Y6102D1*
X9742Y5978D1*
X10079Y5890D1*
X10228Y5865D1*
X70155D1*
X70471Y5929D1*
X70803Y6036D1*
X71120Y6178D1*
X71420Y6355D1*
X71698Y6564D1*
X71950Y6803D1*
X72175Y7069D1*
X72368Y7358D1*
X72528Y7667D1*
X72652Y7992D1*
X72740Y8329D1*
X72765Y8478D1*
Y11405D1*
X72482Y11117D1*
X71673Y10308D1*
X71671Y9940D1*
X71664Y9816D1*
X71633Y9695D1*
X71581Y9581D1*
X71511Y9478D1*
X71425Y9388D1*
X71324Y9314D1*
X71213Y9258D1*
X71093Y9221D1*
X70970Y9206D1*
X70845Y9211D1*
X70723Y9238D1*
X70607Y9285D1*
X70501Y9350D1*
X70408Y9433D1*
X70329Y9531D1*
X70269Y9640D1*
X70228Y9758D1*
X70207Y9881D1*
X70205Y10315D1*
X70208Y11006D1*
X70230Y11129D1*
X70272Y11246D1*
X70333Y11355D1*
X70412Y11452D1*
X70507Y11534D1*
X70613Y11598D1*
X70729Y11644D1*
X70852Y11670D1*
X70976Y11674D1*
X71100Y11657D1*
X71219Y11620D1*
X71330Y11563D1*
X71430Y11488D1*
X71522Y11387D1*
X72003Y11868D1*
X72005Y12522D1*
X71833Y12395D1*
X71723Y12336D1*
X71608Y12287D1*
X71488Y12251D1*
X71366Y12226D1*
X71241Y12215D1*
X71116Y12216D1*
X70992Y12230D1*
X70870Y12256D1*
X70751Y12295D1*
X70637Y12345D1*
X70528Y12407D1*
X70427Y12480D1*
X70333Y12563D1*
X70248Y12654D1*
X70173Y12754D1*
X70109Y12861D1*
X70056Y12974D1*
X70014Y13092D1*
X69985Y13214D1*
X69968Y13338D1*
X69964Y13462D1*
X69973Y13587D1*
X69994Y13710D1*
X70028Y13831D1*
X70073Y13947D1*
X70131Y14058D1*
X70199Y14162D1*
X70278Y14259D1*
X70366Y14348D1*
X70462Y14427D1*
X70567Y14496D1*
X70677Y14554D1*
X70793Y14600D1*
X70914Y14635D1*
X71037Y14657D1*
X71161Y14666D1*
X71286Y14663D1*
X71410Y14646D1*
X71532Y14618D1*
X71650Y14577D1*
X71763Y14524D1*
X71870Y14460D1*
X72002Y14357D1*
X72005Y15006D1*
X70807Y16208D1*
X69008Y18006D1*
X68891Y18007D1*
X68768Y18027D1*
X68650Y18069D1*
X68543Y18132D1*
X68441Y18223D1*
X68375Y18065D1*
Y17874D1*
X69573Y16672D1*
X69998Y16248D1*
X70072Y16148D1*
X70109Y16055D1*
X70125Y15940D1*
Y14690D1*
X70107Y14567D1*
X70068Y14475D1*
X69998Y14382D1*
X69625Y14010D1*
Y11940D1*
X69607Y11817D1*
X69568Y11725D1*
X69498Y11632D1*
X69390Y11525D1*
X69516Y11397D1*
X69585Y11293D1*
X69635Y11179D1*
X69666Y11058D1*
X69675Y10815D1*
X69671Y9940D1*
X69664Y9816D1*
X69633Y9695D1*
X69581Y9581D1*
X69511Y9478D1*
X69425Y9388D1*
X69324Y9314D1*
X69213Y9258D1*
X69093Y9221D1*
X68970Y9206D1*
X68845Y9211D1*
X68723Y9238D1*
X68607Y9285D1*
X68501Y9350D1*
X68408Y9433D1*
X68329Y9531D1*
X68269Y9640D1*
X68228Y9758D1*
X68207Y9881D1*
X68205Y10315D1*
X68208Y11006D1*
X68230Y11129D1*
X68272Y11246D1*
X68333Y11355D1*
X68412Y11452D1*
X68504Y11531D1*
X68505Y11690D1*
X68523Y11813D1*
X68562Y11905D1*
X68632Y11998D1*
X68757Y12122D1*
X68755Y12460D1*
X68702Y12455D1*
X68578Y12468D1*
X68439Y12528D1*
X68325Y12474D1*
X68202Y12455D1*
X68078Y12468D1*
X67939Y12528D1*
X67825Y12474D1*
X67702Y12455D1*
X67578Y12468D1*
X67439Y12528D1*
X67325Y12474D1*
X67202Y12455D1*
X67078Y12468D1*
X66961Y12512D1*
X66860Y12585D1*
X66780Y12681D1*
X66728Y12794D1*
X66708Y12944D1*
X66705Y13440D1*
X66716Y13541D1*
X66756Y13655D1*
X66755Y14530D1*
X66650Y14569D1*
X66543Y14632D1*
X66448Y14713D1*
X66377Y14802D1*
X66375Y11413D1*
X66507Y11534D1*
X66613Y11598D1*
X66729Y11644D1*
X66852Y11670D1*
X66976Y11674D1*
X67100Y11657D1*
X67219Y11620D1*
X67330Y11563D1*
X67430Y11488D1*
X67516Y11397D1*
X67585Y11293D1*
X67635Y11179D1*
X67666Y11058D1*
X67675Y10815D1*
X67671Y9940D1*
X67664Y9816D1*
X67633Y9695D1*
X67581Y9581D1*
X67511Y9478D1*
X67425Y9388D1*
X67324Y9314D1*
X67213Y9258D1*
X67093Y9221D1*
X66970Y9206D1*
X66845Y9211D1*
X66723Y9238D1*
X66607Y9285D1*
X66501Y9350D1*
X66408Y9433D1*
X66329Y9531D1*
X66269Y9640D1*
X66228Y9758D1*
X66207Y9881D1*
X66205Y10311D1*
X65674Y10841D1*
X65675Y9940D1*
X65664Y9816D1*
X65633Y9695D1*
X65581Y9581D1*
X65511Y9478D1*
X65425Y9388D1*
X65324Y9314D1*
X65213Y9258D1*
X65093Y9221D1*
X64970Y9206D1*
X64845Y9211D1*
X64723Y9238D1*
X64607Y9285D1*
X64501Y9350D1*
X64408Y9433D1*
X64329Y9531D1*
X64269Y9640D1*
X64228Y9758D1*
X64207Y9881D1*
X64205Y10315D1*
X64208Y11006D1*
X64226Y11110D1*
X63676Y10561D1*
X63671Y9940D1*
X63664Y9816D1*
X63633Y9695D1*
X63581Y9581D1*
X63511Y9478D1*
X63425Y9388D1*
X63324Y9314D1*
X63213Y9258D1*
X63093Y9221D1*
X62970Y9206D1*
X62845Y9211D1*
X62723Y9238D1*
X62607Y9285D1*
X62501Y9350D1*
X62408Y9433D1*
X62329Y9531D1*
X62269Y9640D1*
X62228Y9758D1*
X62207Y9881D1*
X62205Y10315D1*
X62208Y11006D1*
X62230Y11129D1*
X62272Y11246D1*
X62333Y11355D1*
X62412Y11452D1*
X62507Y11534D1*
X62613Y11598D1*
X62729Y11644D1*
X62852Y11670D1*
X62976Y11674D1*
X63100Y11657D1*
X63219Y11620D1*
X63330Y11563D1*
X63396Y11514D1*
X63502Y11618D1*
X63505Y13190D1*
Y15756D1*
X62307Y16958D1*
X61382Y17882D1*
X61308Y17982D1*
X61271Y18075D1*
X61255Y18190D1*
Y18303D1*
X61200Y18233D1*
X61123Y18161D1*
X61174Y18071D1*
X63248Y15998D1*
X63322Y15898D1*
X63359Y15805D1*
X63375Y15690D1*
Y12690D1*
X63357Y12567D1*
X63318Y12475D1*
X63248Y12382D1*
X61676Y10811D1*
X61671Y9940D1*
X61664Y9816D1*
X61633Y9695D1*
X61581Y9581D1*
X61511Y9478D1*
X61425Y9388D1*
X61324Y9314D1*
X61213Y9258D1*
X61093Y9221D1*
X60970Y9206D1*
X60845Y9211D1*
X60723Y9238D1*
X60607Y9285D1*
X60501Y9350D1*
X60408Y9433D1*
X60329Y9531D1*
X60269Y9640D1*
X60228Y9758D1*
X60207Y9881D1*
X60205Y10315D1*
X60208Y11006D1*
X60230Y11129D1*
X60272Y11246D1*
X60333Y11355D1*
X60412Y11452D1*
X60507Y11534D1*
X60613Y11598D1*
X60729Y11644D1*
X60852Y11670D1*
X60976Y11674D1*
X61100Y11657D1*
X61243Y11607D1*
X62502Y12868D1*
X62505Y14190D1*
Y14803D1*
X62450Y14733D1*
X62373Y14661D1*
X62375Y14440D1*
X62357Y14317D1*
X62318Y14225D1*
X62248Y14132D1*
X61173Y13058D1*
X61171Y12940D1*
X61159Y12816D1*
X61112Y12701D1*
X61037Y12601D1*
X60939Y12524D1*
X60825Y12474D1*
X60702Y12455D1*
X60578Y12468D1*
X60439Y12528D1*
X60325Y12474D1*
X60202Y12455D1*
X60078Y12468D1*
X59939Y12528D1*
X59825Y12474D1*
X59702Y12455D1*
X59578Y12468D1*
X59439Y12528D1*
X59325Y12474D1*
X59202Y12455D1*
X59078Y12468D1*
X58961Y12512D1*
X58860Y12585D1*
X58780Y12681D1*
X58728Y12794D1*
X58708Y12944D1*
X58705Y13440D1*
X58625D1*
Y11624D1*
X58852Y11670D1*
X58976Y11674D1*
X59100Y11657D1*
X59219Y11620D1*
X59330Y11563D1*
X59430Y11488D1*
X59516Y11397D1*
X59585Y11293D1*
X59635Y11179D1*
X59666Y11058D1*
X59675Y10815D1*
X59671Y9940D1*
X59664Y9816D1*
X59633Y9695D1*
X59581Y9581D1*
X59511Y9478D1*
X59425Y9388D1*
X59324Y9314D1*
X59213Y9258D1*
X59093Y9221D1*
X58970Y9206D1*
X58845Y9211D1*
X58723Y9238D1*
X58607Y9285D1*
X58501Y9350D1*
X58408Y9433D1*
X58329Y9531D1*
X58269Y9640D1*
X58228Y9758D1*
X58207Y9881D1*
X58205Y10315D1*
Y10811D1*
X57882Y11132D1*
X57808Y11232D1*
X57771Y11325D1*
X57755Y11440D1*
Y15690D1*
X57773Y15813D1*
X57812Y15905D1*
X57882Y15998D1*
X59007Y17122D1*
X59005Y18163D1*
X58948Y18213D1*
X58870Y18311D1*
X58810Y18420D1*
X58772Y18539D1*
X58756Y18663D1*
X58762Y18788D1*
X58791Y18909D1*
X58842Y19023D1*
X58912Y19126D1*
X59003Y19217D1*
X59005Y19690D1*
X59023Y19813D1*
X59062Y19905D1*
X59132Y19998D1*
X60002Y20868D1*
X60005Y21092D1*
X59912Y21067D1*
X59790Y21055D1*
X59590Y21059D1*
X59463Y21068D1*
X59344Y21105D1*
X59234Y21164D1*
X59138Y21244D1*
X59060Y21341D1*
X59002Y21451D1*
X58966Y21571D1*
X58955Y21695D1*
X58966Y21800D1*
X57933Y22831D1*
X57873Y22757D1*
X57498Y22382D1*
X57398Y22308D1*
X57305Y22271D1*
X57238Y22240D1*
X57181Y22193D1*
X57245Y22133D1*
X57323Y22035D1*
X57380Y21924D1*
X57415Y21804D1*
X57425Y21690D1*
X57413Y21566D1*
X57396Y21510D1*
X57559Y21573D1*
X57683Y21587D1*
X57807Y21576D1*
X57926Y21538D1*
X58034Y21475D1*
X58127Y21392D1*
X58199Y21290D1*
X58249Y21176D1*
X58275Y21003D1*
X58262Y20878D1*
X58222Y20760D1*
X58159Y20653D1*
X58074Y20561D1*
X57972Y20490D1*
X57857Y20442D1*
X57734Y20419D1*
X57609Y20423D1*
X57488Y20453D1*
X57376Y20509D1*
X57300Y20569D1*
X56335Y20568D1*
X56222Y20490D1*
X56107Y20442D1*
X55984Y20419D1*
X55859Y20423D1*
X55738Y20453D1*
X55626Y20509D1*
X55529Y20586D1*
X55450Y20683D1*
X55393Y20794D1*
X55362Y20915D1*
X55356Y21040D1*
X55377Y21163D1*
X55424Y21278D1*
X55494Y21381D1*
X55585Y21467D1*
X55691Y21532D1*
X55809Y21573D1*
X55960Y21585D1*
X55955Y21695D1*
X55968Y21819D1*
X56006Y21938D1*
X56065Y22048D1*
X56146Y22143D1*
X56203Y22190D1*
X56138Y22244D1*
X56060Y22341D1*
X56002Y22451D1*
X55966Y22571D1*
X55955Y22695D1*
X55968Y22819D1*
X56006Y22938D1*
X56065Y23048D1*
X56146Y23143D1*
X56203Y23190D1*
X56131Y23253D1*
X54065Y23255D1*
X53624D1*
X53375Y23010D1*
Y19217D1*
X53495Y19091D1*
X53559Y18984D1*
X53602Y18867D1*
X53625Y18690D1*
X53614Y18566D1*
X53580Y18446D1*
X53525Y18333D1*
X53450Y18233D1*
X53373Y18161D1*
X53375Y17624D1*
X54573Y16422D1*
X55248Y15748D1*
X55322Y15648D1*
X55359Y15555D1*
X55375Y15440D1*
Y11530D1*
X55430Y11488D1*
X55516Y11397D1*
X55585Y11293D1*
X55635Y11179D1*
X55666Y11058D1*
X55675Y10815D1*
X55671Y9940D1*
X55664Y9816D1*
X55633Y9695D1*
X55581Y9581D1*
X55511Y9478D1*
X55425Y9388D1*
X55324Y9314D1*
X55213Y9258D1*
X55093Y9221D1*
X54970Y9206D1*
X54845Y9211D1*
X54723Y9238D1*
X54607Y9285D1*
X54501Y9350D1*
X54408Y9433D1*
X54329Y9531D1*
X54269Y9640D1*
X54228Y9758D1*
X54207Y9881D1*
X54205Y10092D1*
X54055Y10021D1*
X53940Y10005D1*
X53678D1*
X53671Y9940D1*
X53664Y9816D1*
X53633Y9695D1*
X53581Y9581D1*
X53511Y9478D1*
X53425Y9388D1*
X53324Y9314D1*
X53213Y9258D1*
X53093Y9221D1*
X52970Y9206D1*
X52845Y9211D1*
X52723Y9238D1*
X52607Y9285D1*
X52501Y9350D1*
X52408Y9433D1*
X52329Y9531D1*
X52269Y9640D1*
X52228Y9758D1*
X52207Y9881D1*
X52205Y10315D1*
X52208Y11006D1*
X52230Y11129D1*
X52272Y11246D1*
X52333Y11355D1*
X52412Y11452D1*
X52507Y11534D1*
X52613Y11598D1*
X52729Y11644D1*
X52852Y11670D1*
X52976Y11674D1*
X53100Y11657D1*
X53219Y11620D1*
X53330Y11563D1*
X53430Y11488D1*
X53508Y11405D1*
X53505Y12315D1*
Y14803D1*
X53450Y14733D1*
X53373Y14661D1*
X53375Y13440D1*
X53357Y13317D1*
X53318Y13225D1*
X53248Y13132D1*
X53173Y13058D1*
X53175Y12940D1*
X53159Y12816D1*
X53112Y12701D1*
X53037Y12601D1*
X52939Y12524D1*
X52825Y12474D1*
X52702Y12455D1*
X52578Y12468D1*
X52439Y12528D1*
X52325Y12474D1*
X52202Y12455D1*
X52078Y12468D1*
X51939Y12528D1*
X51825Y12474D1*
X51702Y12455D1*
X51578Y12468D1*
X51439Y12528D1*
X51325Y12474D1*
X51202Y12455D1*
X51078Y12468D1*
X50961Y12512D1*
X50860Y12585D1*
X50780Y12681D1*
X50728Y12794D1*
X50708Y12944D1*
X50705Y13440D1*
X50716Y13541D1*
X50756Y13655D1*
X50755Y14256D1*
X50504Y14511D1*
X50391Y14507D1*
X50268Y14527D1*
X50150Y14569D1*
X50043Y14632D1*
X49948Y14713D1*
X49877Y14802D1*
X49875Y12124D1*
X50480Y11516D1*
X50613Y11598D1*
X50729Y11644D1*
X50852Y11670D1*
X50976Y11674D1*
X51100Y11657D1*
X51219Y11620D1*
X51330Y11563D1*
X51430Y11488D1*
X51516Y11397D1*
X51585Y11293D1*
X51635Y11179D1*
X51666Y11058D1*
X51675Y10815D1*
X51671Y9940D1*
X51664Y9816D1*
X51633Y9695D1*
X51581Y9581D1*
X51511Y9478D1*
X51425Y9388D1*
X51324Y9314D1*
X51213Y9258D1*
X51093Y9221D1*
X50970Y9206D1*
X50845Y9211D1*
X50723Y9238D1*
X50607Y9285D1*
X50501Y9350D1*
X50408Y9433D1*
X50329Y9531D1*
X50269Y9640D1*
X50228Y9758D1*
X50207Y9881D1*
X50205Y10315D1*
Y10561D1*
X49657Y11107D1*
X49675Y10940D1*
X49671Y9940D1*
X49664Y9816D1*
X49633Y9695D1*
X49581Y9581D1*
X49511Y9478D1*
X49425Y9388D1*
X49324Y9314D1*
X49213Y9258D1*
X49093Y9221D1*
X48970Y9206D1*
X48845Y9211D1*
X48723Y9238D1*
X48607Y9285D1*
X48501Y9350D1*
X48408Y9433D1*
X48329Y9531D1*
X48269Y9640D1*
X48228Y9758D1*
X48207Y9881D1*
X48205Y10315D1*
X48208Y11006D1*
X48230Y11129D1*
X48272Y11246D1*
X48333Y11355D1*
X48412Y11452D1*
X48507Y11534D1*
X48613Y11598D1*
X48729Y11644D1*
X48852Y11670D1*
X48976Y11674D1*
X49111Y11654D1*
X49070Y11711D1*
X49021Y11825D1*
X49005Y11940D1*
Y15690D1*
X49023Y15813D1*
X49062Y15905D1*
X49132Y15998D1*
X50002Y16868D1*
X50005Y18163D1*
X49948Y18213D1*
X49870Y18311D1*
X49810Y18420D1*
X49772Y18539D1*
X49756Y18663D1*
X49762Y18788D1*
X49791Y18909D1*
X49842Y19023D1*
X49912Y19126D1*
X50003Y19217D1*
X50005Y23315D1*
Y23506D1*
X48807Y24708D1*
X47257Y26258D1*
X47141Y26161D1*
X47031Y26103D1*
X46912Y26067D1*
X46790Y26055D1*
X46590Y26059D1*
X46463Y26068D1*
X46344Y26105D1*
X46251Y26155D1*
X46250Y24225D1*
X46353Y24279D1*
X46473Y24314D1*
X46590Y24325D1*
X46790Y24321D1*
X46922Y24311D1*
X47041Y24273D1*
X47150Y24213D1*
X47245Y24133D1*
X47323Y24035D1*
X47380Y23924D1*
X47415Y23804D1*
X47425Y23690D1*
X47414Y23577D1*
X47998Y22998D1*
X48072Y22898D1*
X48109Y22805D1*
X48125Y22690D1*
Y21190D1*
X48107Y21067D1*
X48068Y20975D1*
X47998Y20882D1*
X45498Y18382D1*
X45398Y18308D1*
X45305Y18271D1*
X45200Y18233D1*
X45123Y18161D1*
X45125Y17624D1*
X46323Y16422D1*
X47248Y15498D1*
X47322Y15398D1*
X47359Y15305D1*
X47375Y15190D1*
Y11530D1*
X47430Y11488D1*
X47516Y11397D1*
X47585Y11293D1*
X47635Y11179D1*
X47666Y11058D1*
X47675Y10815D1*
X47671Y9940D1*
X47664Y9816D1*
X47633Y9695D1*
X47581Y9581D1*
X47511Y9478D1*
X47425Y9388D1*
X47324Y9314D1*
X47213Y9258D1*
X47093Y9221D1*
X46970Y9206D1*
X46845Y9211D1*
X46723Y9238D1*
X46607Y9285D1*
X46501Y9350D1*
X46408Y9433D1*
X46329Y9531D1*
X46269Y9640D1*
X46228Y9758D1*
X46207Y9881D1*
X46205Y10315D1*
X46208Y11006D1*
X46230Y11129D1*
X46272Y11246D1*
X46333Y11355D1*
X46412Y11452D1*
X46504Y11531D1*
X46505Y15006D1*
X46376Y15139D1*
X46375Y11690D1*
X46357Y11567D1*
X46318Y11475D1*
X46248Y11382D1*
X45676Y10811D1*
X45671Y9940D1*
X45664Y9816D1*
X45633Y9695D1*
X45581Y9581D1*
X45511Y9478D1*
X45425Y9388D1*
X45324Y9314D1*
X45213Y9258D1*
X45093Y9221D1*
X44970Y9206D1*
X44845Y9211D1*
X44723Y9238D1*
X44607Y9285D1*
X44501Y9350D1*
X44408Y9433D1*
X44329Y9531D1*
X44269Y9640D1*
X44228Y9758D1*
X44207Y9881D1*
X44205Y10315D1*
X44208Y11006D1*
X44230Y11129D1*
X44272Y11246D1*
X44333Y11355D1*
X44412Y11452D1*
X44507Y11534D1*
X44613Y11598D1*
X44729Y11644D1*
X44852Y11670D1*
X44976Y11674D1*
X45100Y11657D1*
X45243Y11607D1*
X45502Y11868D1*
X45505Y13440D1*
Y15006D1*
X45376Y15139D1*
X45330Y14946D1*
X45275Y14833D1*
X45200Y14733D1*
X45123Y14661D1*
X45125Y13655D1*
X45145Y13609D1*
X45175Y13440D1*
X45171Y12940D1*
X45159Y12816D1*
X45112Y12701D1*
X45037Y12601D1*
X44939Y12524D1*
X44825Y12474D1*
X44702Y12455D1*
X44578Y12468D1*
X44439Y12528D1*
X44325Y12474D1*
X44202Y12455D1*
X44078Y12468D1*
X43939Y12528D1*
X43825Y12474D1*
X43702Y12455D1*
X43578Y12468D1*
X43439Y12528D1*
X43325Y12474D1*
X43202Y12455D1*
X43078Y12468D1*
X42961Y12512D1*
X42860Y12585D1*
X42780Y12681D1*
X42728Y12794D1*
X42708Y12944D1*
X42705Y13061D1*
X41880Y13886D1*
X41875Y13565D1*
Y12124D1*
X42480Y11516D1*
X42613Y11598D1*
X42729Y11644D1*
X42852Y11670D1*
X42976Y11674D1*
X43100Y11657D1*
X43219Y11620D1*
X43330Y11563D1*
X43430Y11488D1*
X43516Y11397D1*
X43585Y11293D1*
X43635Y11179D1*
X43666Y11058D1*
X43675Y10815D1*
X43671Y9940D1*
X43664Y9816D1*
X43633Y9695D1*
X43581Y9581D1*
X43511Y9478D1*
X43425Y9388D1*
X43324Y9314D1*
X43213Y9258D1*
X43093Y9221D1*
X42970Y9206D1*
X42845Y9211D1*
X42723Y9238D1*
X42607Y9285D1*
X42501Y9350D1*
X42408Y9433D1*
X42329Y9531D1*
X42269Y9640D1*
X42228Y9758D1*
X42207Y9881D1*
X42205Y10315D1*
Y10561D1*
X41657Y11107D1*
X41675Y10940D1*
X41671Y9940D1*
X41664Y9816D1*
X41633Y9695D1*
X41581Y9581D1*
X41511Y9478D1*
X41425Y9388D1*
X41324Y9314D1*
X41213Y9258D1*
X41093Y9221D1*
X40970Y9206D1*
X40845Y9211D1*
X40723Y9238D1*
X40607Y9285D1*
X40501Y9350D1*
X40408Y9433D1*
X40329Y9531D1*
X40269Y9640D1*
X40228Y9758D1*
X40207Y9881D1*
X40205Y10315D1*
X40208Y11006D1*
X40230Y11129D1*
X40272Y11246D1*
X40333Y11355D1*
X40412Y11452D1*
X40507Y11534D1*
X40613Y11598D1*
X40729Y11644D1*
X40852Y11670D1*
X40976Y11674D1*
X41111Y11654D1*
X41070Y11711D1*
X41021Y11825D1*
X41005Y11940D1*
Y15690D1*
X41023Y15813D1*
X41062Y15905D1*
X41132Y15998D1*
X41754Y16619D1*
X41755Y18163D1*
X41698Y18213D1*
X41620Y18311D1*
X41560Y18420D1*
X41522Y18539D1*
X41506Y18663D1*
X41512Y18788D1*
X41541Y18909D1*
X41592Y19023D1*
X41662Y19126D1*
X41753Y19217D1*
X41755Y23315D1*
Y25940D1*
X41773Y26063D1*
X41812Y26155D1*
X41882Y26248D1*
X42632Y26998D1*
X42732Y27072D1*
X42825Y27109D1*
X42940Y27125D1*
X43131D1*
X43203Y27190D1*
X43131Y27253D1*
X42940Y27255D1*
X42817Y27273D1*
X42725Y27312D1*
X42632Y27382D1*
X42382Y27632D1*
X42308Y27732D1*
X42271Y27825D1*
X42255Y27940D1*
Y28940D1*
X42273Y29063D1*
X42312Y29155D1*
X42382Y29248D1*
X43240Y30105D1*
X43175Y30138D1*
X43074Y30064D1*
X42963Y30008D1*
X42843Y29971D1*
X42720Y29956D1*
X42595Y29961D1*
X42473Y29988D1*
X42357Y30035D1*
X42251Y30100D1*
X42190Y30155D1*
X42074Y30064D1*
X41963Y30008D1*
X41843Y29971D1*
X41720Y29956D1*
X41595Y29961D1*
X41473Y29988D1*
X41357Y30035D1*
X41251Y30100D1*
X41190Y30155D1*
X41074Y30064D1*
X40963Y30008D1*
X40843Y29971D1*
X40720Y29956D1*
X40595Y29961D1*
X40473Y29988D1*
X40357Y30035D1*
X40251Y30100D1*
X40190Y30155D1*
X40074Y30064D1*
X39963Y30008D1*
X39843Y29971D1*
X39720Y29956D1*
X39595Y29961D1*
X39473Y29988D1*
X39357Y30035D1*
X39251Y30100D1*
X39190Y30155D1*
X39074Y30064D1*
X38963Y30008D1*
X38843Y29971D1*
X38720Y29956D1*
X38595Y29961D1*
X38473Y29988D1*
X38357Y30035D1*
X38251Y30100D1*
X38190Y30155D1*
X38074Y30064D1*
X37980Y30016D1*
X38498Y29498D1*
X38560Y29419D1*
X38610Y29302D1*
X38840Y29325D1*
X39040Y29321D1*
X39172Y29311D1*
X39291Y29273D1*
X39376Y29226D1*
X39554Y29213D1*
X39672Y29172D1*
X39777Y29106D1*
X40318Y28568D1*
X40396Y28470D1*
X40448Y28357D1*
X40472Y28246D1*
X40475Y27616D1*
X40559Y27484D1*
X40602Y27367D1*
X40625Y27190D1*
X40614Y27066D1*
X40580Y26946D1*
X40540Y26865D1*
X40679Y26803D1*
X40748Y26748D1*
X41498Y25998D1*
X41572Y25898D1*
X41609Y25805D1*
X41625Y25690D1*
Y21190D1*
X41607Y21067D1*
X41568Y20975D1*
X41498Y20882D1*
X38998Y18382D1*
X38898Y18308D1*
X38805Y18271D1*
X38690Y18255D1*
X37467D1*
X37373Y18161D1*
X37375Y17624D1*
X38573Y16422D1*
X39248Y15748D1*
X39322Y15648D1*
X39359Y15555D1*
X39375Y15440D1*
Y11530D1*
X39430Y11488D1*
X39516Y11397D1*
X39585Y11293D1*
X39635Y11179D1*
X39666Y11058D1*
X39675Y10815D1*
X39671Y9940D1*
X39664Y9816D1*
X39633Y9695D1*
X39581Y9581D1*
X39511Y9478D1*
X39425Y9388D1*
X39324Y9314D1*
X39213Y9258D1*
X39093Y9221D1*
X38970Y9206D1*
X38845Y9211D1*
X38723Y9238D1*
X38607Y9285D1*
X38501Y9350D1*
X38408Y9433D1*
X38329Y9531D1*
X38269Y9640D1*
X38228Y9758D1*
X38207Y9881D1*
X38205Y10315D1*
X38208Y11006D1*
X38226Y11110D1*
X37676Y10561D1*
X37671Y9940D1*
X37664Y9816D1*
X37633Y9695D1*
X37581Y9581D1*
X37511Y9478D1*
X37425Y9388D1*
X37324Y9314D1*
X37213Y9258D1*
X37093Y9221D1*
X36970Y9206D1*
X36845Y9211D1*
X36723Y9238D1*
X36607Y9285D1*
X36501Y9350D1*
X36408Y9433D1*
X36329Y9531D1*
X36269Y9640D1*
X36228Y9758D1*
X36207Y9881D1*
X36205Y10315D1*
X36208Y11006D1*
X36230Y11129D1*
X36272Y11246D1*
X36333Y11355D1*
X36412Y11452D1*
X36507Y11534D1*
X36613Y11598D1*
X36729Y11644D1*
X36852Y11670D1*
X36976Y11674D1*
X37100Y11657D1*
X37219Y11620D1*
X37330Y11563D1*
X37396Y11514D1*
X37502Y11618D1*
X37505Y13190D1*
Y14803D1*
X37450Y14733D1*
X37373Y14661D1*
X37375Y13655D1*
X37395Y13609D1*
X37425Y13440D1*
X37421Y12940D1*
X37409Y12816D1*
X37362Y12701D1*
X37287Y12601D1*
X37189Y12524D1*
X37075Y12474D1*
X36952Y12455D1*
X36828Y12468D1*
X36689Y12528D1*
X36575Y12474D1*
X36452Y12455D1*
X36328Y12468D1*
X36189Y12528D1*
X36075Y12474D1*
X35952Y12455D1*
X35828Y12468D1*
X35689Y12528D1*
X35575Y12474D1*
X35452Y12455D1*
X35328Y12468D1*
X35211Y12512D1*
X35110Y12585D1*
X35030Y12681D1*
X34978Y12794D1*
X34958Y12944D1*
X34955Y13440D1*
X34967Y13544D1*
X34632Y13882D1*
X34558Y13982D1*
X34521Y14075D1*
X34505Y14190D1*
Y14663D1*
X34448Y14713D1*
X34370Y14811D1*
X34310Y14920D1*
X34272Y15039D1*
X34258Y15144D1*
X34123Y15008D1*
X34125Y11874D1*
X34481Y11514D1*
X34613Y11598D1*
X34729Y11644D1*
X34852Y11670D1*
X34976Y11674D1*
X35100Y11657D1*
X35219Y11620D1*
X35330Y11563D1*
X35430Y11488D1*
X35516Y11397D1*
X35585Y11293D1*
X35635Y11179D1*
X35666Y11058D1*
X35675Y10815D1*
X35671Y9940D1*
X35664Y9816D1*
X35633Y9695D1*
X35581Y9581D1*
X35511Y9478D1*
X35425Y9388D1*
X35324Y9314D1*
X35213Y9258D1*
X35093Y9221D1*
X34970Y9206D1*
X34845Y9211D1*
X34723Y9238D1*
X34607Y9285D1*
X34501Y9350D1*
X34408Y9433D1*
X34329Y9531D1*
X34269Y9640D1*
X34228Y9758D1*
X34207Y9881D1*
X34205Y10315D1*
Y10561D1*
X33656Y11109D1*
X33675Y10940D1*
X33671Y9940D1*
X33664Y9816D1*
X33633Y9695D1*
X33581Y9581D1*
X33511Y9478D1*
X33425Y9388D1*
X33324Y9314D1*
X33213Y9258D1*
X33093Y9221D1*
X32970Y9206D1*
X32845Y9211D1*
X32723Y9238D1*
X32607Y9285D1*
X32501Y9350D1*
X32408Y9433D1*
X32329Y9531D1*
X32269Y9640D1*
X32228Y9758D1*
X32207Y9881D1*
X32205Y10315D1*
X32208Y11006D1*
X32230Y11129D1*
X32272Y11246D1*
X32333Y11355D1*
X32412Y11452D1*
X32507Y11534D1*
X32613Y11598D1*
X32729Y11644D1*
X32852Y11670D1*
X32976Y11674D1*
X33100Y11657D1*
X33264Y11597D1*
X33255Y11815D1*
Y15190D1*
X33273Y15313D1*
X33312Y15405D1*
X33382Y15498D1*
X34507Y16622D1*
X34505Y18163D1*
X34448Y18213D1*
X34370Y18311D1*
X34310Y18420D1*
X34272Y18539D1*
X34256Y18663D1*
X34262Y18788D1*
X34291Y18909D1*
X34342Y19023D1*
X34412Y19126D1*
X34503Y19217D1*
X34456Y19309D1*
X34132Y19632D1*
X34058Y19732D1*
X34021Y19825D1*
X34005Y19940D1*
Y22940D1*
X34023Y23063D1*
X34062Y23155D1*
X34132Y23248D1*
X34882Y23998D1*
X34982Y24072D1*
X35075Y24109D1*
X35190Y24125D1*
X35381D1*
X35493Y24222D1*
X35603Y24279D1*
X35723Y24314D1*
X35840Y24325D1*
X36040Y24321D1*
X36172Y24311D1*
X36257Y24284D1*
X36255Y25940D1*
Y26092D1*
X36162Y26067D1*
X36040Y26055D1*
X35894D1*
X35805Y26021D1*
X35690Y26005D1*
X32624D1*
X31422Y24807D1*
X30375Y23760D1*
Y19217D1*
X30495Y19091D1*
X30559Y18984D1*
X30602Y18867D1*
X30625Y18690D1*
X30614Y18566D1*
X30580Y18446D1*
X30525Y18333D1*
X30450Y18233D1*
X30373Y18161D1*
X30375Y17624D1*
X31573Y16422D1*
X31748Y16248D1*
X31822Y16148D1*
X31859Y16055D1*
X31875Y15940D1*
Y11190D1*
X31857Y11067D1*
X31818Y10975D1*
X31748Y10882D1*
X31673Y10808D1*
X31675Y9940D1*
X31664Y9816D1*
X31633Y9695D1*
X31581Y9581D1*
X31511Y9478D1*
X31425Y9388D1*
X31324Y9314D1*
X31213Y9258D1*
X31093Y9221D1*
X30970Y9206D1*
X30845Y9211D1*
X30723Y9238D1*
X30607Y9285D1*
X30501Y9350D1*
X30408Y9433D1*
X30329Y9531D1*
X30269Y9640D1*
X30228Y9758D1*
X30207Y9881D1*
X30205Y10315D1*
X30208Y11006D1*
X30226Y11110D1*
X29675Y10559D1*
X29671Y9940D1*
X29664Y9816D1*
X29633Y9695D1*
X29581Y9581D1*
X29511Y9478D1*
X29425Y9388D1*
X29324Y9314D1*
X29213Y9258D1*
X29093Y9221D1*
X28970Y9206D1*
X28845Y9211D1*
X28723Y9238D1*
X28607Y9285D1*
X28501Y9350D1*
X28408Y9433D1*
X28329Y9531D1*
X28269Y9640D1*
X28228Y9758D1*
X28207Y9881D1*
X28205Y10315D1*
X28208Y11006D1*
X28230Y11129D1*
X28272Y11246D1*
X28333Y11355D1*
X28412Y11452D1*
X28507Y11534D1*
X28613Y11598D1*
X28729Y11644D1*
X28852Y11670D1*
X28976Y11674D1*
X29100Y11657D1*
X29219Y11620D1*
X29330Y11563D1*
X29396Y11514D1*
X30254Y12369D1*
X30255Y13889D1*
X29676Y13311D1*
X29671Y12940D1*
X29659Y12816D1*
X29612Y12701D1*
X29537Y12601D1*
X29439Y12524D1*
X29325Y12474D1*
X29202Y12455D1*
X29078Y12468D1*
X28939Y12528D1*
X28825Y12474D1*
X28702Y12455D1*
X28578Y12468D1*
X28439Y12528D1*
X28325Y12474D1*
X28202Y12455D1*
X28078Y12468D1*
X27939Y12528D1*
X27825Y12474D1*
X27702Y12455D1*
X27578Y12468D1*
X27461Y12512D1*
X27360Y12585D1*
X27280Y12681D1*
X27228Y12794D1*
X27208Y12944D1*
X27205Y13440D1*
X27216Y13541D1*
X27256Y13655D1*
X27255Y14530D1*
X27150Y14569D1*
X27043Y14632D1*
X26948Y14713D1*
X26870Y14811D1*
X26810Y14920D1*
X26772Y15039D1*
X26756Y15163D1*
X26762Y15288D1*
X26805Y15441D1*
X26623Y15258D1*
X26625Y11600D1*
X26729Y11644D1*
X26852Y11670D1*
X26976Y11674D1*
X27100Y11657D1*
X27219Y11620D1*
X27330Y11563D1*
X27430Y11488D1*
X27516Y11397D1*
X27585Y11293D1*
X27635Y11179D1*
X27666Y11058D1*
X27675Y10815D1*
X27671Y9940D1*
X27664Y9816D1*
X27633Y9695D1*
X27581Y9581D1*
X27511Y9478D1*
X27425Y9388D1*
X27324Y9314D1*
X27213Y9258D1*
X27093Y9221D1*
X26970Y9206D1*
X26845Y9211D1*
X26723Y9238D1*
X26607Y9285D1*
X26501Y9350D1*
X26408Y9433D1*
X26329Y9531D1*
X26269Y9640D1*
X26228Y9758D1*
X26207Y9881D1*
X26205Y10315D1*
Y10561D1*
X25882Y10882D1*
X25808Y10982D1*
X25771Y11075D1*
X25755Y11190D1*
Y15440D1*
X25773Y15563D1*
X25812Y15655D1*
X25882Y15748D1*
X27007Y16872D1*
X27005Y18163D1*
X26948Y18213D1*
X26870Y18311D1*
X26810Y18420D1*
X26772Y18539D1*
X26756Y18663D1*
X26762Y18788D1*
X26791Y18909D1*
X26842Y19023D1*
X26912Y19126D1*
X27003Y19217D1*
X27005Y20756D1*
X25807Y21958D1*
X24511Y23254D1*
X24249Y23255D1*
X24181Y23193D1*
X24245Y23133D1*
X24323Y23035D1*
X24380Y22924D1*
X24415Y22804D1*
X24425Y22690D1*
X24413Y22566D1*
X24376Y22446D1*
X24317Y22336D1*
X24238Y22240D1*
X24181Y22193D1*
X24245Y22133D1*
X24323Y22035D1*
X24380Y21924D1*
X24415Y21804D1*
X24425Y21690D1*
X24413Y21566D1*
X24376Y21446D1*
X24317Y21336D1*
X24229Y21233D1*
X24273Y21053D1*
X24262Y20878D1*
X24222Y20760D1*
X24159Y20653D1*
X24074Y20561D1*
X23972Y20490D1*
X23857Y20442D1*
X23734Y20419D1*
X23609Y20423D1*
X23488Y20453D1*
X23376Y20509D1*
X23300Y20569D1*
X22311Y20568D1*
X22325Y20440D1*
X22313Y20316D1*
X22276Y20196D1*
X22217Y20086D1*
X22123Y19978D1*
X22125Y19217D1*
X22245Y19091D1*
X22309Y18984D1*
X22352Y18867D1*
X22375Y18690D1*
X22364Y18566D1*
X22330Y18446D1*
X22275Y18333D1*
X22226Y18268D1*
X23248Y17248D1*
X23322Y17148D1*
X23359Y17055D1*
X23375Y16940D1*
Y11530D1*
X23430Y11488D1*
X23516Y11397D1*
X23585Y11293D1*
X23635Y11179D1*
X23666Y11058D1*
X23675Y10815D1*
X23671Y9940D1*
X23664Y9816D1*
X23633Y9695D1*
X23581Y9581D1*
X23511Y9478D1*
X23425Y9388D1*
X23324Y9314D1*
X23213Y9258D1*
X23093Y9221D1*
X22970Y9206D1*
X22845Y9211D1*
X22723Y9238D1*
X22607Y9285D1*
X22501Y9350D1*
X22408Y9433D1*
X22329Y9531D1*
X22269Y9640D1*
X22228Y9758D1*
X22207Y9881D1*
X22205Y10315D1*
X22208Y11006D1*
X22230Y11129D1*
X22272Y11246D1*
X22333Y11355D1*
X22412Y11452D1*
X22504Y11531D1*
X22505Y11639D1*
X21673Y10808D1*
X21675Y9940D1*
X21664Y9816D1*
X21633Y9695D1*
X21581Y9581D1*
X21511Y9478D1*
X21425Y9388D1*
X21324Y9314D1*
X21213Y9258D1*
X21093Y9221D1*
X20970Y9206D1*
X20845Y9211D1*
X20723Y9238D1*
X20607Y9285D1*
X20501Y9350D1*
X20408Y9433D1*
X20329Y9531D1*
X20269Y9640D1*
X20228Y9758D1*
X20207Y9881D1*
X20205Y10315D1*
X20208Y11006D1*
X20230Y11129D1*
X20272Y11246D1*
X20333Y11355D1*
X20412Y11452D1*
X20507Y11534D1*
X20613Y11598D1*
X20729Y11644D1*
X20852Y11670D1*
X20976Y11674D1*
X21100Y11657D1*
X21243Y11607D1*
X22005Y12370D1*
X22004Y14581D1*
X21888Y14534D1*
X21766Y14509D1*
X21622Y14510D1*
X21625Y13655D1*
X21645Y13609D1*
X21675Y13440D1*
X21671Y12940D1*
X21659Y12816D1*
X21612Y12701D1*
X21537Y12601D1*
X21439Y12524D1*
X21325Y12474D1*
X21202Y12455D1*
X21078Y12468D1*
X20939Y12528D1*
X20825Y12474D1*
X20702Y12455D1*
X20578Y12468D1*
X20439Y12528D1*
X20325Y12474D1*
X20202Y12455D1*
X20078Y12468D1*
X19939Y12528D1*
X19825Y12474D1*
X19702Y12455D1*
X19578Y12468D1*
X19461Y12512D1*
X19360Y12585D1*
X19280Y12681D1*
X19228Y12794D1*
X19208Y12944D1*
X19205Y13061D1*
X18880Y13386D1*
X18875Y13065D1*
Y11670D1*
X18976Y11674D1*
X19100Y11657D1*
X19219Y11620D1*
X19330Y11563D1*
X19430Y11488D1*
X19516Y11397D1*
X19585Y11293D1*
X19635Y11179D1*
X19666Y11058D1*
X19675Y10815D1*
X19671Y9940D1*
X19664Y9816D1*
X19633Y9695D1*
X19581Y9581D1*
X19511Y9478D1*
X19425Y9388D1*
X19324Y9314D1*
X19213Y9258D1*
X19093Y9221D1*
X18970Y9206D1*
X18845Y9211D1*
X18723Y9238D1*
X18607Y9285D1*
X18501Y9350D1*
X18408Y9433D1*
X18329Y9531D1*
X18269Y9640D1*
X18228Y9758D1*
X18207Y9881D1*
X18205Y10315D1*
Y10811D1*
X18132Y10882D1*
X18058Y10982D1*
X18021Y11075D1*
X18005Y11190D1*
Y15690D1*
X18023Y15813D1*
X18062Y15905D1*
X18132Y15998D1*
X18754Y16619D1*
X18755Y18163D1*
X18698Y18213D1*
X18620Y18311D1*
X18560Y18420D1*
X18522Y18539D1*
X18506Y18663D1*
X18510Y18753D1*
X17632Y19632D1*
X17558Y19732D1*
X17521Y19825D1*
X17505Y19940D1*
Y25006D1*
X16508Y26007D1*
X15690Y26005D1*
X15591Y26016D1*
X15415Y26055D1*
X15340Y26059D1*
X15213Y26068D1*
X15094Y26105D1*
X14984Y26164D1*
X14876Y26259D1*
X14875Y24124D1*
X14993Y24222D1*
X15103Y24279D1*
X15223Y24314D1*
X15340Y24325D1*
X15540Y24321D1*
X15672Y24311D1*
X15791Y24273D1*
X15900Y24213D1*
X16007Y24117D1*
X16039Y24114D1*
X16155Y24068D1*
X16248Y23998D1*
X16748Y23498D1*
X16822Y23398D1*
X16859Y23305D1*
X16875Y23190D1*
Y18617D1*
X16857Y18494D1*
X16818Y18402D1*
X16748Y18309D1*
X15126Y16688D1*
X15125Y11655D1*
X15219Y11620D1*
X15330Y11563D1*
X15430Y11488D1*
X15516Y11397D1*
X15585Y11293D1*
X15635Y11179D1*
X15666Y11058D1*
X15675Y10815D1*
X15671Y9940D1*
X15664Y9816D1*
X15633Y9695D1*
X15581Y9581D1*
X15511Y9478D1*
X15425Y9388D1*
X15324Y9314D1*
X15213Y9258D1*
X15093Y9221D1*
X14970Y9206D1*
X14845Y9211D1*
X14723Y9238D1*
X14607Y9285D1*
X14501Y9350D1*
X14408Y9433D1*
X14329Y9531D1*
X14269Y9640D1*
X14228Y9758D1*
X14207Y9881D1*
X14205Y10092D1*
X14055Y10021D1*
X13940Y10005D1*
X13678D1*
X13671Y9940D1*
X13664Y9816D1*
X13633Y9695D1*
X13581Y9581D1*
X13511Y9478D1*
X13425Y9388D1*
X13324Y9314D1*
X13213Y9258D1*
X13093Y9221D1*
X12970Y9206D1*
X12845Y9211D1*
X12723Y9238D1*
X12607Y9285D1*
X12501Y9350D1*
X12408Y9433D1*
X12329Y9531D1*
X12269Y9640D1*
X12228Y9758D1*
X12207Y9881D1*
X12205Y10315D1*
X12208Y11006D1*
X12230Y11129D1*
X12272Y11246D1*
X12333Y11355D1*
X12412Y11452D1*
X12507Y11534D1*
X12613Y11598D1*
X12729Y11644D1*
X12852Y11670D1*
X12976Y11674D1*
X13100Y11657D1*
X13219Y11620D1*
X13330Y11563D1*
X13430Y11488D1*
X13508Y11405D1*
X13505Y12315D1*
X13504Y14581D1*
X13377Y14532D1*
X13375Y13655D1*
X13395Y13609D1*
X13425Y13440D1*
X13421Y12940D1*
X13409Y12816D1*
X13362Y12701D1*
X13287Y12601D1*
X13189Y12524D1*
X13075Y12474D1*
X12952Y12455D1*
X12828Y12468D1*
X12689Y12528D1*
X12575Y12474D1*
X12452Y12455D1*
X12328Y12468D1*
X12189Y12528D1*
X12075Y12474D1*
X11952Y12455D1*
X11828Y12468D1*
X11689Y12528D1*
X11575Y12474D1*
X11452Y12455D1*
X11328Y12468D1*
X11211Y12512D1*
X11113Y12582D1*
X11053Y12451D1*
X10998Y12382D1*
X10873Y12258D1*
X10875Y11670D1*
X16208Y10940D2*
Y11006D1*
X16230Y11129D1*
X16272Y11246D1*
X16333Y11355D1*
X16412Y11452D1*
X16507Y11534D1*
X16613Y11598D1*
X16729Y11644D1*
X16852Y11670D1*
X16976Y11674D1*
X17100Y11657D1*
X17219Y11620D1*
X17330Y11563D1*
X17430Y11488D1*
X17516Y11397D1*
X17585Y11293D1*
X17635Y11179D1*
X17666Y11058D1*
X17675Y10815D1*
X17671Y9940D1*
X17664Y9816D1*
X17633Y9695D1*
X17581Y9581D1*
X17511Y9478D1*
X17425Y9388D1*
X17324Y9314D1*
X17213Y9258D1*
X17093Y9221D1*
X16970Y9206D1*
X16845Y9211D1*
X16723Y9238D1*
X16607Y9285D1*
X16501Y9350D1*
X16408Y9433D1*
X16329Y9531D1*
X16269Y9640D1*
X16228Y9758D1*
X16207Y9881D1*
X16205Y10315D1*
X16209Y10940D1*
X24208D2*
Y11006D1*
X24230Y11129D1*
X24272Y11246D1*
X24333Y11355D1*
X24412Y11452D1*
X24507Y11534D1*
X24613Y11598D1*
X24729Y11644D1*
X24852Y11670D1*
X24976Y11674D1*
X25100Y11657D1*
X25219Y11620D1*
X25330Y11563D1*
X25430Y11488D1*
X25516Y11397D1*
X25585Y11293D1*
X25635Y11179D1*
X25666Y11058D1*
X25675Y10815D1*
X25671Y9940D1*
X25664Y9816D1*
X25633Y9695D1*
X25581Y9581D1*
X25511Y9478D1*
X25425Y9388D1*
X25324Y9314D1*
X25213Y9258D1*
X25093Y9221D1*
X24970Y9206D1*
X24845Y9211D1*
X24723Y9238D1*
X24607Y9285D1*
X24501Y9350D1*
X24408Y9433D1*
X24329Y9531D1*
X24269Y9640D1*
X24228Y9758D1*
X24207Y9881D1*
X24205Y10315D1*
X24209Y10940D1*
X56208D2*
Y11006D1*
X56230Y11129D1*
X56272Y11246D1*
X56333Y11355D1*
X56412Y11452D1*
X56507Y11534D1*
X56613Y11598D1*
X56729Y11644D1*
X56852Y11670D1*
X56976Y11674D1*
X57100Y11657D1*
X57219Y11620D1*
X57330Y11563D1*
X57430Y11488D1*
X57516Y11397D1*
X57585Y11293D1*
X57635Y11179D1*
X57666Y11058D1*
X57675Y10815D1*
X57671Y9940D1*
X57664Y9816D1*
X57633Y9695D1*
X57581Y9581D1*
X57511Y9478D1*
X57425Y9388D1*
X57324Y9314D1*
X57213Y9258D1*
X57093Y9221D1*
X56970Y9206D1*
X56845Y9211D1*
X56723Y9238D1*
X56607Y9285D1*
X56501Y9350D1*
X56408Y9433D1*
X56329Y9531D1*
X56269Y9640D1*
X56228Y9758D1*
X56207Y9881D1*
X56205Y10315D1*
X56209Y10940D1*
X64375Y11406D2*
X64412Y11452D1*
X64507Y11534D1*
X64613Y11598D1*
X64729Y11644D1*
X64852Y11670D1*
X64976Y11674D1*
X65100Y11657D1*
X65219Y11620D1*
X65330Y11563D1*
X65430Y11488D1*
X65508Y11405D1*
X65505Y12315D1*
Y16940D1*
X65523Y17063D1*
X65562Y17155D1*
X65632Y17248D1*
X66502Y18118D1*
X66448Y18213D1*
X66370Y18311D1*
X66310Y18420D1*
X66272Y18539D1*
X66256Y18663D1*
X66262Y18788D1*
X66291Y18909D1*
X66342Y19023D1*
X66412Y19126D1*
X66503Y19217D1*
X66505Y19690D1*
X66523Y19813D1*
X66562Y19905D1*
X66632Y19998D1*
X67005Y20370D1*
Y20514D1*
X66859Y20482D1*
X66734Y20486D1*
X66613Y20516D1*
X66501Y20571D1*
X66425Y20632D1*
X65139Y20630D1*
X65074Y20561D1*
X64972Y20490D1*
X64857Y20442D1*
X64734Y20419D1*
X64609Y20423D1*
X64488Y20453D1*
X64376Y20509D1*
X64279Y20586D1*
X64200Y20683D1*
X64143Y20794D1*
X64112Y20915D1*
X64106Y21040D1*
X64127Y21163D1*
X64174Y21278D1*
X64244Y21381D1*
X64335Y21467D1*
X64441Y21532D1*
X64559Y21573D1*
X64683Y21587D1*
X64807Y21576D1*
X64926Y21538D1*
X64990Y21501D1*
X65733Y21500D1*
X65716Y21571D1*
X65705Y21695D1*
X65718Y21819D1*
X65756Y21938D1*
X65815Y22048D1*
X65896Y22143D1*
X65953Y22190D1*
X65888Y22244D1*
X65810Y22341D1*
X65752Y22451D1*
X65716Y22571D1*
X65705Y22695D1*
X65718Y22819D1*
X65756Y22938D1*
X65815Y23048D1*
X65896Y23143D1*
X65953Y23190D1*
X65888Y23244D1*
X65810Y23341D1*
X65752Y23451D1*
X65716Y23571D1*
X65705Y23695D1*
X65718Y23819D1*
X65756Y23938D1*
X65815Y24048D1*
X65896Y24143D1*
X65993Y24222D1*
X66103Y24279D1*
X66223Y24314D1*
X66340Y24325D1*
X66540Y24321D1*
X66672Y24311D1*
X66791Y24273D1*
X66900Y24213D1*
X67007Y24117D1*
X67039Y24114D1*
X67155Y24068D1*
X67248Y23998D1*
X67504Y23741D1*
X67505Y27006D1*
X67110Y27404D1*
X66988Y27240D1*
X66931Y27193D1*
X66995Y27133D1*
X67073Y27035D1*
X67130Y26924D1*
X67165Y26804D1*
X67175Y26690D1*
X67163Y26566D1*
X67126Y26446D1*
X67067Y26336D1*
X66988Y26240D1*
X66891Y26161D1*
X66781Y26103D1*
X66662Y26067D1*
X66540Y26055D1*
X66340Y26059D1*
X66303D1*
X65625Y25385D1*
Y23690D1*
X65607Y23567D1*
X65568Y23475D1*
X65498Y23382D1*
X62473Y20358D1*
X63740Y20360D1*
Y19020D1*
X63650D1*
X63708Y18894D1*
X63735Y18772D1*
X63740Y18690D1*
X63728Y18566D1*
X63694Y18446D1*
X63637Y18334D1*
X63561Y18235D1*
X63469Y18152D1*
X63362Y18087D1*
X63245Y18044D1*
X63122Y18022D1*
X62997Y18024D1*
X62875Y18049D1*
X62759Y18097D1*
X62655Y18165D1*
X62564Y18251D1*
X62517Y18318D1*
X62450Y18233D1*
X62373Y18161D1*
X62440Y18056D1*
X64248Y16248D1*
X64322Y16148D1*
X64359Y16055D1*
X64375Y15940D1*
X64374Y11436D1*
X13175Y28093D2*
Y27955D1*
X13116D1*
X13165Y27804D1*
X13175Y27690D1*
X13163Y27566D1*
X13126Y27446D1*
X13067Y27336D1*
X12988Y27240D1*
X12931Y27193D1*
X12995Y27133D1*
X13073Y27035D1*
X13130Y26924D1*
X13165Y26804D1*
X13175Y26690D1*
X13163Y26566D1*
X13126Y26446D1*
X13067Y26336D1*
X12988Y26240D1*
X12891Y26161D1*
X12781Y26103D1*
X12662Y26067D1*
X12540Y26055D1*
X12419D1*
X11623Y25258D1*
X11625Y19217D1*
X11686Y19159D1*
X11753Y19217D1*
X11755Y19440D1*
X11773Y19563D1*
X11812Y19655D1*
X11882Y19748D1*
X12752Y20618D1*
X12755Y21092D1*
X12662Y21067D1*
X12540Y21055D1*
X12340Y21059D1*
X12213Y21068D1*
X12094Y21105D1*
X11984Y21164D1*
X11888Y21244D1*
X11810Y21341D1*
X11752Y21451D1*
X11716Y21571D1*
X11705Y21695D1*
X11718Y21819D1*
X11756Y21938D1*
X11815Y22048D1*
X11896Y22143D1*
X11953Y22190D1*
X11888Y22244D1*
X11810Y22341D1*
X11752Y22451D1*
X11716Y22571D1*
X11705Y22695D1*
X11718Y22819D1*
X11756Y22938D1*
X11815Y23048D1*
X11896Y23143D1*
X11953Y23190D1*
X11888Y23244D1*
X11810Y23341D1*
X11752Y23451D1*
X11716Y23571D1*
X11705Y23695D1*
X11718Y23819D1*
X11756Y23938D1*
X11815Y24048D1*
X11896Y24143D1*
X11993Y24222D1*
X12103Y24279D1*
X12223Y24314D1*
X12340Y24325D1*
X12540Y24321D1*
X12672Y24311D1*
X12791Y24273D1*
X12900Y24213D1*
X12995Y24133D1*
X13073Y24035D1*
X13130Y23924D1*
X13165Y23804D1*
X13175Y23690D1*
X13164Y23577D1*
X13253Y23492D1*
X13255Y26940D1*
Y28006D1*
X13175Y28090D1*
X21413Y27566D2*
X21376Y27446D1*
X21317Y27336D1*
X21238Y27240D1*
X21181Y27193D1*
X21245Y27133D1*
X21323Y27035D1*
X21380Y26924D1*
X21415Y26804D1*
X21425Y26690D1*
X21413Y26566D1*
X21376Y26446D1*
X21317Y26336D1*
X21238Y26240D1*
X21141Y26161D1*
X21031Y26103D1*
X20912Y26067D1*
X20790Y26055D1*
X20590Y26059D1*
X20463Y26068D1*
X20344Y26105D1*
X20265Y26147D1*
X19628Y25512D1*
X19625Y23940D1*
Y21178D1*
X19684Y21198D1*
X19781Y21209D1*
X19882Y21310D1*
X19961Y21372D1*
X20002Y21451D1*
X19966Y21571D1*
X19955Y21695D1*
X19968Y21819D1*
X20006Y21938D1*
X20065Y22048D1*
X20146Y22143D1*
X20203Y22190D1*
X20138Y22244D1*
X20060Y22341D1*
X20002Y22451D1*
X19966Y22571D1*
X19955Y22695D1*
X19968Y22819D1*
X20006Y22938D1*
X20065Y23048D1*
X20146Y23143D1*
X20203Y23190D1*
X20138Y23244D1*
X20060Y23341D1*
X20002Y23451D1*
X19966Y23571D1*
X19955Y23695D1*
X19968Y23819D1*
X20006Y23938D1*
X20065Y24048D1*
X20146Y24143D1*
X20243Y24222D1*
X20353Y24279D1*
X20473Y24314D1*
X20590Y24325D1*
X20790Y24321D1*
X20922Y24311D1*
X21041Y24273D1*
X21150Y24213D1*
X21245Y24133D1*
X21316Y24044D1*
X21461Y23909D1*
X21629Y23741D1*
X21630Y27631D1*
X21401Y27864D1*
X21425Y27690D1*
X21413Y27566D1*
X23591Y26055D2*
X23463Y26068D1*
X23344Y26105D1*
X23234Y26164D1*
X23126Y26259D1*
X23125Y24124D1*
X23243Y24222D1*
X23353Y24279D1*
X23473Y24314D1*
X23590Y24325D1*
X23790Y24321D1*
X23922Y24311D1*
X24041Y24273D1*
X24150Y24213D1*
X24253Y24124D1*
X24690Y24125D1*
X24813Y24107D1*
X24905Y24068D1*
X24998Y23998D1*
X27748Y21248D1*
X27822Y21148D1*
X27859Y21055D1*
X27875Y20940D1*
Y19217D1*
X27995Y19091D1*
X28065Y18966D1*
X28092Y19023D1*
X28162Y19126D1*
X28253Y19217D1*
X28255Y22506D1*
X27057Y23708D1*
X24507Y26258D1*
X24249Y26255D1*
X24141Y26161D1*
X24031Y26103D1*
X23912Y26067D1*
X23790Y26055D1*
X23590Y26059D1*
X38451Y27191D2*
X38376Y27259D1*
X38225Y27312D1*
X38124Y27391D1*
X38125Y25124D1*
X38373Y24873D1*
X38447Y24773D1*
X38484Y24680D1*
X38500Y24565D1*
Y24225D1*
X38603Y24279D1*
X38723Y24314D1*
X38840Y24325D1*
X39040Y24321D1*
X39172Y24311D1*
X39291Y24273D1*
X39400Y24213D1*
X39503Y24124D1*
X39940Y24125D1*
X40063Y24107D1*
X40155Y24068D1*
X40248Y23998D1*
X40753Y23492D1*
X40755Y25506D1*
X40261Y26004D1*
X39190Y26005D1*
X39091Y26016D1*
X38915Y26055D1*
X38840Y26059D1*
X38713Y26068D1*
X38594Y26105D1*
X38484Y26164D1*
X38388Y26244D1*
X38310Y26341D1*
X38252Y26451D1*
X38216Y26571D1*
X38205Y26695D1*
X38218Y26819D1*
X38256Y26938D1*
X38315Y27048D1*
X38396Y27143D1*
X38453Y27190D1*
X38317Y27273D1*
X38201Y27327D1*
X44416Y27601D2*
X44376Y27446D1*
X44317Y27336D1*
X44238Y27240D1*
X44181Y27193D1*
X44245Y27133D1*
X44323Y27035D1*
X44380Y26924D1*
X44415Y26804D1*
X44425Y26690D1*
X44413Y26566D1*
X44376Y26446D1*
X44317Y26336D1*
X44238Y26240D1*
X44141Y26161D1*
X44031Y26103D1*
X43912Y26067D1*
X43790Y26055D1*
X43590Y26059D1*
X43463Y26068D1*
X43344Y26105D1*
X43234Y26164D1*
X43131Y26253D1*
X42982Y26117D1*
X42626Y25761D1*
X42625Y21553D1*
X42684Y21573D1*
X42808Y21587D1*
X42966Y21565D1*
X42955Y21695D1*
X42968Y21819D1*
X43006Y21938D1*
X43065Y22048D1*
X43146Y22143D1*
X43203Y22190D1*
X43138Y22244D1*
X43060Y22341D1*
X43002Y22451D1*
X42966Y22571D1*
X42955Y22695D1*
X42968Y22819D1*
X43006Y22938D1*
X43065Y23048D1*
X43146Y23143D1*
X43203Y23190D1*
X43138Y23244D1*
X43060Y23341D1*
X43002Y23451D1*
X42966Y23571D1*
X42955Y23695D1*
X42968Y23819D1*
X43006Y23938D1*
X43065Y24048D1*
X43146Y24143D1*
X43243Y24222D1*
X43353Y24279D1*
X43473Y24314D1*
X43590Y24325D1*
X43790Y24321D1*
X43922Y24311D1*
X44041Y24273D1*
X44150Y24213D1*
X44245Y24133D1*
X44323Y24035D1*
X44380Y23924D1*
X44415Y23804D1*
X44425Y23690D1*
X44414Y23577D1*
X44757Y23238D1*
X44755Y25690D1*
Y27256D1*
X44416Y27599D1*
X56591Y26055D2*
X56463Y26068D1*
X56344Y26105D1*
X56234Y26164D1*
X56131Y26253D1*
X54374Y26255D1*
X53172Y25057D1*
X52125Y24010D1*
Y19217D1*
X52245Y19091D1*
X52315Y18966D1*
X52342Y19023D1*
X52412Y19126D1*
X52503Y19217D1*
X52505Y23190D1*
X52523Y23313D1*
X52562Y23405D1*
X52632Y23498D1*
X53132Y23998D1*
X53232Y24072D1*
X53325Y24109D1*
X53440Y24125D1*
X56131D1*
X56243Y24222D1*
X56353Y24279D1*
X56473Y24314D1*
X56590Y24325D1*
X56790Y24321D1*
X56922Y24311D1*
X57041Y24273D1*
X57133Y24223D1*
X57130Y25565D1*
Y26155D1*
X57031Y26103D1*
X56912Y26067D1*
X56790Y26055D1*
X56590Y26059D1*
X59591Y26055D2*
X59463Y26068D1*
X59344Y26105D1*
X59234Y26164D1*
X59189Y26201D1*
Y24184D1*
X59353Y24279D1*
X59473Y24314D1*
X59590Y24325D1*
X59790Y24321D1*
X59922Y24311D1*
X60041Y24273D1*
X60150Y24213D1*
X60245Y24133D1*
X60323Y24035D1*
X60380Y23924D1*
X60415Y23804D1*
X60425Y23690D1*
X60414Y23577D1*
X60748Y23248D1*
X60822Y23148D1*
X60859Y23055D1*
X60875Y22940D1*
Y20741D1*
X61004Y20869D1*
X61005Y25756D1*
X60511Y26254D1*
X60249Y26255D1*
X60141Y26161D1*
X60031Y26103D1*
X59912Y26067D1*
X59790Y26055D1*
X59590Y26059D1*
X69341Y26055D2*
X69213Y26068D1*
X69128Y26094D1*
X69125Y25190D1*
Y24288D1*
X69223Y24314D1*
X69340Y24325D1*
X69540Y24321D1*
X69672Y24311D1*
X69791Y24273D1*
X69900Y24213D1*
X70007Y24117D1*
X70039Y24114D1*
X70155Y24068D1*
X70248Y23998D1*
X70750Y23494D1*
X70755Y23815D1*
Y24756D1*
X69557Y25958D1*
X69460Y26055D1*
X69340Y26059D1*
X58708Y13444D2*
X58716Y13541D1*
X58756Y13655D1*
Y14944D1*
X58768Y15043D1*
X58756Y15163D1*
X58762Y15288D1*
X58791Y15409D1*
X58842Y15523D1*
X58912Y15626D1*
X59000Y15715D1*
X59102Y15786D1*
X59216Y15837D1*
X59337Y15867D1*
X59462Y15875D1*
X59586Y15859D1*
X59705Y15822D1*
X59815Y15763D1*
X59913Y15686D1*
X59995Y15591D1*
X60065Y15466D1*
X60092Y15523D1*
X60162Y15626D1*
X60250Y15715D1*
X60352Y15786D1*
X60466Y15837D1*
X60587Y15867D1*
X60712Y15875D1*
X60836Y15859D1*
X60955Y15822D1*
X61065Y15763D1*
X61163Y15686D1*
X61245Y15591D1*
X61315Y15466D1*
X61342Y15523D1*
X61412Y15626D1*
X61500Y15715D1*
X61602Y15786D1*
X61716Y15837D1*
X61837Y15867D1*
X61962Y15875D1*
X62086Y15859D1*
X62186Y15828D1*
X60382Y17632D1*
X60308Y17732D1*
X60271Y17825D1*
X60255Y17940D1*
Y18163D1*
X60198Y18213D1*
X60120Y18311D1*
X60066Y18410D1*
X60025Y18333D1*
X59950Y18233D1*
X59873Y18161D1*
X59875Y16940D1*
X59857Y16817D1*
X59818Y16725D1*
X59748Y16632D1*
X58623Y15508D1*
X58625Y13440D1*
X63805Y35591D2*
X63818Y35719D1*
X63856Y35838D1*
X63915Y35948D1*
X63996Y36043D1*
X64093Y36122D1*
X64203Y36179D1*
X64323Y36214D1*
X64448Y36225D1*
X64572Y36211D1*
X64691Y36173D1*
X64800Y36113D1*
X64895Y36033D1*
X64973Y35935D1*
X65030Y35824D1*
X65065Y35704D1*
X65075Y35590D1*
X65071Y35290D1*
X65063Y35166D1*
X65026Y35046D1*
X64967Y34936D1*
X64888Y34840D1*
X64791Y34761D1*
X64681Y34703D1*
X64562Y34667D1*
X64437Y34655D1*
X64313Y34668D1*
X64194Y34705D1*
X64084Y34764D1*
X63988Y34844D1*
X63910Y34941D1*
X63852Y35051D1*
X63816Y35171D1*
X63805Y35290D1*
X63809Y35590D1*
X63666Y35558D1*
X63675Y35440D1*
X63664Y35316D1*
X63633Y35195D1*
X63581Y35081D1*
X63511Y34978D1*
X63425Y34888D1*
X63324Y34814D1*
X63213Y34758D1*
X63093Y34721D1*
X62970Y34706D1*
X62845Y34711D1*
X62723Y34738D1*
X62607Y34785D1*
X62501Y34850D1*
X62408Y34933D1*
X62329Y35031D1*
X62269Y35140D1*
X62228Y35258D1*
X62207Y35381D1*
X62208Y35506D1*
X62230Y35629D1*
X62272Y35746D1*
X62333Y35855D1*
X62412Y35952D1*
X62507Y36034D1*
X62613Y36098D1*
X62729Y36144D1*
X62852Y36170D1*
X62976Y36174D1*
X63100Y36157D1*
X63219Y36120D1*
X63330Y36063D1*
X63430Y35988D1*
X63516Y35897D1*
X63585Y35793D1*
X63635Y35679D1*
X63666Y35558D1*
X65805Y35591D2*
X65818Y35719D1*
X65856Y35838D1*
X65915Y35948D1*
X65996Y36043D1*
X66093Y36122D1*
X66203Y36179D1*
X66323Y36214D1*
X66448Y36225D1*
X66572Y36211D1*
X66691Y36173D1*
X66800Y36113D1*
X66895Y36033D1*
X66973Y35935D1*
X67030Y35824D1*
X67065Y35704D1*
X67075Y35590D1*
X67071Y35290D1*
X67063Y35166D1*
X67026Y35046D1*
X66967Y34936D1*
X66888Y34840D1*
X66791Y34761D1*
X66681Y34703D1*
X66562Y34667D1*
X66437Y34655D1*
X66313Y34668D1*
X66194Y34705D1*
X66084Y34764D1*
X65988Y34844D1*
X65910Y34941D1*
X65852Y35051D1*
X65816Y35171D1*
X65805Y35290D1*
X65809Y35590D1*
X66164Y41316D2*
X66133Y41195D1*
X66081Y41081D1*
X66011Y40978D1*
X65925Y40888D1*
X65824Y40814D1*
X65713Y40758D1*
X65593Y40721D1*
X65470Y40706D1*
X65345Y40711D1*
X65223Y40738D1*
X65107Y40785D1*
X65001Y40850D1*
X64908Y40933D1*
X64829Y41031D1*
X64769Y41140D1*
X64728Y41258D1*
X64707Y41381D1*
X64708Y41506D1*
X64730Y41629D1*
X64772Y41746D1*
X64833Y41855D1*
X64912Y41952D1*
X65007Y42034D1*
X65113Y42098D1*
X65229Y42144D1*
X65352Y42170D1*
X65476Y42174D1*
X65600Y42157D1*
X65719Y42120D1*
X65830Y42063D1*
X65930Y41988D1*
X66016Y41897D1*
X66085Y41793D1*
X66135Y41679D1*
X66166Y41558D1*
X66175Y41440D1*
X66164Y41316D1*
X52708Y44440D2*
Y44506D1*
X52730Y44629D1*
X52772Y44746D1*
X52833Y44855D1*
X52912Y44952D1*
X53007Y45034D1*
X53113Y45098D1*
X53229Y45144D1*
X53352Y45170D1*
X53476Y45174D1*
X53600Y45157D1*
X53719Y45120D1*
X53830Y45063D1*
X53930Y44988D1*
X54016Y44897D1*
X54085Y44793D1*
X54135Y44679D1*
X54166Y44558D1*
X54175Y44315D1*
X54171Y43440D1*
X54164Y43316D1*
X54133Y43195D1*
X54081Y43081D1*
X54011Y42978D1*
X53925Y42888D1*
X53824Y42814D1*
X53713Y42758D1*
X53593Y42721D1*
X53470Y42706D1*
X53345Y42711D1*
X53223Y42738D1*
X53107Y42785D1*
X53001Y42850D1*
X52908Y42933D1*
X52829Y43031D1*
X52769Y43140D1*
X52728Y43258D1*
X52707Y43381D1*
X52705Y43815D1*
X52709Y44440D1*
X54708D2*
Y44506D1*
X54730Y44629D1*
X54772Y44746D1*
X54833Y44855D1*
X54912Y44952D1*
X55007Y45034D1*
X55113Y45098D1*
X55229Y45144D1*
X55352Y45170D1*
X55476Y45174D1*
X55600Y45157D1*
X55719Y45120D1*
X55830Y45063D1*
X55930Y44988D1*
X56016Y44897D1*
X56085Y44793D1*
X56135Y44679D1*
X56166Y44558D1*
X56175Y44315D1*
X56171Y43440D1*
X56164Y43316D1*
X56133Y43195D1*
X56081Y43081D1*
X56011Y42978D1*
X55925Y42888D1*
X55824Y42814D1*
X55713Y42758D1*
X55593Y42721D1*
X55470Y42706D1*
X55345Y42711D1*
X55223Y42738D1*
X55107Y42785D1*
X55001Y42850D1*
X54908Y42933D1*
X54829Y43031D1*
X54769Y43140D1*
X54728Y43258D1*
X54707Y43381D1*
X54705Y43815D1*
X54709Y44440D1*
X70164Y33816D2*
X70133Y33695D1*
X70081Y33581D1*
X70011Y33478D1*
X69925Y33388D1*
X69824Y33314D1*
X69713Y33258D1*
X69593Y33221D1*
X69470Y33206D1*
X69345Y33211D1*
X69223Y33238D1*
X69107Y33285D1*
X69001Y33350D1*
X68908Y33433D1*
X68829Y33531D1*
X68769Y33640D1*
X68728Y33758D1*
X68707Y33881D1*
X68708Y34006D1*
X68730Y34129D1*
X68772Y34246D1*
X68833Y34355D1*
X68912Y34452D1*
X69007Y34534D1*
X69113Y34598D1*
X69229Y34644D1*
X69352Y34670D1*
X69476Y34674D1*
X69600Y34657D1*
X69719Y34620D1*
X69830Y34563D1*
X69930Y34488D1*
X70016Y34397D1*
X70085Y34293D1*
X70135Y34179D1*
X70166Y34058D1*
X70175Y33940D1*
X70164Y33816D1*
X69164Y31316D2*
X69133Y31195D1*
X69081Y31081D1*
X69011Y30978D1*
X68925Y30888D1*
X68824Y30814D1*
X68713Y30758D1*
X68593Y30721D1*
X68470Y30706D1*
X68345Y30711D1*
X68223Y30738D1*
X68107Y30785D1*
X68001Y30850D1*
X67908Y30933D1*
X67829Y31031D1*
X67769Y31140D1*
X67728Y31258D1*
X67707Y31381D1*
X67708Y31506D1*
X67730Y31629D1*
X67772Y31746D1*
X67833Y31855D1*
X67912Y31952D1*
X68007Y32034D1*
X68113Y32098D1*
X68229Y32144D1*
X68352Y32170D1*
X68476Y32174D1*
X68600Y32157D1*
X68719Y32120D1*
X68830Y32063D1*
X68930Y31988D1*
X69016Y31897D1*
X69085Y31793D1*
X69135Y31679D1*
X69166Y31558D1*
X69175Y31440D1*
X69164Y31316D1*
X15943Y45431D2*
X16005Y45501D1*
Y46631D1*
X15935Y46763D1*
X15908Y46884D1*
X15909Y47009D1*
X15940Y47130D1*
X15997Y47241D1*
X16079Y47335D1*
X16180Y47408D1*
X16296Y47455D1*
X16419Y47475D1*
X16543Y47465D1*
X16662Y47427D1*
X16769Y47362D1*
X16857Y47275D1*
X16924Y47169D1*
X16963Y47051D1*
X16975Y46940D1*
X16960Y46816D1*
X16918Y46699D1*
X16877Y46637D1*
X16875Y45499D1*
X16973Y45385D1*
X17030Y45274D1*
X17065Y45154D1*
X17075Y45040D1*
X17071Y44840D1*
X17063Y44716D1*
X17026Y44596D1*
X16967Y44486D1*
X16888Y44390D1*
X16791Y44311D1*
X16681Y44253D1*
X16562Y44217D1*
X16437Y44205D1*
X16313Y44218D1*
X16194Y44255D1*
X16084Y44314D1*
X15988Y44394D1*
X15942Y44451D1*
X15888Y44390D1*
X15791Y44311D1*
X15681Y44253D1*
X15562Y44217D1*
X15437Y44205D1*
X15313Y44218D1*
X15194Y44255D1*
X15084Y44314D1*
X14988Y44394D1*
X14942Y44451D1*
X14888Y44390D1*
X14791Y44311D1*
X14681Y44253D1*
X14562Y44217D1*
X14437Y44205D1*
X14313Y44218D1*
X14194Y44255D1*
X14084Y44314D1*
X13988Y44394D1*
X13910Y44491D1*
X13852Y44601D1*
X13816Y44721D1*
X13805Y44840D1*
X13809Y45040D1*
X13818Y45169D1*
X13856Y45288D1*
X13915Y45398D1*
X13996Y45493D1*
X14093Y45572D1*
X14203Y45629D1*
X14323Y45664D1*
X14448Y45675D1*
X14572Y45661D1*
X14691Y45623D1*
X14800Y45563D1*
X14895Y45483D1*
X14937Y45431D1*
X14996Y45493D1*
X15093Y45572D1*
X15203Y45629D1*
X15323Y45664D1*
X15448Y45675D1*
X15572Y45661D1*
X15691Y45623D1*
X15800Y45563D1*
X15895Y45483D1*
X15937Y45431D1*
X10410Y45315D2*
X10391Y45192D1*
X10359Y45071D1*
X10316Y44954D1*
X10260Y44842D1*
X10194Y44736D1*
X10117Y44637D1*
X10031Y44547D1*
X9935Y44466D1*
X9833Y44395D1*
X9723Y44336D1*
X9608Y44287D1*
X9488Y44251D1*
X9366Y44226D1*
X9241Y44215D1*
X9116Y44216D1*
X8992Y44230D1*
X8870Y44256D1*
X8751Y44295D1*
X8637Y44345D1*
X8528Y44407D1*
X8427Y44480D1*
X8333Y44563D1*
X8248Y44654D1*
X8173Y44754D1*
X8109Y44861D1*
X8056Y44974D1*
X8014Y45092D1*
X7985Y45214D1*
X7968Y45338D1*
X7964Y45462D1*
X7973Y45587D1*
X7994Y45710D1*
X8028Y45831D1*
X8073Y45947D1*
X8131Y46058D1*
X8199Y46162D1*
X8278Y46259D1*
X8366Y46348D1*
X8462Y46427D1*
X8567Y46496D1*
X8677Y46554D1*
X8793Y46600D1*
X8914Y46635D1*
X9037Y46657D1*
X9161Y46666D1*
X9286Y46663D1*
X9410Y46646D1*
X9532Y46618D1*
X9650Y46577D1*
X9763Y46524D1*
X9870Y46460D1*
X9971Y46386D1*
X10063Y46301D1*
X10146Y46208D1*
X10219Y46107D1*
X10282Y45999D1*
X10333Y45885D1*
X10372Y45766D1*
X10399Y45644D1*
X10416Y45440D1*
X10410Y45315D1*
X72309D2*
X72289Y45192D1*
X72254Y45072D1*
X72207Y44956D1*
X72147Y44847D1*
X72076Y44744D1*
X71993Y44650D1*
X71901Y44566D1*
X71800Y44493D1*
X71691Y44431D1*
X71576Y44382D1*
X71457Y44346D1*
X71334Y44323D1*
X71209Y44314D1*
X71084Y44319D1*
X70961Y44337D1*
X70840Y44369D1*
X70724Y44415D1*
X70613Y44473D1*
X70509Y44543D1*
X70414Y44623D1*
X70329Y44714D1*
X70253Y44814D1*
X70190Y44922D1*
X70139Y45036D1*
X70100Y45155D1*
X70076Y45277D1*
X70064Y45402D1*
X70067Y45526D1*
X70084Y45650D1*
X70114Y45772D1*
X70157Y45889D1*
X70213Y46000D1*
X70281Y46105D1*
X70360Y46202D1*
X70450Y46289D1*
X70548Y46366D1*
X70655Y46431D1*
X70768Y46484D1*
X70886Y46525D1*
X71008Y46552D1*
X71132Y46565D1*
X71257Y46564D1*
X71381Y46550D1*
X71503Y46522D1*
X71621Y46481D1*
X71734Y46426D1*
X71840Y46360D1*
X71937Y46283D1*
X72026Y46195D1*
X72105Y46097D1*
X72172Y45992D1*
X72227Y45880D1*
X72269Y45762D1*
X72298Y45641D1*
X72316Y45440D1*
X72309Y45315D1*
X24226Y21229D2*
X24249Y21176D1*
X24275Y21003D1*
X24262Y20878D1*
X24222Y20760D1*
X24159Y20653D1*
X24074Y20561D1*
X23972Y20490D1*
X23857Y20442D1*
X23734Y20419D1*
X23609Y20423D1*
X23488Y20453D1*
X23376Y20509D1*
X23300Y20569D1*
D20*
X8940Y10440D3*
X10940D3*
X12940D3*
X14940D3*
X16940D3*
X18940D3*
X20940D3*
X22940D3*
X24940D3*
X26940D3*
X28940D3*
X30940D3*
X32940D3*
X34940D3*
X36940D3*
X38940D3*
X40940D3*
X42940D3*
X44940D3*
X46940D3*
X48940D3*
X50940D3*
X52940D3*
X54940D3*
X56940D3*
X58940D3*
X60940D3*
X62940D3*
X64940D3*
X66940D3*
X68940D3*
X70940D3*
D21*
X12440Y28690D3*
D22*
Y27690D3*
Y26690D3*
Y25690D3*
Y24690D3*
Y23690D3*
Y22690D3*
Y21690D3*
X15440Y28690D3*
Y27690D3*
Y26690D3*
Y25690D3*
Y24690D3*
Y23690D3*
Y22690D3*
Y21690D3*
D21*
X20690Y28690D3*
D22*
Y27690D3*
Y26690D3*
Y25690D3*
Y24690D3*
Y23690D3*
Y22690D3*
Y21690D3*
X23690Y28690D3*
Y27690D3*
Y26690D3*
Y25690D3*
Y24690D3*
Y23690D3*
Y22690D3*
Y21690D3*
D21*
X35940Y28690D3*
D22*
Y27690D3*
Y26690D3*
Y25690D3*
Y24690D3*
Y23690D3*
Y22690D3*
Y21690D3*
X38940Y28690D3*
Y27690D3*
Y26690D3*
Y25690D3*
Y24690D3*
Y23690D3*
Y22690D3*
Y21690D3*
D21*
X43690Y28690D3*
D22*
Y27690D3*
Y26690D3*
Y25690D3*
Y24690D3*
Y23690D3*
Y22690D3*
Y21690D3*
X46690Y28690D3*
Y27690D3*
Y26690D3*
Y25690D3*
Y24690D3*
Y23690D3*
Y22690D3*
Y21690D3*
D21*
X56690Y28690D3*
D22*
Y27690D3*
Y26690D3*
Y25690D3*
Y24690D3*
Y23690D3*
Y22690D3*
Y21690D3*
X59690Y28690D3*
Y27690D3*
Y26690D3*
Y25690D3*
Y24690D3*
Y23690D3*
Y22690D3*
Y21690D3*
D21*
X66440Y28690D3*
D22*
Y27690D3*
Y26690D3*
Y25690D3*
Y24690D3*
Y23690D3*
Y22690D3*
Y21690D3*
X69440Y28690D3*
Y27690D3*
Y26690D3*
Y25690D3*
Y24690D3*
Y23690D3*
Y22690D3*
Y21690D3*
D23*
X11440Y13190D3*
X11940D3*
X12440D3*
X12940D3*
X19690D3*
X20190D3*
X20690D3*
X21190D3*
X27690D3*
X28190D3*
X28690D3*
X29190D3*
X35440D3*
X35940D3*
X36440D3*
X36940D3*
X43190D3*
X43690D3*
X44190D3*
X44690D3*
X51190D3*
X51690D3*
X52190D3*
X52690D3*
X59190D3*
X59690D3*
X60190D3*
X60690D3*
X67190D3*
X67690D3*
X68190D3*
X68690D3*
D24*
X11190Y15190D3*
Y18690D3*
X12190Y15190D3*
Y18690D3*
X13190Y15190D3*
Y18690D3*
X19190Y15190D3*
Y18690D3*
X20440Y15190D3*
Y18690D3*
X21690Y15190D3*
Y18690D3*
X27440Y15190D3*
Y18690D3*
X28690Y15190D3*
Y18690D3*
X29940Y15190D3*
Y18690D3*
X34940Y15190D3*
Y18690D3*
X35940Y15190D3*
Y18690D3*
X36940Y15190D3*
Y18690D3*
X42190Y15190D3*
Y18690D3*
X43440Y15190D3*
Y18690D3*
X44690Y15190D3*
Y18690D3*
X50440Y15190D3*
Y18690D3*
X51690Y15190D3*
Y18690D3*
X52940Y15190D3*
Y18690D3*
X59440Y15190D3*
Y18690D3*
X60690Y15190D3*
Y18690D3*
X61940Y15190D3*
Y18690D3*
X66940Y15190D3*
Y18690D3*
X67940Y15190D3*
Y18690D3*
X68940Y15190D3*
Y18690D3*
X39940Y27190D3*
Y22190D3*
D21*
X35690Y45690D3*
D15*
Y44690D3*
Y43690D3*
Y42690D3*
Y41690D3*
Y40690D3*
Y39690D3*
Y38690D3*
Y37690D3*
Y36690D3*
Y35690D3*
Y34690D3*
Y33690D3*
Y32690D3*
Y31690D3*
Y30690D3*
X36690D3*
X37690D3*
X38690D3*
X39690D3*
X40690D3*
X41690D3*
X42690D3*
X43690D3*
X44690D3*
X45690D3*
X46690D3*
Y31690D3*
Y32690D3*
Y33690D3*
Y34690D3*
Y35690D3*
Y36690D3*
Y37690D3*
Y38690D3*
Y39690D3*
Y40690D3*
Y41690D3*
Y42690D3*
Y43690D3*
Y44690D3*
Y45690D3*
X45690Y31690D3*
X44690D3*
X43690D3*
X42690D3*
X41690D3*
X40690D3*
X39690D3*
X38690D3*
X37690D3*
X36690D3*
X44690Y33690D3*
Y32690D3*
X45690Y33690D3*
Y32690D3*
D25*
X64440Y35440D3*
X65440D3*
X66440D3*
D20*
X53440Y43940D3*
X55440D3*
X57440D3*
X59440D3*
D26*
X65440Y33940D3*
X69440D3*
X62940Y32440D3*
Y35440D3*
X65440Y31440D3*
X68440D3*
D27*
X63070Y19690D3*
D28*
Y18690D3*
Y17690D3*
D21*
X21440Y44940D3*
D29*
X20440D3*
X19440D3*
X18440D3*
X17440D3*
X16440D3*
X15440D3*
X14440D3*
X21440Y41940D3*
X20440D3*
X19440D3*
X18440D3*
X17440D3*
X16440D3*
X15440D3*
X14440D3*
D27*
X18190Y47815D3*
D28*
X19190D3*
X20190D3*
X21190D3*
X22190D3*
M02*
