G04 DipTrace 2.4.0.2*
%INhorowitzv.1.2_TopSilk.GTO*%
%MOIN*%
%ADD10C,0.0098*%
%ADD13C,0.02*%
%ADD65C,0.0077*%
%ADD66C,0.0154*%
%ADD67C,0.0093*%
%ADD68C,0.0262*%
%FSLAX44Y44*%
G04*
G70*
G90*
G75*
G01*
%LNTopSilk*%
%LPD*%
X7940Y6440D2*
D10*
X15940D1*
Y11440D1*
X7940D1*
Y6440D1*
X15940D2*
X23940D1*
Y11440D1*
X15940D1*
Y6440D1*
X23940D2*
X31940D1*
Y11440D1*
X23940D1*
Y6440D1*
X31940D2*
X39940D1*
Y11440D1*
X31940D1*
Y6440D1*
X39940D2*
X47940D1*
Y11440D1*
X39940D1*
Y6440D1*
X47940D2*
X55940D1*
Y11440D1*
X47940D1*
Y6440D1*
X55940D2*
X63940D1*
Y11440D1*
X55940D1*
Y6440D1*
X63940D2*
X71940D1*
Y11440D1*
X63940D1*
Y6440D1*
X13690Y29190D2*
X12940D1*
Y21190D1*
X14940D1*
Y29190D1*
X14190D1*
X14440D1*
X13690D2*
G03X14190Y29190I250J0D01*
G01*
X21940D2*
X21190D1*
Y21190D1*
X23190D1*
Y29190D1*
X22440D1*
X22690D1*
X21940D2*
G03X22440Y29190I250J0D01*
G01*
X37190D2*
X36440D1*
Y21190D1*
X38440D1*
Y29190D1*
X37690D1*
X37940D1*
X37190D2*
G03X37690Y29190I250J0D01*
G01*
X44940D2*
X44190D1*
Y21190D1*
X46190D1*
Y29190D1*
X45440D1*
X45690D1*
X44940D2*
G03X45440Y29190I250J0D01*
G01*
X57940D2*
X57190D1*
Y21190D1*
X59190D1*
Y29190D1*
X58440D1*
X58690D1*
X57940D2*
G03X58440Y29190I250J0D01*
G01*
X67690D2*
X66940D1*
Y21190D1*
X68940D1*
Y29190D1*
X68190D1*
X68440D1*
X67690D2*
G03X68190Y29190I250J0D01*
G01*
X11190Y13690D2*
Y12690D1*
Y13690D2*
G02X11190Y12690I937J-500D01*
G01*
X19440Y13690D2*
Y12690D1*
Y13690D2*
G02X19440Y12690I937J-500D01*
G01*
X27440Y13690D2*
Y12690D1*
Y13690D2*
G02X27440Y12690I937J-500D01*
G01*
X35190Y13690D2*
Y12690D1*
Y13690D2*
G02X35190Y12690I937J-500D01*
G01*
X42940Y13690D2*
Y12690D1*
Y13690D2*
G02X42940Y12690I937J-500D01*
G01*
X50940Y13690D2*
Y12690D1*
Y13690D2*
G02X50940Y12690I937J-500D01*
G01*
X58940Y13690D2*
Y12690D1*
Y13690D2*
G02X58940Y12690I937J-500D01*
G01*
X66940Y13690D2*
Y12690D1*
Y13690D2*
G02X66940Y12690I937J-500D01*
G01*
X11190Y18190D2*
Y17690D1*
Y16190D2*
Y15690D1*
X12190Y18190D2*
Y17690D1*
Y16190D2*
Y15690D1*
X13190Y18190D2*
Y17690D1*
Y16190D2*
Y15690D1*
X19190Y18190D2*
Y17690D1*
Y16190D2*
Y15690D1*
X20440Y18190D2*
Y17690D1*
Y16190D2*
Y15690D1*
X21690Y18190D2*
Y17690D1*
Y16190D2*
Y15690D1*
X27440Y18190D2*
Y17690D1*
Y16190D2*
Y15690D1*
X28690Y18190D2*
Y17690D1*
Y16190D2*
Y15690D1*
X29940Y18190D2*
Y17690D1*
Y16190D2*
Y15690D1*
X34940Y18190D2*
Y17690D1*
Y16190D2*
Y15690D1*
X35940Y18190D2*
Y17690D1*
Y16190D2*
Y15690D1*
X36940Y18190D2*
Y17690D1*
Y16190D2*
Y15690D1*
X42190Y18190D2*
Y17690D1*
Y16190D2*
Y15690D1*
X43440Y18190D2*
Y17690D1*
Y16190D2*
Y15690D1*
X44690Y18190D2*
Y17690D1*
Y16190D2*
Y15690D1*
X50440Y18190D2*
Y17690D1*
Y16190D2*
Y15690D1*
X51690Y18190D2*
Y17690D1*
Y16190D2*
Y15690D1*
X52940Y18190D2*
Y17690D1*
Y16190D2*
Y15690D1*
X59440Y18190D2*
Y17690D1*
Y16190D2*
Y15690D1*
X60690Y18190D2*
Y17690D1*
Y16190D2*
Y15690D1*
X61940Y18190D2*
Y17690D1*
Y16190D2*
Y15690D1*
X66940Y18190D2*
Y17690D1*
Y16190D2*
Y15690D1*
X67940Y18190D2*
Y17690D1*
Y16190D2*
Y15690D1*
X68940Y18190D2*
Y17690D1*
Y16190D2*
Y15690D1*
X39940Y26690D2*
Y25690D1*
Y22690D2*
Y23690D1*
X52440Y47940D2*
X60440D1*
Y42940D1*
X52440D1*
Y47940D1*
X66440Y34440D2*
X68440D1*
Y33440D1*
X66440D1*
Y34440D1*
X67940Y33440D2*
Y34440D1*
X61940Y34190D2*
X63940D1*
X61940Y33690D2*
X63940D1*
X62940Y34190D2*
Y34690D1*
Y33690D2*
Y32940D1*
X67190Y32440D2*
Y30440D1*
X66690Y32440D2*
Y30440D1*
X67190Y31440D2*
X67690D1*
X66690D2*
X65940D1*
X63570Y20190D2*
X62570D1*
Y17190D1*
X63570D1*
Y20190D1*
X21940Y43690D2*
Y44440D1*
X13940D1*
Y42440D1*
X21940D1*
Y43190D1*
Y42940D1*
Y43690D2*
G03X21940Y43190I0J-250D01*
G01*
X17690Y48315D2*
X22690D1*
Y47315D1*
X17690D1*
Y48315D1*
X14190Y37190D2*
D13*
X29190D1*
Y33190D1*
X14190D1*
Y37190D1*
X13659Y24080D2*
D65*
X14161D1*
Y24367D1*
X13779Y24545D2*
X13755D1*
X13707Y24569D1*
X13683Y24593D1*
X13659Y24641D1*
Y24737D1*
X13683Y24784D1*
X13707Y24808D1*
X13755Y24832D1*
X13802D1*
X13850Y24808D1*
X13922Y24760D1*
X14161Y24521D1*
Y24856D1*
X13826Y25322D2*
X13898Y25297D1*
X13946Y25250D1*
X13970Y25178D1*
Y25154D1*
X13946Y25082D1*
X13898Y25035D1*
X13826Y25010D1*
X13802D1*
X13731Y25035D1*
X13683Y25082D1*
X13659Y25154D1*
Y25178D1*
X13683Y25250D1*
X13731Y25297D1*
X13826Y25322D1*
X13946D1*
X14065Y25297D1*
X14137Y25250D1*
X14161Y25178D1*
Y25130D1*
X14137Y25058D1*
X14089Y25035D1*
X13659Y25524D2*
Y25787D1*
X13850Y25643D1*
Y25715D1*
X13874Y25763D1*
X13898Y25787D1*
X13970Y25811D1*
X14017D1*
X14089Y25787D1*
X14137Y25739D1*
X14161Y25667D1*
Y25595D1*
X14137Y25524D1*
X14113Y25500D1*
X14065Y25476D1*
X13659Y25965D2*
X14161D1*
Y26133D1*
X14137Y26205D1*
X14089Y26253D1*
X14041Y26276D1*
X13970Y26300D1*
X13850D1*
X13778Y26276D1*
X13731Y26253D1*
X13682Y26205D1*
X13659Y26133D1*
Y25965D1*
X21909Y24080D2*
X22411D1*
Y24367D1*
X22029Y24545D2*
X22005D1*
X21957Y24569D1*
X21933Y24593D1*
X21909Y24641D1*
Y24737D1*
X21933Y24784D1*
X21957Y24808D1*
X22005Y24832D1*
X22052D1*
X22100Y24808D1*
X22172Y24760D1*
X22411Y24521D1*
Y24856D1*
X22076Y25322D2*
X22148Y25297D1*
X22196Y25250D1*
X22220Y25178D1*
Y25154D1*
X22196Y25082D1*
X22148Y25035D1*
X22076Y25010D1*
X22052D1*
X21981Y25035D1*
X21933Y25082D1*
X21909Y25154D1*
Y25178D1*
X21933Y25250D1*
X21981Y25297D1*
X22076Y25322D1*
X22196D1*
X22315Y25297D1*
X22387Y25250D1*
X22411Y25178D1*
Y25130D1*
X22387Y25058D1*
X22339Y25035D1*
X21909Y25524D2*
Y25787D1*
X22100Y25643D1*
Y25715D1*
X22124Y25763D1*
X22148Y25787D1*
X22220Y25811D1*
X22267D1*
X22339Y25787D1*
X22387Y25739D1*
X22411Y25667D1*
Y25595D1*
X22387Y25524D1*
X22363Y25500D1*
X22315Y25476D1*
X21909Y25965D2*
X22411D1*
Y26133D1*
X22387Y26205D1*
X22339Y26253D1*
X22291Y26276D1*
X22220Y26300D1*
X22100D1*
X22028Y26276D1*
X21981Y26253D1*
X21932Y26205D1*
X21909Y26133D1*
Y25965D1*
X37159Y24080D2*
X37661D1*
Y24367D1*
X37279Y24545D2*
X37255D1*
X37207Y24569D1*
X37183Y24593D1*
X37159Y24641D1*
Y24737D1*
X37183Y24784D1*
X37207Y24808D1*
X37255Y24832D1*
X37302D1*
X37350Y24808D1*
X37422Y24760D1*
X37661Y24521D1*
Y24856D1*
X37326Y25322D2*
X37398Y25297D1*
X37446Y25250D1*
X37470Y25178D1*
Y25154D1*
X37446Y25082D1*
X37398Y25035D1*
X37326Y25010D1*
X37302D1*
X37231Y25035D1*
X37183Y25082D1*
X37159Y25154D1*
Y25178D1*
X37183Y25250D1*
X37231Y25297D1*
X37326Y25322D1*
X37446D1*
X37565Y25297D1*
X37637Y25250D1*
X37661Y25178D1*
Y25130D1*
X37637Y25058D1*
X37589Y25035D1*
X37159Y25524D2*
Y25787D1*
X37350Y25643D1*
Y25715D1*
X37374Y25763D1*
X37398Y25787D1*
X37470Y25811D1*
X37517D1*
X37589Y25787D1*
X37637Y25739D1*
X37661Y25667D1*
Y25595D1*
X37637Y25524D1*
X37613Y25500D1*
X37565Y25476D1*
X37159Y25965D2*
X37661D1*
Y26133D1*
X37637Y26205D1*
X37589Y26253D1*
X37541Y26276D1*
X37470Y26300D1*
X37350D1*
X37278Y26276D1*
X37231Y26253D1*
X37182Y26205D1*
X37159Y26133D1*
Y25965D1*
X44909Y24080D2*
X45411D1*
Y24367D1*
X45029Y24545D2*
X45005D1*
X44957Y24569D1*
X44933Y24593D1*
X44909Y24641D1*
Y24737D1*
X44933Y24784D1*
X44957Y24808D1*
X45005Y24832D1*
X45052D1*
X45100Y24808D1*
X45172Y24760D1*
X45411Y24521D1*
Y24856D1*
X45076Y25322D2*
X45148Y25297D1*
X45196Y25250D1*
X45220Y25178D1*
Y25154D1*
X45196Y25082D1*
X45148Y25035D1*
X45076Y25010D1*
X45052D1*
X44981Y25035D1*
X44933Y25082D1*
X44909Y25154D1*
Y25178D1*
X44933Y25250D1*
X44981Y25297D1*
X45076Y25322D1*
X45196D1*
X45315Y25297D1*
X45387Y25250D1*
X45411Y25178D1*
Y25130D1*
X45387Y25058D1*
X45339Y25035D1*
X44909Y25524D2*
Y25787D1*
X45100Y25643D1*
Y25715D1*
X45124Y25763D1*
X45148Y25787D1*
X45220Y25811D1*
X45267D1*
X45339Y25787D1*
X45387Y25739D1*
X45411Y25667D1*
Y25595D1*
X45387Y25524D1*
X45363Y25500D1*
X45315Y25476D1*
X44909Y25965D2*
X45411D1*
Y26133D1*
X45387Y26205D1*
X45339Y26253D1*
X45291Y26276D1*
X45220Y26300D1*
X45100D1*
X45028Y26276D1*
X44981Y26253D1*
X44932Y26205D1*
X44909Y26133D1*
Y25965D1*
X57909Y24080D2*
X58411D1*
Y24367D1*
X58029Y24545D2*
X58005D1*
X57957Y24569D1*
X57933Y24593D1*
X57909Y24641D1*
Y24737D1*
X57933Y24784D1*
X57957Y24808D1*
X58005Y24832D1*
X58052D1*
X58100Y24808D1*
X58172Y24760D1*
X58411Y24521D1*
Y24856D1*
X58076Y25322D2*
X58148Y25297D1*
X58196Y25250D1*
X58220Y25178D1*
Y25154D1*
X58196Y25082D1*
X58148Y25035D1*
X58076Y25010D1*
X58052D1*
X57981Y25035D1*
X57933Y25082D1*
X57909Y25154D1*
Y25178D1*
X57933Y25250D1*
X57981Y25297D1*
X58076Y25322D1*
X58196D1*
X58315Y25297D1*
X58387Y25250D1*
X58411Y25178D1*
Y25130D1*
X58387Y25058D1*
X58339Y25035D1*
X57909Y25524D2*
Y25787D1*
X58100Y25643D1*
Y25715D1*
X58124Y25763D1*
X58148Y25787D1*
X58220Y25811D1*
X58267D1*
X58339Y25787D1*
X58387Y25739D1*
X58411Y25667D1*
Y25595D1*
X58387Y25524D1*
X58363Y25500D1*
X58315Y25476D1*
X57909Y25965D2*
X58411D1*
Y26133D1*
X58387Y26205D1*
X58339Y26253D1*
X58291Y26276D1*
X58220Y26300D1*
X58100D1*
X58028Y26276D1*
X57981Y26253D1*
X57932Y26205D1*
X57909Y26133D1*
Y25965D1*
X67659Y24080D2*
X68161D1*
Y24367D1*
X67779Y24545D2*
X67755D1*
X67707Y24569D1*
X67683Y24593D1*
X67659Y24641D1*
Y24737D1*
X67683Y24784D1*
X67707Y24808D1*
X67755Y24832D1*
X67802D1*
X67850Y24808D1*
X67922Y24760D1*
X68161Y24521D1*
Y24856D1*
X67826Y25322D2*
X67898Y25297D1*
X67946Y25250D1*
X67970Y25178D1*
Y25154D1*
X67946Y25082D1*
X67898Y25035D1*
X67826Y25010D1*
X67802D1*
X67731Y25035D1*
X67683Y25082D1*
X67659Y25154D1*
Y25178D1*
X67683Y25250D1*
X67731Y25297D1*
X67826Y25322D1*
X67946D1*
X68065Y25297D1*
X68137Y25250D1*
X68161Y25178D1*
Y25130D1*
X68137Y25058D1*
X68089Y25035D1*
X67659Y25524D2*
Y25787D1*
X67850Y25643D1*
Y25715D1*
X67874Y25763D1*
X67898Y25787D1*
X67970Y25811D1*
X68017D1*
X68089Y25787D1*
X68137Y25739D1*
X68161Y25667D1*
Y25595D1*
X68137Y25524D1*
X68113Y25500D1*
X68065Y25476D1*
X67659Y25965D2*
X68161D1*
Y26133D1*
X68137Y26205D1*
X68089Y26253D1*
X68041Y26276D1*
X67970Y26300D1*
X67850D1*
X67778Y26276D1*
X67731Y26253D1*
X67682Y26205D1*
X67659Y26133D1*
Y25965D1*
X11005Y16635D2*
X10981Y16683D1*
X10909Y16755D1*
X11411D1*
X10909Y16910D2*
X11411D1*
X10909Y17245D2*
X11244Y16910D1*
X11124Y17029D2*
X11411Y17245D1*
X12005Y16671D2*
X11981Y16719D1*
X11909Y16791D1*
X12411D1*
X11909Y16946D2*
X12411D1*
X12076Y17185D2*
X12315Y16946D1*
X12220Y17041D2*
X12411Y17209D1*
X13005Y16635D2*
X12981Y16683D1*
X12909Y16755D1*
X13411D1*
X12909Y16910D2*
X13411D1*
X12909Y17245D2*
X13244Y16910D1*
X13124Y17029D2*
X13411Y17245D1*
X19005Y16635D2*
X18981Y16683D1*
X18909Y16755D1*
X19411D1*
X18909Y16910D2*
X19411D1*
X18909Y17245D2*
X19244Y16910D1*
X19124Y17029D2*
X19411Y17245D1*
X20255Y16671D2*
X20231Y16719D1*
X20159Y16791D1*
X20661D1*
X20159Y16946D2*
X20661D1*
X20326Y17185D2*
X20565Y16946D1*
X20470Y17041D2*
X20661Y17209D1*
X21505Y16635D2*
X21481Y16683D1*
X21409Y16755D1*
X21911D1*
X21409Y16910D2*
X21911D1*
X21409Y17245D2*
X21744Y16910D1*
X21624Y17029D2*
X21911Y17245D1*
X27255Y16635D2*
X27231Y16683D1*
X27159Y16755D1*
X27661D1*
X27159Y16910D2*
X27661D1*
X27159Y17245D2*
X27494Y16910D1*
X27374Y17029D2*
X27661Y17245D1*
X28505Y16671D2*
X28481Y16719D1*
X28409Y16791D1*
X28911D1*
X28409Y16946D2*
X28911D1*
X28576Y17185D2*
X28815Y16946D1*
X28720Y17041D2*
X28911Y17209D1*
X29755Y16635D2*
X29731Y16683D1*
X29659Y16755D1*
X30161D1*
X29659Y16910D2*
X30161D1*
X29659Y17245D2*
X29994Y16910D1*
X29874Y17029D2*
X30161Y17245D1*
X34755Y16635D2*
X34731Y16683D1*
X34659Y16755D1*
X35161D1*
X34659Y16910D2*
X35161D1*
X34659Y17245D2*
X34994Y16910D1*
X34874Y17029D2*
X35161Y17245D1*
X35755Y16671D2*
X35731Y16719D1*
X35659Y16791D1*
X36161D1*
X35659Y16946D2*
X36161D1*
X35826Y17185D2*
X36065Y16946D1*
X35970Y17041D2*
X36161Y17209D1*
X36755Y16635D2*
X36731Y16683D1*
X36659Y16755D1*
X37161D1*
X36659Y16910D2*
X37161D1*
X36659Y17245D2*
X36994Y16910D1*
X36874Y17029D2*
X37161Y17245D1*
X42005Y16635D2*
X41981Y16683D1*
X41909Y16755D1*
X42411D1*
X41909Y16910D2*
X42411D1*
X41909Y17245D2*
X42244Y16910D1*
X42124Y17029D2*
X42411Y17245D1*
X43255Y16671D2*
X43231Y16719D1*
X43159Y16791D1*
X43661D1*
X43159Y16946D2*
X43661D1*
X43326Y17185D2*
X43565Y16946D1*
X43470Y17041D2*
X43661Y17209D1*
X44505Y16635D2*
X44481Y16683D1*
X44409Y16755D1*
X44911D1*
X44409Y16910D2*
X44911D1*
X44409Y17245D2*
X44744Y16910D1*
X44624Y17029D2*
X44911Y17245D1*
X50255Y16635D2*
X50231Y16683D1*
X50159Y16755D1*
X50661D1*
X50159Y16910D2*
X50661D1*
X50159Y17245D2*
X50494Y16910D1*
X50374Y17029D2*
X50661Y17245D1*
X51505Y16671D2*
X51481Y16719D1*
X51409Y16791D1*
X51911D1*
X51409Y16946D2*
X51911D1*
X51576Y17185D2*
X51815Y16946D1*
X51720Y17041D2*
X51911Y17209D1*
X52755Y16635D2*
X52731Y16683D1*
X52659Y16755D1*
X53161D1*
X52659Y16910D2*
X53161D1*
X52659Y17245D2*
X52994Y16910D1*
X52874Y17029D2*
X53161Y17245D1*
X59255Y16635D2*
X59231Y16683D1*
X59159Y16755D1*
X59661D1*
X59159Y16910D2*
X59661D1*
X59159Y17245D2*
X59494Y16910D1*
X59374Y17029D2*
X59661Y17245D1*
X60505Y16671D2*
X60481Y16719D1*
X60409Y16791D1*
X60911D1*
X60409Y16946D2*
X60911D1*
X60576Y17185D2*
X60815Y16946D1*
X60720Y17041D2*
X60911Y17209D1*
X61755Y16635D2*
X61731Y16683D1*
X61659Y16755D1*
X62161D1*
X61659Y16910D2*
X62161D1*
X61659Y17245D2*
X61994Y16910D1*
X61874Y17029D2*
X62161Y17245D1*
X66755Y16635D2*
X66731Y16683D1*
X66659Y16755D1*
X67161D1*
X66659Y16910D2*
X67161D1*
X66659Y17245D2*
X66994Y16910D1*
X66874Y17029D2*
X67161Y17245D1*
X67755Y16671D2*
X67731Y16719D1*
X67659Y16791D1*
X68161D1*
X67659Y16946D2*
X68161D1*
X67826Y17185D2*
X68065Y16946D1*
X67970Y17041D2*
X68161Y17209D1*
X68755Y16635D2*
X68731Y16683D1*
X68659Y16755D1*
X69161D1*
X68659Y16910D2*
X69161D1*
X68659Y17245D2*
X68994Y16910D1*
X68874Y17029D2*
X69161Y17245D1*
X39755Y24141D2*
X39731Y24189D1*
X39659Y24261D1*
X40161D1*
X39659Y24559D2*
X39683Y24487D1*
X39755Y24439D1*
X39874Y24415D1*
X39946D1*
X40065Y24439D1*
X40137Y24487D1*
X40161Y24559D1*
Y24606D1*
X40137Y24678D1*
X40065Y24726D1*
X39946Y24750D1*
X39874D1*
X39755Y24726D1*
X39683Y24678D1*
X39659Y24606D1*
Y24559D1*
X39755Y24726D2*
X40065Y24439D1*
X39659Y24904D2*
X40161D1*
X39659Y25239D2*
X39994Y24904D1*
X39874Y25024D2*
X40161Y25239D1*
X41076Y37564D2*
X41411Y37707D1*
X41076Y37850D1*
X41005Y38005D2*
X40981Y38053D1*
X40909Y38125D1*
X41411D1*
X41363Y38303D2*
X41387Y38279D1*
X41411Y38303D1*
X41387Y38327D1*
X41363Y38303D1*
X40909Y38625D2*
X40933Y38553D1*
X41005Y38505D1*
X41124Y38482D1*
X41196D1*
X41315Y38505D1*
X41387Y38553D1*
X41411Y38625D1*
Y38673D1*
X41387Y38745D1*
X41315Y38792D1*
X41196Y38816D1*
X41124D1*
X41005Y38792D1*
X40933Y38745D1*
X40909Y38673D1*
Y38625D1*
X41005Y38792D2*
X41315Y38505D1*
X16830Y43822D2*
Y43320D1*
X17117D1*
X17295Y43702D2*
Y43726D1*
X17319Y43774D1*
X17343Y43798D1*
X17391Y43822D1*
X17487D1*
X17534Y43798D1*
X17558Y43774D1*
X17582Y43726D1*
Y43679D1*
X17558Y43630D1*
X17510Y43559D1*
X17271Y43320D1*
X17606D1*
X18072Y43655D2*
X18047Y43583D1*
X18000Y43535D1*
X17928Y43511D1*
X17904D1*
X17832Y43535D1*
X17785Y43583D1*
X17760Y43655D1*
Y43679D1*
X17785Y43750D1*
X17832Y43798D1*
X17904Y43822D1*
X17928D1*
X18000Y43798D1*
X18047Y43750D1*
X18072Y43655D1*
Y43535D1*
X18047Y43415D1*
X18000Y43344D1*
X17928Y43320D1*
X17880D1*
X17808Y43344D1*
X17785Y43392D1*
X18274Y43822D2*
X18537D1*
X18393Y43630D1*
X18465D1*
X18513Y43607D1*
X18537Y43583D1*
X18561Y43511D1*
Y43464D1*
X18537Y43392D1*
X18489Y43344D1*
X18417Y43320D1*
X18345D1*
X18274Y43344D1*
X18250Y43368D1*
X18226Y43415D1*
X18715Y43822D2*
Y43320D1*
X18883D1*
X18955Y43344D1*
X19003Y43392D1*
X19026Y43440D1*
X19050Y43511D1*
Y43631D1*
X19026Y43703D1*
X19003Y43750D1*
X18955Y43798D1*
X18883Y43822D1*
X18715D1*
X15860Y36659D2*
D66*
X15765Y36755D1*
X15621Y36803D1*
X15430D1*
X15286Y36755D1*
X15190Y36659D1*
Y36564D1*
X15239Y36468D1*
X15286Y36421D1*
X15381Y36373D1*
X15669Y36277D1*
X15765Y36229D1*
X15812Y36181D1*
X15860Y36086D1*
Y35942D1*
X15765Y35847D1*
X15621Y35798D1*
X15430D1*
X15286Y35847D1*
X15190Y35942D1*
X16407Y36468D2*
X16312Y36421D1*
X16216Y36324D1*
X16169Y36181D1*
Y36086D1*
X16216Y35942D1*
X16312Y35847D1*
X16407Y35798D1*
X16551D1*
X16647Y35847D1*
X16742Y35942D1*
X16791Y36086D1*
Y36181D1*
X16742Y36324D1*
X16647Y36421D1*
X16551Y36468D1*
X16407D1*
X17100D2*
Y35798D1*
Y36277D2*
X17243Y36421D1*
X17340Y36468D1*
X17482D1*
X17578Y36421D1*
X17626Y36277D1*
Y35798D1*
X18508Y36468D2*
Y35798D1*
Y36324D2*
X18413Y36421D1*
X18317Y36468D1*
X18175D1*
X18078Y36421D1*
X17983Y36324D1*
X17935Y36181D1*
Y36086D1*
X17983Y35942D1*
X18078Y35847D1*
X18175Y35798D1*
X18317D1*
X18413Y35847D1*
X18508Y35942D1*
X18817Y36803D2*
Y35798D1*
X19296Y36468D2*
X18817Y35989D1*
X19008Y36181D2*
X19343Y35798D1*
X19652Y36803D2*
X19700Y36755D1*
X19748Y36803D1*
X19700Y36852D1*
X19652Y36803D1*
X19700Y36468D2*
Y35798D1*
X20057Y36468D2*
Y35798D1*
Y36277D2*
X20201Y36421D1*
X20297Y36468D1*
X20440D1*
X20536Y36421D1*
X20583Y36277D1*
Y35798D1*
X21466Y36468D2*
Y35798D1*
Y36324D2*
X21371Y36421D1*
X21275Y36468D1*
X21132D1*
X21036Y36421D1*
X20941Y36324D1*
X20892Y36181D1*
Y36086D1*
X20941Y35942D1*
X21036Y35847D1*
X21132Y35798D1*
X21275D1*
X21371Y35847D1*
X21466Y35942D1*
X21918Y36803D2*
Y35989D1*
X21966Y35847D1*
X22062Y35798D1*
X22157D1*
X21775Y36468D2*
X22109D1*
X22705D2*
X22609Y36421D1*
X22513Y36324D1*
X22466Y36181D1*
Y36086D1*
X22513Y35942D1*
X22609Y35847D1*
X22705Y35798D1*
X22848D1*
X22944Y35847D1*
X23039Y35942D1*
X23088Y36086D1*
Y36181D1*
X23039Y36324D1*
X22944Y36421D1*
X22848Y36468D1*
X22705D1*
X23971Y36421D2*
Y35655D1*
X23923Y35512D1*
X23876Y35463D1*
X23779Y35416D1*
X23636D1*
X23541Y35463D1*
X23971Y36277D2*
X23876Y36372D1*
X23779Y36421D1*
X23636D1*
X23541Y36372D1*
X23444Y36277D1*
X23397Y36133D1*
Y36037D1*
X23444Y35894D1*
X23541Y35798D1*
X23636Y35751D1*
X23779D1*
X23876Y35798D1*
X23971Y35894D1*
X24279Y36468D2*
Y35798D1*
Y36181D2*
X24328Y36324D1*
X24423Y36421D1*
X24519Y36468D1*
X24663D1*
X25545D2*
Y35798D1*
Y36324D2*
X25450Y36421D1*
X25354Y36468D1*
X25212D1*
X25115Y36421D1*
X25020Y36324D1*
X24972Y36181D1*
Y36086D1*
X25020Y35942D1*
X25115Y35847D1*
X25212Y35798D1*
X25354D1*
X25450Y35847D1*
X25545Y35942D1*
X25854Y36468D2*
Y35463D1*
Y36324D2*
X25950Y36419D1*
X26045Y36468D1*
X26189D1*
X26285Y36419D1*
X26380Y36324D1*
X26429Y36181D1*
Y36085D1*
X26380Y35942D1*
X26285Y35846D1*
X26189Y35798D1*
X26045D1*
X25950Y35846D1*
X25854Y35942D1*
X26738Y36803D2*
Y35798D1*
Y36277D2*
X26882Y36421D1*
X26978Y36468D1*
X27121D1*
X27216Y36421D1*
X27264Y36277D1*
Y35798D1*
X27621Y36468D2*
X27908Y35798D1*
X27813Y35607D1*
X27716Y35511D1*
X27621Y35463D1*
X27573D1*
X28195Y36468D2*
X27908Y35798D1*
X64292Y20020D2*
D67*
Y19504D1*
X64034Y19762D2*
X64551D1*
X64736Y20064D2*
X64966Y19461D1*
X65195Y20064D1*
X64207Y17938D2*
X64120Y17910D1*
X64063Y17823D1*
X64034Y17680D1*
Y17594D1*
X64063Y17451D1*
X64120Y17364D1*
X64207Y17336D1*
X64264D1*
X64350Y17364D1*
X64407Y17451D1*
X64436Y17594D1*
Y17680D1*
X64407Y17823D1*
X64350Y17910D1*
X64264Y17938D1*
X64207D1*
X64407Y17823D2*
X64063Y17451D1*
X64621Y17939D2*
X64851Y17336D1*
X65080Y17939D1*
X64465Y18920D2*
X64436Y18977D1*
X64378Y19035D1*
X64321Y19064D1*
X64207D1*
X64149Y19035D1*
X64092Y18977D1*
X64063Y18920D1*
X64034Y18834D1*
Y18690D1*
X64063Y18605D1*
X64092Y18547D1*
X64149Y18490D1*
X64207Y18461D1*
X64321D1*
X64378Y18490D1*
X64436Y18547D1*
X64465Y18605D1*
X64793Y18863D2*
X64736Y18834D1*
X64678Y18777D1*
X64650Y18690D1*
Y18633D1*
X64678Y18547D1*
X64736Y18490D1*
X64793Y18461D1*
X64879D1*
X64937Y18490D1*
X64994Y18547D1*
X65023Y18633D1*
Y18690D1*
X64994Y18777D1*
X64937Y18834D1*
X64879Y18863D1*
X64793D1*
X65209D2*
Y18461D1*
Y18748D2*
X65295Y18834D1*
X65352Y18863D1*
X65438D1*
X65496Y18834D1*
X65524Y18748D1*
Y18461D1*
Y18748D2*
X65610Y18834D1*
X65668Y18863D1*
X65754D1*
X65811Y18834D1*
X65841Y18748D1*
Y18461D1*
X61690Y22095D2*
X61661Y22152D1*
X61603Y22210D1*
X61546Y22239D1*
X61432D1*
X61374Y22210D1*
X61317Y22152D1*
X61288Y22095D1*
X61259Y22009D1*
Y21865D1*
X61288Y21780D1*
X61317Y21722D1*
X61374Y21665D1*
X61432Y21636D1*
X61546D1*
X61603Y21665D1*
X61661Y21722D1*
X61690Y21780D1*
X62018Y22038D2*
X61961Y22009D1*
X61903Y21952D1*
X61875Y21865D1*
Y21808D1*
X61903Y21722D1*
X61961Y21665D1*
X62018Y21636D1*
X62104D1*
X62162Y21665D1*
X62219Y21722D1*
X62248Y21808D1*
Y21865D1*
X62219Y21952D1*
X62162Y22009D1*
X62104Y22038D1*
X62018D1*
X62434D2*
Y21636D1*
Y21923D2*
X62520Y22009D1*
X62577Y22038D1*
X62663D1*
X62721Y22009D1*
X62749Y21923D1*
Y21636D1*
Y21923D2*
X62835Y22009D1*
X62893Y22038D1*
X62979D1*
X63036Y22009D1*
X63066Y21923D1*
Y21636D1*
X63251Y22038D2*
Y21636D1*
Y21923D2*
X63337Y22009D1*
X63395Y22038D1*
X63480D1*
X63538Y22009D1*
X63567Y21923D1*
Y21636D1*
Y21923D2*
X63653Y22009D1*
X63710Y22038D1*
X63796D1*
X63854Y22009D1*
X63883Y21923D1*
Y21636D1*
X64211Y22038D2*
X64154Y22009D1*
X64097Y21952D1*
X64068Y21865D1*
Y21808D1*
X64097Y21722D1*
X64154Y21665D1*
X64211Y21636D1*
X64298D1*
X64355Y21665D1*
X64412Y21722D1*
X64442Y21808D1*
Y21865D1*
X64412Y21952D1*
X64355Y22009D1*
X64298Y22038D1*
X64211D1*
X64627D2*
Y21636D1*
Y21923D2*
X64713Y22009D1*
X64771Y22038D1*
X64856D1*
X64914Y22009D1*
X64943Y21923D1*
Y21636D1*
X61027Y21265D2*
X60999Y21322D1*
X60941Y21380D1*
X60884Y21409D1*
X60769D1*
X60711Y21380D1*
X60654Y21322D1*
X60625Y21265D1*
X60597Y21179D1*
Y21035D1*
X60625Y20950D1*
X60654Y20892D1*
X60711Y20835D1*
X60769Y20806D1*
X60884D1*
X60941Y20835D1*
X60999Y20892D1*
X61027Y20950D1*
X61356Y21208D2*
X61299Y21179D1*
X61241Y21122D1*
X61212Y21035D1*
Y20978D1*
X61241Y20892D1*
X61299Y20835D1*
X61356Y20806D1*
X61442D1*
X61500Y20835D1*
X61557Y20892D1*
X61586Y20978D1*
Y21035D1*
X61557Y21122D1*
X61500Y21179D1*
X61442Y21208D1*
X61356D1*
X61771D2*
Y20806D1*
Y21093D2*
X61857Y21179D1*
X61915Y21208D1*
X62000D1*
X62058Y21179D1*
X62087Y21093D1*
Y20806D1*
X62272Y21208D2*
Y20806D1*
Y21093D2*
X62358Y21179D1*
X62416Y21208D1*
X62501D1*
X62559Y21179D1*
X62588Y21093D1*
Y20806D1*
X62773Y21035D2*
X63117D1*
Y21093D1*
X63089Y21151D1*
X63060Y21179D1*
X63002Y21208D1*
X62916D1*
X62859Y21179D1*
X62801Y21122D1*
X62773Y21035D1*
Y20978D1*
X62801Y20892D1*
X62859Y20835D1*
X62916Y20806D1*
X63002D1*
X63060Y20835D1*
X63117Y20892D1*
X63647Y21122D2*
X63590Y21179D1*
X63532Y21208D1*
X63446D1*
X63389Y21179D1*
X63332Y21122D1*
X63302Y21035D1*
Y20978D1*
X63332Y20892D1*
X63389Y20835D1*
X63446Y20806D1*
X63532D1*
X63590Y20835D1*
X63647Y20892D1*
X63919Y21409D2*
Y20921D1*
X63947Y20835D1*
X64005Y20806D1*
X64062D1*
X63833Y21208D2*
X64034D1*
X64247Y21409D2*
X64276Y21380D1*
X64305Y21409D1*
X64276Y21438D1*
X64247Y21409D1*
X64276Y21208D2*
Y20806D1*
X64634Y21208D2*
X64577Y21179D1*
X64519Y21122D1*
X64490Y21035D1*
Y20978D1*
X64519Y20892D1*
X64577Y20835D1*
X64634Y20806D1*
X64720D1*
X64777Y20835D1*
X64835Y20892D1*
X64864Y20978D1*
Y21035D1*
X64835Y21122D1*
X64777Y21179D1*
X64720Y21208D1*
X64634D1*
X65049D2*
Y20806D1*
Y21093D2*
X65135Y21179D1*
X65193Y21208D1*
X65278D1*
X65336Y21179D1*
X65365Y21093D1*
Y20806D1*
X16525Y34928D2*
D66*
Y33923D1*
X16190Y34928D2*
X16860D1*
X17169Y34593D2*
Y33923D1*
Y34306D2*
X17217Y34449D1*
X17312Y34546D1*
X17409Y34593D1*
X17552D1*
X18435D2*
Y33923D1*
Y34449D2*
X18340Y34546D1*
X18243Y34593D1*
X18101D1*
X18005Y34546D1*
X17910Y34449D1*
X17861Y34306D1*
Y34211D1*
X17910Y34067D1*
X18005Y33972D1*
X18101Y33923D1*
X18243D1*
X18340Y33972D1*
X18435Y34067D1*
X18743Y34593D2*
Y33923D1*
Y34402D2*
X18887Y34546D1*
X18983Y34593D1*
X19126D1*
X19222Y34546D1*
X19270Y34402D1*
Y33923D1*
X20105Y34449D2*
X20057Y34546D1*
X19913Y34593D1*
X19770D1*
X19626Y34546D1*
X19578Y34449D1*
X19626Y34354D1*
X19722Y34306D1*
X19961Y34258D1*
X20057Y34211D1*
X20105Y34114D1*
Y34067D1*
X20057Y33972D1*
X19913Y33923D1*
X19770D1*
X19626Y33972D1*
X19578Y34067D1*
X20988Y34449D2*
X20892Y34546D1*
X20796Y34593D1*
X20653D1*
X20557Y34546D1*
X20462Y34449D1*
X20413Y34306D1*
Y34211D1*
X20462Y34067D1*
X20557Y33972D1*
X20653Y33923D1*
X20796D1*
X20892Y33972D1*
X20988Y34067D1*
X21441Y34928D2*
Y34114D1*
X21488Y33972D1*
X21584Y33923D1*
X21679D1*
X21297Y34593D2*
X21632D1*
X21988Y34928D2*
X22036Y34880D1*
X22084Y34928D1*
X22036Y34977D1*
X21988Y34928D1*
X22036Y34593D2*
Y33923D1*
X22393Y34593D2*
Y33588D1*
Y34449D2*
X22489Y34544D1*
X22584Y34593D1*
X22728D1*
X22824Y34544D1*
X22919Y34449D1*
X22968Y34306D1*
Y34210D1*
X22919Y34067D1*
X22824Y33971D1*
X22728Y33923D1*
X22584D1*
X22489Y33971D1*
X22393Y34067D1*
X23420Y34928D2*
Y34114D1*
X23468Y33972D1*
X23564Y33923D1*
X23659D1*
X23277Y34593D2*
X23612D1*
X23968Y34928D2*
X24016Y34880D1*
X24064Y34928D1*
X24016Y34977D1*
X23968Y34928D1*
X24016Y34593D2*
Y33923D1*
X24612Y34593D2*
X24517Y34546D1*
X24421Y34449D1*
X24373Y34306D1*
Y34211D1*
X24421Y34067D1*
X24517Y33972D1*
X24612Y33923D1*
X24755D1*
X24852Y33972D1*
X24947Y34067D1*
X24995Y34211D1*
Y34306D1*
X24947Y34449D1*
X24852Y34546D1*
X24755Y34593D1*
X24612D1*
X25304D2*
Y33923D1*
Y34402D2*
X25448Y34546D1*
X25544Y34593D1*
X25687D1*
X25783Y34546D1*
X25830Y34402D1*
Y33923D1*
X26665Y34449D2*
X26618Y34546D1*
X26474Y34593D1*
X26330D1*
X26187Y34546D1*
X26139Y34449D1*
X26187Y34354D1*
X26283Y34306D1*
X26522Y34258D1*
X26618Y34211D1*
X26665Y34114D1*
Y34067D1*
X26618Y33972D1*
X26474Y33923D1*
X26330D1*
X26187Y33972D1*
X26139Y34067D1*
X14244Y38572D2*
D68*
Y37366D1*
X15048Y38572D2*
Y37366D1*
X14244Y37997D2*
X15048D1*
X15573D2*
X16089D1*
X16261Y38056D1*
X16320Y38113D1*
X16377Y38227D1*
Y38342D1*
X16320Y38456D1*
X16261Y38515D1*
X16089Y38572D1*
X15573D1*
Y37366D1*
X15975Y37997D2*
X16377Y37366D1*
X17820D2*
Y38572D1*
X17361Y37366D1*
X16902Y38572D1*
Y37366D1*
X18344Y38341D2*
X18460Y38399D1*
X18632Y38570D1*
Y37366D1*
X19904Y38170D2*
X19846Y37997D1*
X19732Y37882D1*
X19559Y37825D1*
X19502D1*
X19330Y37882D1*
X19216Y37997D1*
X19157Y38170D1*
Y38227D1*
X19216Y38399D1*
X19330Y38513D1*
X19502Y38570D1*
X19559D1*
X19732Y38513D1*
X19846Y38399D1*
X19904Y38170D1*
Y37882D1*
X19846Y37595D1*
X19732Y37423D1*
X19559Y37366D1*
X19445D1*
X19273Y37423D1*
X19216Y37538D1*
X21176Y38170D2*
X21117Y37997D1*
X21003Y37882D1*
X20831Y37825D1*
X20774D1*
X20601Y37882D1*
X20487Y37997D1*
X20429Y38170D1*
Y38227D1*
X20487Y38399D1*
X20601Y38513D1*
X20774Y38570D1*
X20831D1*
X21003Y38513D1*
X21117Y38399D1*
X21176Y38170D1*
Y37882D1*
X21117Y37595D1*
X21003Y37423D1*
X20831Y37366D1*
X20717D1*
X20544Y37423D1*
X20487Y37538D1*
M02*
